<svg width="550" height="490" viewBox="0 0 550 490" overflow="visible" xmlns="http://www.w3.org/2000/svg">
 <g>
  <title>Froggy</title>
  <path id="svg_2" d="m446.140015,11.12c5.869995,-2.95 12.449982,-4.22 18.949982,-4.78c9.809998,0.43 20.25,3.01 27.230011,10.369999c5.25,5.980001 5.820007,14.580002 4.22998,22.060001c-1.029999,6.849998 -5.569977,12.34 -9.379974,17.860001c8.439972,1.18 18.609985,1.549999 24.209991,8.999996c5.559998,6.290001 3.820007,15.230003 4.039978,22.889999c-0.209961,2.720001 2.320007,4.380005 3.790039,6.330002c4.699951,5.489998 7.839966,12.080002 11.969971,17.989998c4.23999,6.060005 5.700012,13.590004 5.350037,20.889999c3.439941,2.440002 9.029968,4.240005 8.97998,9.270004c-0.549988,4.380005 -4.25,7.399994 -6.929993,10.600006c-3.51001,4.079987 -8.570007,6.119995 -12.929993,9.059998c-4.420044,2.959991 -5.970032,8.509995 -10.140015,11.73999c-5.839996,4.700012 -11.700012,9.910004 -19.059998,12.020004c-2.320007,0.800003 -5.090027,1.220001 -6.450012,3.520004c-3.26001,4.979996 -7.570007,9.099991 -11.779999,13.259995c-7.420013,7.729996 -16.48999,13.559998 -24.910004,20.100006c-3.899994,3.059998 -8.660004,4.649994 -12.910004,7.110001c-2.359985,1.330002 -2.639984,4.279999 -3.329987,6.619995c-1.619995,7.430008 -4.649994,14.479996 -6,21.980011c-0.76001,4.690002 -2.690002,9.069977 -5.029999,13.179993c9.910004,7.200012 14.350006,19.269989 17.069977,30.75c1.960022,9.5 3.430023,19.320007 1.850006,28.98999c-0.859985,8.640015 -4.029999,16.77002 -7.339996,24.710022c-2.959991,6.849976 1.550018,13.859985 5.380005,19.329987c3.940002,4.76001 8.100006,9.329987 11.730011,14.339996c5.220001,5.970001 7.209991,13.799988 9.940002,21.049988c2.139984,6.850006 4.75,13.670013 5.23999,20.890015c-8.970001,0.51001 -16.899994,-4.660004 -24.619995,-8.519989c-3.050018,-1.27002 -5.899994,-4.51001 -9.360016,-3.950012c-2.98999,8.450012 -4.769989,17.76001 -10.509979,24.890015c-4.360016,1.069977 -8.160004,-2.340027 -11.570007,-4.550018c-7.679993,-6.109985 -15.26001,-12.579987 -21,-20.619995c-3.300018,5.700012 -5.529999,11.940002 -8.720001,17.700012c-0.980011,1.97998 -2.98999,3.019989 -4.720001,4.22998c-2.899994,-5.109985 -6.869995,-9.799988 -8.190002,-15.639984c-1.549988,-7.190002 -5.220001,-13.790009 -5.959991,-21.180023c-1.210022,-9.359985 -2.200012,-18.869995 -1.600006,-28.299988c2.549988,-14 17.089996,-21.23999 21.100006,-34.559998c1.289978,-5.23999 1.519989,-10.670013 2.160004,-16c-11.700012,8.48999 -22.830017,18.130005 -36.320007,23.779999c-7.709991,3.110016 -15.459991,6.100006 -23.309998,8.829987c-8.350006,3.080017 -17.350006,3.350006 -26,5.200012c-0.02002,10.190002 1.839996,20.290009 1.880005,30.480011c7.48999,5.449982 17.119995,5.970001 24.919983,10.75c5.839996,3.25 12.100006,5.759979 17.670013,9.48999c8.459991,6.019989 16.859985,12.470001 23.089996,20.890015c1.940002,2.199982 -0.130005,5.209991 -2.240021,6.389984c-6.139984,3.690002 -13.619995,2.269989 -20.419983,2.440002c1.709991,4.640015 3.019989,9.429993 4.709991,14.089996c0.990021,2.890015 2.100006,6.269989 0.399994,9.140015c-1.629974,3.549988 -5.399994,5.769989 -9.259979,5.829987c-5,0.209991 -10.029999,0.299988 -15.02002,-0.160004c-8.22998,-1.149994 -15.099976,-6.119995 -22.25,-9.940002c-5,9.330017 -9.569977,19.050018 -16.649994,27.040009l-3.72998,0c-5.790009,-3.899994 -10.600006,-9.01001 -15.740021,-13.690002c-6.679993,-7.190002 -10.029999,-16.619995 -14.909988,-24.98999c-2.840012,-4.950012 -5.029999,-10.290009 -6.279999,-15.860016c-0.850006,-4.929993 -0.550003,-9.959991 -1.020004,-14.919983c-0.479996,-4.880005 1.889999,-9.430023 2.160004,-14.220001c-2.400009,-4.420013 -6.200012,-7.890015 -8.62001,-12.300018c-3.409988,-6.359985 -5.099991,-13.440002 -6.509995,-20.470001c-3.610001,-0.720001 -7.220001,-1.519989 -10.839996,-2.199982c4.929993,6.019989 12.75,11.190002 12.919998,19.75c0.569992,4.600006 -2.279999,9.23999 -6.650009,10.759979c-4.589996,1.540009 -9.279999,2.880005 -14.079987,3.580017c-11.970001,0.76001 -23.950012,-0.059998 -35.840012,-1.5c3.51001,6.380005 9.419998,11.329987 11.730011,18.359985c1.369995,3.779999 0.25,8.990021 -3.600006,10.850006c-3.080002,1.640015 -6.520004,2.649994 -10.020004,2.649994c-9.660004,0.160004 -19.419998,0.040009 -28.899994,-2.009979c-5.690002,-1.309998 -11.490005,-2.130005 -17.300003,-2.730011c-3.559998,-0.230011 -8.32,0.410004 -9.760002,4.230011c-1.939995,5.97998 -0.32,12.299988 -1.009995,18.440002c-7.100006,0.289978 -14.550003,1.279999 -21.340004,-1.420013c-5.449997,-2.130005 -11.089996,-4.559998 -15.089996,-9.01001c-2.970001,-3.379974 -6.040001,-6.679993 -8.860001,-10.179993c-5.029999,-6.290009 -6.340004,-14.48999 -7.940002,-22.139984c-1.139999,-6.470001 -4.77,-12.080017 -6.619999,-18.320007c-2.48,-8.140015 -6.610001,-16.160004 -13.48,-21.440002c-4.16,-3.26001 -8.32,-6.76001 -13.389999,-8.5c-5.380001,-1.869995 -10.690002,-4.200012 -16.440002,-4.649994c-5.699999,-0.809998 -11.899999,-0.149994 -16.959999,-3.390015l0,-2.130005c2.3,-5.199982 6.63,-9.039978 10.6,-12.949982c5.259999,-5.230011 12.74,-6.920013 19.299999,-9.890015c4.750002,-2.220001 5.840002,-7.889984 8.129999,-12.130005c-6.539999,-1.22998 -15.859999,-1.829987 -17.98,-9.549988c-3.889999,-13.089996 -0.929998,-27.179993 4.58,-39.369995c4.470001,-12.779999 10.67,-24.850006 17.49,-36.520004c9.09,-16.279999 20.330002,-31.330002 33.16,-44.839996c7.660004,-9.01001 16.57,-16.800003 25.410004,-24.610001c9.149994,-8 19.169998,-14.880005 29.020004,-21.960007c9.819992,-5.709991 19.389999,-12.039993 30.069992,-16.069992c4.149994,-1.710007 8.040009,-3.990005 12.240005,-5.590004c14.909988,-5.43 29.869995,-10.730003 44.769989,-16.159996c20.139999,-6.890007 40.020004,-14.850006 60.900009,-19.260002c11.149994,-2.669998 22.669983,-3.040001 34.070007,-3.690002c4.069977,-12.959999 10.949982,-25.059998 19.919983,-35.259998c6.540009,-7.310001 15.470001,-11.73 24.170013,-15.900002c3.160004,-1.509998 6.559998,-2.389999 9.98999,-3.059999c5.399994,-1.25 10.839996,0.809999 15.860016,2.610001c6.819977,2.5 10.379974,9.370001 13.529999,15.42c8.209991,-2.310001 16.759979,-4.209999 25.329987,-3.029999c3.390015,-6.690002 6.5,-13.900002 12.380005,-18.840002c4.320007,-3.68 8.029999,-8.23 13.200012,-10.78z" fill="#000000"/>
  <path id="svg_3" d="m453.130005,14.07c8.5,-3.469999 18.449982,-4.66 27.139984,-1.27c5.779999,3.3 12.150024,7.909999 13.130005,15.009999c1.26001,5.410002 -0.679993,10.859999 -2.899994,15.74c-3.269989,7 -9.390015,12.02 -13.480011,18.48c0.240021,0.380001 0.720001,1.16 0.960022,1.550003c6.679993,-2.330002 14.470001,-4.360001 21.059998,-0.650002c8.069977,3.879997 12.769989,13.050003 11.470001,21.860001c-4.540009,-1.93 -7.740021,-5.830002 -11.809998,-8.5c-4.210022,-2.879997 -9,-4.82 -13.930023,-6.080002c4.620026,5.540001 11.420013,8.5 16.52002,13.5c3.970001,3.720001 7.23999,8.090004 10.949982,12.059998c7.929993,8.630005 14.809998,18.600006 18.090027,29.960007c0.75,3.919991 1.889954,9.019997 -1.559998,12.010002c-4.400024,4.029999 -9.429993,7.339996 -14.550049,10.389999c-2.919983,1.889999 -7.349976,2.119995 -8.589966,5.87999c2.869995,-0.119995 5.859985,-0.429993 8.330017,-2.049988c6.899963,-4.280014 13.609985,-8.950012 19.380005,-14.690002c2.459961,1.720001 7.519958,2.619995 6.539978,6.529999c-1.400024,5.319992 -6.130005,8.729996 -10.400024,11.73999c-11.299988,7.530014 -24.179993,12.460007 -37.299988,15.770004c-6.350006,1.740005 -12.320007,4.639999 -18.699982,6.26001c-7.589996,2.179993 -15.570007,1.73999 -23.339996,2.759995c-9,1.199997 -18.090027,0.470001 -27.130005,0.720001c-8.76001,0.23999 -17.480011,-1.380005 -25.75,-4.199997c-6.27002,-2.130005 -12.800018,-3.940002 -18.25,-7.87001c-12.02002,-8.349991 -24.890015,-17.279999 -30.940002,-31.139999c-1.540009,-2.899994 0.579987,-6.360001 3.570007,-7.119995c4.069977,-1.160004 8.859985,-1.020004 11.799988,-4.580002c-6.190002,0.120003 -12.320007,1.120003 -18.470001,1.809998c-9.829987,0.410004 -15.959991,9.029999 -24.360016,12.710007c-5.849976,1.550003 -12.349976,-2.150009 -14.47998,-7.740005c-4.029999,-7.970001 -1.950012,-17.369995 1.970001,-24.949997c-0.920013,-0.43 -1.880005,-0.760002 -2.860016,-0.989998c-1.880005,5.349998 -4.009979,10.68 -4.899994,16.309998c-0.669983,4.859993 1.630005,9.469994 3.700012,13.719994c2.73999,6.660004 11.160004,8.76001 17.639984,7.570007c5.25,-2.509995 9.410004,-6.779999 14.160004,-10.100006c5.839996,8.860001 13.970001,15.820007 21.410004,23.270004c6.429993,6.449997 14.320007,11.210007 22.100006,15.839996c6.320007,3.839996 13.48999,5.720001 20.570007,7.550003c4.699982,1.180008 9.199982,3.199997 14.049988,3.710007c22.630005,1.389999 45.820007,0.679993 67.559998,-6.350006c6.619995,-2.5 13.380005,-4.610001 20.130005,-6.759995c4.459991,-1.360001 9.100006,-2.860001 13.829987,-2c-5.779999,5.299988 -13.099976,8.389999 -20.139984,11.599991c-3.25,1.529999 -7.119995,2.570007 -9.179993,5.76001c-5.670013,9.110001 -13.690002,16.529999 -22.310028,22.819992c-4.079987,3.290009 -7.869995,7.009995 -12.509979,9.550003c-4.490021,2.419998 -8.26001,6.229996 -13.290009,7.580002c-9.940002,2.830002 -19.809998,6.119995 -30.079987,7.580002c-9.040009,0.849991 -17.820007,3.779999 -26.970001,3.459991c-11.029999,0.51001 -21.820007,-2.98999 -32.839996,-1.929993c0,0.660004 0.009979,1.970001 0.009979,2.62999c7.029999,-0.110001 13.990021,0.810013 20.920013,1.910004c11.149994,0.460007 22.359985,2.430008 33.5,0.790009c10.579987,-2.310013 20.949982,-5.470001 31.339996,-8.480011c-2.929993,10.190002 -4.399994,20.919998 -9.350006,30.419998c-4.329987,9.640015 -9.079987,19.170013 -15.419983,27.660004c-5.970001,8.890015 -12.610016,17.330017 -19.920013,25.160004c-8.369995,7.75 -16.670013,15.880005 -26.850006,21.269989c-11.559998,6.300018 -23.299988,12.820007 -36.290009,15.589996c-7.869995,1.910004 -15.769989,4.200012 -23.909973,4.540009c-1.840027,-1.22998 -1.100006,-3.759979 -1.220001,-5.619995c1.359985,-16.209991 7.329987,-31.549988 13.799988,-46.320007c3.649994,-7.459991 8.230011,-14.549988 10.519989,-22.609985c-1.429993,-0.050018 -2.869995,-0.100006 -4.299988,-0.140015c-3.51001,9.779999 -8.399994,18.970001 -12.549988,28.480011c-6.029999,13.410004 -10.790009,27.720001 -11.430023,42.519989c-0.119995,12.040009 0.040009,24.080017 0.029999,36.110016c0.230011,2.880005 -1.409973,5.299988 -2.970001,7.549988c8.960022,1.209991 16.5,6.540009 24.970001,9.26001c4.880005,1.619995 9.440002,4.059998 14.360016,5.549988c3.570007,1.140015 7.410004,2.190002 10.079987,5.01001c3.070007,3.26001 5.809998,6.940002 9.690002,9.329987c4.300018,2.720001 7.820007,6.420013 11.100006,10.27002c-7.26001,2.190002 -15.190002,2.459991 -22.399994,-0.040009c-3.230011,-1.709991 -4.559998,-5.440002 -6.420013,-8.369995c-1.049988,0.859985 -3.059998,1.449982 -2.319977,3.190002c2.079987,5.199982 6.319977,9.199982 8.629974,14.299988c2.990021,6.390015 6.240021,13.380005 5.040009,20.610016c-2.070007,2.639984 -5.829987,2.339996 -8.820007,2.449982c-5.269989,0.160004 -9.949982,-2.5 -14.609985,-4.579987c-6.860016,-3.240021 -13.940002,-6.02002 -20.550018,-9.75c-5.709991,8.790009 -6.98999,19.940002 -14.019989,27.940002c-1.130005,1.029999 -2.630005,3.019989 -4.279999,1.75c-14.019989,-9.059998 -21.98999,-24.27002 -29.339996,-38.720001c-1.190002,-2.360016 -1.020004,-5.059998 -0.990005,-7.610016c0.309998,-7.529999 -1.729996,-14.910004 -1.62999,-22.419983c0.259995,-3.680023 2.119995,-6.980011 3.459991,-10.339996c-9.020004,-7.950012 -13.069992,-20.100006 -14.720001,-31.690002c-0.720001,-9.820007 -0.619995,-19.76001 1.100006,-29.480011c1.949997,-10.540009 2.059998,-21.570007 6.410004,-31.540009c4.87999,-10.559998 10.019989,-21.279999 18.039978,-29.880005c3.230011,-3.709991 7.430023,-7.049988 8.410004,-12.159973c-5.410004,1.47998 -8.759979,6.269989 -12.309998,10.22998c-5.940002,7.710022 -10.929993,16.140015 -15.119995,24.920013c-2.839996,5.880005 -6.319992,11.529999 -8.050003,17.880005c-2.079987,7.619995 -4.819992,15.220001 -4.73999,23.220001c0.050003,7.299988 -0.949997,14.539978 -1.220001,21.819977c-7.720001,-0.949982 -15.919998,-0.709991 -22.880005,-4.709991c-17.619995,-8.980011 -37.639999,-10.279999 -56.830002,-13.320007c4.470001,-4.130005 9.650009,-7.380005 14.090012,-11.529999c10.009995,-8.959991 19.23999,-18.809998 27.569992,-29.359985c4.940002,-6 8.350006,-13.029999 12.5,-19.559998c6.119995,-10.690002 11.910004,-22.02002 13.5,-34.390015c0.75,-10.349991 0.649994,-21.279999 -3.830002,-30.849991c-7.919998,-12.270004 -20.610001,-21.150009 -34.479996,-25.470001c-8.290009,-2.610001 -16.919998,-0.729996 -25.360001,-0.300003c-12.190002,0.889999 -23.690002,5.440002 -34.93,9.919998c-9.840004,3.75 -18.349998,10.080002 -27,15.949997c-9.739998,6.779999 -17.349998,15.980011 -25.910004,24.100006c-4.539993,4.270004 -7.739998,9.679993 -11.499996,14.600006c-3.02,4 -5.869999,8.429993 -6.060001,13.609985c1.060001,-0.829987 2.290001,-1.48999 3.120003,-2.579987c4.859997,-6.529999 8.540001,-13.910004 14,-20c6.860001,-7.830002 15.080002,-14.270004 22.729996,-21.279999c10.360001,-9.820007 23.510002,-15.820007 36.240005,-21.920013c12.529999,-5.869995 26.509995,-7.549988 40.199997,-7.729996c5.779999,-0.009995 11.770004,-0.399994 17.259995,1.740005c5.340012,2.020004 10.740005,4.229996 15.180008,7.910004c4.73999,3.869995 9.639999,8.019989 12.039993,13.829987c2.880005,6.820007 5.970001,14.110001 4.900009,21.690002c-1.419998,13.059998 -7.630005,24.980011 -13.889999,36.309998c-2.150009,4.080017 -4.37001,8.160004 -7.240005,11.790009c-4.600006,5.790009 -7.889999,12.540009 -13.029999,17.910004c-4.899994,5.130005 -9.540009,10.5 -14.029999,15.98999c-4.309998,5.480011 -10.470001,8.950012 -16.070007,12.910004c-5.869995,3.339996 -11.979996,6.290009 -18.199997,8.929993c-6.270004,2.700012 -13.18,3.130005 -19.919998,3.100006c-5.730003,-0.019989 -11.769997,0.529999 -17.110001,-1.980011c-3.760002,-1.759979 -7.229996,-4.169983 -11.260002,-5.319977c1.5,4.209991 5.580002,6.47998 9.470001,8.109985c5.590004,2.350006 11.760002,1.970001 17.669998,2.529999c6.850006,0.800018 13.709999,-0.299988 20.519997,-1.059998c6.960007,-0.829987 13.600006,-4.019989 20.75,-3.220001c9.210007,0.850006 18.480011,1.850006 27.430008,4.300018c5.369995,1.339996 10.899994,2.079987 16.100006,4.019989c8.529999,3.100006 16.669998,7.48999 23.589996,13.389984c4.199997,3.75 7.800003,8.640015 8.779999,14.290009c0.599991,2.830017 -2.279999,4.339996 -4.290009,5.550018c-7.729996,4.539978 -16.959991,4.629974 -25.639999,4.329987c-8.659988,-0.519989 -17.429993,-0.299988 -25.970001,-1.950012c-4.789993,-0.759979 -9.469986,-3.599976 -14.399994,-2.190002c4.369995,4.570007 10.389999,7.150024 14.570007,11.920013c4.199997,4.709991 7.399994,10.23999 10.110001,15.910004c1.209991,2.220001 -0.070007,5.399994 -2.5,6.130005c-4.690002,1.73999 -9.810013,1.309998 -14.690002,0.889984c-7.950012,-0.919983 -16,-0.880005 -23.900009,-2.289978c-6.800003,-1.300018 -12.849991,-6.060028 -20.029999,-5.27002c-4.360001,0.380005 -7.699997,3.929993 -9.279999,7.800018c-2.709999,5.720001 -1.779999,12.209991 -2,18.319977c-7.699997,0.230011 -14.470001,-3.769989 -21.07,-7.169983c-3.330002,-1.869995 -7.010002,-3.420013 -9.519997,-6.410004c-3.43,-4.190002 -6.270004,-8.920013 -7.919998,-14.100006c-2.520004,-7.809998 -6.110001,-15.309998 -7.540001,-23.449982c-1.190002,-6.890015 -3.960003,-13.430023 -7.800003,-19.26001c-4.639999,-7.550018 -11.84,-13 -19.060001,-17.899994c-10.789999,-6.339996 -23.839998,-6.080017 -35.379998,-10.309998c2.06,-4.870026 7.18,-7.029999 11.28,-9.850006c4.4,-2.940002 9.49,-4.470001 14.26,-6.649994c2.820002,-1.090027 4.26,-3.890015 5.730001,-6.320007c8.709999,-15.890015 21.719997,-28.880005 35.32,-40.630005c14.139999,-12.579987 31.010002,-21.399994 47.479996,-30.470001c8.580002,-4.119995 16.460007,-10.020004 25.940002,-11.979996c3.430008,-0.690002 7.5,-0.970001 8.839996,-4.830002c-4.849991,-1.5 -9.550003,0.929993 -13.98999,2.599991c-5.550003,2.360001 -11.139999,4.62001 -16.530006,7.330002c-6.419998,3.240005 -13.330002,5.589996 -19.159996,9.920013c-6.240005,4.609985 -13.260002,7.97998 -19.770004,12.190002c-11.159996,7.220001 -22.779999,14.349976 -31.329998,24.73999c-3.850002,4.190002 -6.830002,9.100006 -10.709999,13.26001c-3.820004,4.049988 -10.41,3.299988 -14.900002,0.879974c-4.200001,-3.259979 -5.290001,-9.019989 -5.880001,-14.009979c-0.109999,-8.77002 2.040001,-17.429993 5.09,-25.610016c3.990002,-12.109985 9.630001,-23.639984 16.48,-34.37999c3.09,-5.5 6.32,-10.910004 9.920002,-16.089996c2.549999,-3.650009 4.34,-8.070007 7.989998,-10.800003c3.390003,-0.720001 6.890003,0.149994 10.320004,0.080002c9.43,0.520004 18.419998,-3.139999 26.669998,-7.309998c10.080002,-5.400009 19.220001,-13.37001 24.279999,-23.779999c3.660004,-6.880005 8.989998,-13.730011 8.140007,-21.990005c0.119995,-3.290009 -2.980011,-5.110001 -5.060005,-7.119995c12.519997,-9.860001 27.099998,-16.5 41.269997,-23.560005c9.619995,-3.5 18.389999,-9.050003 28.410004,-11.470001c1.720001,5.400002 4.199997,11.230003 9.559998,13.909996c7.589996,3.550003 16.290009,3.830002 24.490005,2.949997c8.550003,-1.409988 17.259995,-2.309998 25.409988,-5.439995c9.630005,-3.57 19.490021,-7.029999 27.899994,-13.089996c4.25,-2.370003 8.810028,-6.529999 7.740021,-11.919998c-1.920013,-6.590004 -8.480011,-10.520004 -14.860016,-11.880005c5.610016,-1.629997 11.080017,-4.099998 16.990021,-4.349998c7.359985,-0.239998 14.940002,-0.529999 21.97998,2.019997c3.429993,-13.479996 9.369995,-26.799995 19.490021,-36.609997c8.199982,-8.740002 17.639984,-17.240002 29.459991,-20.49c6.429993,-1.940001 13.679993,-0.74 19.209991,3.039999c4.360016,3.34 6.959991,8.52 8.23999,13.760002c1.540009,6.349998 0.310028,12.899998 -0.359985,19.269997c0.75,-0.029999 2.26001,-0.089996 3.019989,-0.119995c1.309998,-5.870003 2.070007,-11.890003 1.580017,-17.910004c6.259979,-2.049999 12.759979,-3.579998 19.369995,-3.779999c3.149994,-0.080002 5.369995,2.509998 7.660004,4.279999c3.059998,-6.59 4.850006,-13.809998 9.199982,-19.759998c5.290009,-7.210001 12.720001,-12.990002 21.330017,-15.630001z" fill="#4e8756"/>
  <path id="svg_4" d="m463.140015,28.25c4.899994,-2.540001 10.559998,-0.75 15.25,1.4c2.689972,1.220001 5.639984,2.519999 6.949982,5.390001c-2.480011,-0.170002 -5.049988,-0.48 -7.109985,-1.98c-1.75,-1.840002 -3.01001,0.489998 -1.350006,1.829998c2.799988,4.869999 2.269989,10.75 2.130005,16.139999c-0.230011,6.210003 -5.180023,10.710003 -9.450012,14.610001c-2.859985,2.639999 -7.169983,5.230003 -10.980011,2.889999c-4.669983,-3.260002 -9.319977,-7.139999 -11.720001,-12.439999c-1.879974,-3.849998 -0.289978,-8.200001 1.450012,-11.779999c3.360016,-6.530003 8.26001,-12.580002 14.830017,-16.060001z" fill="#000000"/>
  <path id="svg_5" d="m464.160004,31.5c3.949982,-0.030001 7.699982,2.169998 9.649994,5.59c3.360016,6.560001 3.290009,14.630001 -0.269989,21.09c-0.450012,-3.260002 -0.380005,-6.75 -2,-9.709999c-3.029999,-3.760002 -9.140015,-3.670002 -12.600006,-0.560001c-2.690002,2.700001 -4.630005,6.009998 -6.549988,9.27c-1.27002,-1.630001 -3.310028,-3.029999 -3.360016,-5.290001c-0.130005,-3.93 2.089996,-7.43 4.299988,-10.5c2.950012,-3.899998 6.080017,-8.139999 10.830017,-9.889999z" fill="#fafafa"/>
  <path id="svg_6" d="m476.880005,34.889999c-1.660004,-1.34 -0.399994,-3.67 1.350006,-1.829998c-0.339996,0.459999 -1.01001,1.369999 -1.350006,1.829998z" fill="#cbcbcb"/>
  <path id="svg_7" d="m364,53.040001c5.619995,-3.98 11.369995,-9.57 18.790009,-8.93c2.669983,0.099998 4.029999,2.459999 4.73999,4.720001c-3.600006,-1.440002 -7.589996,-2.540001 -11.149994,-0.34c3.199982,2.459999 6.910004,4.879997 8.190002,8.949997c2.669983,7.610004 1.419983,15.939999 -0.550018,23.570004c-1.410004,6.299995 -6.559998,11.079994 -12.129974,13.909996c-7.380005,3.150002 -16.070007,0.18 -21.650024,-5.129997c-1.380005,-1.18 -1.299988,-3.129997 -1.359985,-4.779999c-0.070007,-7.110001 3.639984,-13.410004 6.279999,-19.790001c1.910004,-4.700001 4.559998,-9.260002 8.839996,-12.18z" fill="#000000"/>
  <path id="svg_8" d="m355.609985,71.610001c2.460022,-8.880001 9.02002,-16.450001 17.470001,-20.100002c2.560028,0.300003 5.26001,1.470001 6.580017,3.810001c4.579987,7.990002 4.079987,17.970001 1.040009,26.400002c-0.76001,2.449997 -2.380005,4.479996 -4.340027,6.080002c1.930023,-5.080002 3.51001,-10.68 1.890015,-16.07c-2.320007,-3.760002 -7.619995,-5.480003 -11.440002,-2.910004c-3.459991,2.449997 -6.829987,5.290001 -9,8.970001c-1.600006,4.029999 -1.519989,8.489998 -2.440002,12.699997c-4.399994,-5.489998 -1.660004,-12.949997 0.23999,-18.879997z" fill="#f9f9f9"/>
  <path id="svg_9" d="m260.359985,93.400002c8.180023,-1.25 17.150024,-0.620003 24.230011,4.010002c2.100006,2.139999 4.369995,5.689995 2.5,8.629997c-1.079987,2.139999 -2.589996,4.089996 -4.519989,5.529999c-8.839996,5.940002 -18.660004,10.25 -28.890015,13.18c-9.369995,3.910004 -19.609985,4.660004 -29.62999,5.279999c-6.029999,0.180008 -12.389999,-0.209991 -17.809998,-3.129997c-4.040009,-2.120003 -6.639999,-6.5 -6.960007,-11c-0.289993,-1.650002 1.520004,-2.270004 2.619995,-2.980003c4.12001,-2.089996 8.440002,-3.759995 12.820007,-5.25c6.649994,-2.199997 12.830002,-5.720001 19.709991,-7.25c8.740005,-1.959999 17.150009,-5.189995 25.929993,-7.019997z" fill="#748756"/>
  <path id="svg_10" d="m178.460007,132.410004c5.860001,-0.279999 12.089996,0.139999 17.419998,2.779999c6.169998,3.270004 4.360001,12.509995 -0.62001,16.029999c-5.929993,4.289993 -12.099991,8.380005 -18.860001,11.25c-6.360001,2.770004 -12.599991,6.209991 -19.529999,7.319992c-4.759995,0.740005 -9.049988,-2.469986 -11.199997,-6.48999c-2.479996,-3.529999 -1.639999,-8.110001 -0.380005,-11.930008c1.040009,-3.049988 3.780014,-4.98999 6.190002,-6.919998c7.860001,-6.020004 16.930008,-11.190002 26.980011,-12.039993z" fill="#000000"/>
  <path id="svg_11" d="m173.460007,135.539993c6.23999,-1.169998 13.029999,-1.289993 19.039993,0.970001c3.809998,1.220001 6.110001,6.240005 3.669998,9.630005c-6.809998,7.289993 -15.919998,11.740005 -24.709991,16.160004c-5.960007,1.789993 -11.840012,5.589996 -18.26001,4.5c-4.639999,-0.660004 -6.369995,-5.800003 -6.889999,-9.820007c0.300003,-5.069992 4.51001,-8.559998 8.080002,-11.619995c5.389999,-4.839996 12.139999,-7.910004 19.070007,-9.820007z" fill="#748756"/>
  <path id="svg_12" d="m202.860001,158.869995c4.809998,-7.349991 12.869995,-11.769989 21.309998,-13.509995c3.259995,-0.210007 6.610001,0.559998 9.520004,2.029999c2.389999,1.350006 2.529999,4.949997 0.630005,6.800003c-3.590012,3.98999 -8.740005,7.050003 -14.26001,6.860001c-5.259995,0.089996 -10.509995,-0.089996 -15.770004,-0.25c-0.349991,-0.479996 -1.069992,-1.449997 -1.429993,-1.930008z" fill="#010101"/>
  <path id="svg_13" d="m278.339996,147.300003c5.230011,-1.029999 10.959991,-0.339996 15.160004,3.160004c5.130005,3.089996 7.799988,9.959991 5.559998,15.589996c-2.919983,4.839996 -9.76001,5.73999 -14.649994,3.610001c-4.76001,-2.150009 -9.100006,-5.220001 -14.149994,-6.75c-2.450012,-0.980011 -6.27002,-1.570007 -6.160004,-4.980011c1.160004,-6.539993 8.369995,-9.609985 14.23999,-10.62999z" fill="#000000"/>
  <path id="svg_14" d="m214.259995,151.279999c6.020004,-2.770004 13.040009,-3.160004 19.360001,-1.190002c-1.889999,4.180008 -5.75,7.290009 -10.159988,8.480011c-5.75,1.609985 -11.830002,1.37999 -17.690002,0.539993c2.479996,-2.930008 4.919998,-6.169998 8.48999,-7.830002z" fill="#748756"/>
  <path id="svg_15" d="m276.200012,150.309998c4.459991,-0.789993 9.419983,-1.559998 13.579987,0.770004c4.950012,2.380005 7.910004,8.179993 7.089996,13.569992c-2.079987,2.5 -5.429993,4.139999 -8.699982,3.930008c-3.320007,-0.830002 -5.920013,-3.220001 -8.810028,-4.919998c-3.879974,-2.550003 -8.459991,-3.570007 -12.829987,-4.949997c1.110016,-4.530014 5.200012,-7.610001 9.670013,-8.400009z" fill="#748756"/>
  <path id="svg_16" d="m102.160004,168.130005c6.119995,-4.650009 12.049995,-9.800003 19.149994,-12.910004c2.610001,-1.220001 5.370003,0.050003 7.930008,0.699997c-0.180008,10.529999 -5.650009,20.150009 -12.010002,28.229996c-4.340004,7.279999 -11.510002,12.100006 -18.43,16.670013c-4.770004,3.099991 -10.360001,4.459991 -15.600006,6.529999c-5.909996,2.399994 -12.549995,2.259995 -18.629997,0.62999c2.059998,-4.759995 5.400002,-8.75 9.18,-12.229996c4.480003,-4.199997 7.82,-9.5 12.68,-13.320007c5.610001,-4.369995 10.029999,-10.039993 15.730003,-14.299988z" fill="#748756"/>
  <path id="svg_17" d="m318.540009,217.460007c-0.990021,-2.650009 0.679993,-5.030014 2.299988,-6.970001c1.720001,5.830002 1.600006,12.349991 5.170013,17.519989c7.429993,10.930008 19.73999,17.680008 32.399994,20.62001c5.919983,1.5 12.130005,0.429993 18.059998,1.909988c-7.040009,0.710007 -14.190002,0.830002 -21.230011,0.080002c-10.25,-2.110001 -19.539978,-7.649994 -27.339996,-14.48999c-4.910004,-5.080002 -7.299988,-12.050003 -9.359985,-18.669998z" fill="#000000"/>
  <path id="svg_18" d="m422.269989,277.790009c8.589996,5.199982 12.900024,14.919983 15.890015,24.100006c2.919983,8.75 1.660004,18.089996 1.949982,27.139984c0.140015,11.540009 -5.469971,22.110016 -12.319977,31.029999c1.609985,2.700012 3.389984,5.309998 5.449982,7.690002c3.210022,3.670013 5.119995,8.220001 7.830017,12.230011c4.669983,6.97998 9.089996,14.119995 13.779999,21.079987c4.829987,8.119995 8.630005,16.920013 10.940002,26.089996c-11.210022,-1.48999 -21.279999,-7.369995 -30.420013,-13.660004c-0.699982,-3.220001 -0.470001,-6.539978 -0.679993,-9.799988c-4.100006,5.339996 -1.970001,12.350006 -3.470001,18.450012c-1.549988,6.679993 -4.700012,12.829987 -7.380005,19.099976c-4.429993,-2.470001 -8.369995,-5.669983 -12.470001,-8.639984c-4.220001,-3.080017 -7.299988,-7.369995 -10.72998,-11.240021c-1.830017,-2.25 -4.050018,-4.48999 -4.600006,-7.449982c-0.050018,-2.899994 1,-5.660004 1.589996,-8.459991c-3.860016,1.309998 -4.850006,5.539978 -6.380005,8.829987c-2.700012,7.25 -7.600006,13.350006 -10.670013,20.420013c-0.299988,0.009979 -0.899994,0.039978 -1.209991,0.059998c-6.809998,-13.170013 -11,-27.77002 -11.73999,-42.600006c-0.25,-3.880005 1.160004,-7.559998 1.859985,-11.309998c0.910004,-4.589996 1.460022,-9.399994 3.950012,-13.459991c3.889984,-6.310028 8.899994,-11.840027 12.899994,-18.070007c2.779999,-4.25 3.200012,-9.420013 3.690002,-14.320007c0.549988,-7.589996 4.890015,-14.100006 8.390015,-20.609985c8.269989,-11.990021 16.169983,-24.230011 23.849976,-36.600006z" fill="#31763b"/>
 </g>
</svg>