<?xml version="1.0" encoding="utf-8"?>
<!-- Generator: Adobe Illustrator 12.0.0, SVG Export Plug-In . SVG Version: 6.00 Build 51448)  -->
<!DOCTYPE svg PUBLIC "-//W3C//DTD SVG 1.1//EN" "http://www.w3.org/Graphics/SVG/1.1/DTD/svg11.dtd" >
<svg  version="1.1" id="Layer_1" xmlns="http://www.w3.org/2000/svg" xmlns:xlink="http://www.w3.org/1999/xlink" width="425.197" height="332"
	 viewBox="0 0 425.197 332" overflow="visible" enable-background="new 0 0 425.197 332" xml:space="preserve">
<g>
	<path fill="#5A3D1C" d="M313.489,199.794c2.709-5.091,4.987-9.537,3.875-15.236c-1.585-8.12-0.776-16.677-2.847-24.641
		c-0.793-3.05-2.863-6.216-2.166-9.411c1.408-6.463,1.621-12.829,0.466-19.377c-0.594-2.833-2.117-5.803-1.218-8.424
		c0.872-2.545,1.06-5.131,1.06-7.82c0-3.21-0.603-6.606-2.07-9.487c-0.767-1.501-2.971-6.169-4.725-6.07
		c-0.035-2.42-0.169-4.845-0.711-7.207c-0.498-2.049-1.291-3.993-2.624-5.643c-0.484-0.599-1.894-1.4-2.154-2.041
		c-0.267-0.651,0.283-2.505,0.334-3.257c0.259-3.895-0.011-9.284-3.338-11.912c-4.181-3.304-9.918-0.749-14.265,0.802
		c-5.063,1.809-9.78,4.54-14.179,7.593c-5.908,4.231-11.947,8.813-16.593,14.456c0.029,0,0.067,0.002,0.1,0.002
		c-0.082,0.038-0.168,0.074-0.216,0.125c-1.092,1.221-2.147,2.428-3.151,3.721c-2.169,2.795-3.759,4.999-6.235,7.482
		c-1.393,1.395-4.108,7.972-5.034,8.501c-16.271,9.298-34.295,16.062-51.71,22.814c-19.169,7.436-38.716,14.398-58.613,19.652
		c-11.43,3.018-36.997,8.46-40.347-9.226c-2.742,1.483-5.328,9.027-6.523,11.833c-1.645,3.868-2.96,7.85-4.119,11.883
		c-0.459,0.285-0.644,0.929-1.02,2.364c-0.456,1.734-0.947,3.512-1.207,5.285c-2.968,20.226,3.798,40.068,17.643,55.06
		c4.342,4.702,10.203,7.6,14.642,11.979c4.353,4.292,8.116,8.223,13.754,10.929c7.987,3.831,16.393,6.771,25.03,8.736
		c2.571,0.587,5.189,0.993,7.809,1.281c1.425,0.158,2.85,0.277,4.281,0.357c1.865,0.1,1.795,0.95,2.245,2.757
		c1.491,5.98,1.875,11.86,1.335,17.99c0.112,0.035,0.188,0.03,0.285,0.05c-0.756,0.481-0.636,2.075-0.795,3.084
		c-0.079,0.503-3.502-0.165-4.427-0.11c-4.129,0.243-8.248,0.532-12.372,0.851c-5.819,0.447-14.984-0.117-19.608,4.027
		c-3.75,3.362-8.195,9.843-2.903,14.196c4.779,3.936,15.742-0.191,21.135-1.067c-2.685,3.019-4.834,7.08-2.37,10.612
		c1.778,2.55,6.248,2.928,9.323,1.762c3.199-1.212,5.904-1.893,8.494-4.413c1.721-1.675,3.337-6.404,5.452-7.129
		c-0.086,5.468,0.23,10.769,5.432,13.998c3.957,2.457,9.125,1.768,10.172-3.305c1.248-6.046-1.117-12.568,0.633-18.457
		c0.635-2.142,2.064-4.399,2.606-6.712c0.566-2.412-1.641-5.256-2.45-7.387c-2.771-6.24-0.575-14.1-0.473-20.633
		c0.645,0.027,1.291,0.054,1.935,0.078c-0.29,3.284,2.656,7.207,3.49,10.371c0.531,2.012,0.918,4.037,1.239,6.094
		c0.25,1.604,0.477,3.651,1.895,4.065c-0.236,0.011-0.474,0.024-0.698,0.024c0.594,1.562,1.376,3.028,1.659,4.755
		c0.475,2.885-0.646,5.389,0.633,8.276c1.193,2.696,3.683,5.201,5.439,7.746c1.957,2.839,3.682,5.887,6.018,8.432
		c2.052,2.232,9.169,6.732,12.405,4.038c1.026-0.854,1.705-1.551,2.25-2.853c1.253-2.985-0.985-6.049-2.923-8.334
		c1.414,0.134,2.864-0.161,4.107,0.158c1.255,0.32,2.821,1.259,4.065,1.79c2.76,1.183,5.776,1.954,8.718,2.525
		c4.495,0.877,12.601,2.338,16.829-0.079c3.378-1.929,7.024-3.839,6.142-8.436c-1.037-5.392-8.082-5.809-12.444-7.01
		c3.026-0.563,5.23-1.91,4.742-5.345c-0.279-1.949-1.856-3.507-3.301-4.733c-0.624-0.531-1.339-0.796-2.098-0.932h0.774
		c-5.469-3.716-12.47-1.196-18.329,0h8.853c-0.021,0.002-0.041,0.006-0.064,0.011c-4.769,0.028-9.449,0.147-14.241,0.722
		c-2.783,0.335-5.571,0.586-8.365,0.798c-0.696,0.052-1.838,0.307-2.421-0.024c-0.641-0.366-0.756-1.016-1.176-1.367
		c-0.008-0.035-0.018-0.068-0.028-0.1c0.086-0.013,0.169-0.018,0.257-0.039c-1.392-3.637-2.132-7.014-2.371-10.896
		c-0.096-1.564-0.749-10.457,0.63-10.634c8.399-1.087,16.715-2.544,25.169-3.212c4.117-0.324,8.276-0.027,12.127-1.376
		c3.385-1.186,7.405-1.05,10.944-1.94c14.482-3.647,29.464-14.458,39.189-25.715c5.413-6.273,10.655-12.749,15.46-19.5
		C307.73,209.445,310.807,204.836,313.489,199.794z"/>
	<g>
		<path fill="none" d="M397.525,207.419c0.588,0,1.176,0,1.765,0c-0.842,0-1.466-0.115-1.976-0.316
			C397.383,207.21,397.457,207.313,397.525,207.419z"/>
		<path fill="none" d="M405.889,275.816c0.675-0.55,1.343-1.102,2.014-1.646c0.21-0.173,0.458-0.45,0.729-0.77
			C407.662,273.992,406.764,274.861,405.889,275.816z"/>
		<path fill="none" d="M323.479,209.042c-0.644-0.618-1.556-1.029-2.401-1.442c0.014,0.016,0.03,0.035,0.044,0.051
			C321.857,207.934,322.944,208.729,323.479,209.042z"/>
		<path fill="none" d="M248.621,142.184c0.009-0.047,0.03-0.102,0.033-0.147c0.05-0.53-0.077-0.939-0.3-1.306
			C248.479,141.203,248.567,141.687,248.621,142.184z"/>
		<path fill="none" d="M312.695,202.112C312.61,202.37,312.696,202.103,312.695,202.112L312.695,202.112z"/>
		<path fill="none" d="M332.423,212.732c-0.444,0.481-0.864,0.873-1.123,1.062c0.134,0.088,0.262,0.174,0.396,0.262
			c0.348-0.394,0.712-0.747,0.712-1.19C332.407,212.821,332.423,212.772,332.423,212.732z"/>
		<path fill="none" d="M363.717,281.942c-0.115-0.083-0.213-0.183-0.32-0.272C363.44,281.8,363.548,281.874,363.717,281.942z"/>
		<path fill="none" d="M333.79,208.765c0.028,0.009,0.044,0.024,0.071,0.036c0.014-0.024,0.033-0.05,0.049-0.071
			C333.869,208.74,333.831,208.754,333.79,208.765z"/>
		<path fill="none" d="M358.126,185.836c-0.079,0.07-0.169,0.156-0.27,0.261c0.13-0.046,0.259-0.09,0.389-0.13
			C358.208,185.92,358.155,185.884,358.126,185.836z"/>
		<path fill="none" d="M243.718,235.655c-0.33-0.185-0.586-0.481-1.068-0.515C243.006,235.313,243.355,235.494,243.718,235.655z"/>
		<path fill="none" d="M272.146,215.867c0.237,0.845,0.346,1.733,0.411,2.877c0.805-0.839,1.682-1.788,2.575-2.811
			c-0.142,0.045-0.28,0.1-0.422,0.138C273.933,216.284,272.915,216.222,272.146,215.867z"/>
		<path fill="none" d="M25.054,225.561c-0.386-0.214-0.836-0.444-1.305-0.697c0.704,0.475,1.483,0.905,2.271,1.278
			C25.713,225.944,25.395,225.749,25.054,225.561z"/>
		<path fill="none" d="M54.802,290.464c-0.24-0.046-0.467-0.092-0.7-0.139c0.117,0.316,0.187,0.657,0.222,1.022
			C54.456,291.051,54.607,290.756,54.802,290.464z"/>
		<path fill="none" d="M43.082,285.142c0.312,0.084,0.622,0.171,0.935,0.255c-1.219,0-2.502,0.088-3.785,0.122
			c2.076,0.11,4.162,0.292,6.255,0.513C45.376,285.722,44.252,285.41,43.082,285.142z"/>
		<path fill="none" d="M140.557,310.591c0.055-0.253,0.129-0.51,0.205-0.766C140.685,310.081,140.615,310.338,140.557,310.591z"/>
		<path fill="none" d="M86.652,304.209c0.156,0.026,0.312,0.058,0.465,0.118c0.021-0.333,0.082-0.7,0.128-1.063
			C87.056,303.578,86.902,303.915,86.652,304.209z"/>
		<path fill="none" d="M176.596,269.237c-0.017,0.006-0.033,0.003-0.05,0.01c0.006,0.045,0.012,0.092,0.017,0.137
			C176.576,269.336,176.583,269.287,176.596,269.237z"/>
		<path fill="none" d="M17.469,268.764c0.068,0.003,0.117,0.027,0.182,0.032c-0.058-0.037-0.121-0.076-0.17-0.113
			C17.477,268.709,17.472,268.733,17.469,268.764z"/>
		<path fill="none" d="M72.793,287.829c1.792-0.136,3.575-0.373,5.35-0.719c-0.276,0.042-0.559,0.082-0.831,0.126
			C75.767,287.486,74.271,287.674,72.793,287.829z"/>
		<path fill="none" d="M34.745,215.53c-0.257-0.339-0.481-0.703-0.663-1.099C34.015,215.064,34.185,215.233,34.745,215.53z"/>
		<path fill="none" d="M21.676,272.981c0.01,0.008,0.018,0.018,0.027,0.026c-0.257-0.346-0.521-0.694-0.795-1.04
			C21.13,272.325,21.37,272.674,21.676,272.981z"/>
		<path fill="none" d="M241.979,77.363c-0.09,0.219-0.19,0.435-0.292,0.652c0.193,0.104,0.397,0.245,0.624,0.434
			C242.203,78.087,242.1,77.727,241.979,77.363z"/>
		<path fill="none" d="M244.816,90.525c-0.103-0.007-0.211-0.012-0.327-0.024c0,0.024,0.002,0.05,0.002,0.072
			C244.581,90.552,244.704,90.54,244.816,90.525z"/>
		<path fill="none" d="M107.703,110.472c-0.143,0.355-0.285,0.707-0.429,1.06c-0.387,0.953-0.806,1.888-1.21,2.832
			c0.833-1.191,1.655-2.499,1.625-3.479C107.685,110.745,107.703,110.612,107.703,110.472z"/>
		<path fill="none" d="M129.075,151.637c0.001,0.02,0.006,0.039,0.007,0.058C129.08,151.676,129.076,151.656,129.075,151.637z"/>
		<path fill="none" d="M238.16,128.79c0.105,1.558,0.053,3.132-0.152,4.689c0.168-0.628,0.31-1.294,0.399-2.054
			c0.15-1.254,0.234-1.867-0.183-2.578C238.214,128.825,238.179,128.808,238.16,128.79z"/>
		<path fill="none" d="M164.024,38.645c-0.321-0.613-0.644-1.248-1.054-1.89C163.248,37.407,163.604,38.043,164.024,38.645z"/>
		<path fill="none" d="M125.009,149.734c-1.546,0.409-3.121,1.347-4.612,1.829c0.112-0.024,0.228-0.035,0.339-0.065
			C122.116,151.155,123.555,150.18,125.009,149.734z"/>
		<path fill="none" d="M118.732,157.583c-0.056,0.008-0.111,0.018-0.167,0.028C118.621,157.604,118.676,157.591,118.732,157.583z"/>
		<path fill="none" d="M234.311,168.524c-0.086-0.005-0.167-0.012-0.248-0.018c-0.02,0.028-0.042,0.058-0.063,0.085
			C234.103,168.567,234.201,168.54,234.311,168.524z"/>
		<path fill="none" d="M136.259,51.503c0.083,0,0.167,0,0.251,0c0.01-0.014,0.022-0.027,0.033-0.041
			C136.45,51.479,136.357,51.494,136.259,51.503z"/>
		<path fill="none" d="M210.849,131.457c0.557-0.204,1.017-0.693,1.3-1.439C211.885,130.598,211.419,131.132,210.849,131.457z"/>
		<path fill="none" d="M212.942,123.718c-0.567,0.805-0.671,1.644-0.652,2.491c0.472-2.371,1.275-3.313,3.299-4.899
			c1.41-1.106,3.998-2.615,5.845-2.669c-0.038-0.003-0.079-0.012-0.117-0.012C218.649,118.666,214.424,121.613,212.942,123.718z"/>
		<path fill="none" d="M207.422,130.125c0.06,0.583,0.123,1.163,0.186,1.732c0.083,0.758,0.282,1.469,0.56,2.139
			c-0.43-1.218-0.647-2.559-0.671-3.741C207.471,130.211,207.446,130.169,207.422,130.125z"/>
		<path fill="none" d="M225.014,114.744c0.035,0.031,0.071,0.063,0.104,0.096C225.085,114.807,225.049,114.778,225.014,114.744z"/>
		<path fill="none" d="M110.2,155.588c-0.112,0.564-0.067,1.011,0.111,1.348C110.155,156.569,110.117,156.113,110.2,155.588z"/>
		<path fill="none" d="M208.218,134.13c-0.006-0.014-0.011-0.024-0.016-0.038C208.207,134.105,208.211,134.118,208.218,134.13z"/>
		<path fill="none" d="M114.258,152.496c1.121-0.254,2.269-0.371,3.412-0.502c-2.677,0.198-6.234,0.381-7.186,2.675
			c-0.003,0.007-0.004,0.012-0.006,0.018C111.165,153.335,112.818,152.823,114.258,152.496z"/>
		<path fill="none" d="M224.243,114.137c0.011,0.006,0.021,0.014,0.032,0.022C224.264,114.15,224.254,114.143,224.243,114.137z"/>
		<path fill="none" d="M224.619,114.406c0.049,0.037,0.095,0.075,0.142,0.116C224.714,114.481,224.668,114.442,224.619,114.406z"/>
		<path fill="none" d="M128.773,153.276c0.03-0.021,0.061-0.04,0.091-0.062c0.132-0.371,0.201-0.747,0.214-1.117
			C129.05,152.489,128.942,152.891,128.773,153.276z"/>
		<path fill="none" d="M374.688,287.497c0.113-0.146,0.22-0.3,0.346-0.438c-0.257-0.023-0.51-0.061-0.766-0.088
			C374.442,287.141,374.581,287.313,374.688,287.497z"/>
		<path fill="none" d="M366.976,301.994c0.204-0.16,0.405-0.327,0.591-0.498c0.759-0.7,1.256-1.49,1.697-2.301
			c-0.084,0.092-0.169,0.164-0.257,0.263C368.248,300.289,367.656,301.21,366.976,301.994z"/>
		<path fill="none" d="M127.313,297.703c-0.493-0.495-1.244-0.82-2.191-0.781c-1.562,0.218-3.287,1.021-4.14,2.408
			C122.684,297.406,125.898,296.707,127.313,297.703z"/>
		<path fill="none" d="M397.281,304.242c0.705-0.147,1.25-0.49,1.535-1.104c0.04-0.09,0.057-0.18,0.082-0.27
			C398.579,303.451,398.023,303.939,397.281,304.242z"/>
		<path fill="none" d="M380.683,287.138c0.064,0.106,0.103,0.204,0.162,0.308c0.028-0.108,0.071-0.218,0.135-0.328
			C380.881,287.122,380.782,287.133,380.683,287.138z"/>
		<path fill="none" d="M398.343,299.414c0.085-0.035,0.204-0.064,0.334-0.092c-0.157-0.009-0.311-0.015-0.452-0.017
			C398.264,299.344,398.304,299.375,398.343,299.414z"/>
		<path fill="none" d="M382.426,296.751c-0.15-0.316-0.276-0.646-0.384-0.982C382.121,296.096,382.246,296.422,382.426,296.751z"/>
		<path fill="none" d="M339.139,316.579c0.061-0.024,0.123-0.029,0.183-0.054c-0.038-0.05-0.082-0.092-0.121-0.137
			C339.19,316.453,339.158,316.516,339.139,316.579z"/>
		<path fill="none" d="M185.858,277.422c0.279,0.938,0.575,1.868,0.855,2.807c-0.175-0.653-0.353-1.311-0.556-1.961
			C186.068,277.984,185.962,277.703,185.858,277.422z"/>
		<path fill="none" d="M140.5,310.873c-0.191,0.962-0.239,1.894-0.07,2.741c0.278,1.393,0.978,2.224,1.895,2.688
			C140.535,315.064,140.079,313.092,140.5,310.873z"/>
		<path fill="none" d="M361.158,285.386c0.17,0.005,0.332,0.011,0.523,0.011c-1.371,2.743-2.401,4.681-4.662,6.691
			c2.452-1.308,5.569-1.349,8.139-0.352c0.204,0.079,0.378,0.079,0.539,0.049c0.204-0.149,0.092-0.44,0.367-0.963
			c0.524-0.988,0.254-2.278,0.36-3.377c-0.28-1.125-0.781-2.035-1.425-2.049c0.352,0,0.705,0,1.06,0
			c-1.349-0.259-2.613-0.728-3.709-1.545C362.245,284.819,361.776,285.222,361.158,285.386z"/>
		<path fill="none" d="M311.277,318.935c-0.954,1.703,0.467,2.748,2.111,3.006c-0.214-0.049-0.433-0.101-0.657-0.169
			C311.18,321.286,310.937,320.147,311.277,318.935z"/>
		<path fill="none" d="M356.229,292.723c-0.145,0.099-1.272,0.95-1.738,1.308C355.404,294.074,356.034,293.576,356.229,292.723z"/>
		<path fill="none" d="M316.25,309.198c0.106,0.324,0.196,0.624,0.272,0.915c0.106-0.354,0.24-0.691,0.428-1.006
			C316.716,309.145,316.482,309.16,316.25,309.198z"/>
		<path fill="none" d="M284.804,319.692c-0.024,0.003-0.055,0.003-0.075,0.009c-0.072,0.316-0.039,0.644,0.121,0.979
			C284.777,320.398,284.746,320.08,284.804,319.692z"/>
		<path fill="none" d="M142.266,306.901c0.003,0,0.009,0.002,0.012,0.002c-0.063-0.074-0.107-0.141-0.16-0.215
			c-0.134,0.243-0.262,0.485-0.385,0.729C141.906,307.146,142.087,306.94,142.266,306.901z"/>
		<path fill="none" d="M160.828,289.772c-0.082,0.129-0.174,0.245-0.278,0.352c0.081,0.011,0.164,0.017,0.245,0.025
			C160.805,290.022,160.817,289.897,160.828,289.772z"/>
		<path fill="none" d="M127.137,300.829c-0.125,0.093-0.26,0.177-0.402,0.249C126.883,301.003,127.018,300.918,127.137,300.829z"/>
		<path fill="none" d="M126.689,301.106c-0.172,0.084-0.354,0.155-0.541,0.209C126.347,301.259,126.525,301.186,126.689,301.106z"/>
		<path fill="none" d="M120.843,299.443c-0.01,0.03-0.02,0.062-0.03,0.088c0.002,0,0.002-0.003,0.003-0.003
			C120.824,299.5,120.835,299.474,120.843,299.443z"/>
		<path fill="none" d="M178.074,285.364c-0.018-0.007-0.034-0.019-0.052-0.024c0.001,0.008,0.003,0.017,0.005,0.026
			C178.042,285.364,178.057,285.364,178.074,285.364z"/>
		<path fill="none" d="M127.471,300.523c-0.05,0.052-0.104,0.103-0.157,0.152C127.367,300.625,127.423,300.575,127.471,300.523z"/>
		<path fill="none" d="M144.34,299.184c-0.185-0.068-0.362-0.129-0.534-0.187c0.041,0.02,0.076,0.044,0.119,0.063
			C144.056,299.111,144.202,299.146,144.34,299.184z"/>
		<path fill="none" d="M144.553,308.304c0.495,0.167,0.989,0.234,1.664-0.019c0.112-0.041,0.194-0.105,0.295-0.158
			C145.911,308.414,145.23,308.463,144.553,308.304z"/>
		<path fill="none" d="M143.333,307.852c0.083,0.025,0.159,0.056,0.237,0.082c-0.192-0.101-0.374-0.22-0.552-0.354
			C143.155,307.719,143.275,307.833,143.333,307.852z"/>
		<path fill="none" d="M146.888,307.926c0,0-0.001,0.002-0.003,0.002C146.887,307.928,146.887,307.926,146.888,307.926z"/>
		<path fill="#CC9966" d="M310.973,168.511c-0.013-0.02-0.027-0.042-0.041-0.063c-0.044,0-0.093,0-0.137,0
			C310.858,168.463,310.916,168.491,310.973,168.511z"/>
		<path fill="#CC9966" d="M287.332,170.945c0.302-1.831,0.518-2.338,1.398-2.469c-0.745-0.078-0.884-0.484-1.082-2.086
			c-0.175-1.397-0.842-2.57-1.779-3.604c-2.117-2.34-5.027-2.999-8.059-2.377c-0.432,0.088-0.865,0.191-1.298,0.301
			c5.498,0.646,9.521,7.266,8.092,12.532c-1.188,4.382-5.495,7.212-9.56,8.553c5.812,2.206,10.519-1.158,12.707-5.939
			c-0.58,0.318-1.253,0.498-2.041,0.474C286.691,174.796,287.036,172.723,287.332,170.945z"/>
		<path fill="#CC9966" d="M303.056,197.081c0.46-1.854,2.67-3.727,3.393-5.694c0.389-1.063,0.789-2.136,0.99-3.255
			c0.235-1.283-0.186-2.679,0.315-3.88c0.497-1.188,1.636-2.119,2.153-3.367c0.449-1.081,0.553-2.49,0.613-3.642
			c0.167-3.2-0.915-6.321-2.923-8.792c0.515,0,1.026-0.05,1.525-0.085c-0.851-0.104-1.583-0.342-2.591-0.905
			c-1.343-0.752-2.42-1.183-3.951-1.387c-3.937-0.531-8.029-0.321-11.972,0c0.187,0.779,0.316,1.577,0.396,2.377
			c-0.018,0.279-0.044,0.57-0.077,0.867c1.892-0.142,3.913-0.706,5.766-0.632c3.058,0.123,5.883,0.624,8.812,1.504
			c3.427,1.797,2.229,8.149,1.106,10.893c-0.756-0.782-2.512-1.198-3.044-1.822c-0.413-0.485-0.437-2.03-0.81-2.691
			c-0.847-1.51-2.945-3.413-4.759-3.052c-1.953,0.393-1.742,2.516-0.278,3.249c1.354,0.677,1.733,2.314,1.659,3.761
			c-0.157,3.134-3.383,3.115-4.029,5.586c-0.393,1.501,0.662,1.65,1.896,1.623c2.59-0.057,4.569-2.551,5.688-4.754
			c1.283,2.935,2.038,5.667,0.711,8.755c-0.886,2.064-2.691,3.421-3.757,5.344c-0.717,1.294-0.158,2.852-1.221,3.843
			c1.534-0.617,3.147-0.45,4.782-1.545c0.847-0.567,1.593-1.297,2.252-2.109c-0.239,0.17-0.479,0.278-0.714,0.308
			C303.611,197.749,302.421,199.629,303.056,197.081z"/>
		<path fill="#FFB442" d="M286.779,214.309c-2.385,3.012-6.002,5.145-8.544,8.218c-3.387,4.087-6.021,8.41-8.621,13.022
			c-1.188,2.104-2.106,4.382-3.041,6.605c-0.501,1.194-0.938,2.408-1.384,3.627c-0.114,0.316-0.323,0.491-0.58,0.593
			c0.121,0.009,0.242,0.014,0.362,0.014c-4.188,12.433-6.073,26.65-0.712,39.009c2.84,6.918,9.552,12.302,16.276,15.365
			c13.373,6.096,30.018,6.094,44.294,3.783c6.923-1.12,13.323-3.171,19.27-6.912c3.332-2.097,6.245-4.689,9.285-7.169
			c1.475-1.2,3.136-1.973,3.978-3.419c0.623-1.068,1.109-1.471,1.762-1.613c-0.271-0.018-0.544-0.035-0.802-0.035
			c5.953-12.593,7.214-25.88,1.976-39.009c0.239,0,0.477,0,0.716,0c-0.526-0.117-0.936-0.447-1.357-1.308
			c-0.55-1.131-1.125-2.253-1.789-3.322c-1.447-2.321-3.082-4.487-4.819-6.598c-3.474-4.226-7.46-8.038-11.805-11.358
			c-4.56-3.485-9.26-6.785-13.925-10.124c-1.543-1.106-6.096-3.164-6.802-5.112c-0.376-1.032-0.002-1.146,0.604-0.915
			c-0.014-0.016-0.03-0.035-0.044-0.051c-0.122-0.062-0.244-0.121-0.364-0.181c0.07,0,0.145-0.005,0.215-0.009
			c-0.125-0.157-0.247-0.318-0.382-0.472c-2.997-0.827-7.148-2.555-5.64-3.719c-1.171,0.181-4.727,1.053-4.465-0.909
			c-1.384,0.866-3.107,1.749-3.672-0.277c-0.431,2.964-7.771,4.686-12.035,5.208c-0.123,0.063-0.242,0.129-0.365,0.191
			c0.529-0.018,1.095-0.014,1.732-0.014C292.128,209.116,289.328,211.089,286.779,214.309z M320.279,227.063
			c-1.359,3.313-6.716,3.179-6.52-0.913C314.008,220.991,321.616,221.851,320.279,227.063z M297.762,218.824
			c2.833,1.037,6.356,3.438,7.19,6.495c0.158,0.648,0.266,1.299,0.354,1.961c0.525,3.953-2.583,10.351-6.617,11.503
			c-6.438,1.841-12.305-2.096-15.808-7.367c-3.6-5.41-2.164-12.604,5.122-13.739c1.121-0.175,2.226-0.15,3.355-0.126
			c0.435,0.011,0.529-1.252,0.812-1.697c0.731-1.139,2.175-1.765,3.516-1.643C298.213,214.44,298.654,216.829,297.762,218.824z"/>
		<path fill="#FFB442" d="M258.037,273.319c-0.06,0.487,0.197,0.942,0.569,1.347c-0.093-0.782-0.166-1.567-0.229-2.353
			C258.215,272.603,258.087,272.927,258.037,273.319z"/>
		<path fill="#FFB442" d="M387.236,193.633c-0.919-1.054-1.881-2.057-2.9-2.98c0.055,0.073,0.125,0.139,0.18,0.212
			C385.432,191.796,386.338,192.717,387.236,193.633z"/>
		<path fill="#FFB442" d="M308.543,201.379c-0.121-0.066-0.237-0.126-0.355-0.183c-0.013,0.123-0.016,0.224-0.038,0.361
			C308.278,201.495,308.411,201.439,308.543,201.379z"/>
		<path fill="#FFB442" d="M413.248,270.453c0.011-0.011,0.021-0.027,0.033-0.042c-0.018-0.059-0.036-0.122-0.047-0.182
			C413.243,270.294,413.245,270.371,413.248,270.453z"/>
		<path fill="#FFB442" d="M294.798,217.914C294.474,217.794,294.53,217.815,294.798,217.914L294.798,217.914z"/>
		<path fill="#FFB442" d="M413.02,242.531c-0.549-1.65-1.099-3.301-1.663-4.949c-1.233-3.61-2.448-7.221-3.969-10.72
			c-2.965-6.827-6.468-13.199-10.508-19.443c0.215,0,0.43,0,0.646,0c-0.068-0.106-0.143-0.209-0.211-0.316
			c-1.383-0.548-1.877-1.79-3.22-3.526c-1.402-1.813-3.008-3.464-4.681-5.028c-1.883-1.76-3.675-3.572-5.335-5.548
			c-0.983-1.17-3.244-3.854-4.839-3.978c-1.408-0.108-2.966-1.207-4.433-1.547c-2.035-0.475-4.051-0.846-6.136-1.027
			c-2.162-0.188-8.952,1.186-10.427-0.481c-0.13,0.04-0.259,0.084-0.389,0.13c-1.494,1.525-5.313,6.264-7.041,4.569
			c-0.402,0.547-2.013,2.296-2.013,2.833c0,1.659-3.886,3.792-5.139,5.052c-1.997,2.003-4.016,3.975-5.844,6.135
			c-0.493,0.583-1.072,2.02-1.423,2.297c-0.308,0.243-0.687,0.365-1.105,0.426c0.302,0.002,0.613,0.011,0.947,0.011
			c-0.646,0.687-1.413,1.054-2.329,1.311c-0.016,0.021-0.035,0.047-0.049,0.071c1.256,0.481-0.19,2.57-1.438,3.932
			c0,0.04-0.016,0.089-0.016,0.133c0,0.443-0.364,0.797-0.712,1.19c12.917,8.458,24.875,18.118,31.646,32.332
			c0.888,2.361,1.656,4.731,2.288,7.176c1.956,7.536,1.368,16.55-0.967,23.872c-0.344,1.085-0.738,2.15-1.09,3.231
			c-0.176,0.543-0.231,0.826-0.176,1.003c0.107,0.09,0.205,0.189,0.32,0.272c0.225,0.09,0.559,0.18,1.005,0.406
			c1.452,0.728,3.278,1.13,4.86,1.462c3.681,0.777,7.482,0.693,11.218,0.564c6.949-0.239,13.567-1.396,19.714-4.76
			c1.958-1.074,3.691-2.422,5.375-3.799c0.875-0.955,1.773-1.824,2.742-2.416c1.018-1.21,2.369-3.067,3.301-2.419
			c0.134-0.65-0.234-1.891,0.316-2.259c0.798-0.531,0.842-0.107,1.224-0.872c0.18-0.359-0.164-1.174-0.039-1.644
			c0.376-1.416,2.227-1.095,2.487-2.672c0.993-5.965,0-11.399-1.617-17.147c0.183,0,0.318,0.011,0.477,0.016
			c-0.025-0.095-0.046-0.193-0.07-0.288C413.7,245.668,413.714,244.616,413.02,242.531z M368.751,213.794
			c-1.299,1.174-4.324,1.09-5.49-0.356c-1.62-2.006-0.206-5.559,2.172-6.218C368.71,207.346,371.662,211.171,368.751,213.794z
			 M386.766,232.111c-3.845,2.471-11.561,1.1-14.496-2.278c-4.001-4.597,2.38-13.626,7.307-14.852
			c1.716,0.147,3.472,0.72,4.978,1.546c1.355,0.741,1.612,1.383,2.177,2.249c1.098,1.688,1.427,3.534,2.346,4.979
			C390.847,226.533,389.487,230.361,386.766,232.111z M388.346,212.328c-0.125-4.289,6.37-5.936,6.6-1.305
			C395.146,215.129,388.735,216.583,388.346,212.328z"/>
		<path fill="#FF6600" d="M385.621,230.148c6.052-2.512-1.07-13.269-6.241-12.592c-2.204,1.336-4.111,3.126-4.899,5.663
			c-0.416,1.336-1.11,4.581,0.336,5.546C377.519,230.565,382.731,231.351,385.621,230.148z"/>
		<path fill="#FF6600" d="M298.037,236.389c1.433-0.718,2.239-2.329,3.239-3.507c1.037-1.22,1.145-0.673,1.621-2.492
			c0.308-1.176,0.646-2.525,0.316-3.684c-0.736-0.878-0.75-1.905-1.422-2.813c-0.714-0.958-1.861-1.651-2.865-2.253
			c-2.714-1.632-5.479-1.551-8.546-1.128c-2.673,0.37-6.062,0.468-6.962,3.498c-0.646,2.18,0.648,5.123,2.022,6.676
			C288.432,234.075,293.124,238.843,298.037,236.389z"/>
		<path fill="#FF6600" d="M328.232,312.867c-2.871-0.264-6.437-0.561-5.978-4.224c-1.771,0.045-3.548,0.214-5.305,0.464
			c-0.188,0.314-0.321,0.651-0.428,1.006c0.319,1.211,0.327,2.202-0.313,3.559c-1.042,2.215-3.299,2.964-4.7,4.894
			c-0.093,0.128-0.165,0.248-0.232,0.369c-0.341,1.213-0.098,2.352,1.454,2.837c0.225,0.068,0.443,0.12,0.657,0.169
			c0.709,0.108,1.455,0.079,2.071-0.109c0.769-0.236,2.349-1.121,2.725-1.901c0.609-1.264-0.3-2.556,1.265-3.366
			c2.771-1.437,1.895,1.737,2.883,2.879c1.138,1.324,7.073,4.771,7.073,1.359c0-1.063-0.984-1.964-1.777-2.616
			c-0.815-0.666-4.401-2.244-4.703-3.048c-1.019-2.724,5.487,1.09,6.406,0.991c3.059-0.321,6.946,1.597,9.808,0.45
			c0.02-0.063,0.052-0.126,0.062-0.19C336.439,313.097,332.18,313.228,328.232,312.867z"/>
		<path fill="#FF6600" d="M359.227,300.799c-0.006,0.092,0.003,0.183,0.009,0.27c0.068-0.09,0.113-0.171,0.192-0.268
			C359.359,300.801,359.295,300.799,359.227,300.799z"/>
		<path fill="#FF6600" d="M362.866,293.118c-1.531-0.068-4.473-0.921-5.649,0.436C359.031,293.178,361.017,292.987,362.866,293.118z
			"/>
		<path fill="#FF6600" d="M366.064,290.822c-0.275,0.522-0.163,0.813-0.367,0.963c1.055-0.198,1.18-2.541,0.728-4.34
			C366.318,288.544,366.589,289.834,366.064,290.822z"/>
		<path fill="#FF6600" d="M367.725,286.228c0.177,1.854,0.236,3.649,0.236,5.507c0,2.435-2.653,1.641-4.108,1.462
			c0.186,0.093,0.37,0.187,0.553,0.278c-0.06,0.05,0.738,1.204-0.128,1.183c-0.962-0.024-1.874,0.006-2.833,0.085
			c-1.979,0.163-3.973,0.462-5.887,0.991c-0.856,0.235-3.43,0.532-3.538,1.723c-0.188,2.084,1.053,1.563,2.826,1.563
			c1.642,0,3.975,0.501,5.492-0.038c1.306-0.466,2.472-2.009,3.685-2.896c0.494-0.362,2.885-1.352,3.426-0.591
			c0.659,0.928-2.568,1.986-3.122,2.272c-1.961,1.021-6.125,5.206-2.092,5.768c1.702,0.239,3.409-0.507,4.741-1.54
			c0.681-0.784,1.272-1.705,2.031-2.536c0.088-0.099,0.173-0.171,0.257-0.263c0.752-1.374,1.349-2.809,2.825-3.957
			c0.525-0.407,0.583-3.63,0.892-4.495c0.405-1.145,0.955-2.278,1.708-3.246c-0.107-0.184-0.246-0.356-0.42-0.525
			C372.08,286.759,369.896,286.52,367.725,286.228z"/>
		<path fill="#FF6600" d="M374.992,288.975c-0.162,0.463-0.277,0.983-0.361,1.516C374.816,289.966,374.955,289.46,374.992,288.975z"
			/>
		<path fill="#FF6600" d="M388.07,289.159c0.311,0.402,1.946,0.36,2.513,0.431c1.183,0.147,2.362,0.292,3.545,0.443
			c-0.409-0.075-0.817-0.155-1.198-0.243c-1.194-0.271-4.665-0.611-4.861-1.764C387.918,288.472,387.872,288.903,388.07,289.159z"/>
		<path fill="#FF6600" d="M387.239,286.623c-2.086,0.174-4.171,0.338-6.26,0.494c-0.063,0.11-0.106,0.22-0.135,0.328
			c1.627,2.865,0.802,4.871,1.101,7.931c0.014,0.129,0.063,0.263,0.097,0.393c0.107,0.336,0.233,0.666,0.384,0.982
			c0.888,1.615,2.831,3.192,4.261,4.127c1.499,0.978,7.556,4.004,10.595,3.364c0.742-0.303,1.298-0.791,1.617-1.373
			c0.522-2.081-3.856-4.389-5.254-4.898c-1.868-0.682-5.355-0.861-6.622-2.496c-1.493-1.926,4.596-0.675,4.998-0.479
			c2.303,1.11,4.426,2.457,6.204,4.311c0.142,0.002,0.295,0.008,0.452,0.017c2.199-0.461,10.277-0.03,6.499-3.353
			c-2.291-2.016-5.59-2.173-8.439-2.649c-1.042-0.175-7.417-0.979-5.389-1.984c-1.391-0.224-2.772-0.468-4.157-0.746
			C386.289,290.407,387.022,287.253,387.239,286.623z"/>
		<path fill="#FF6600" d="M395.734,291.613c3.716,0.478,7.272,1.837,10.468,3.564C406.022,291.216,398.389,291.525,395.734,291.613z
			"/>
		<path fill="#CC0000" d="M162.335,33.979c0,0.908,0.244,1.854,0.635,2.776c0.411,0.642,0.733,1.277,1.054,1.89
			c1.13,1.618,2.68,2.965,4.238,3.551c3.582,1.346,8.016,0.973,11.765,1.028c8.85,0.13,14.918,2.592,21.657,8.279
			c0.986,0.384,2.162,1.813,2.968,2.532c1.883,1.676,3.649,3.468,5.334,5.338c5.025,5.583,7.13,12.255,10.741,18.624
			c2.754,4.861,7.593,8.832,13.154,5.308c6.116-3.877,6.759-11.242,5.326-17.81c-0.723-3.313-3.717-5.792-4.338-8.882
			c-0.28-1.39,0.436-2.981,1.302-4.04c0.56-0.681,0.876-0.941,1.342-1.035c-0.253-0.018-0.524-0.034-0.826-0.034
			c0.431-1.8,0.603-3.464,0.316-5.307c-1.099-7.075-4.507-14.78-9.445-19.992c-5.196-5.482-14.045-8.595-20.699-3.532
			c-0.637,0.484-2.349,3.211-2.705,3.169c-1.224-0.146-2.146-0.67-2.529-1.902c-0.899-2.886-3.273-4.159-5.726-6.002
			c-4.409-3.316-13.636-3.696-16.931,1.092c-0.87,1.263-1.855,4.495-3.733,4.059c-1.467-0.34-3.105-2.793-3.981-2.902
			c-1.898-0.238-3.712-0.191-5.52,0.506c-2.609,1.006-5.592,3.485-5.482,6.494C160.337,29.504,162.335,31.562,162.335,33.979z"/>
		<path fill="#CC9966" d="M158.242,184.897c2.918-0.898,4.919-3.357,6.211-6.144c-0.058-0.084-0.125-0.161-0.183-0.244
			C162.885,181.547,160.766,183.699,158.242,184.897z"/>
		<path fill="#CC9966" d="M89.824,129.561c-0.001,0.002-0.002,0.002-0.003,0.005c0.009,0,0.021-0.002,0.031-0.002
			C89.842,129.561,89.834,129.561,89.824,129.561z"/>
		<path fill="#CC9966" d="M176.637,187.552c3.082,1.734,6.99,2.167,10.271,1.003C183.564,189.093,180.005,188.677,176.637,187.552z"
			/>
		<path fill="#CC9966" d="M246.56,138.846c-2.516-2.785-3.578-6.06-5.017-9.364c0.155,0,0.309-0.008,0.461-0.013
			c-0.343-0.099-0.615-0.344-0.875-0.938c-0.449-1.029-0.849-2.079-1.18-3.154c-0.659-2.162-1.18-4.346-1.446-6.589
			c-0.503-4.195-0.896-8.742,0.553-12.792c0.856-2.394,1.682-4.678,2.548-6.969c0.717-1.899,1.578-3.814,1.883-5.811
			c0.267-1.733,0.027-2.415,1.005-2.643c0-0.022-0.002-0.048-0.002-0.072c-0.2-0.015-0.409-0.029-0.654-0.029
			c0.12-4.19-0.341-8.061-1.523-12.023c-0.227-0.189-0.431-0.33-0.624-0.434c-3.722,7.891-15.208,14.527-21.595,5.131
			c-1.729-2.545-2.588-5.775-3.99-8.514c-1.563-3.055-3.331-6.009-5.215-8.871c-3.669-5.569-8.122-10.503-13.669-14.258
			c0.23,0,0.497-0.019,0.776-0.04c-0.674-0.109-1.331-0.327-1.979-0.756c-1.475-0.974-3.036-1.918-4.645-2.649
			c-3.431-1.563-6.816-1.907-10.548-1.961c-6.983-0.102-14.025,1.063-18.33-5.723c-0.89-1.403-1.624-2.849-2.186-4.414
			c-0.77-2.146-0.539-1.533-2.554-1.13c-1.297,0.26-1.49-0.022-2.906,0.839c-1.659,1.008-3.49,1.731-5.074,2.844
			c-2.966,2.084-5.458,4.979-7.938,7.594c-1.111,1.17-2.225,2.465-3.184,3.765c-0.793,1.076-1.366,1.46-2.107,1.591
			c-0.011,0.014-0.023,0.027-0.033,0.041c0.313,0,0.625,0,0.937,0c-5.143,5.397-8.89,13.083-12.177,19.703
			c-1.982,3.99-3.981,7.971-5.888,11.998c-0.867,1.832-1.693,3.681-2.523,5.531c-0.576,1.281-0.981,1.64-1.768,1.729
			c0.299,0.004,0.627,0.009,1.023,0.009c-3.019,6.585-5.685,13.295-8.411,20c0,0.14-0.018,0.273-0.014,0.413
			c0.03,0.98-0.792,2.288-1.625,3.479c-1.171,2.73-2.384,5.438-3.638,8.135c-0.75,1.616-1.556,3.21-2.352,4.803
			c-0.762,1.529-1.146,1.998-1.979,2.134c0.292,0.024,0.586,0.046,0.873,0.046c-1.476,2.185-3.135,4.942-5.491,6.255
			c-0.961,0.085-1.632,0.723-2.37,1.15c0.569-1.441,1.17-2.618,2.173-3.962c0.698-0.935,1.411-1.83,2.097-2.786
			c0.264-0.369,0.604-0.554,0.981-0.655c-0.167,0-0.32-0.002-0.51-0.002c1.326-2.343,2.601-4.702,3.911-7.051
			c-1.492,1.254-2.851,2.663-4.325,3.942c-1.097,0.949-2.134,1.946-3.178,2.954c-0.067,0.065-0.159,0.114-0.264,0.155
			c0.037,0,0.065,0,0.103,0c-2.556,2.347-4.497,4.746-5.399,8.166c-0.515,1.951-0.839,2.813,0.816,3.893
			c1.094,0.711,1.94,1.595,1.817,2.95c-0.619,6.823,4.912,10.271,10.468,12.383c3.963,1.51,8.146,1.453,12.289,1.207
			c-0.873-0.095-1.498-0.489-1.774-1.145c-0.178-0.337-0.224-0.783-0.111-1.348c0.012-0.07,0.012-0.133,0.028-0.207
			c0.055-0.257,0.142-0.482,0.25-0.694c0.002-0.006,0.003-0.011,0.006-0.018c0.952-2.294,4.509-2.477,7.186-2.675
			c0.919-0.104,1.832-0.229,2.727-0.431c1.491-0.482,3.066-1.42,4.612-1.829c0.642-0.192,1.285-0.297,1.929-0.177
			c1.419,0.265,2.046,1.106,2.136,2.079c0.001,0.02,0.005,0.039,0.007,0.058c0.01,0.134,0.006,0.268-0.004,0.403
			c-0.013,0.37-0.082,0.746-0.214,1.117c0.562-0.398,1.108-0.812,1.63-1.24c1.581,2.415,0.578,5.336,1.177,8.002
			c0.668,2.971,1.621,5.727,2.931,8.475c-0.265,0-0.529,0.021-0.785,0.042c0.646,0.112,0.996,0.478,1.662,1.611
			c0.715,1.22,1.445,2.433,2.284,3.573c1.494,2.036,3.269,4.043,5.232,5.638c3.641,2.961,8.838,4.807,13.572,3.747
			c3.526-0.788,3.691-3.472,5.215-6.335c0.492-0.927,1.118-2.218,1.935-2.259c0.355-0.018,2.194,1.406,2.489,1.763
			c3.551,4.321,8.037,8.149,13.591,9.483c2.185,0.525,4.399,0.587,6.598,0.042c1.789-0.445,3.448-1.237,4.977-2.259
			c1.651-1.104,1.98-1.778,2.647-3.564c0.732-1.956,2.017-3.947,2.213-5.8c0.125-1.199,0.721-2.433,1.975-2.834
			c1.515-0.483,1.955,0.422,3.185,1.213c5.877,3.769,13.689,4.969,20.479,3.264c2.281-0.575,4.538-1.585,6.479-2.932
			c1.096-0.758,2.13-1.688,3.09-2.61c1.076-1.033,1.725-1.461,2.561-1.643c0.021-0.027,0.044-0.057,0.063-0.085
			c-0.398-0.03-0.741-0.056-0.933-0.056c2.932-4.247,3.348-9.068,2.723-14.081c-0.194-1.566,2.833-1.731,3.775-2
			c1.803-0.516,3.512-2.821,4.839-4.06c1.365-1.27,3.866-4.123,4.154-6.127c-0.054-0.497-0.142-0.98-0.267-1.453
			C247.951,140.076,247.221,139.579,246.56,138.846z M229.612,107.263c0.429-2.791,3.624-7.189,6.601-4.277
			c1.418,1.392,1.304,3.718,0.492,5.347c-0.673,1.349-1.727,3.158-3.338,3.564C230.825,112.536,229.166,109.488,229.612,107.263z
			 M192.28,110.01c0-3.289,5.255-6.177,7.783-4.212c2.354,1.83,2.351,4.446,1.264,7.051c-0.855,1.741-2.327,3.389-4.227,3.958
			c-1.341,0.404-3.164,0.475-4.187-0.71C191.727,114.723,192.28,111.775,192.28,110.01z M238.407,131.424
			c-0.09,0.76-0.231,1.426-0.399,2.054c-0.08,0.599-0.173,1.192-0.295,1.784c-0.738,2.119-1.798,4.204-3.397,5.782
			c-0.485,0.477-1.449,0.883-1.817,1.424c-0.589,0.864-0.283,0.883-0.356,2.021c-0.099,1.534-0.257,2.998-0.712,4.475
			c-1.752,5.688-5.896,10.279-12.284,9.464c-1.329-0.169-2.676-0.536-3.735-1.383c-1.072-0.861-0.773-0.359-1.837,0.196
			c-2.052,1.075-3.484,2.305-6.004,2.435c-6.127,0.319-11.828-3.175-13.354-9.285c-1.663-6.666,2.925-14.324,8.099-18.139
			c1.427-1.049,2.875-1.325,3.477-2.851c0.553-1.406,0.34-3.768,0.597-5.331c0.603-3.681,2.416-6.717,5.605-8.73
			c5.588-3.526,14.339-3.918,19.636,0.278c4.144,3.286,6.182,8.133,6.531,13.17c0.019,0.018,0.054,0.035,0.064,0.057
			C238.642,129.557,238.558,130.17,238.407,131.424z"/>
		<path fill="#FF6500" d="M234.078,121.521c-0.684-3.16-4.833-5.755-7.577-6.944c-0.836-0.364-1.705-0.555-2.591-0.638
			c-2.272-0.213-4.647,0.356-6.822,1.086c-3.413,1.147-6.726,2.828-8.532,6.1c-1.56,2.828-1.44,5.98-1.134,9
			c0.024,0.044,0.049,0.086,0.074,0.13c0.024,1.182,0.241,2.523,0.671,3.741c0.014,0.03,0.02,0.065,0.034,0.096
			c0.005,0.014,0.01,0.024,0.016,0.038c2.141,4.909,9.056,7.361,13.73,7.536c5.528,0.209,9.249-0.106,12.209-5.017
			C236.604,132.587,236.931,125.471,234.078,121.521z M210.849,131.457c0.57-0.325,1.036-0.859,1.3-1.439
			C211.865,130.764,211.406,131.253,210.849,131.457z M215.589,121.31c-2.024,1.586-2.827,2.529-3.299,4.899
			c-0.02-0.848,0.085-1.686,0.652-2.491c1.482-2.105,5.708-5.053,8.375-5.089c0.038,0,0.079,0.009,0.117,0.012
			C219.587,118.695,216.999,120.204,215.589,121.31z"/>
		<path fill="#CC0000" d="M217.104,155.724c1.123,0.791,2.684,0.956,4.054,0.886c6.356-0.332,8.467-7.537,8.812-12.832
			c-3.926,0.901-7.209,1.128-11.22,0.435c1.499,2.557,0.213,5.104-1.03,7.447C216.764,153.465,215.192,154.381,217.104,155.724z"/>
		<path fill="#CC0000" d="M202.947,156.451c4.106,1.37,8.561,0.527,11.017-3.16c1.853-2.784,2.517-6.138,3.956-8.999
			c0.046-0.472-6.041-2.796-7.152-3.563c-2.493-1.729-4.974-4.813-5.333-7.921c-4.022,3.939-7.645,7.204-8.513,13.048
			C196.191,150.781,198.112,154.839,202.947,156.451z"/>
		<path fill="#CE9A63" d="M129.082,151.694c-0.001-0.019-0.006-0.038-0.007-0.058c-0.09-0.973-0.717-1.814-2.136-2.079
			c-0.644-0.12-1.288-0.016-1.929,0.177c-1.454,0.445-2.894,1.421-4.273,1.764c-0.112,0.03-0.228,0.041-0.339,0.065
			c-0.895,0.202-1.808,0.326-2.727,0.431c-1.143,0.131-2.291,0.248-3.412,0.502c-1.44,0.327-3.093,0.839-3.78,2.19
			c-0.108,0.212-0.195,0.438-0.25,0.694c-0.016,0.074-0.016,0.137-0.028,0.207c-0.083,0.525-0.044,0.981,0.111,1.348
			c0.277,0.655,0.901,1.05,1.774,1.145c1.564-0.093,3.123-0.209,4.661-0.283c0.608-0.029,1.214-0.095,1.819-0.186
			c0.056-0.011,0.111-0.021,0.167-0.028c3.589-0.579,7.07-2.208,10.041-4.307c0.169-0.386,0.277-0.787,0.305-1.179
			C129.088,151.962,129.092,151.828,129.082,151.694z"/>
		<path fill="#FFB442" d="M34.624,207.433c-0.002,0.006-0.006,0.011-0.009,0.016c0.023-0.005,0.042-0.014,0.066-0.016
			C34.66,207.433,34.644,207.433,34.624,207.433z"/>
		<path fill="#FFB442" d="M72.793,287.829c1.478-0.155,2.973-0.343,4.519-0.593c0.272-0.044,0.555-0.084,0.831-0.126
			c1.324-0.259,2.645-0.562,3.957-0.961c1.195,0.7,4.373-0.753,6.109-0.753c-0.338,0-0.676,0-1.014,0
			c7.465-2.195,17.241-4.073,20.938-11.859c1.839-3.877,2.4-9.025,2.03-13.297c-0.254-2.93-0.726-5.238-1.674-8.031
			c-0.372-1.098-1.234-5.448-2.41-5.821c0.314,0,0.702-0.028,1.116-0.063c-0.77-0.128-1.516-0.352-2.222-0.769
			c-1.78-1.05-3.556-2.549-5.107-3.912c-3.266-2.872-6.604-5.891-9.583-9.06c-3.262-3.471-5.098-7.649-7.646-11.57
			c-2.735-4.214-5.291-8.776-6.779-13.596c0.65,0,1.11-0.039,1.474-0.027c-1.713-0.106-1.813-0.646-2.433-2.795
			c-0.459-1.595-0.877-3.188-1.219-4.81c-0.645-3.06-0.964-6.157-1.022-9.279c-0.901,0.131-1.564-0.692-2.272-1.318
			c-0.678-0.598-2.486-0.183-3.337-0.167c-2.523,0.05-5.039,0.137-7.56,0.238c-2.018,0.078-2.785,1.912-4.332,2.078
			c-1.033,0.111-1.715-0.35-1.461-1.464c-0.581,0.73-3.608,3.285-3.655,3.782c-0.268,2.848-1.594,2.675-3.97,4.198
			c-2.15,1.376-4.156,3.046-5.926,4.891c-0.924,0.966-1.89,2.021-2.577,3.17c-0.644,1.075-1.084,1.402-1.752,1.492
			c0.259,0.006,0.537,0.011,0.853,0.011c-0.065,0.098-0.255,0.372-0.316,0.515c5.813-0.347,1.632,8.693-2.054,5.308
			c-0.113,0.533-0.187,0.907-0.217,1.19c0.181,0.396,0.405,0.76,0.663,1.099c0.257,0.132,0.59,0.293,1.025,0.545
			c0.972,0.561,1.64,0.7,1.925,1.699c0.228,0.793,1.703,1.79,2.2,2.563c0.864,1.349,1.321,2.659,1.513,4.244
			c0.292,2.421-0.603,5.234-3.15,5.659c-2.514,0.421-4.964,0.54-7.484,0.12c-1.449-0.242-2.824-0.621-4.198-1.141
			c-1.562-0.592-2.539,1.525-3.43,2.74c-1.887,2.577-3.472,5.384-4.619,8.365c-0.587,1.524-1.05,3.063-1.415,4.657
			c-0.226,0.981-0.415,1.294-0.861,1.391c0.181,0.009,0.375,0.014,0.587,0.014c-0.581,2.737-0.792,5.445-0.731,8.238
			c0.048,2.234,1.083,4.814,0.87,6.969c-0.064,0.636-0.485,1.129-0.731,1.703c-0.761,1.779-0.014,0.801,0.711,1.783
			c0.988,1.338,0.739,1.972,0.525,3.602c0.049,0.037,0.112,0.076,0.17,0.113c1.911,0.216,2.395,1.779,3.258,3.172
			c0.274,0.346,0.538,0.694,0.795,1.04c1.954,1.96,3.532,3.986,5.84,5.613c4.703,3.315,10.056,5.037,15.539,6.521
			c1.17,0.269,2.295,0.58,3.406,0.89C55.233,286.955,64.097,288.486,72.793,287.829z M49.429,212.053
			c1.58-1.583,4.039-2.462,5.748-0.258c0.886,1.143,0.989,3.25,0.178,4.454C52.785,220.063,47.9,215.799,49.429,212.053z"/>
		<path fill="#FF6600" d="M26.02,226.142c1.568,0.741,3.14,1.262,4.072,1.436c2.616,0.496,7.793,1.753,9.105-1.308
			c2.021-4.714-4.381-6.023-6.084-8.912c-3.513-1.306-9.46-0.606-11.595,2.894c-1.023,1.676,0.294,3.309,2.231,4.612
			c0.469,0.253,0.919,0.483,1.305,0.697C25.395,225.749,25.713,225.944,26.02,226.142z"/>
		<path fill="#FF6600" d="M37.677,299.715c1.176-0.624,2.508-0.705,3.802-0.892c1.58-0.229,5.786-1.646,6.766-0.793
			c-0.085,0.046-0.172,0.095-0.256,0.145c-2.014,1.131-3.928,1.992-6.144,2.587c-1.903,0.514-7.049,1.575-5.649,4.873
			c1.413,3.326,6.778,0.124,8.495-0.625c4.543-1.985,4.167-2.176,7.525,0.842c1.798,1.614,4.99,4.049,7.565,2.971
			c2.344-0.983,1.046-3.752-0.04-5.288c-1.01-1.428-2.299-2.656-3.753-3.63c-1.986-1.329-1.731-1.308-2.014-3.538
			c-0.217-1.697-0.375-3.387,0.352-5.019c-0.035-0.365-0.105-0.706-0.222-1.022c-1.38-0.272-2.65-0.571-3.883-1.245
			c-0.049,2.922-1.595,7.073-4.943,7.528c-2.985,0.402-5.953,0.67-8.963,0.67c-2.491,0-6.011-0.874-8.296,0.038
			c-1.651,0.659-3.829,2.851-1.778,4.277c1.771,1.231,6.675,0.428,8.805,0.469C35.491,302.071,36.963,300.09,37.677,299.715z"/>
		<path fill="#FF6600" d="M34.429,303.899c0.048,0.011,0.098,0.02,0.146,0.032c0.005,0,0.009,0.013,0.013,0.019
			c0.012-0.021,0.016-0.038,0.027-0.06C34.559,303.895,34.489,303.896,34.429,303.899z"/>
		<path fill="#FF6600" d="M88.382,301.988c0.026,0.127,0.045,0.234,0.068,0.353c0.492-0.178,1-0.272,1.511-0.669
			c0.001,0,0.002-0.001,0.003-0.001C89.406,301.904,88.841,302.027,88.382,301.988z"/>
		<path fill="#FF6600" d="M77.991,289.911c-1.015,0.171-2.028,0.344-3.042,0.516c-2.002,0.264-3.994,0.487-6.005,0.673
			c0.395,2.422,0.157,4.034-1.026,6.096c-1.115,1.944-2.923,3.351-3.358,5.586c-0.688,3.531,3.517,3.186,5.372,1.09
			c0.899-1.016,1.107-2.057,1.699-3.149c1.184-2.188,1.721-1.026,3.753,0.316c2.51,1.662,5.229,2.703,8.101,3.537
			c0.727,0.212,1.965-0.543,3.167-0.366c0.25-0.294,0.404-0.631,0.594-0.944c0.112-0.905,0.112-1.785-0.958-2.027
			c0.184-0.023,0.369-0.052,0.553-0.078c-0.743-1.837-2.437-1.979-4.148-2.54c-0.617-0.202-6.545-1.895-6.558-2.333
			c-0.052-1.845,5.068,0.21,5.808,0.477c2.034,0.731,4.19,1.104,5.59,3.287c0.856,1.334,3.657-0.024,3.338-1.425
			c-0.415-1.823-3.87-2.085-5.244-2.56C82.266,294.905,76.597,294.085,77.991,289.911z"/>
		<path fill="#FF6600" d="M82.14,293.356c0.859,0.359,1.744,0.602,2.623,0.817c-2.116-0.794-5.008-1.255-5.488-3.33
			c-0.032-0.143-0.09-0.241-0.136-0.36C78.856,291.877,81.1,292.924,82.14,293.356z"/>
		<path fill="#CC9966" d="M274.71,216.071c0.142-0.038,0.28-0.093,0.422-0.138c5.369-6.137,11.535-15.179,8.646-22.692
			c-0.143-0.594-0.176-0.963-0.137-1.167c-0.747-0.881-1.686-1.631-2.867-2.199c-0.376-0.002-0.763,0.159-1.105,0.237
			c4.255,6.324,1.365,13.283-3.043,18.573c-0.688,0.828-1.434,1.674-2.251,2.375c-0.637,0.549-2.506,1.235-2.923,1.94
			c-0.134,0.224-0.22,0.431-0.288,0.627c0.465,0.804,0.774,1.507,0.982,2.239C272.915,216.222,273.933,216.284,274.71,216.071z"/>
		<path fill="#FF6600" d="M229.973,285.396c-0.02,0.004-0.041,0.005-0.063,0.009c1.357-0.009,2.719-0.009,4.096-0.009
			C232.662,285.396,231.318,285.396,229.973,285.396z"/>
		<path fill="#FF6600" d="M202.235,285.396c0.211-0.055,0.382-0.076,0.544-0.09c-3.457-1.58-2.697-15.429-2.914-18.207
			c-2.093,1.13-4.146,2.036-6.439,2.674c-2.59,0.72-7.063,1.736-9.64,0.811c0.717,2.271,1.393,4.555,2.071,6.838
			c0.104,0.281,0.21,0.563,0.299,0.846c0.203,0.65,0.381,1.308,0.556,1.961c0.517,1.724,1.028,3.452,1.578,5.168
			c0.519,1.453,1.354,2.997,1.896,3.96c0.496,0.879,1.025,0.706,0.277,2.081c-0.977,1.789-0.945,4.151,0.019,6.059
			c0.635,1.254,0.713,2.195,1.245,3.188c0.741,1.378,2.293,2.719,3.276,3.975c1.91,2.441,3.59,5.223,5.67,7.507
			c2.355,2.588,6.423,5.96,10.095,4.558c5.569-2.129-1.681-10.552-3.515-13.269c1.556,1.729,3.923,0.632,6.082,0.84
			c3.314,0.32,5.532,2.593,8.573,3.552c3.863,1.221,7.813,2.03,11.854,2.382c4.556,0.395,13.967,1.637,15.564-4.318
			c0.808-3.004-0.282-4.703-3.121-5.444c-3.969-1.038-7.969-1.934-12.007-2.658c-4.011-0.72-8.029-1.273-12.077-1.731
			c-3.641-0.408-5.987-1.101-9.496-1.888c6.65,0.205,13.262-0.114,19.873,0.871c2.027,0.303,2.602,0.5,4.425-0.238
			c1.515-0.613,3.051-1.125,4.602-1.644c2.372-0.793-2.981-5.728-3.833-6.177c-5.174-2.74-12.032,0.263-17.462,0.866
			c-3.031,0.338-7.073,1.371-10.095,0.883c-1.507-0.242-3.01-0.532-4.528-0.703C203.351,287.797,203.204,287.413,202.235,285.396z"
			/>
		<path fill="#FF6600" d="M203.706,285.533c-0.01-0.035-0.02-0.064-0.028-0.102c-0.035,0.007-0.07,0.014-0.105,0.018
			C203.618,285.476,203.665,285.5,203.706,285.533z"/>
		<path fill="#FF6600" d="M284.85,320.68c0.143,0.296,0.371,0.602,0.745,0.912c1.343,1.12,4.996-0.157,6.32-1.027
			c1.612-1.062,1.988-2.839,3.337-3.999c0.545-0.472,1.248,0.096,1.482-0.04c0.469-0.276,2.37-1.933,2.37-2.396
			c0-1.579-1.437-2.675-1.343-4.494c0.311-0.251,0.539-0.677,0.791-0.991c-1.979-0.34-3.955-0.682-5.927-1.03
			c0.504,2.182,0.316,4.023-1.971,4.072c-2.626,0.057-5.317,0.694-7.748,1.67c-1.343,0.537-5.754,2.3-4.898,4.477
			c0.697,1.776,4.162,0.463,5.215,0.595c0.735-2.344,3.447-3.856,5.686-4.434c1.967-0.508,4.86-0.693,2.096,1.186
			c-1.251,0.851-5.825,2.495-6.276,4.522c0.021-0.006,0.051-0.006,0.075-0.009C284.746,320.08,284.777,320.398,284.85,320.68z"/>
		<path fill="#FF6600" d="M277.771,312.287c-1.092,0.684-4.206,2.777-1.383,3.681c0.886-2.326,2.911-3.529,5.214-4.315
			C280.415,311.683,278.545,311.247,277.771,312.287z"/>
		<path fill="#FF6600" d="M145.506,317.317c-0.198-0.027-0.396-0.055-0.593-0.079C145.104,317.271,145.278,317.361,145.506,317.317z
			"/>
		<path fill="#FF6500" d="M179.164,289.713c-0.488-1.441-1.191-3-1.856-4.316c0.229,0,0.474-0.02,0.719-0.03
			c-0.001-0.01-0.004-0.019-0.005-0.026c-1.738-0.747-1.792-5.028-1.919-6.775c-0.225-3.076-0.3-6.172,0.461-9.181
			c-0.005-0.045-0.011-0.092-0.017-0.137c-0.637,0.165-1.192-0.099-1.846-0.088c-1.25,0.024-2.632,0.35-3.94,0.409
			c-3.354,0.156-6.527-0.195-9.768-1.082c0.519,2.999,1.023,6.045,1.08,9.094c0.03,1.633,0,3.257-0.091,4.885
			c-0.054,0.985,0.221,2.439-0.433,2.892c0.093,0.016,0.167,0.008,0.273,0.04c-0.302,1.912-0.37,3.415-0.994,4.376
			c-0.01,0.125-0.023,0.25-0.033,0.377c-0.081-0.009-0.165-0.015-0.245-0.025c-0.606,0.632-1.602,0.935-3.372,0.837
			c-4.356-0.241-8.222,0.021-12.519,0.23c-6.907,0.334-15.225-0.408-20.97,4.248c-1.257,1.017-2.289,2.441-2.845,4.004
			c-0.008,0.03-0.019,0.057-0.027,0.085c-0.001,0-0.001,0.003-0.003,0.003c-0.414,1.213-0.549,2.501-0.235,3.766
			c0.575,2.308,4.705,3.074,6.608,3.278c7.003,0.759,12.538-3.104,18.913-4.86c-1.342,1.091-2.843,2.93-3.981,4.974
			c0.053,0.074,0.097,0.141,0.16,0.215c-0.002,0-0.008-0.002-0.012-0.002c-0.179,0.039-0.36,0.244-0.533,0.517
			c-0.396,0.793-0.729,1.604-0.971,2.407c-0.076,0.256-0.15,0.513-0.205,0.766c-0.022,0.096-0.038,0.188-0.057,0.282
			c-0.421,2.219,0.035,4.191,1.825,5.43c2.188,1.109,5.637,0.066,7.705-0.808c3.39-1.435,6.101-4.342,8.157-7.297
			c0.894-1.282,5.202-9.795,6.914-6.763c0.781-0.234-0.146,3.301-0.256,4.278c-0.527,4.642,0.242,14.772,6.538,15.365
			c3.909,0.369,5.7-2.759,5.545-6.226c-0.186-4.192-0.25-8.354-0.214-12.554c0.015-1.646-0.042-3.457,0.555-4.745
			c0.271-0.584,0.983-1.619,1.344-2.377C179.701,292.898,179.977,292.115,179.164,289.713z M120.981,299.33
			c0.854-1.387,2.579-2.19,4.14-2.408c0.947-0.039,1.698,0.286,2.191,0.781C125.898,296.707,122.684,297.406,120.981,299.33z
			 M143.925,299.06c-0.043-0.019-0.078-0.043-0.119-0.063c0.172,0.058,0.349,0.118,0.534,0.187
			C144.202,299.146,144.056,299.111,143.925,299.06z M143.333,307.852c-0.058-0.019-0.178-0.133-0.314-0.272
			c0.178,0.135,0.359,0.254,0.552,0.354C143.492,307.907,143.417,307.877,143.333,307.852z M146.217,308.285
			c-0.675,0.253-1.169,0.186-1.664,0.019c0.677,0.159,1.358,0.11,1.959-0.177C146.412,308.18,146.33,308.244,146.217,308.285z
			 M164.547,271.971c-0.138-0.139-0.302-0.376-0.473-0.475h0.553C164.622,271.553,164.571,271.899,164.547,271.971z"/>
		<path d="M311.793,148.858c1.408-6.462,1.62-12.83,0.466-19.377c-0.594-2.834-2.116-5.803-1.218-8.424
			c0.872-2.545,1.06-5.133,1.06-7.822c0-3.21-0.603-6.605-2.07-9.485c-0.765-1.501-2.969-6.169-4.725-6.069
			c-0.035-2.422-0.169-4.846-0.71-7.208c-0.5-2.048-1.293-3.992-2.624-5.643c-0.485-0.599-1.896-1.398-2.155-2.04
			c-0.268-0.651,0.283-2.504,0.334-3.256c0.26-3.896-0.011-9.285-3.336-11.912c-4.184-3.304-9.921-0.749-14.266,0.801
			c-5.063,1.809-9.782,4.541-14.18,7.594c-5.91,4.23-11.947,8.812-16.592,14.455c0.025,0,0.064,0.002,0.098,0.003
			c-0.082,0.038-0.166,0.072-0.216,0.125c-1.092,1.219-2.146,2.427-3.151,3.721c-1.026,1.325-3.511,6.435-5.068,6.367
			c1.232-3.383,1.979-6.628,2.412-10.216c-0.159,0-0.271,0.007-0.406,0.011c0.27-0.096,0.419-0.352,0.443-1
			c0.042-0.988,0.102-1.985,0.079-2.973c-0.041-2.041-0.318-4.081-0.733-6.078c-0.642-3.096-2.209-6.033-2.308-9.128
			c-0.116-3.612-0.661-7.279-2.338-10.536c-0.634-1.231-2.897-3.759-2.429-4.953c0.574-1.453,1.062-2.798,1.371-4.313
			c-0.203,0-0.372-0.004-0.538-0.006c0.357-0.151,0.548-0.525,0.569-1.43c0.028-1.205,0.041-2.389-0.031-3.593
			c-0.156-2.511-0.661-4.945-1.325-7.366c-1.498-5.469-4.891-9.819-8.315-14.218c-4.885-5.695-12.34-9.285-19.782-6.57
			c-1.856,0.675-3.681,1.347-5.425,2.273c-1.158,0.615-2.834-1.947-3.899-2.81c-2.815-2.279-5.955-3.787-9.451-4.691
			c-3.373-0.874-7.559-1.068-10.784,0.317c-1.584,0.681-3.007,2.221-4.041,3.562c-1.536,1.99-1.377,2.511-3.744,1.444
			c-5.969-2.692-14.854,1.966-14.854,8.881c0,1.381,0.307,2.739,0.908,3.97c-10.894,3.696-18.154,11.129-24.848,20.237
			c-9.04,11.551-15.307,25.487-20.859,38.969c0.43,0,0.781,0.007,1.1,0.013c-0.946,0.082-1.299,0.463-1.962,2.082
			c-0.967,2.36-1.934,4.719-2.9,7.079c-1.424,3.477-2.791,6.977-4.178,10.47c-0.965,2.25-1.926,4.501-2.88,6.757
			c-0.538,1.272-3.284,2.738-4.497,3.797c-3.059,2.676-6.623,5.544-9.057,8.812c0.258,0,0.655,0.041,1.087,0.079
			c0.01,0,0.018,0,0.027,0.002c-0.01,0-0.021,0.002-0.031,0.002c-1.197,0.167-1.884,0.679-2.923,2.313
			c-1.135,1.782-2.077,3.541-2.796,5.541c-0.613,1.706-0.736,3.562,0.408,5.089c0.767,1.025,1.131,1.527,0.75,2.813
			c-0.963,3.254-3.817,6.772-5.214,10.06c-1.807,4.244-3.227,8.628-4.464,13.07c3.509,0,3.11-0.232,4.094-3.572
			c0.582-1.97,1.29-3.925,2.052-5.833c1.524-3.82,2.954-7.711,5.468-10.991c1.258,8.68,12.277,12.832,19.918,12.832
			c2.268,0,4.476-0.623,6.708-0.676c2.207-0.05,4.134,0.131,6.361-0.195c3.338-0.493,5.866-0.84,8.809-2.455
			c0.278,2.396,0.638,4.811,1.402,7.107c0.342,1.025,0.704,2.041,1.146,3.03c0.19,0.428,0.47,0.641,0.801,0.747
			c-0.15,0.002-0.292,0.006-0.465,0.006c3.127,7.59,8.663,13.641,16.395,16.592c3.552,1.357,7.037,1.25,9.971-0.146
			c2.524-1.198,4.643-3.351,6.028-6.388c0.058,0.083,0.125,0.16,0.183,0.244c2.777,3.994,7.267,7.157,12.184,8.798
			c3.368,1.125,6.927,1.541,10.271,1.003c1.221-0.197,2.413-0.515,3.556-0.976c2.747-1.106,4.117-2.769,5.649-5.19
			c1.278-2.02,3.164-4.95,3.2-7.443c1.738,0.536,3.189,1.734,4.946,2.31c2.061,0.674,4.098,1.272,6.216,1.749
			c3.804,0.856,7.791,0.892,11.594,0.02c6.274-1.439,11.259-5.089,14.617-10.572c-0.096,0-0.169,0-0.262,0
			c0.175-0.057,0.314-0.127,0.359-0.235c0.415-0.989,0.87-1.988,1.156-3.024c0.474-1.732,0.76-3.362,0.936-5.139
			c0.099-0.973,0.112-1.935,0.043-2.913c-0.12-1.685,0.089-1.179,1.282-1.917c1.335-0.826,2.659-1.164,3.801-2.406
			c2.664-2.894,7.433-7.236,7.103-11.494c-0.143-1.845-1.141-2.932-2.292-4.277c-1.655-1.946-3.028-4.108-4.463-6.258
			c-0.105-0.856-0.478-1.182-0.991-1.294c0.129-0.005,0.257-0.011,0.398-0.011c-2.191-6.68-4.068-13.857-3.191-20.902
			c0.431-3.459,5.461-6.032,7.496-8.871c2.359-3.288,5.252-6.258,7.982-9.236c0.929-0.441,1.866-2.07,2.646-2.813
			c2.252-2.138,4.565-4.206,7.031-6.098c4.477-3.435,9.434-6.63,14.637-8.844c3.559-1.513,9.904-5.554,13.77-3.235
			c3.387,2.032,3.354,8.474,2.961,11.999c-1.11-0.467-3.016-0.874-3.829,0.199c2.409,0.864,4.389,2.517,6.023,4.454
			c0.741,0.878,1.177,1.905,1.836,2.832c0.874,1.229,1.065,1.467,1.938,1.506c-0.409,0-0.817,0-1.227,0
			c2.247,4.849,2.167,11.519,0.91,16.633c1.925-0.582,2.061-4.995,2.371-6.573c4.468,3.928,4.023,12.787,3.83,18.097
			c-0.281-0.669-1.605-3.859-2.45-3.919c-1.905-0.14-0.492,4.048-0.274,4.792c0.615,2.1,1.501,4.119,2.134,6.216
			c0.343,1.146,0.624,2.309,0.912,3.466c0.039,0.144,0.183,0.235,0.379,0.297c-0.101,0-0.203,0-0.305,0
			c0.743,3.292,0.996,6.86,0.903,10.228c-0.092,3.305-1.318,6.084-1.606,9.239c-0.336,3.69,1.934,7.577,2.979,11.072
			c0.55,1.839,0.908,3.755,1.231,5.645c0.476,2.747,0.309,2.786,3.206,2.786c-0.587-3.423-1.219-6.816-2.092-10.179
			C313.166,155.221,311.096,152.054,311.793,148.858z M165.733,20.692c1.808-0.697,3.622-0.745,5.52-0.506
			c0.875,0.109,2.514,2.562,3.981,2.902c1.878,0.436,2.863-2.796,3.733-4.059c3.295-4.788,12.521-4.408,16.931-1.092
			c2.452,1.844,4.827,3.116,5.726,6.002c0.383,1.231,1.305,1.756,2.529,1.902c0.356,0.042,2.068-2.685,2.705-3.169
			c6.654-5.063,15.503-1.95,20.699,3.532c4.938,5.212,8.347,12.917,9.445,19.992c0.286,1.843,0.114,3.507-0.316,5.307
			c0.302,0,0.573,0.016,0.826,0.034c-0.466,0.094-0.782,0.354-1.342,1.035c-0.866,1.059-1.582,2.649-1.302,4.04
			c0.621,3.09,3.615,5.569,4.338,8.882c1.433,6.568,0.79,13.933-5.326,17.81c-5.562,3.524-10.4-0.447-13.154-5.308
			c-3.61-6.368-5.716-13.041-10.741-18.624c-1.685-1.87-3.451-3.662-5.334-5.338c-0.806-0.719-1.981-2.148-2.968-2.532
			c-6.739-5.687-12.807-8.149-21.657-8.279c-3.749-0.055-8.183,0.318-11.765-1.028c-1.558-0.586-3.108-1.933-4.238-3.551
			c-0.42-0.601-0.776-1.237-1.054-1.89c-0.391-0.922-0.635-1.869-0.635-2.776c0-2.417-1.998-4.475-2.084-6.792
			C160.141,24.177,163.124,21.698,165.733,20.692z M248.621,142.184c-0.288,2.004-2.789,4.857-4.154,6.127
			c-1.327,1.238-3.036,3.544-4.839,4.06c-0.942,0.269-3.97,0.434-3.775,2c0.625,5.013,0.209,9.834-2.723,14.081
			c0.191,0,0.534,0.025,0.933,0.056c0.081,0.006,0.162,0.013,0.248,0.018c-0.109,0.016-0.208,0.043-0.312,0.067
			c-0.836,0.182-1.484,0.609-2.561,1.643c-0.96,0.922-1.994,1.853-3.09,2.61c-1.94,1.347-4.197,2.356-6.479,2.932
			c-6.79,1.705-14.602,0.505-20.479-3.264c-1.229-0.791-1.67-1.696-3.185-1.213c-1.254,0.401-1.85,1.635-1.975,2.834
			c-0.196,1.853-1.48,3.844-2.213,5.8c-0.667,1.786-0.996,2.461-2.647,3.564c-1.529,1.021-3.188,1.813-4.977,2.259
			c-2.198,0.545-4.413,0.483-6.598-0.042c-5.554-1.334-10.04-5.162-13.591-9.483c-0.294-0.356-2.134-1.78-2.489-1.763
			c-0.817,0.041-1.443,1.332-1.935,2.259c-1.524,2.863-1.688,5.547-5.215,6.335c-4.733,1.06-9.931-0.786-13.572-3.747
			c-1.964-1.595-3.739-3.602-5.232-5.638c-0.839-1.141-1.568-2.354-2.284-3.573c-0.666-1.134-1.016-1.499-1.662-1.611
			c0.256-0.021,0.52-0.042,0.785-0.042c-1.31-2.748-2.263-5.504-2.931-8.475c-0.6-2.666,0.403-5.587-1.177-8.002
			c-0.521,0.429-1.068,0.842-1.63,1.24c-0.03,0.021-0.062,0.041-0.091,0.062c-2.97,2.099-6.452,3.728-10.041,4.307
			c-0.056,0.008-0.111,0.021-0.167,0.028c-0.604,0.091-1.211,0.156-1.819,0.186c-1.538,0.074-3.097,0.19-4.661,0.283
			c-4.142,0.246-8.326,0.303-12.289-1.207c-5.556-2.111-11.086-5.56-10.468-12.383c0.123-1.355-0.723-2.239-1.817-2.95
			c-1.655-1.079-1.332-1.941-0.816-3.893c0.903-3.42,2.844-5.819,5.399-8.166c-0.038,0-0.066,0-0.103,0
			c0.105-0.041,0.197-0.09,0.264-0.155c1.044-1.007,2.081-2.005,3.178-2.954c1.474-1.28,2.833-2.688,4.325-3.942
			c-1.31,2.349-2.584,4.708-3.911,7.051c0.19,0,0.343,0.002,0.51,0.002c-0.378,0.101-0.717,0.286-0.981,0.655
			c-0.686,0.956-1.398,1.851-2.097,2.786c-1.003,1.344-1.604,2.521-2.173,3.962c0.738-0.428,1.409-1.065,2.37-1.15
			c2.356-1.313,4.015-4.07,5.491-6.255c-0.286,0-0.58-0.021-0.873-0.046c0.833-0.136,1.217-0.604,1.979-2.134
			c0.796-1.593,1.602-3.187,2.352-4.803c1.254-2.697,2.467-5.405,3.638-8.135c0.404-0.944,0.823-1.879,1.21-2.832
			c0.144-0.353,0.286-0.704,0.429-1.06c2.726-6.705,5.392-13.414,8.411-20c-0.396,0-0.724-0.005-1.023-0.009
			c0.787-0.09,1.192-0.449,1.768-1.729c0.83-1.85,1.656-3.699,2.523-5.531c1.906-4.027,3.906-8.008,5.888-11.998
			c3.288-6.619,7.035-14.305,12.177-19.703c-0.313,0-0.625,0-0.937,0c-0.084,0-0.168,0-0.251,0c0.098-0.009,0.191-0.024,0.284-0.041
			c0.741-0.131,1.313-0.515,2.107-1.591c0.959-1.3,2.073-2.594,3.184-3.765c2.48-2.615,4.973-5.51,7.938-7.594
			c1.584-1.112,3.416-1.836,5.074-2.844c1.417-0.861,1.609-0.579,2.906-0.839c2.015-0.402,1.784-1.016,2.554,1.13
			c0.563,1.565,1.296,3.011,2.186,4.414c4.305,6.786,11.347,5.621,18.33,5.723c3.732,0.054,7.117,0.398,10.548,1.961
			c1.608,0.731,3.17,1.675,4.645,2.649c0.648,0.429,1.305,0.647,1.979,0.756c-0.28,0.021-0.546,0.04-0.776,0.04
			c5.547,3.754,10,8.689,13.669,14.258c1.884,2.862,3.651,5.816,5.215,8.871c1.402,2.739,2.261,5.969,3.99,8.514
			c6.387,9.396,17.873,2.76,21.595-5.131c0.102-0.217,0.202-0.433,0.292-0.652c0.12,0.363,0.224,0.724,0.332,1.085
			c1.183,3.962,1.644,7.833,1.523,12.023c0.245,0,0.454,0.015,0.654,0.029c0.116,0.012,0.225,0.017,0.327,0.024
			c-0.112,0.015-0.235,0.027-0.325,0.048c-0.978,0.229-0.738,0.91-1.005,2.643c-0.305,1.996-1.166,3.912-1.883,5.811
			c-0.866,2.291-1.691,4.575-2.548,6.969c-1.449,4.049-1.056,8.596-0.553,12.792c0.267,2.243,0.787,4.428,1.446,6.589
			c0.331,1.075,0.73,2.125,1.18,3.154c0.26,0.594,0.532,0.839,0.875,0.938c-0.152,0.005-0.306,0.013-0.461,0.013
			c1.438,3.305,2.501,6.579,5.017,9.364c0.661,0.733,1.392,1.23,1.795,1.885c0.223,0.366,0.35,0.775,0.3,1.306
			C248.651,142.082,248.63,142.137,248.621,142.184z"/>
		<path d="M306.77,202.033c0.564,2.026,2.288,1.144,3.672,0.277c-0.262,1.962,3.294,1.09,4.465,0.909
			c-1.509,1.164,2.643,2.892,5.64,3.719c1.069,0.296,1.995,0.48,2.458,0.48c-1.647-1.158-3.311-2.3-5.078-3.273
			c-1.876-1.028-1.219-1.083-0.728-2.628c1.03-3.244,1.496-6.74,1.697-10.139c0.234-3.95,0.381-8.841-1.008-12.613
			c-0.537-1.461-1.065-1.887-1.164-3.546c-0.136-2.267-0.408-4.516-0.674-6.769c-0.906,0-1.815,0-2.724,0
			c0.163,1.857,0.304,3.734,0.475,5.582c-0.393-1.582-0.858-3.213-1.706-4.616c-0.3-0.493-0.687-0.754-1.122-0.906
			c-0.057-0.02-0.114-0.048-0.178-0.063c0.044,0,0.093,0,0.137,0c0.185,0.004,0.37,0.004,0.578,0.004
			c-2.33-4.252-8.271-5.899-12.801-5.902c-2.881-0.004-5.832,0.277-8.394,1.675c-0.014,0.012-4.121-4.549-5.158-5.122
			c-4.647-2.561-11.121-0.547-15.796,1.094c-6.006,2.105-11.443,4.813-16.794,8.256c0.021,0,0.043,0,0.067,0
			c-0.071,0.025-0.151,0.045-0.215,0.08c-1.566,0.867-3.188,1.673-4.714,2.61c-1.553,0.956-8.262,5.177-7.979,7.21
			c0.27,1.942,6.986-3.433,7.863-4c3.266-2.117,6.601-4.067,10.033-5.9c-0.217,0-0.482-0.02-0.76-0.043
			c0.686-0.097,1.354-0.279,2.003-0.629c2.117-1.142,4.283-2.154,6.503-3.083c3.531-1.475,7.365-3.055,11.144-3.986
			c0.433-0.109,0.866-0.213,1.298-0.301c3.031-0.622,5.941,0.037,8.059,2.377c0.938,1.034,1.604,2.207,1.779,3.604
			c0.198,1.602,0.337,2.008,1.082,2.086c-0.881,0.131-1.097,0.638-1.398,2.469c-0.296,1.777-0.641,3.851-1.621,5.384
			c0.788,0.024,1.461-0.155,2.041-0.474c2.049-1.119,2.901-4.037,3.176-6.537c0.033-0.297,0.06-0.588,0.077-0.867
			c-0.079-0.8-0.209-1.598-0.396-2.377c3.942-0.321,8.035-0.531,11.972,0c1.531,0.204,2.608,0.635,3.951,1.387
			c1.008,0.563,1.74,0.802,2.591,0.905c-0.499,0.035-1.011,0.085-1.525,0.085c2.008,2.471,3.09,5.592,2.923,8.792
			c-0.061,1.151-0.164,2.561-0.613,3.642c-0.518,1.248-1.656,2.179-2.153,3.367c-0.501,1.201-0.08,2.597-0.315,3.88
			c-0.201,1.119-0.602,2.191-0.99,3.255c-0.723,1.968-2.933,3.84-3.393,5.694c-0.635,2.548,0.556,0.668,1.934,0.496
			c0.235-0.029,0.475-0.138,0.714-0.308c1.654-1.174,3.335-5.291,3.752-6.604c0.36-1.132,0.298-2.499,0.711-3.564
			c0.393-1.017,1.216-1.566,1.816-2.573c0.971-1.627,1.475-3.826,1.897-5.741c0.121,2.359,1.635,4.713,1.678,6.69
			c0.055,2.538,0.052,5.371-0.783,7.793c-0.535,1.544-1.246,2.909-2.164,4.258c-0.483,0.711-1.142,1.845-1.575,2.365
			c-0.427,0.512,0.036,0.58-1.183,0.957c-0.444,0.137-0.883,0.328-1.31,0.528c-0.132,0.061-0.265,0.116-0.394,0.179
			c0.022-0.138,0.025-0.238,0.038-0.361c0.421-3.921-3.307,1-4.62,1.63c-3.599,1.724-7.699,2.477-11.1,4.593
			c0.534,0,1.326-0.061,2.267-0.178C298.999,206.719,306.339,204.997,306.77,202.033z M312.695,202.112
			C312.696,202.103,312.61,202.37,312.695,202.112L312.695,202.112z"/>
		<path d="M396.88,207.419c4.04,6.244,7.543,12.616,10.508,19.443c1.521,3.499,2.735,7.109,3.969,10.72
			c0.564,1.648,1.114,3.299,1.663,4.949c0.694,2.085,0.681,3.137,1.689,3.584c0.433,0.19,1.055,0.272,2.002,0.272
			c-4.13-13.707-9.256-27.115-17.421-38.969c-0.589,0-1.177,0-1.765,0C397.31,207.419,397.095,207.419,396.88,207.419z"/>
		<path d="M418.705,255.415c-0.113-1.952-0.641-3.923-1.114-5.815c-0.618-2.481-0.509-3.122-2.812-3.196
			c-0.158-0.005-0.294-0.016-0.477-0.016c1.617,5.748,2.61,11.183,1.617,17.147c-0.261,1.577-2.111,1.256-2.487,2.672
			c-0.125,0.47,0.219,1.284,0.039,1.644c-0.382,0.765-0.426,0.341-1.224,0.872c-0.551,0.368-0.183,1.608-0.316,2.259
			c-0.932-0.648-2.283,1.209-3.301,2.419c-0.271,0.319-0.519,0.597-0.729,0.77c-0.671,0.545-1.339,1.097-2.014,1.646
			c-1.684,1.377-3.417,2.725-5.375,3.799c-6.146,3.364-12.765,4.521-19.714,4.76c-3.735,0.129-7.537,0.213-11.218-0.564
			c-1.582-0.332-3.408-0.734-4.86-1.462c-0.446-0.227-0.78-0.316-1.005-0.406c-0.169-0.068-0.276-0.143-0.32-0.272
			c-0.056-0.177,0-0.46,0.176-1.003c0.352-1.081,0.746-2.146,1.09-3.231c2.335-7.322,2.923-16.336,0.967-23.872
			c-0.632-2.444-1.4-4.814-2.288-7.176c-6.771-14.214-18.729-23.874-31.646-32.332c-0.134-0.088-0.262-0.174-0.396-0.262
			c0.259-0.188,0.679-0.58,1.123-1.062c1.248-1.361,2.694-3.45,1.438-3.932c-0.027-0.012-0.043-0.027-0.071-0.036
			c0.041-0.011,0.079-0.024,0.12-0.035c0.916-0.257,1.684-0.624,2.329-1.311c-0.334,0-0.646-0.009-0.947-0.011
			c0.419-0.061,0.798-0.183,1.105-0.426c0.351-0.277,0.93-1.714,1.423-2.297c1.828-2.16,3.847-4.132,5.844-6.135
			c1.253-1.26,5.139-3.393,5.139-5.052c0-0.537,1.61-2.286,2.013-2.833c1.728,1.694,5.547-3.044,7.041-4.569
			c0.101-0.104,0.19-0.19,0.27-0.261c0.029,0.048,0.082,0.084,0.119,0.131c1.475,1.667,8.265,0.293,10.427,0.481
			c2.085,0.182,4.101,0.553,6.136,1.027c1.467,0.34,3.024,1.438,4.433,1.547c1.595,0.123,3.855,2.808,4.839,3.978
			c1.66,1.976,3.452,3.788,5.335,5.548c1.673,1.564,3.278,3.215,4.681,5.028c1.343,1.736,1.837,2.979,3.22,3.526
			c0.51,0.201,1.134,0.316,1.976,0.316c-3.67-5.113-7.753-9.408-12.054-13.786c-0.898-0.916-1.805-1.837-2.721-2.769
			c-0.055-0.073-0.125-0.139-0.18-0.212c-2.534-3.382-7.534-5.044-11.486-5.79c-2.412-0.455-4.848-0.679-7.298-0.53
			c-1.898,0.11-4.949,1.405-6.399-0.043c0.464-0.332,0.668-0.865,1.066-1.227c-0.369,0.248-0.861,0.372-1.265,0.833
			c-1.073-1.259-1.226,0.585-1.915,1.109c-1.429,1.084-2.91,2.116-4.443,3.09c-1.173,0.739-2.039-0.613-3.241,0.553
			c-0.726,0.706-0.084,2.565-1.383,1.484c-1.819-1.518-1.145,1.927-1.065,2.556c0.219,1.76-3.23,3.466-4.566,4.672
			c-3.32,3.002-5.522,8.267-9.46,10.06c0.308,0,0.618,0.014,0.927,0.024c-0.705,0.068-1.384,0.248-2.128,0.692
			c-0.921,0.55-0.921,1.387,0.175,1.738c-1.223,0.255-2.281,1.564-0.712,2.179c-1.229,1.924-3.723-0.735-5.192-1.621
			c-1.237-0.74-2.297-1.236-2.51-2.735c-0.745-0.441-1.644-0.308-2.512-0.286c-0.07,0.004-0.145,0.009-0.215,0.009
			c0.12,0.06,0.242,0.119,0.364,0.181c0.846,0.413,1.758,0.824,2.401,1.442c-0.534-0.313-1.621-1.108-2.357-1.392
			c-0.606-0.231-0.98-0.117-0.604,0.915c0.706,1.948,5.259,4.006,6.802,5.112c4.665,3.339,9.365,6.639,13.925,10.124
			c4.345,3.32,8.331,7.133,11.805,11.358c1.737,2.11,3.372,4.276,4.819,6.598c0.664,1.069,1.239,2.191,1.789,3.322
			c0.422,0.86,0.831,1.19,1.357,1.308c-0.239,0-0.477,0-0.716,0c5.238,13.129,3.978,26.416-1.976,39.009
			c0.258,0,0.53,0.018,0.802,0.035c-0.652,0.143-1.139,0.545-1.762,1.613c-0.842,1.446-2.503,2.219-3.978,3.419
			c-3.04,2.479-5.953,5.072-9.285,7.169c-5.946,3.741-12.347,5.792-19.27,6.912c-14.276,2.311-30.921,2.313-44.294-3.783
			c-6.725-3.063-13.437-8.447-16.276-15.365c-5.361-12.358-3.477-26.576,0.712-39.009c-0.12,0-0.241-0.005-0.362-0.014
			c0.257-0.102,0.466-0.276,0.58-0.593c0.445-1.219,0.883-2.433,1.384-3.627c0.935-2.224,1.853-4.502,3.041-6.605
			c2.6-4.612,5.234-8.936,8.621-13.022c2.542-3.073,6.159-5.206,8.544-8.218c2.549-3.22,5.349-5.192,9.322-6.89
			c-0.638,0-1.203-0.004-1.732,0.014c-1.602,0.055-2.822,0.308-4.41,1.448c-2.123,1.527-3.744,3.172-5.629,4.953
			c-2.97,2.806-6.272,5.053-9.007,8.158c-2.259,2.563-4.243,5.411-5.989,8.418c0.18-0.348,0.364-0.688,0.536-1.051
			c1.565-3.322,1.475-8.436,4.475-10.399c2.906-1.907,5.25-4.665,7.198-7.501c2.141-3.125,4.555-6.642,5.196-10.456
			c0.374-2.227,0.062-4.441-0.87-6.496c-0.42-0.924-2.055-3.337-2.229-2.433c-0.039,0.204-0.006,0.573,0.137,1.167
			c2.89,7.514-3.276,16.556-8.646,22.692c-0.894,1.022-1.771,1.972-2.575,2.811c-0.065-1.144-0.174-2.032-0.411-2.877
			c-0.208-0.732-0.518-1.436-0.982-2.239c-0.039-0.063-0.068-0.122-0.108-0.188c-0.571-0.955,3.616-6.743,4.228-7.765
			c-1.613,1.733-7.388,5.809-7.388,7.979c0,0.966,1.765,1.913,2.111,3.071c0.396,1.313-0.079,2.699-0.408,3.967
			c-1.308,5.023-3.898,12.666-8.696,15.399c-5.152,2.934-14.257,0.372-19.363-1.673c-3.666-1.472-6.959-3.874-10.273-5.98
			c-3.283-2.088-6.986-3.219-10.343-5.101c1.041,2.436,5.731,4.162,7.961,5.566c3.119,1.964,5.832,4.378,8.946,6.356
			c6.126,3.888,13.917,6.621,21.089,4.468c4.553-1.364,7.502-4.245,9.72-8.05c-2.596,4.705-4.663,9.747-6.314,14.709
			c0.131,0,0.267,0.007,0.403,0.019c-0.284,0.112-0.518,0.319-0.653,0.72c-0.396,1.175-0.747,2.351-1.094,3.539
			c-0.862-0.426-1.388,1.42-2.408,1.804c-0.979,0.368-1.809,0.526-2.844,0.73c-3.779,0.752-7.541,1.566-11.354,2.16
			c-7.944,1.237-15.94,1.903-23.939,2.7c-7.931,0.79-15.778,2.152-23.735,2.793c-7.38,0.596-14.988,0.504-22.407,0.62
			c-4.843,0.077-9.725-0.487-14.495-1.285c-3.686-0.618-7.373-1.235-11.06-1.853c-1.06-0.178-2.122-0.356-3.182-0.535
			c-0.632-0.105-1.574,0.548-2.28,0.548c-3.16,0-6.855-1.522-9.943-2.331c-5.098-1.336-9.761-3.912-14.491-6.184
			c-2.078-1.091-4.138-2.204-6.188-3.348c-0.073-0.041-0.171-0.063-0.253-0.096c0.027,0,0.053-0.002,0.081-0.002
			c-7.832-5.002-14.872-10.901-21.231-17.688c-3.239-3.457-5.458-6.932-7.775-11.032c-1.156-2.046-2.354-4.069-3.462-6.141
			c-0.464-0.869-0.86-1.748-1.205-2.673c-0.415-1.108-0.707-1.396-1.308-1.452c0.231,0.008,0.479,0.017,0.77,0.017
			c-3.464-12.896-3.34-26.133,0.356-38.968c-2.985,0-2.962-0.307-3.717,2.57c-0.456,1.735-0.947,3.513-1.207,5.283
			c-0.592,4.035-0.924,7.991-1.041,12.064c-2.216-1.604-5.984-1.656-8.612-1.467c-1.634,0.12-3.185,0.748-4.78,0.913
			c-0.184,0.02-0.577-0.684-0.791-0.635c-0.325,0.077-0.584,0.441-0.909,0.515c-0.709,0.167-1.594,0.914-2.291,1.229
			c0.674-2.978-1.726-1.643-2.864-0.395c-0.647,0.705-1.464,3.492-2.272,3.008c-0.642-0.385-1.4-1.764-2.271-0.891
			c-0.827,0.827,1.033,2.74,0.376,3.859c-0.173,0.297-2.29,0.914-2.699,1.156c-1.054,0.62-2.075,1.248-3.085,1.938
			c-3.663,2.497-6.631,5.863-8.636,9.818c0.299,0,0.559,0.005,0.799,0.014c0.02,0,0.037,0,0.057,0
			c-0.024,0.002-0.043,0.011-0.066,0.016c-0.777,0.12-1.213,0.545-1.672,1.96c-0.581,1.781-0.943,3.473-1.132,5.336
			c-4.037-0.813-9.425,0.187-12.063,3.566c-3.562,4.564,1.166,8.032,5.03,10.135c-5.434,4.689-9.075,10.78-10.192,17.942
			c0.179,0,0.331,0.006,0.482,0.007c-0.401,0.112-0.625,0.441-0.739,1.32c-0.176,1.354-0.347,2.731-0.375,4.1
			c-0.06,2.741,0.293,5.536,0.928,8.197c0.271,1.138-0.976,5.041-1.659,6.14c-0.912,1.462,1.154,2.736,2.272,1.621
			c-0.284,1.615,0.894,5.266,3.082,4.119c0.381,3.5,6.359,8.064,9.168,9.728c2.324,1.373,4.681,2.415,7.224,3.314
			c0.68,0.239,1.39,0.391,2.118,0.48c-0.27-0.004-0.542-0.018-0.812-0.018c2.542,0.771,5.068,1.615,7.625,2.336
			c1.144,0.323,2.296,0.599,3.458,0.85c1.889,0.403,1.313,1.344,0.808,3.031c-0.765,2.56-1.563,2.905-3.991,3.366
			c-2.489,0.471-4.987,0.693-7.525,0.745c-3.893,0.083-11.909-2.018-12.82,3.771c-0.778,4.95,7.365,4.544,10.6,4.403
			c0.06-0.004,0.13-0.005,0.185-0.009c-0.011,0.021-0.015,0.038-0.027,0.06c-1.503,2.826,2.119,4.643,4.61,4.533
			c1.745-0.075,3.443-0.991,5.036-1.622c1.22-0.483,3.239-2.044,4.563-1.861c1.3,0.179,2.621,2.424,3.792,3.248
			c1.039,0.728,2.637,1.759,3.753,2.156c2.583,0.925,5.185-0.029,5.767-2.791c0.561-2.659-1.237-5.063-2.963-6.929
			c-0.963-1.044-2.063-1.991-3.201-2.837c-0.553-0.408-0.262-2.732-0.493-3.521c-0.158-0.536,1.132-3.633,1.44-3.607
			c3.567,0.32,7.087,0.459,10.668,0.459c-0.074,2.621-0.433,3.421-1.719,5.664c-1.008,1.758-2.559,3.213-3.062,5.107
			c-0.69,2.605,0.226,4.747,3.2,4.951c2.905,0.199,5.539-1.436,6.558-4.157c0.785-2.102,3.566,0.951,4.898,1.661
			c2.346,1.25,4.903,1.735,7.545,1.744c-0.076-0.202-0.097-0.396-0.158-0.595c3.318,0.281,4.275,0.127,3.624-3.214
			c-0.022-0.118-0.042-0.226-0.068-0.353c0.459,0.039,1.024-0.084,1.582-0.317c1.489-0.622,2.918-2.052,2.091-3.502
			c-1.654-2.906-4.443-3.297-7.292-3.995c-0.879-0.216-1.764-0.458-2.623-0.817c-1.04-0.433-3.283-1.479-3.001-2.873
			c0.056-0.27,0.197-0.553,0.473-0.85c0.782-0.84,5.158-1.055,6.212-1.267c4.05-0.821,8.096-1.759,12.039-2.971
			c-0.509,0-1.018,0-1.527,0c2.112,0,3.665-0.98,5.477-1.98c3.035-1.673,5.598-3.805,7.506-6.69
			c5.204-7.88,3.766-18.79,1.224-27.407c10.577,6.315,22.206,10.964,34.226,13.694c2.571,0.582,5.189,0.989,7.808,1.281
			c1.425,0.156,2.851,0.273,4.281,0.354c1.866,0.1,1.795,0.954,2.245,2.76c1.491,5.98,1.875,11.856,1.336,17.989
			c0.113,0.033,0.188,0.029,0.285,0.047c-0.756,0.482-0.635,2.078-0.795,3.087c-0.08,0.505-3.502-0.163-4.427-0.108
			c-4.129,0.242-8.249,0.526-12.373,0.847c-5.818,0.449-14.984-0.117-19.608,4.03c-3.75,3.36-8.195,9.843-2.903,14.196
			c4.779,3.931,15.743-0.193,21.135-1.07c-2.686,3.021-4.834,7.084-2.37,10.615c1.778,2.547,6.248,2.928,9.323,1.763
			c3.198-1.216,5.903-1.895,8.493-4.417c1.721-1.675,3.337-6.405,5.452-7.128c-0.086,5.469,0.231,10.771,5.432,13.998
			c3.957,2.456,9.126,1.767,10.172-3.307c1.248-6.046-1.115-12.566,0.633-18.453c0.636-2.141,2.064-4.399,2.608-6.714
			c0.565-2.41-1.641-5.254-2.45-7.386c-2.772-6.242-0.575-14.102-0.474-20.632c0.646,0.024,1.291,0.051,1.937,0.079
			c-0.291,3.279,2.654,7.206,3.489,10.366c0.531,2.013,0.919,4.037,1.239,6.095c0.25,1.604,0.478,3.653,1.896,4.065
			c-0.237,0.011-0.476,0.026-0.7,0.026c0.595,1.561,1.376,3.026,1.659,4.753c0.475,2.885-0.646,5.387,0.633,8.276
			c1.194,2.7,3.684,5.201,5.441,7.748c1.957,2.835,3.682,5.888,6.016,8.43c2.052,2.234,9.169,6.735,12.403,4.039
			c1.029-0.857,1.708-1.552,2.252-2.851c1.253-2.987-0.986-6.049-2.924-8.337c1.415,0.134,2.863-0.161,4.109,0.158
			c1.253,0.32,2.819,1.26,4.064,1.793c2.761,1.182,5.775,1.949,8.716,2.524c4.496,0.877,12.603,2.335,16.83-0.079
			c3.378-1.933,7.025-3.839,6.144-8.434c-1.039-5.393-8.085-5.81-12.446-7.012c3.026-0.563,5.23-1.91,4.74-5.348
			c-0.277-1.948-1.854-3.507-3.299-4.732c-0.624-0.529-1.338-0.793-2.098-0.93c0.259,0,0.517,0,0.776,0
			c-5.471-3.717-12.471-1.196-18.33,0c2.949,0,5.9,0,8.852,0c1.346,0,2.689,0,4.032,0c-1.377,0-2.738,0-4.096,0.009
			c-4.771,0.026-9.447,0.149-14.244,0.725c-2.781,0.332-5.568,0.583-8.363,0.795c-0.695,0.056-1.839,0.309-2.419-0.024
			c-0.643-0.365-0.757-1.016-1.176-1.367c-0.042-0.033-0.088-0.058-0.134-0.084c0.035-0.004,0.07-0.011,0.105-0.018
			c0.085-0.011,0.168-0.013,0.257-0.035c-1.393-3.639-2.133-7.016-2.372-10.895c-0.097-1.564-0.749-10.456,0.629-10.637
			c8.402-1.087,16.717-2.543,25.171-3.21c4.117-0.327,8.277-0.03,12.126-1.376c3.386-1.185,7.405-1.052,10.945-1.942
			c2.239-0.564,6.75-2.983,8.906-2.255c0.652,0.217-0.982,9.357-1.074,10.93c-0.119,2.122-0.054,4.214,0.112,6.302
			c0.063,0.785,0.136,1.57,0.229,2.353c0.118,1.018,0.257,2.035,0.408,3.057c0.279,1.844,0.802,3.66,1.347,5.439
			c0.574,1.875,1.051,2.19,2.349,2.234c-0.485,0-0.967,0-1.452,0c2.499,5.893,7.797,12.421,13.769,14.991
			c2.961,1.274,5.747,3.498,8.909,4.85c2.868,1.228,5.838,1.049,6.952,4.239c-1.586,0.149-3.157,0.248-4.705,0.646
			c-1.474,0.379-2.938-0.18-4.46-0.292c-3.025-0.22-6.224,0.479-7.766,3.427c-1.4,2.681,1.556,3.852,2.485,5.711
			c1.221,2.45,4.705,2.278,6.781,1.12c-0.495,3.264,3.872,3.747,6.28,3.446c2.195-0.275,4.084-1.719,5.492-3.367
			c1.665-1.948,3.744-3.004,5.727-4.711c0.84-0.722,0.17-2.98-0.237-3.863c-0.639-1.392-0.392-1.338-0.117-2.751
			c2.477,0.459,5.104,0.61,7.623,0.672c1.162,0.031,2.345,0.047,3.505-0.008c1.953-0.093,2.942-0.812,3.291,1.157
			c0.643,3.635-5.256,4.935-5.59,8.95c-0.558,6.694,9.484,5.115,11.003,0.118c1.84,2.367,5.055,5.295,8.335,4.356
			c2.947-0.845,3.552-3.98,1.58-6.139c2.111,0.712,10.021,2.776,10.943-0.454c1.246-4.362-7.1-6.069-9.818-6.535
			c-2.021-0.348-6.973,0.682-6.973-2.138c0-0.648,7.447-1.949,8.716-2.323c5.551-1.639,10.563-4.753,15.503-7.836
			c-0.093,0.051,1.51-1.114,1.976-1.468c-0.227,1.113-0.027,3.475,1.28,3.499c2.493,0.05,4.988,0.08,7.484,0.104
			c0.068,0,0.133,0.002,0.201,0.002c-0.079,0.097-0.124,0.178-0.192,0.268c-2.444,3.294,3.567,4.034,5.645,3.517
			c2.825-0.708,4.604-2.771,5.81-5.307c0.86-1.815,3.79-3.154,3.746-4.863c-0.02-0.804-0.048-2.419,0.195-3.925
			c0.084-0.532,0.199-1.053,0.361-1.516c0.378-1.06,0.995-1.837,1.998-1.837c2.913,0,3.021,4.315,3.021,6.724
			c0,2.04-0.385,2.815,1.032,4.535c1.308,1.591,2.661,3.066,4.417,4.18c3.101,1.963,6.342,3.374,10.075,3.374
			c2.747,0,5.852-2.114,3.932-5.188c-0.114-0.181-0.237-0.353-0.376-0.514c2.345,0.294,6.683,0.771,8.021-1.743
			c1.204-2.264,0.531-5.6-1.937-6.733c-2.067-0.947-5.077-0.863-7.286-1.209c-1.253-0.195-2.507-0.368-3.762-0.529
			c-1.183-0.151-2.362-0.296-3.545-0.443c-0.566-0.07-2.202-0.028-2.513-0.431c-0.198-0.256-0.152-0.688-0.002-1.133
			c0.25-0.747,0.798-1.548,0.989-1.679c0.931-0.637,3.471-0.703,4.661-0.951c-0.009,0-0.016,0-0.028,0
			c3.318,0,8.537-3.285,11.053-5.266c2.835-2.234,4.485-5.073,6.753-7.604c1.338,2.525,1.791-0.758,1.752-2.073
			c-0.003-0.082-0.005-0.159-0.014-0.224c0.011,0.06,0.029,0.123,0.047,0.182c0.201,0.785,0.863,1.605,1.732,1.201
			c0.915-0.424,0.597-2.601,0.335-3.383c-0.163-0.49,2.198-2.858,2.408-3.702C418.544,261.374,418.898,258.704,418.705,255.415z
			 M242.649,235.141c0.482,0.033,0.738,0.33,1.068,0.515C243.355,235.494,243.006,235.313,242.649,235.141z M23.749,224.863
			c-1.937-1.304-3.254-2.937-2.231-4.612c2.135-3.5,8.083-4.199,11.595-2.894c1.703,2.889,8.105,4.198,6.084,8.912
			c-1.313,3.061-6.489,1.804-9.105,1.308c-0.933-0.174-2.504-0.694-4.072-1.436C25.232,225.769,24.453,225.338,23.749,224.863z
			 M40.232,285.519c1.283-0.034,2.565-0.122,3.785-0.122c-0.313-0.084-0.623-0.171-0.935-0.255
			c-5.482-1.483-10.836-3.205-15.539-6.521c-2.308-1.627-3.886-3.653-5.84-5.613c-0.009-0.009-0.017-0.019-0.027-0.026
			c-0.307-0.308-0.546-0.656-0.768-1.014c-0.863-1.393-1.347-2.956-3.258-3.172c-0.065-0.005-0.114-0.029-0.182-0.032
			c0.003-0.03,0.008-0.055,0.012-0.081c0.214-1.63,0.463-2.264-0.525-3.602c-0.725-0.982-1.472-0.004-0.711-1.783
			c0.246-0.574,0.667-1.067,0.731-1.703c0.214-2.154-0.821-4.734-0.87-6.969c-0.061-2.793,0.15-5.501,0.731-8.238
			c-0.212,0-0.406-0.005-0.587-0.014c0.446-0.097,0.635-0.409,0.861-1.391c0.364-1.594,0.827-3.133,1.415-4.657
			c1.147-2.981,2.732-5.788,4.619-8.365c0.891-1.215,1.868-3.332,3.43-2.74c1.374,0.52,2.749,0.898,4.198,1.141
			c2.52,0.42,4.971,0.301,7.484-0.12c2.547-0.425,3.442-3.238,3.15-5.659c-0.192-1.585-0.649-2.896-1.513-4.244
			c-0.497-0.773-1.972-1.771-2.2-2.563c-0.285-0.999-0.954-1.139-1.925-1.699c-0.435-0.252-0.768-0.413-1.025-0.545
			c-0.56-0.297-0.73-0.466-0.663-1.099c0.03-0.283,0.104-0.657,0.217-1.19c3.686,3.386,7.867-5.654,2.054-5.308
			c0.062-0.143,0.251-0.417,0.316-0.515c-0.316,0-0.594-0.005-0.853-0.011c0.668-0.09,1.108-0.417,1.752-1.492
			c0.687-1.148,1.652-2.204,2.577-3.17c1.77-1.845,3.775-3.515,5.926-4.891c2.375-1.523,3.702-1.351,3.97-4.198
			c0.047-0.497,3.074-3.052,3.655-3.782c-0.254,1.114,0.429,1.575,1.461,1.464c1.547-0.166,2.314-2,4.332-2.078
			c2.521-0.102,5.037-0.188,7.56-0.238c0.851-0.016,2.659-0.431,3.337,0.167c0.708,0.626,1.372,1.449,2.272,1.318
			c0.058,3.122,0.377,6.22,1.022,9.279c0.342,1.621,0.76,3.215,1.219,4.81c0.619,2.148,0.719,2.688,2.433,2.795
			c-0.363-0.012-0.824,0.027-1.474,0.027c1.489,4.819,4.044,9.382,6.779,13.596c2.548,3.921,4.384,8.1,7.646,11.57
			c2.98,3.169,6.317,6.188,9.583,9.06c1.551,1.363,3.327,2.862,5.107,3.912c0.706,0.417,1.452,0.641,2.222,0.769
			c-0.414,0.034-0.801,0.063-1.116,0.063c1.176,0.373,2.038,4.724,2.41,5.821c0.948,2.793,1.419,5.102,1.674,8.031
			c0.371,4.271-0.19,9.42-2.03,13.297c-3.697,7.786-13.473,9.664-20.938,11.859c0.338,0,0.675,0,1.014,0
			c-1.737,0-4.915,1.453-6.109,0.753c-1.313,0.399-2.633,0.702-3.957,0.961c-1.775,0.346-3.558,0.583-5.35,0.719
			c-8.696,0.657-17.56-0.874-26.306-1.798C44.394,285.811,42.308,285.629,40.232,285.519z M26.239,301.594
			c-2.051-1.427,0.127-3.618,1.778-4.277c2.285-0.912,5.805-0.038,8.296-0.038c3.011,0,5.979-0.268,8.963-0.67
			c3.348-0.455,4.894-4.606,4.943-7.528c1.233,0.674,2.503,0.973,3.883,1.245c0.232,0.047,0.46,0.093,0.7,0.139
			c-0.195,0.292-0.346,0.587-0.478,0.884c-0.727,1.632-0.568,3.321-0.352,5.019c0.283,2.23,0.028,2.209,2.014,3.538
			c1.454,0.974,2.743,2.202,3.753,3.63c1.086,1.536,2.384,4.305,0.04,5.288c-2.575,1.078-5.767-1.356-7.565-2.971
			c-3.358-3.018-2.982-2.827-7.525-0.842c-1.717,0.749-7.082,3.951-8.495,0.625c-1.399-3.298,3.747-4.359,5.649-4.873
			c2.216-0.595,4.13-1.456,6.144-2.587c0.084-0.05,0.171-0.099,0.256-0.145c-0.98-0.853-5.186,0.564-6.766,0.793
			c-1.294,0.187-2.625,0.268-3.802,0.892c-0.714,0.375-2.186,2.356-2.632,2.348C32.915,302.021,28.01,302.825,26.239,301.594z
			 M85.626,296.065c1.375,0.475,4.83,0.736,5.244,2.56c0.318,1.4-2.482,2.759-3.338,1.425c-1.4-2.183-3.556-2.556-5.59-3.287
			c-0.739-0.267-5.86-2.321-5.808-0.477c0.013,0.438,5.941,2.131,6.558,2.333c1.711,0.561,3.405,0.703,4.148,2.54
			c-0.184,0.026-0.369,0.055-0.553,0.078c1.07,0.242,1.07,1.122,0.958,2.027c-0.046,0.362-0.108,0.729-0.128,1.063
			c-0.154-0.061-0.309-0.092-0.465-0.118c-1.202-0.177-2.44,0.578-3.167,0.366c-2.872-0.834-5.591-1.875-8.101-3.537
			c-2.032-1.343-2.569-2.504-3.753-0.316c-0.591,1.093-0.799,2.134-1.699,3.149c-1.855,2.096-6.06,2.441-5.372-1.09
			c0.435-2.235,2.243-3.642,3.358-5.586c1.183-2.062,1.421-3.674,1.026-6.096c2.011-0.186,4.003-0.409,6.005-0.673
			c1.014-0.172,2.027-0.345,3.042-0.516C76.597,294.085,82.266,294.905,85.626,296.065z M140.43,313.614
			c-0.169-0.848-0.121-1.779,0.07-2.741c0.02-0.094,0.035-0.187,0.057-0.282c0.059-0.253,0.128-0.51,0.205-0.766
			c0.243-0.804,0.575-1.614,0.971-2.407c0.123-0.244,0.25-0.486,0.385-0.729c1.138-2.044,2.639-3.883,3.981-4.974
			c-6.375,1.756-11.909,5.619-18.913,4.86c-1.903-0.204-6.033-0.971-6.608-3.278c-0.314-1.265-0.179-2.553,0.235-3.766
			c0.01-0.026,0.021-0.058,0.03-0.088c0.557-1.563,1.588-2.987,2.845-4.004c5.745-4.656,14.063-3.914,20.97-4.248
			c4.297-0.209,8.163-0.472,12.519-0.23c1.77,0.098,2.766-0.205,3.372-0.837c0.104-0.106,0.196-0.223,0.278-0.352
			c0.624-0.961,0.691-2.464,0.994-4.376c-0.105-0.032-0.18-0.024-0.273-0.04c0.654-0.452,0.379-1.906,0.433-2.892
			c0.091-1.628,0.121-3.252,0.091-4.885c-0.057-3.049-0.562-6.095-1.08-9.094c3.241,0.887,6.415,1.238,9.768,1.082
			c1.308-0.06,2.69-0.385,3.94-0.409c0.654-0.011,1.209,0.253,1.846,0.088c0.017-0.007,0.033-0.004,0.05-0.01
			c-0.013,0.05-0.021,0.099-0.033,0.146c-0.761,3.009-0.686,6.104-0.461,9.181c0.128,1.747,0.181,6.028,1.919,6.775
			c0.018,0.006,0.034,0.018,0.052,0.024c-0.017,0-0.032,0-0.047,0.002c-0.245,0.011-0.49,0.03-0.719,0.03
			c0.665,1.316,1.368,2.875,1.856,4.316c0.813,2.402,0.537,3.186-0.552,5.465c-0.361,0.758-1.073,1.793-1.344,2.377
			c-0.597,1.288-0.54,3.1-0.555,4.745c-0.036,4.199,0.028,8.361,0.214,12.554c0.154,3.467-1.636,6.595-5.545,6.226
			c-6.296-0.593-7.065-10.724-6.538-15.365c0.11-0.978,1.038-4.513,0.256-4.278c-1.711-3.032-6.02,5.48-6.914,6.763
			c-2.057,2.955-4.767,5.862-8.157,7.297c-2.068,0.874-5.517,1.917-7.705,0.808C141.408,315.838,140.708,315.007,140.43,313.614z
			 M144.913,317.238c0.198,0.024,0.396,0.052,0.593,0.079C145.278,317.361,145.104,317.271,144.913,317.238z M205.607,288.047
			c1.518,0.171,3.021,0.461,4.528,0.703c3.021,0.488,7.063-0.545,10.095-0.883c5.43-0.604,12.288-3.606,17.462-0.866
			c0.852,0.449,6.205,5.384,3.833,6.177c-1.551,0.519-3.087,1.03-4.602,1.644c-1.823,0.738-2.397,0.541-4.425,0.238
			c-6.61-0.985-13.223-0.666-19.873-0.871c3.508,0.787,5.855,1.479,9.496,1.888c4.048,0.458,8.066,1.012,12.077,1.731
			c4.038,0.725,8.038,1.62,12.007,2.658c2.839,0.741,3.929,2.44,3.121,5.444c-1.598,5.955-11.009,4.713-15.564,4.318
			c-4.04-0.352-7.99-1.161-11.854-2.382c-3.041-0.959-5.259-3.231-8.573-3.552c-2.159-0.208-4.526,0.89-6.082-0.84
			c1.834,2.717,9.084,11.14,3.515,13.269c-3.672,1.402-7.74-1.97-10.095-4.558c-2.08-2.284-3.761-5.065-5.67-7.507
			c-0.983-1.256-2.535-2.597-3.276-3.975c-0.532-0.993-0.609-1.935-1.245-3.188c-0.964-1.907-0.996-4.27-0.019-6.059
			c0.748-1.375,0.219-1.202-0.277-2.081c-0.542-0.963-1.377-2.507-1.896-3.96c-0.55-1.716-1.061-3.444-1.578-5.168
			c-0.28-0.938-0.576-1.868-0.855-2.807c-0.679-2.283-1.354-4.566-2.071-6.838c2.577,0.926,7.05-0.091,9.64-0.811
			c2.294-0.638,4.346-1.544,6.439-2.674c0.217,2.778-0.543,16.627,2.914,18.207c-0.162,0.014-0.333,0.035-0.544,0.09
			C203.204,287.413,203.351,287.797,205.607,288.047z M366.06,285.396c-0.354,0-0.708,0-1.06,0c0.644,0.014,1.145,0.924,1.425,2.049
			c0.452,1.799,0.327,4.142-0.728,4.34c-0.161,0.03-0.335,0.03-0.539-0.049c-2.569-0.997-5.687-0.956-8.139,0.352
			c2.261-2.011,3.291-3.948,4.662-6.691c-0.191,0-0.354-0.006-0.523-0.011c0.618-0.164,1.087-0.566,1.192-1.534
			C363.446,284.669,364.711,285.138,366.06,285.396z M356.229,292.723c-0.195,0.854-0.825,1.352-1.738,1.308
			C354.957,293.673,356.085,292.821,356.229,292.723z M362.866,293.118c-1.85-0.131-3.835,0.06-5.649,0.436
			C358.394,292.197,361.335,293.05,362.866,293.118z M276.389,315.968c-2.823-0.903,0.291-2.997,1.383-3.681
			c0.773-1.04,2.644-0.604,3.831-0.635C279.3,312.438,277.274,313.642,276.389,315.968z M284.729,319.701
			c0.451-2.027,5.025-3.672,6.276-4.522c2.765-1.879-0.129-1.693-2.096-1.186c-2.238,0.577-4.95,2.09-5.686,4.434
			c-1.053-0.132-4.518,1.182-5.215-0.595c-0.855-2.177,3.556-3.939,4.898-4.477c2.431-0.976,5.122-1.613,7.748-1.67
			c2.287-0.049,2.475-1.891,1.971-4.072c1.972,0.349,3.947,0.69,5.927,1.03c-0.252,0.314-0.48,0.74-0.791,0.991
			c-0.094,1.819,1.343,2.915,1.343,4.494c0,0.464-1.901,2.12-2.37,2.396c-0.234,0.136-0.938-0.432-1.482,0.04
			c-1.349,1.16-1.725,2.938-3.337,3.999c-1.324,0.87-4.978,2.147-6.32,1.027c-0.374-0.311-0.603-0.616-0.745-0.912
			C284.689,320.345,284.656,320.018,284.729,319.701z M339.139,316.579c-2.861,1.146-6.749-0.771-9.808-0.45
			c-0.919,0.099-7.425-3.715-6.406-0.991c0.302,0.804,3.888,2.382,4.703,3.048c0.793,0.652,1.777,1.554,1.777,2.616
			c0,3.411-5.936-0.035-7.073-1.359c-0.988-1.142-0.112-4.315-2.883-2.879c-1.564,0.811-0.655,2.103-1.265,3.366
			c-0.376,0.78-1.956,1.665-2.725,1.901c-0.616,0.188-1.362,0.218-2.071,0.109c-1.645-0.258-3.065-1.303-2.111-3.006
			c0.067-0.121,0.14-0.241,0.232-0.369c1.401-1.93,3.658-2.679,4.7-4.894c0.64-1.356,0.632-2.348,0.313-3.559
			c-0.076-0.291-0.166-0.591-0.272-0.915c0.232-0.038,0.466-0.054,0.7-0.091c1.757-0.25,3.534-0.419,5.305-0.464
			c-0.459,3.663,3.106,3.96,5.978,4.224c3.947,0.36,8.207,0.229,10.968,3.521c0.039,0.045,0.083,0.087,0.121,0.137
			C339.262,316.55,339.199,316.555,339.139,316.579z M374.688,287.497c-0.753,0.968-1.303,2.102-1.708,3.246
			c-0.309,0.865-0.366,4.088-0.892,4.495c-1.477,1.148-2.073,2.583-2.825,3.957c-0.441,0.811-0.938,1.601-1.697,2.301
			c-0.186,0.171-0.387,0.338-0.591,0.498c-1.332,1.033-3.039,1.779-4.741,1.54c-4.033-0.562,0.131-4.747,2.092-5.768
			c0.554-0.286,3.781-1.345,3.122-2.272c-0.541-0.761-2.932,0.229-3.426,0.591c-1.213,0.888-2.379,2.431-3.685,2.896
			c-1.518,0.539-3.851,0.038-5.492,0.038c-1.773,0-3.015,0.521-2.826-1.563c0.108-1.19,2.682-1.487,3.538-1.723
			c1.914-0.529,3.908-0.828,5.887-0.991c0.959-0.079,1.871-0.109,2.833-0.085c0.866,0.021,0.068-1.133,0.128-1.183
			c-0.183-0.092-0.367-0.186-0.553-0.278c1.455,0.179,4.108,0.973,4.108-1.462c0-1.857-0.06-3.653-0.236-5.507
			c2.171,0.292,4.355,0.531,6.544,0.744c0.256,0.027,0.509,0.064,0.766,0.088C374.908,287.197,374.802,287.351,374.688,287.497z
			 M406.202,295.178c-3.195-1.728-6.752-3.087-10.468-3.564C398.389,291.525,406.022,291.216,406.202,295.178z M391.348,291.336
			c-2.028,1.005,4.347,1.81,5.389,1.984c2.85,0.477,6.148,0.634,8.439,2.649c3.778,3.322-4.3,2.892-6.499,3.353
			c-0.13,0.027-0.249,0.057-0.334,0.092c-0.039-0.039-0.079-0.07-0.118-0.108c-1.778-1.854-3.901-3.2-6.204-4.311
			c-0.402-0.195-6.491-1.446-4.998,0.479c1.267,1.635,4.754,1.814,6.622,2.496c1.397,0.51,5.776,2.817,5.254,4.898
			c-0.025,0.09-0.042,0.18-0.082,0.27c-0.285,0.613-0.83,0.956-1.535,1.104c-3.039,0.64-9.096-2.387-10.595-3.364
			c-1.43-0.935-3.373-2.512-4.261-4.127c-0.18-0.329-0.305-0.655-0.384-0.982c-0.033-0.13-0.083-0.264-0.097-0.393
			c-0.299-3.06,0.526-5.065-1.101-7.931c-0.06-0.104-0.098-0.201-0.162-0.308c0.1-0.005,0.198-0.016,0.297-0.021
			c2.089-0.156,4.174-0.32,6.26-0.494c-0.217,0.63-0.95,3.784-0.049,3.967C388.575,290.868,389.957,291.112,391.348,291.336z"/>
		<path d="M388.346,212.328c0.39,4.255,6.8,2.801,6.6-1.305C394.716,206.393,388.221,208.039,388.346,212.328z"/>
		<path d="M365.433,207.22c-2.378,0.659-3.792,4.212-2.172,6.218c1.166,1.446,4.191,1.53,5.49,0.356
			C371.662,211.171,368.71,207.346,365.433,207.22z"/>
		<path d="M386.73,218.776c-0.564-0.866-0.821-1.508-2.177-2.249c-1.506-0.826-3.262-1.398-4.978-1.546
			c-4.927,1.226-11.308,10.255-7.307,14.852c2.936,3.378,10.651,4.749,14.496,2.278c2.722-1.75,4.081-5.578,2.311-8.356
			C388.157,222.311,387.828,220.464,386.73,218.776z M374.48,223.22c0.788-2.537,2.695-4.327,4.899-5.663
			c5.171-0.677,12.293,10.08,6.241,12.592c-2.89,1.202-8.103,0.417-10.805-1.383C373.37,227.801,374.064,224.556,374.48,223.22z"/>
		<path d="M320.279,227.063c1.337-5.212-6.271-6.071-6.52-0.913C313.563,230.241,318.92,230.376,320.279,227.063z"/>
		<path d="M292.17,215.854c-0.282,0.445-0.377,1.708-0.812,1.697c-1.13-0.024-2.234-0.049-3.355,0.126
			c-7.286,1.135-8.722,8.329-5.122,13.739c3.503,5.271,9.369,9.208,15.808,7.367c4.034-1.152,7.143-7.55,6.617-11.503
			c-0.088-0.662-0.195-1.313-0.354-1.961c-0.834-3.058-4.357-5.458-7.19-6.495c0.893-1.995,0.451-4.384-2.076-4.613
			C294.345,214.089,292.901,214.715,292.17,215.854z M283.419,224.011c0.9-3.03,4.289-3.128,6.962-3.498
			c3.067-0.423,5.832-0.504,8.546,1.128c1.004,0.602,2.151,1.295,2.865,2.253c0.672,0.907,0.686,1.935,1.422,2.813
			c0.329,1.158-0.009,2.508-0.316,3.684c-0.477,1.819-0.584,1.272-1.621,2.492c-1,1.178-1.807,2.789-3.239,3.507
			c-4.913,2.454-9.605-2.313-12.596-5.702C284.067,229.134,282.773,226.19,283.419,224.011z M294.798,217.914
			C294.53,217.815,294.474,217.794,294.798,217.914L294.798,217.914z"/>
		<path d="M197.1,116.807c1.9-0.569,3.372-2.217,4.227-3.958c1.087-2.605,1.09-5.222-1.264-7.051
			c-2.528-1.964-7.783,0.923-7.783,4.212c0,1.765-0.553,4.713,0.633,6.087C193.936,117.281,195.758,117.211,197.1,116.807z"/>
		<path d="M233.367,111.897c1.611-0.406,2.665-2.215,3.338-3.564c0.812-1.629,0.926-3.956-0.492-5.347
			c-2.977-2.912-6.172,1.486-6.601,4.277C229.166,109.488,230.825,112.536,233.367,111.897z"/>
		<path d="M238.16,128.79c-0.35-5.037-2.388-9.884-6.531-13.17c-5.297-4.196-14.048-3.805-19.636-0.278
			c-3.189,2.013-5.002,5.049-5.605,8.73c-0.257,1.563-0.044,3.925-0.597,5.331c-0.601,1.525-2.05,1.802-3.477,2.851
			c-5.173,3.814-9.762,11.473-8.099,18.139c1.525,6.11,7.227,9.604,13.354,9.285c2.52-0.13,3.952-1.359,6.004-2.435
			c1.063-0.556,0.765-1.058,1.837-0.196c1.06,0.847,2.406,1.214,3.735,1.383c6.389,0.815,10.532-3.775,12.284-9.464
			c0.455-1.477,0.613-2.94,0.712-4.475c0.073-1.139-0.232-1.157,0.356-2.021c0.368-0.541,1.332-0.947,1.817-1.424
			c1.6-1.578,2.659-3.663,3.397-5.782c0.122-0.592,0.215-1.186,0.295-1.784C238.213,131.922,238.266,130.348,238.16,128.79z
			 M205.436,132.808c0.359,3.108,2.839,6.191,5.333,7.921c1.111,0.768,7.198,3.092,7.152,3.563
			c-1.439,2.861-2.104,6.215-3.956,8.999c-2.456,3.688-6.911,4.53-11.017,3.16c-4.835-1.612-6.756-5.67-6.024-10.596
			C197.791,140.012,201.413,136.747,205.436,132.808z M217.72,151.659c1.243-2.343,2.529-4.891,1.03-7.447
			c4.011,0.693,7.294,0.467,11.22-0.435c-0.345,5.295-2.455,12.5-8.812,12.832c-1.37,0.07-2.931-0.095-4.054-0.886
			C215.192,154.381,216.764,153.465,217.72,151.659z M221.948,141.666c-4.675-0.175-11.59-2.627-13.73-7.536
			c-0.006-0.012-0.011-0.024-0.016-0.038c-0.015-0.03-0.021-0.065-0.034-0.096c-0.277-0.67-0.477-1.381-0.56-2.139
			c-0.063-0.569-0.126-1.15-0.186-1.732c-0.307-3.02-0.426-6.172,1.134-9c1.806-3.272,5.12-4.953,8.532-6.1
			c2.175-0.73,4.55-1.299,6.822-1.086c0.886,0.083,1.755,0.274,2.591,0.638c2.744,1.189,6.894,3.784,7.577,6.944
			c2.853,3.951,2.525,11.066,0.079,15.129C231.197,141.56,227.477,141.875,221.948,141.666z"/>
		<path d="M55.355,216.249c0.811-1.204,0.708-3.312-0.178-4.454c-1.709-2.204-4.168-1.325-5.748,0.258
			C47.9,215.799,52.785,220.063,55.355,216.249z"/>
		<path d="M164.547,271.971c0.024-0.071,0.075-0.418,0.08-0.475c-0.185,0-0.368,0-0.553,0
			C164.245,271.595,164.409,271.832,164.547,271.971z"/>
	</g>
</g>
</svg>
