<?xml version="1.0" encoding="utf-8"?>
<!-- Generator: Adobe Illustrator 12.0.0, SVG Export Plug-In . SVG Version: 6.00 Build 51448)  -->
<!DOCTYPE svg PUBLIC "-//W3C//DTD SVG 1.1//EN" "http://www.w3.org/Graphics/SVG/1.1/DTD/svg11.dtd" >
<svg  version="1.1" id="Layer_1" xmlns="http://www.w3.org/2000/svg" xmlns:xlink="http://www.w3.org/1999/xlink" width="377.197" height="425.197"
	 viewBox="0 0 377.197 425.197" overflow="visible" enable-background="new 0 0 377.197 425.197" xml:space="preserve">
<g>
	<path fill="#294542" d="M357.387,80.599c-6.463-1.793-13.509-2.095-20.083-0.819c-0.002,0-0.004,0-0.004,0.001
		C343.878,78.504,350.924,78.806,357.387,80.599z"/>
	<path fill="#294542" d="M326.943,53.19c0.345,1.508,0.358,1.974,1.064,2.315l0.961,0.041l1.153,0.145l1.061,0.144l1.106,0.24
		l1.014,0.288l0.872,0.317c0.352,0.018,0.706,0.065,1.054,0.069c1.985,0.019,4.401-0.846,6.068,0.048
		c-1.667-0.895-4.083-0.03-6.068-0.05c-0.348-0.003-0.702-0.05-1.054-0.068l-0.872-0.316l-1.014-0.289l-1.106-0.24l-1.061-0.144
		l-1.153-0.144l-0.961-0.042C327.302,55.163,327.288,54.697,326.943,53.19c-0.397-1.744-0.818-3.336-1.491-5.002
		c-0.666-1.641-0.975-3.723-1.932-5.132c0.957,1.409,1.266,3.492,1.932,5.133C326.125,49.855,326.546,51.447,326.943,53.19z"/>
	<path fill="#294542" d="M303.47,29.937l0.644,0.75l0.818,1.057l0.772,1.202l0.626,1.202l-0.626-1.203l-0.772-1.203l-0.818-1.057
		L303.47,29.937c-1.912-2.768-4.229-5.233-7.45-6.175C299.241,24.705,301.558,27.169,303.47,29.937z"/>
	<path fill="#294542" d="M344.074,60.356c-0.501-1.108-1.647-2.956-2.777-3.559C342.427,57.401,343.573,59.249,344.074,60.356z"/>
	<path fill="#294542" d="M321.333,38.476c0.938,0.807,1.408,3.432,2.188,4.581C322.741,41.907,322.271,39.282,321.333,38.476
		c-3.878-3.333-9.664-7.775-14.734-3.744C311.669,30.701,317.455,35.145,321.333,38.476z"/>
	<path fill="#294542" d="M223.117,148.118c-2.321,3.594-5.058,7.493-8.13,10.441C218.06,155.611,220.797,151.711,223.117,148.118z"
		/>
	<path fill="#294542" d="M267.313,72.472c-3.612,3.031-6.761,7.009-9.343,10.94C260.553,79.483,263.701,75.505,267.313,72.472z"/>
	<path fill="#294542" d="M237.858,11.044c8.978-6.984,12.136,7.759,16.112,12.67c2.639-6.14,9.466-9.851,15.298-6.267
		c5.912,3.634,11.284,8.076,16.299,12.854c0.288-6.129,4.984-8.141,10.452-6.54c-5.468-1.603-10.164,0.409-10.452,6.539
		c-5.015-4.779-10.387-9.22-16.299-12.855c-5.832-3.583-12.659,0.129-15.298,6.267C249.994,18.801,246.836,4.059,237.858,11.044
		c-0.689,0.536-2.728,3.784-2.841,4.542c-0.238,1.594-2.16,3.889-2.674,5.723c0.514-1.833,2.436-4.128,2.674-5.722
		C235.131,14.828,237.169,11.581,237.858,11.044z"/>
	<path fill="#294542" d="M250.969,96.459c2.519-3.234,3.967-7.715,6.062-11.483c-2.095,3.768-3.543,8.249-6.062,11.481
		c-2.485,3.191-3.437,6.597-5.436,10.01c-1.696,2.898-3.297,5.85-4.881,8.809c1.584-2.959,3.185-5.911,4.881-8.807
		C247.532,103.055,248.483,99.651,250.969,96.459z"/>
	<path fill="#294542" d="M249.779,390.6c0.404,0.258,0.643,0.606,1.206,0.673c-0.002,0-0.004,0-0.007-0.004
		c-0.554-0.066-0.794-0.407-1.189-0.662C249.785,390.603,249.782,390.603,249.779,390.6z"/>
	<path fill="#294542" d="M97.984,307.266c-0.025,0.625-0.151,1.244-0.437,1.927C97.833,308.51,97.959,307.891,97.984,307.266z"/>
	<path fill="#294542" d="M349.28,199.586c0.265,4.577,0.454,9.038,0.464,13.499C349.734,208.624,349.545,204.163,349.28,199.586z"/>
	<path fill="#294542" d="M369.765,90.12c-1.905-0.905-2.552-4.048-4.189-5.579c-1.398-1.306-3.118-2.206-4.918-2.893
		c1.8,0.688,3.52,1.587,4.918,2.895C367.213,86.073,367.859,89.215,369.765,90.12z"/>
	<path fill="#294542" d="M163.531,185.298c14.394-6.123,29.047-12.554,42.552-20.585c-13.505,8.03-28.16,14.462-42.552,20.583
		c-0.909,0.388-4.65,2.177-5.003,1.016c-0.624-2.043-0.819-4.267-1.249-6.365c0.43,2.098,0.625,4.322,1.249,6.367
		C158.881,187.474,162.622,185.684,163.531,185.298z"/>
	<path fill="#294542" d="M344.074,60.356c0.719,1.594,1.001,3.385,0.928,5.229C345.075,63.741,344.796,61.95,344.074,60.356z"/>
	<path fill="#294542" d="M231.369,25.604c0.119-0.668,0.252-1.329,0.397-1.983C231.621,24.275,231.488,24.936,231.369,25.604z"/>
	<path fill="#294542" d="M84.753,297.497c-2.958-5.905-5.755-11.854-7.863-18.076C78.999,285.643,81.795,291.594,84.753,297.497z"/>
	<path fill="#294542" d="M44.184,278.743c-0.057,3.521-1.977,6.92-3.274,10.568C42.208,285.663,44.127,282.266,44.184,278.743z"/>
	<path fill="#294542" d="M171.739,360.677c0.146,0.345,0.288,0.692,0.447,1.034l0.043-0.01L171.739,360.677z"/>
	<path fill="#294542" d="M211.921,326.552c-6.925,1.713-9.458,13.067-9.991,21.148C202.464,339.619,204.996,328.269,211.921,326.552
		c9.377-2.32,18.689-5.008,27.688-8.521c16.838-6.573,35.074-9.299,51.604-16.759c-16.53,7.46-34.767,10.184-51.604,16.759
		C230.61,321.544,221.298,324.231,211.921,326.552z"/>
	<path fill="#294542" d="M249.649,365.16L249.649,365.16c2.244-0.53,4.461-1.693,6.005-3.41c1.026-1.137,1.442-2.362,1.402-3.761
		c0.04,1.398-0.378,2.624-1.402,3.761C254.11,363.467,251.894,364.63,249.649,365.16z"/>
	<path fill="#294542" d="M237.643,379.252L237.643,379.252c3.841,0.186,8.113,1.441,11.125-1.85c1.914-2.093,2.827-4.51,2.646-6.942
		c0.182,2.433-0.732,4.849-2.646,6.942C245.756,380.693,241.483,379.438,237.643,379.252z"/>
	<path fill="#294542" d="M359.401,130.072c0.252-8.332-3.396-18.815-9.77-22.739l0,0
		C356.005,111.257,359.65,121.741,359.401,130.072z"/>
	<path fill="#294542" d="M349.28,199.586c-0.298-5.175-0.53-10.334-0.623-15.516l0,0C348.75,189.253,348.982,194.414,349.28,199.586
		z"/>
	<path fill="#294542" d="M345.801,148.974c0.172,2.436,0.374,4.872,0.507,7.311c0.149,2.747,0.212,5.504,0.292,8.255
		c0.056,1.96,0.838,3.014,1.395,4.872c0.683,2.278,0.825,4.766,0.813,7.271c0.013-2.505-0.13-4.994-0.813-7.273
		c-0.557-1.857-1.339-2.911-1.395-4.87c-0.08-2.751-0.143-5.508-0.292-8.257C346.175,153.846,345.973,151.41,345.801,148.974
		c-0.057-0.792-0.1-1.339-0.093-1.727C345.701,147.635,345.744,148.182,345.801,148.974z"/>
	<path fill="#294542" d="M300.157,296.742c12.943-7.155,23.973-15.941,32.605-28.326
		C324.13,280.801,313.101,289.587,300.157,296.742z"/>
	<path fill="#294542" d="M233.066,389.927L233.066,389.927c3.592,0.063,5.061-3.327,5.178-6.606
		C238.125,386.6,236.657,389.989,233.066,389.927z"/>
	<path fill="#294542" d="M151.325,167.513c3.112,3.4,5.04,7.97,5.954,12.434C156.365,175.483,154.438,170.913,151.325,167.513
		c-1.212-1.326-3.025-3.79-4.768-4.401C148.3,163.725,150.113,166.189,151.325,167.513z"/>
	<path fill="#294542" d="M167.716,378.122c0.084,3.108,1.124,6.333,1.12,9.276C168.839,384.455,167.8,381.232,167.716,378.122z"/>
	<path fill="#294542" d="M162.38,371.921c-2.756-1.475-4.074-4.381-3.926-7.43l0,0C158.306,367.54,159.624,370.446,162.38,371.921
		c1.917,1.024,5.63,2.019,5.382,4.656l0,0C168.011,373.939,164.297,372.945,162.38,371.921z"/>
	<path fill="#294542" d="M166.018,342.178c-1.819,1.044-5.002,4.103-6.984,2.887c-1.021-0.627-1.381-2.492-1.395-4.577
		c0.013,2.085,0.374,3.95,1.395,4.577C161.016,346.28,164.198,343.222,166.018,342.178c0.057,5.938,0.054,11.9,1.685,17.647l0,0
		C166.071,354.078,166.075,348.116,166.018,342.178z"/>
	<path fill="#294542" d="M153.095,332.152c-1.589-0.331-2.292-0.472-2.399-1.206C150.802,331.682,151.505,331.821,153.095,332.152
		c1.87,0.388,3.742,0.753,5.552,1.372c0.001,0,0.001,0,0.001,0C156.837,332.905,154.965,332.54,153.095,332.152z"/>
	<path fill="#294542" d="M324.72,254.282c0.053,0.273,0.116,0.547,0.152,0.816c0.05-0.236,0.097-0.479,0.146-0.718l-0.049-0.005
		L324.72,254.282z"/>
	<path fill="#294542" d="M303.752,82.163c-0.756,2.272,2.343,3.002,3.059,0.888C306.808,81.609,304.411,80.178,303.752,82.163z"/>
	<path fill="#294542" d="M206.815,416.207c-2.831,1.779-5.837,2.963-9.05,1.282c-4.375-2.29-8.392-4.984-12.121-8.231
		c-3.775-3.288-6.872-7.089-10.002-10.973c-1.77-2.201-6.631-6.187-6.913-8.912c0.28,2.726,5.14,6.713,6.913,8.912
		c3.132,3.884,6.227,7.685,10.002,10.973c3.729,3.247,7.746,5.941,12.123,8.231C200.979,419.17,203.984,417.986,206.815,416.207
		c3.625-2.28,3.675-5.945,2.362-9.415C210.49,410.262,210.44,413.924,206.815,416.207z"/>
	<path fill="#294542" d="M235.548,400.797c-1.17,3.009-4.029,4.799-7.13,5.336c-3.386,0.59-7.962,0.474-11.103-1.107
		c-3.892-1.959-8.333-3.496-12.62-5.239c0,0,0.002,0,0.002,0.001c4.285,1.742,8.727,3.279,12.62,5.238
		c3.139,1.581,7.715,1.697,11.103,1.107C231.519,405.596,234.378,403.806,235.548,400.797c1.148-2.953,0.468-5.724-0.911-8.325
		C236.016,395.073,236.695,397.844,235.548,400.797z"/>
	<path fill="#294542" d="M290.578,233.604l-1.444-1.489l-0.216-0.186c0.464,0.69,0.944,1.349,1.494,1.896
		c0.339,0.338,0.696,0.64,1.071,0.913l-0.232-0.314L290.578,233.604z"/>
	<path fill="#294542" d="M232.634,199.608l-0.125-0.033c0.118,0.093,0.235,0.184,0.365,0.25c0.143,0.07,0.324,0.013,0.53-0.121
		h-0.145L232.634,199.608z"/>
	<path fill="#294542" d="M205.322,412.959l-0.048,0.097l-0.339,0.288l-0.432,0.192l-0.242,0.096l-0.192,0.146l-0.481,0.143
		l-0.434,0.191l-1.061,0.192l-0.962,0.146l-0.964,0.097l-0.867,0.05l-0.748-0.04c1.342,0.414,2.705,0.514,4.072,0.136
		c1.522-0.421,2.391-1.034,2.865-1.815l-0.072,0.036L205.322,412.959z"/>
	<path fill="#294542" d="M190.679,408.297l0.048-0.48l-1.975-1.396l-0.936-0.742c0.946,1.116,1.975,2.293,3.069,3.43l-0.109-0.331
		L190.679,408.297z"/>
	<path fill="#294542" d="M239.614,125.411c-0.219,0.456-0.442,0.908-0.657,1.369l0.563-1.126L239.614,125.411z"/>
	<path fill="#294542" d="M233.837,385.791l-0.24,0.191l-0.168,0.213c0.787-0.282,1.265-0.819,1.203-1.75
		c-0.003-0.057-0.019-0.103-0.023-0.162l-0.193,0.45L233.837,385.791z"/>
	<path fill="#FFFFFF" d="M337.83,245.577c-2.595-0.274-4.606-1.006-6.744-2.548c-0.676,4.654-1.641,8.999-2.963,13.511
		c-0.543,1.863-1.213,5.324-3.251,5.434c-1.292,0.069-2.916-1.526-3.467-2.548c-1.213-2.254-1.352-5.966-2.091-8.446
		c-0.789-2.645-1.515-5.36-2.552-7.922c-1.862-4.605-3.691-9.255-6.147-13.588c-1.733,4.828-4.242,9.075-9.73,9.857
		c-6.409,0.913-13.309-2.411-17.436-7.213c-1.941,1.909-0.186,3.221-3.532,2.942c-2.681-0.222-5.313-0.643-7.884-1.453
		c-5.031-1.586-9.737-4.482-13.476-8.21c-8.057-8.037-14.29-17.121-20.337-26.698c-0.686,0.699-2.053,4.328-2.411,4.351
		c-1.183,0.076-2.345,0.086-3.489-0.265c-2.068-0.633-3.697-2.476-4.595-4.388c-2.446-5.21-4.444-11.314-4.678-17.105
		c-1.819,1.453-8.004,5.967-10.549,3.415c-1.501-1.504-0.514-8.147-0.288-10.052c0.391-3.32,1.315-6.393,2.6-9.471
		c-6.264,5.153-14.381,8.514-21.627,12.07c-8.049,3.949-16.379,7.528-24.739,10.759c-3.492,1.351-7.907,4.453-11.772,3.81
		c-3.077-0.51-8.633,4.809-10.796,6.768c-5.83,5.279-10.274,12.449-14.925,18.766c-1.022-0.785-1.593-1.684-1.822-2.626
		l-0.586,1.953l-0.723,2.981l-0.722,2.98l-0.579,3.077l-0.144,0.192l-0.145,0.29l-0.24,0.192l-0.337,0.288l-1.542-0.866
		l-0.337-2.453l0.049-2.354l0.336-2.308l0.241-1.155l0.433-1.058l-0.529-0.673l-0.433-0.336l-0.337-0.242l-0.434-0.433l-0.048-1.009
		l0.048-0.865l0.097-0.867l0.24-0.769l-0.096-0.433l-0.048-0.48l0.048-0.482l0.193-0.336l0.289-0.336l0.481-0.192v-0.048h0.048
		h0.096l0.193-0.048l-1.06-0.29l-0.963-0.335l-0.963-0.384l-0.915-0.434l-0.193-0.289l-0.048-0.24l-0.048-0.288l0.048-0.192
		l0.241-1.009l0.145-0.288l0.289-0.146l0.481-0.24l0.626-0.096l0.579-0.144l0.529-0.096l0.482-0.096l0.433-0.096l1.878,0.145
		l-1.782-1.682l-1.638-1.684l-0.192-0.288l-0.096-0.146l-0.048-0.096l-0.145-1.009l-0.337-1.009l1.156-0.53l0.578-0.192l0.289-0.096
		v-0.047h0.048h0.096h0.193l0.337,0.192l-0.819-1.107l-0.723-1.107v-0.527v-0.48l-0.481-0.53l-0.674-0.48l0.674-0.096h0.385
		l0.433,0.096l0.53-0.192l0.481-0.144l0.53-0.098v-0.096l1.349,0.818l1.3,0.961l1.157,0.962l1.107,1.105l0.337-0.192l0.529-0.096
		v-0.096l-3.179-3.606l-3.179-3.511l-0.192-0.192l-0.097-0.24l-0.048-0.528l0.145-0.385l0.289-0.336l0.482-0.192l1.012-0.242
		l1.3,0.673l1.301,0.771l1.204,0.817l1.156,0.961l-0.048-0.431l0.048-0.242l-0.674-0.769l-0.626-0.673l-0.192-0.288v-0.146
		l0.096-0.046l0.337,0.046l0.915,0.723l0.82,0.818l0.481,0.527l1.108,0.435l0.53,0.288l0.578,0.384l-0.048-1.395l-0.048-1.25
		l-0.916-1.345l-0.674-1.059v-0.48v-0.529l-1.205-1.347l-1.204-1.201l-0.337-1.011l-0.385-0.913l-0.578-0.913l-0.626-0.771
		l-0.24-0.288v-0.145l0.144-0.048l0.337,0.048l2.457,2.453l2.649,2.308l0.337,0.336l1.253,0.915l1.204,1.105l-0.144-1.54
		l0.048-1.009l-0.818-1.105l-0.674-1.107l-0.675-1.153l-0.53-1.107l-0.096-0.144l0.048-0.048h0.145l0.24,0.096l2.36,3.029
		l0.385,0.53l1.012,0.623l0.434,0.338l0.482,0.433l0.818,0.817l0.723,1.011l-2.071-6.012l-2.023-5.866l-0.145-0.529v-0.192
		l0.096-0.096l0.241-0.194h0.433l0.819,0.338l2.457,4.759l2.312,4.905l-0.337-1.634l-0.048-0.432l0.193-0.482l-0.434-1.49
		l-0.337-1.443l-0.24-1.538l-0.097-1.491l-0.048-0.192l0.097-0.048h0.144l0.241,0.096l0.915,2.452l0.963,2.645l0.193,0.482
		l1.156,1.057l0.096,0.192l0.048,0.096l0.097,0.145l0.289,0.48l-0.915-4.568l-0.048-0.48l0.096-0.481l-0.385-0.818l-0.145-0.673
		v-0.673l0.289-0.528h0.097l0.481,0.913l0.337,1.107l0.192,0.528l1.012,0.673l0.771,1.684l0.674,1.731l0.53,1.73l0.385,1.828
		l-0.337-2.837v-0.482l0.048-0.239l0.145-0.192l-0.626-2.502l-0.674-2.403l-0.048-0.192l0.096-0.05l0.144-0.046l0.241,0.096
		l0.868,1.97l0.674,2.116l0.192,0.481l1.011,0.53l0.771,1.634l0.675,1.73l-0.096-0.527v-0.48l0.144-0.482l-0.385-0.721l-0.096-0.576
		v-0.53l0.24-0.385h0.097l0.433,0.723l0.337,0.817l0.241,0.336l1.011,0.48l0.578,1.153l0.283,0.789
		c-1.194-4.144-3.318-8.045-4.522-12.184c-0.093,0.426-0.587,1.5-1.252,1.54c-2.163,0.126-2.154-1.568-3.106-3.102
		c-1.811-2.92-3.772-4.756-6.768-6.612c0.253,0.651,3.438,7.739-0.023,6.468c-2.214-0.814-2.863-5.069-5.998-4.93
		c1.254,2.008,1.937,5.007-0.818,5.531c-0.958,0.183-3.028-1.417-3.323-0.096c-0.181,0.809,2.574,2.031,1.83,3.052
		c-1.422,1.952-3.099,1.688-4.865,2.791c-2.743,1.71-5.163,5.786-7.417,8.245c1.41,0.592,4.188,4.464,2.545,6.003
		c-2.922,2.739-4.625,5.987-6.399,9.528c0.904-0.535,2.97-1.695,3.95-0.865c0.811,0.688-0.5,2.825-0.783,3.632
		c-0.891,2.547-1.72,5.214-2.327,7.846c-1.201,5.207-0.567,11.105,1.513,16.014c0.549,1.294-0.043,3.125-1.823,2.128
		c-1.646-0.925-2.662-6.439-2.986-8.126c-1.059-5.509-0.366-12.915,2.793-17.694c-0.782,0.358-2.917,0.705-3.564-0.242
		c-0.487-0.712,0.772-3.011,1.106-3.8c1.238-2.928,7.001-8.661,5.878-11.178c-0.172-0.386-2.344,0.466-2.987-0.552
		c-0.879-1.394,2.224-5.668,3.01-6.661c2.46-3.107,6.177-6.287,9.851-7.573c-1.068-1.214-2.409-2.106-2.409-3.727
		c0-2.219,1.315-0.994-0.012-3.697c-8.808-17.928-19.228-34.917-33.287-49.232c-6.256-6.37-14.047-11.843-22.026-15.823
		c-6.416-3.202-18.834-10.728-25.645-5.226c0.198-0.393,0.245-0.857,0.433-1.251c-0.297,0.192-0.594,0.385-0.891,0.579
		C36.912,98.992,33.662,107,30.187,114.617c-4.197,9.195-7.938,18.642-10.817,28.337c-5.803,19.535-8.489,39.623-9.698,59.907
		c-0.269,4.519-0.433,9.193-0.289,13.723c0.046,1.434,0.004,2.896,0.138,4.325c0.148,1.577-0.125,1.574,0.675,2.261
		c0.881,0.755,2.417,0.431,3.323,1.587c1.746,2.23-1.83,6.847-2.889,9.233c-1.882,4.231-0.529,7.974,0.886,12.09
		c5.963,17.347,11.678,35.576,24.594,49.217c0.518-3.556,1.437-6.708,2.986-9.955c1.321-2.765,3.158-5.018,2.265-7.98
		c-0.474-1.571-1.234-2.791-1.59-4.567c-0.241-1.203-0.33-2.071-1.276-2.933c-2.016-1.836,1.962-2.804,3.491-0.435
		c0.4-6.678,0.665-13.339,0.566-20.033c-0.299-20.321-1.737-40.405,0.976-60.652c1.291-9.629,4.512-19.004,7.618-28.191
		c1.465-4.335,2.574-9.392,6.351-12.295c1.345-1.034,1.721-0.709,2.553-2.287c0.462-0.875,1.014-1.516,1.71-2.21
		c0.636-0.635,1.569-0.987,2.433-1.203c0.849-0.212,1.169-1.596,1.637-2.331c5.695,4.565,10.463,9.856,15.414,15.195
		c-0.302-2.89-0.95-9.556,0.722-11.83c1.861-2.529,6.5,0.182,8.43,1.636c-1.163-3.091-1.421-4.37-3.784-6.852
		c-1.6-1.684-3.226-3.346-4.885-4.971c-3.873-3.791-7.615-8.156-12.115-11.234c-2.823-1.929-9.83-5.306-13.367-3.725
		c-1.673,0.749-3.77,4.58-4.738,6.101c-1.274,1.999-2.584,3.97-3.739,6.04c-4.943,8.856-8.391,18.428-11.753,27.969
		c-3.337,9.472-5.078,19.182-7.204,28.948c-0.557,2.557-1.189,5.038-2.237,7.443c-0.339,0.779-2.186,2.718-1.821,0.656
		c0.888-5.024,1.868-10.033,2.882-15.032c3.832-18.9,9.504-38.286,19.379-55c1.757-2.974,5.124-9.465,8.461-10.442
		c3.711-1.087,10.563,2.194,13.874,3.685c8.801,3.964,13.548,11.02,19.699,17.952c-0.026-3.707,3.53-5.398,3.89-1.189
		c0.354,4.147,1.309,8.046,2.854,11.912c0.649,1.624,1.108,2.272,0.723,3.8c-0.121,0.48,0.031,2.257-1.299,1.216
		c-1.736-1.357-3.589-1.839-5.412-3.016c-1.523-0.986-2.938-2.519-4.753-2.913c-0.184,2.602-0.311,5.164-0.13,7.773
		c0.296,4.257,1.187,7.491,2.345,11.508c0.586,2.03,0.317,2.057,2.336,2.622c0.98,0.272,1.961,0.656,2.866,1.13
		c1.02,0.532,3.737,1.909,4.046,3.029c0.654,2.37-2.657,0.56-4.063,0.229c-2.337-0.552-4.622-1.13-7.017-1.358
		c-4.765-0.458-4.285,9.403-3.347,12.285c2.693,8.275,6.741,17.445,15.101,21.157c1.068,0.474,2.288,0.898,2.89,2.02
		c0.905,1.685-0.3,2.504-0.241,4.23c0.034,0.991,0.585,1.856,0.963,2.741c0.271,0.635-0.529,0.832-0.481,1.445
		c0.065,0.845,0.467,1.684,0.625,2.547c-1.264-0.808-0.637-2.115-2.046-2.115c-1.41,0-2.119-0.336-3.251,0.456
		c-2.045,1.429-1.72,2.946-2.567,5.061c-1.351,3.37-2.435,6.772-3.288,10.302c-1.535,6.345-2.134,13.096-1.853,19.619
		c0.304,7.036,0.343,14.53,1.638,21.447c0.353-6.856,1.148-13.65,2.48-20.388c0.661-3.345,1.132-12.488,5.153-13.827
		c1.132-0.374,2.163,0.066,3.181,0.514c0.458,0.202-0.584,3.188-0.729,3.895c-0.559,2.724-0.687,5.455-0.434,8.222
		c0.516,5.654,4.128,10.232,8.22,13.966c2.908,2.654,1.744-1.435,3.852-2.768c2.956-1.867,6.725,4.448,9.272,5.793
		c2.602,1.376,5.096,1.84,5.467,5.219c0.169,1.539-0.457,2.835-0.722,4.303c-0.354,1.955,0.399,3.546,1.108,5.339
		c3.171,7.997,9.789,15.231,16.16,20.865c6.741,5.966,15.601,12.71,24.638,14.499c-2.492,1.393-3.812,3.755-6.029,5.184
		c-2.414,1.555-4.559,3.477-6.64,5.441c2.47-0.198,11.158-1.192,9.441,2.645c-0.502,1.124-1.49,1.588-1.854,2.96
		c-0.518,1.945-0.838,4.183-0.361,6.178c1.32-1.515,8.534-4.822,8.068-0.239c-0.017,0.166-0.036,0.328-0.053,0.491l0.462-0.395
		l0.722-0.435l0.771-0.192h0.771l0.819,0.192l0.867,0.385l0.916,0.626l1.445-0.626l1.445-0.673l1.349-0.723l1.347-0.815l1.253-0.914
		l1.205-0.962l1.157-1.011l1.155-1.057l0.146-0.097h0.192l1.011-0.146v-0.096l0.723,0.338l0.676,0.384l0.528,0.385l0.482,0.48
		l0.722-0.431l0.867-0.192l0.915-0.096l0.177,0.023c2.635-4.061,5.899-7.792,9.319-11.129c1.627-1.588,3.904-4.689,6.063-5.631
		c1.901-0.828,4.821-0.663,6.889-0.984c4.887-0.762,9.767-1.577,14.605-2.604c9.448-2.005,18.711-4.504,27.967-7.251
		c17.492-5.193,35.471-11.229,51.11-20.77c3.642-2.224,7.525-4.457,10.79-7.195c3.218-2.694,5.233-6.181,7.569-9.607
		c4.77-7.002,9.048-14.581,11.169-22.847C337.631,246.556,337.694,245.998,337.83,245.577z M273.235,261.686
		c-3.957,0.608-5.037-7.467-9.458-4.992c-3.065,1.715-4.944,3.829-7.47,6.262c-6.668,6.419-14.817,12.769-22.76,17.531
		c-7.432,4.457-14.264,9.253-22.302,12.692c-2.674,1.147-5.646,3.033-8.67,3.033c-3.479,0-6.203,1.06-9.634,1.968
		c-7.848,2.082-18.084,3.775-26.131,1.84c-1.844-0.444-4.144-0.938-5.418-2.513c-1.238-1.527-0.717-2.8-0.385-4.284v-0.332
		l0.145-0.865l0.03-0.063c0.009-0.169,0.027-0.335,0.019-0.514c-0.083-1.786,0.279-1.004-1.156-1.826
		c-0.794-0.454-2.153-0.523-3.035-0.818c-2.021-0.67-3.973-1.816-5.608-3.172c-6.67-5.521-10.164-14.406-12.707-22.475
		c-2.642-8.381-4.401-18.778-0.808-27.15c-2.974,0.278-5.445-2.585-2.457-4.664c-2.046-0.93-4.138-1.818-6.094-2.933
		c-0.775-0.442-0.667-2.192-0.114-3.119l-0.536-0.535l-0.481-0.625v-0.53l-0.144-0.48v-0.528l0.24-0.528l0.434-0.337l0.529-0.433
		l0.481-0.24l5.443,1.971l2.457-0.625l1.252-0.192l1.349-0.048l1.3-0.048l1.397,0.096l1.397,0.145l1.445,0.24l0.916,0.097
		l0.963,0.144l1.927,0.097l0.192-0.049h0.241h0.481h0.963l1.927-0.191l1.83-0.385l1.831-0.528l0.867-0.385l0.434-0.192l0.481-0.145
		l1.831-0.818l0.578-0.384l0.626-0.24l1.156-0.241l0.53-0.048l0.529,0.097l0.433,0.096l0.435,0.24l0.337,0.24l0.385,0.337
		l0.289,0.384l0.289,0.53l0.193,0.48l-0.433,0.577l-0.386,0.625l-0.481,0.528l-0.433,0.578l-0.53,0.48l-0.481,0.528l-0.578,0.433
		l-0.53,0.48l-0.674,0.387l-0.337,0.191l-0.29,0.241l-0.674,0.336l-0.626,0.385l-0.771,0.288l-0.385,0.144l-0.337,0.192
		l-1.493,0.577l-1.107,0.338l-1.012,0.528v0.288v0.145l0.048,0.192l0.048,0.673l-0.145,0.578l-0.145,0.673l-0.096,0.048
		l-0.048,0.097l-0.096,0.191l-0.241,0.385l-0.337,0.288l-0.193,0.145l-0.145,0.192l-1.06,0.192l-0.916,0.338l-0.915,0.433
		l-0.723,0.528l-0.722,0.625l-0.626,0.769l-0.578,0.866l-0.434,1.01l0.626,1.731l0.385,0.816l0.481,0.819l0.482,0.721l0.578,0.721
		l0.578,0.624l0.675,0.675l0.674,0.528l0.771,0.577l0.771,0.48l0.867,0.528l0.867,0.386l0.964,0.433l0.963,0.337l1.06,0.336
		l2.697,0.577l1.349,0.24l1.349,0.192l1.349,0.096l1.349,0.048h2.697l2.698-0.288l2.698-0.385l2.696-0.673l1.349-0.384l1.349-0.433
		l3.036-1.876l3.228-1.779l-0.29-0.288l-0.096-0.097l-0.048-0.048l-0.096-0.097l-0.482-0.48l-0.336-0.336l-0.772-0.24l-0.723-0.29
		l-0.673-0.385l-0.58-0.384l-0.625-0.48l-0.53-0.529l-0.482-0.626l-0.385-0.625v-1.009l0.192-1.011l0.964-0.433l1.059-0.24
		l1.059-0.192l1.205-0.048l1.157-0.048l1.251,0.144l1.303,0.192l1.395,0.337l2.12,0.384l1.061,0.146l1.106,0.096h1.013h1.059
		l2.119-0.192l2.023-0.482l2.023-0.576l0.965-0.433l0.48-0.24l0.529-0.192l0.963-0.48l1.061-0.53l0.385-0.336l0.434-0.289
		l0.867-0.624l0.771-0.673l0.772-0.627l0.673-0.769l0.674-0.721l0.626-0.769l0.29-0.387l0.145-0.192l0.192-0.144l0.674-0.433
		l0.723-0.24l0.675,0.145l0.771,0.336l0.193,0.096l0.192,0.24l-0.338,0.675l-0.288,0.721l-0.627,1.346l-0.386,0.626l-0.336,0.673
		l-0.771,1.25l-0.867,1.154l-0.916,1.153l-1.011,1.06l-1.061,1.057l-1.155,0.913l-1.205,0.867l-0.674,0.384l-0.336,0.192
		l-0.291,0.24l-1.348,0.817l-1.445,0.674l-1.493,0.673l-1.541,0.577l-1.589,0.576l-0.578,0.723l-0.627,0.673l-0.674,0.528
		l-0.387,0.24l-0.336,0.288l-0.482,0.675l-0.53,0.673l-0.673,1.105l-0.482,1.202l-0.386,1.202l-0.192,1.347l-0.096,0.433
		l-0.049,0.48l1.878,0.913l1.831,1.106l0.818,0.577l0.818,0.673l1.592,1.396l0.096,0.191l1.781,0.577l1.831,0.385l1.879,0.191
		l0.963,0.049h1.011l1.928-0.192l2.022-0.385l2.071-0.576l1.061-0.337l1.107-0.385l-1.107-0.914l-1.156-0.817l-2.506-1.491
		l-0.096-0.528l-0.097-0.528v-0.48l0.289-0.625l0.386-0.435l0.386-0.433l0.528-0.24l0.482-0.24l0.578-0.096l0.627-0.048l0.723,0.144
		l2.6,0.385h0.29h0.144l0.192,0.048l0.675,0.097l1.349,0.096h2.602l2.602-0.096l2.504-0.385l1.253-0.24l1.301-0.288l1.204-0.385
		l1.251-0.385l2.506-0.866l3.178-1.298l1.543-0.576l1.589-0.435l0.723,0.435l0.723,0.528l0.192,0.145l0.242,0.288l-0.339,0.673
		l-0.288,0.721l-0.771,1.348l-0.916,1.249l-0.528,0.578l-0.482,0.625l-1.205,1.057l-0.674,0.482l-0.675,0.528l-0.771,0.433
		l-0.723,0.48l-0.818,0.385l-0.435,0.192l-0.384,0.24l-5.878,2.356l-5.779,2.212l-1.445,0.963l-1.444,0.961l-1.493,0.865
		l-1.445,0.818l-0.24,0.048l-0.193,0.097l-0.385,0.191l-0.771,0.385l-1.543,0.673l-1.589,0.576l-1.541,0.579l-0.866,0.191
		l-0.435,0.097l-0.385,0.144l-0.868,0.192l-0.433,0.097l-0.386,0.144l-1.733,0.337l-1.687,0.288l-1.781,0.192h-0.482h-0.24
		l-0.193,0.048l-0.867,0.096l-1.83,0.097h-0.916l-0.866,0.048l-3.082,0.048l-3.034,0.145l1.541,1.155l1.589,1.104l1.589,0.915
		l1.638,0.865l1.639,0.671l1.685,0.626l1.688,0.48l1.733,0.385l1.733,0.192l1.783,0.146l1.782-0.05l1.829-0.096l1.831-0.288
		l1.878-0.335l1.927-0.53l1.976-0.577l3.42-1.297l-1.204-0.48l-1.012-0.675l-0.146-0.576l-0.048-0.48l0.048-0.529l0.146-0.481
		l0.867-0.145l0.915-0.096l1.83-0.289l1.733-0.384l1.783-0.385l1.686-0.48l0.818-0.288l0.868-0.24l1.638-0.627l1.637-0.673
		l1.541-0.769l1.543-0.818l0.723-0.48l0.771-0.433l1.541-0.961l1.396-1.06l1.445-1.057l1.349-1.155l0.673-0.624l0.722-0.577
		l0.146-0.096l0.192-0.049l0.868-0.191l0.723,0.432l0.722,0.529l0.192,0.144l0.239,0.289l-0.365,0.773
		c0.938-0.894,1.896-1.773,2.797-2.689c2.798-2.856,7.447-6.565,8.896-10.3c0.795-2.05,1.346-4.226,2.161-6.249
		c0.311-0.773,0.655-2.517,1.541-2.933c2.157-1.01,2.989,3.137,3.622,4.657c0.706,1.688,1.832,2.441,2.495,4.479
		c1.239,3.819,3.148,7.349,4.961,10.867C273.855,259.131,275.228,261.381,273.235,261.686z"/>
	<path fill="#294542" d="M124.233,288.089c7.218,14.615,20.329,25.52,34.895,32.404c0.001,0,0.001,0,0.001,0
		C144.562,313.607,131.451,302.704,124.233,288.089z"/>
	<path fill="#294542" d="M329.979,85.6l0.036-0.062c-0.421,0.482-0.772,1.052-1.067,1.684l0.021-0.035L329.979,85.6z"/>
	<path fill="#294542" d="M242.458,120.317l1.796-3.503c-1.601,2.549-3.042,5.303-4.409,8.123l0.35-0.39L242.458,120.317z"/>
	<path fill="#294542" d="M265.432,18.912c-0.137-0.028-0.252-0.04-0.378-0.061l0.188,0.102L265.432,18.912z"/>
	<path fill="#294542" d="M171.583,375.173c0.05,0.321,0.091,0.646,0.118,0.98v-0.892L171.583,375.173z"/>
	<path fill="#294542" d="M258.69,66.461h-0.882c1.12,0.604,2.267,1.124,3.431,1.542l-0.958-0.532L258.69,66.461z"/>
	<path fill="#294542" d="M328.004,107.247c0.069,0.103,0.116,0.232,0.192,0.328c0.057-0.057,0.119-0.1,0.179-0.154l-0.129-0.038
		L328.004,107.247z"/>
	<path fill="#FFFFFF" d="M85.818,200.283c-2.457-2.923-3.917-6.448-5.003-10.062c-0.307-1.024-1.181-6.527-1.993-6.615
		c-1.177-0.126-4.651-1.448-5.165-0.468c-4.507,8.599-6.541,18.475-9.208,27.732c-0.399,1.385-0.782,4.226-2.377,4.822
		c-2.348,0.878-0.488-3.636-0.242-4.781c0.989-4.608,2.191-9.146,3.427-13.696c1.183-4.351,2.435-8.739,4.395-12.802
		c2.08-4.312,4.593-5.763,9.134-3.896c-0.707-4.622-0.55-12.433,5.829-12.454c-1.302-3.19-1.801-5.625-5.154-7.094
		c-7.703-3.371-15.237,12.076-17.182,17.81c-2.988,8.812-5.075,17.916-6.23,27.152c-2.39,19.085-1.283,38.599,2.411,57.436
		c1.525-20.183,5.022-41.916,17.63-58.472C78.199,202.975,82.569,198.695,85.818,200.283z"/>
	<path fill="#294542" d="M155.083,187.444l-0.051,0.444c0.728-0.507,0.336-1.124-0.015-2.595l0.115,0.996L155.083,187.444z"/>
	<path fill="#FFFFFF" d="M85.682,258.378c0.217-12.825,0.185-25.343,3.893-37.757c-0.719,1.168-2.138,5.353-3.66,4.593
		c-1.509-0.752,0.842-5.054,1.365-6.343c1.207-2.976,4.661-10.008,8.22-10.608c-2.999-1.771-5.771-3.609-8.14-6.202
		c-0.793,1.554-1.943,2.633-2.998,3.992c-1.356,1.75-1.763,3.927-2.438,6.028c-1.164,3.623-2.055,7.54-2.731,11.281
		c-1.437,7.961-2.2,15.669-2.368,23.756c-0.334,16.03,3.466,32.027,11.015,46.161c0.818,1.409,1.638,2.82,2.457,4.229
		c-0.912-6.174,0.254-13.574-1.975-19.281C85.802,271.78,85.566,265.202,85.682,258.378z"/>
	<path fill="#294542" d="M161.779,364.741c-0.012,0.045-0.035,0.085-0.045,0.131l0.045-0.046V364.741z"/>
	<path fill="#294542" d="M76.57,213.698c-2.803,10.512-4.392,21.637-4.477,32.737C72.179,235.335,73.767,224.21,76.57,213.698
		L76.57,213.698z"/>
	<path fill="#294542" d="M65.297,282.034c-1.221-4.687-1.864-9.476-1.827-14.322c0,0.002,0,0.002,0,0.002
		C63.433,272.559,64.077,277.348,65.297,282.034z"/>
	<path fill="#294542" d="M84.753,297.497c1.874,3.745,3.627,9.339,7.422,11.6C88.38,306.836,86.627,301.242,84.753,297.497z"/>
	<path fill="#294542" d="M58.354,176.741c2.672-7.883,9.076-18.189,17.109-21.419l-0.001-0.001
		c-8.033,3.233-14.436,13.538-17.108,21.418c-3.255,9.604-5.937,19.391-7.05,29.505c-0.813,7.385-1.234,14.985-1.215,22.622
		c-0.019-7.636,0.402-15.234,1.215-22.62C52.417,196.132,55.098,186.345,58.354,176.741z"/>
	<path fill="#294542" d="M65.093,288.977c-3.131-0.721-5.27-3.367-6.815-6.697C59.823,285.609,61.962,288.258,65.093,288.977
		c1.29,0.299,1.687-0.424,1.664-1.508C66.78,288.553,66.382,289.273,65.093,288.977z"/>
	<path fill="#294542" d="M93.883,277.683c0.004-0.711,0.028-1.422,0.05-2.131C93.911,276.261,93.887,276.972,93.883,277.683z"/>
	<path fill="#294542" d="M119.776,272.794c0.665,0.768,0.799,1.726,0.808,2.744C120.575,274.52,120.441,273.563,119.776,272.794z"/>
	<path fill="#294542" d="M319.298,130.528c-0.126,0.762-0.229,1.514-0.318,2.263l0.066-0.358L319.298,130.528z"/>
	<path fill="#294542" d="M92.176,309.097c1.366,0.815,4.632,1.862,5.372,0.096C96.808,310.959,93.542,309.912,92.176,309.097z"/>
	<path fill="#294542" d="M45.526,246.152L45.526,246.152c0.084-10.211-0.925-20.411-0.982-30.628c0,0,0,0,0,0.001
		C44.602,225.741,45.611,235.941,45.526,246.152z"/>
	<path fill="#294542" d="M120.555,277.1c-0.007,0.526,0.005,1.052,0.088,1.561c0.362,2.23,1.347,4.381,2.226,6.456
		c-0.879-2.075-1.864-4.226-2.226-6.456C120.56,278.149,120.548,277.626,120.555,277.1z"/>
	<path fill="#294542" d="M45.234,264.934c0.007-1.379-0.028-2.615-0.028-3.41C45.206,262.318,45.241,263.555,45.234,264.934z"/>
	<path fill="#294542" d="M129.072,162.391c1.711-1.799,5.258-0.989,7.129,0.384c0-0.001,0-0.001,0-0.001
		c-1.872-1.372-5.418-2.184-7.129-0.384c-9.4-17.329-18.75-34.498-32.682-48.674c-6.684-6.8-14.139-12.943-22.518-17.538
		c8.379,4.597,15.834,10.738,22.518,17.538C110.322,127.894,119.672,145.061,129.072,162.391z"/>
	<path fill="#294542" d="M61.108,90.745c4.373,1.347,8.754,3.233,12.764,5.433c-4.01-2.2-8.391-4.086-12.764-5.435
		c-3.779-1.163-9.7-3.397-13.68-2.837c-1.11,0.158-2.563,1.044-3.516,1.587c0,0,0,0,0,0c0.954-0.542,2.405-1.428,3.516-1.585
		C51.409,87.348,57.33,89.58,61.108,90.745z"/>
	<path fill="#294542" d="M146.557,163.112c-0.539-0.188-0.981,0.64-1.602,0.507C145.576,163.751,146.018,162.923,146.557,163.112z"
		/>
	<path fill="#294542" d="M142.53,162.025c0.732,0.467,1.426,0.991,2.148,1.472C143.956,163.016,143.262,162.492,142.53,162.025
		c-2.867-1.826-6.3-4.471-6.362-0.199C136.23,157.556,139.664,160.199,142.53,162.025z"/>
	<path fill="#294542" d="M44.144,277.683c-0.136-1.419-0.61-2.865-1.579-4.359h-0.001C43.534,274.817,44.008,276.264,44.144,277.683
		z"/>
	<path fill="#294542" d="M34.19,297.858c-5.196-5.368-9.712-11.741-13.202-18.419C24.478,286.117,28.994,292.49,34.19,297.858
		c1.574,1.624,2.64,3.759,4.375,1.382c0.969-1.325,1.196-4.336,1.549-6.728c-0.353,2.392-0.58,5.4-1.549,6.728
		C36.83,301.617,35.764,299.482,34.19,297.858z"/>
	<path fill="#294542" d="M8.365,231.104c0.02,2.024-1.439,4.162-1.822,6.123c-0.125,0.641-0.192,1.199-0.208,1.71
		c0.016-0.509,0.083-1.067,0.208-1.709C6.926,235.268,8.385,233.13,8.365,231.104z"/>
	<path fill="#294542" d="M16.344,142.098c3.051-9.803,6.191-19.589,10.803-28.794c3.993-7.969,8.421-19.463,17.296-23.135
		l-0.001-0.002c-8.875,3.672-13.303,15.168-17.295,23.136c-4.611,9.207-7.751,18.993-10.803,28.794
		c-5.658,18.176-8.813,37.476-10.002,56.454c-0.214,3.407-0.354,6.833-0.39,10.264c0.036-3.43,0.176-6.857,0.39-10.262
		C7.531,179.573,10.686,160.272,16.344,142.098z"/>
	<path fill="#294542" d="M8.483,229.848c0.028,0.227-0.125,0.536-0.119,1.256C8.358,230.384,8.512,230.074,8.483,229.848z"/>
	<path fill="#BD0000" d="M304.932,31.744l-0.818-1.057l-0.644-0.75c1.107,1.605,2.078,3.311,3.003,4.885
		c0.043-0.035,0.086-0.057,0.126-0.09l-0.269-0.583l-0.626-1.202L304.932,31.744z"/>
	<path fill="#BD0000" d="M332.289,56.075l-1.106-0.24l-1.061-0.144l-1.153-0.145l-0.961-0.041c0.364,0.175,0.901,0.32,1.789,0.554
		c1.418,0.375,2.903,0.546,4.378,0.621l-0.872-0.317L332.289,56.075z"/>
	<path fill="#BD0000" d="M283.258,68.504c4.726-1.686,10.141-4.37,15.122-4.928c2.73-0.307,5.753,0.088,8.338,1.002
		c2.107,0.747,5.458,2.315,6.645,3.71c1.638,1.925,2.178,4.477,4.189,6.347c1.511,1.404,4.868,4.333,6.985,4.544
		c5.744,0.573,11.033-0.565,14.4-5.627c1.809-2.718,3.592-6.571,2.144-9.88c-1.581-3.614-6.614-3.991-10.064-3.991
		c-2.512,0-3.695,1.263-6.095,0.198c-2.734-1.215-2.409-1.959-2.24-4.685c0.162-2.567-0.769-8.754-2.118-10.877
		c-1.541-2.417-1.912-4.106-4.072-6.035c-1.452-1.297-5.306-3.622-6.549-0.577c-0.696,1.699,1.435,3.758-0.918,4.375
		c-2.402,0.631-2.386-2.459-3.082-4.039c-1.826-4.155-4.961-7.961-8.766-10.435c-2.867-1.866-8.285-3.092-8.285,2.188
		c0,1.519,1.401,1.77,1.302,2.91c-0.152,1.696-1.968,1.847-3.218,1.681c-3.006-0.399-3.741-0.882-5.242-3.436
		c-1.055-1.798-2.399-3.477-3.838-4.979c-2.989-3.119-6.983-5.353-11.065-6.682c-0.514-0.167-0.972-0.287-1.398-0.378l-0.189,0.042
		l-0.188-0.102c-2.924-0.494-3.99,0.863-6.532,3.011c-1.18,0.999-2.651,3.48-2.095,5.122c0.48,1.41,2.708,2.786,3.37,4.423
		c-0.957,0.508-2.071,0.571-3.082,0.192c-3.221-1.207-6.701-6.018-7.993-9.088c-0.361-0.85-3.301-11.449-5.71-9.232
		c-1.736,1.599-4.575,2.925-5.995,4.665c-2.204,2.699-1.8,7.78-2.071,11.059c-0.387,4.677-0.03,9.294,1.685,13.705
		c1.688,4.338,4.751,7.19,7.316,10.907c3.225,4.671,8.212,9.802,13.862,12.846h0.882l1.591,1.01l0.958,0.532
		c1.849,0.664,3.738,1.084,5.64,1.151C272.208,70.802,278.051,70.361,283.258,68.504z"/>
	<path fill="#D6965A" d="M325.356,115.221l0.191-0.385l0.192-0.386l0.021-0.086c-0.306,0.393-0.597,0.8-0.879,1.211l0.136-0.066
		L325.356,115.221z"/>
	<path fill="#D6965A" d="M337.204,169.412c0.05-0.663-0.352-1.355-0.338-2.021c-6.104,1.673-11.105-0.527-15.269-4.855
		c-4.613-4.795-6.701-9.498-6.996-16.206c-0.54-12.246,1.555-28.541,11.669-36.977c-5.965-4.804-2.422-13.619-0.5-19.606
		c0.444-1.377,2.21-5.265,1.173-6.239c-1.508-1.422-2.807-1.526-4.709-2.246c-3.603-1.36-5.807-3.263-8.249-6.146
		c-2.095-2.473-3.636-4.454-6.909-6.011c-3.44-1.634-7.444-2.094-11.152-1.37c-6.761,1.32-12.756,5.017-19.688,5.757
		c-0.743,0.08-2.366-0.321-3-0.01c-0.695,0.341-0.904,1.62-1.444,2.114c-0.378,0.348-1.144,0.04-1.538,0.424
		c-0.766,0.746-1.531,1.472-2.233,2.273c-2.83,3.227-5.396,6.575-7.636,10.247c-5.094,8.355-8.44,17.434-14.221,25.427
		c-0.663,0.915-1.296,1.866-1.909,2.845l-1.796,3.503l-2.264,4.23l-0.35,0.39c-0.076,0.157-0.154,0.314-0.23,0.474l-0.094,0.242
		l-0.563,1.126c-2.028,4.328-3.897,8.763-5.828,12.878c-1.642,3.5-3.626,7.067-5.869,10.23c-2.352,3.317-5.876,6.529-7.102,10.338
		c-1.538,4.777-3.056,9.437-4.793,14.16c-0.755,2.051-1.04,4.331-0.507,6.469c0.796,3.182,3.407-0.252,4.721-1.346
		c1.065-0.888,3.486-3.761,5.202-2.79c1.196,0.679,0.878,3.556,1.175,4.948c1.016,4.772,2.159,9.43,4.269,13.853
		c0.555,1.165,1.181,3.181,2.284,4.055l0.125,0.033l0.626,0.096h0.145c1.035-0.681,2.686-3.561,3.082-4.303
		c1.983-3.718,5.958,4.494,7.396,6.41c6.092,8.107,11.666,16.484,19.842,22.671c3.642,2.76,8.507,6.059,13.004,7.129
		c1.3,0.309,2.466,0.861,2.946-0.507c0.395-1.117,0.756-2.228,1.094-3.364c0.421-1.411,1.876-1.301,3.162-0.914
		c2.376,0.714,3.608,3.059,4.987,5.104l0.216,0.186l1.444,1.489l0.673,0.819l0.232,0.314c2.555,1.857,5.905,2.275,8.99,1.851
		c3.623-0.497,6.012-5.703,7.06-8.898c0.597-1.819,0.772-4.818,3.612-3.941c1.865,0.575,2.512,3.596,3.251,5.261
		c2.074,4.656,4.063,9.341,6.025,14.045c1.432,3.438,3.572,7.483,4.298,11.229l0.249,0.094l0.049,0.005
		c0.984-4.737,1.843-9.531,3.02-14.22c0.281-1.132-0.295-3.05,1.22-3.574c1.432-0.497,4.321,2.563,5.396,3.413
		c0-0.24,0-0.48,0-0.721c2.16,1.607,5.401,4.723,7.947,2.066c2.465-2.573,2.836-9.709,3.323-13.031
		c1.621-11.074,1.091-22.448,0.239-33.563c-0.729-6.015-1.074-12.206-2.038-18.178C343.756,174.28,340.753,166.313,337.204,169.412z
		 M302.645,87.715c-5.051-7.18,7.381-12.572,9.607-5.049C313.929,89.404,306.93,93.808,302.645,87.715z"/>
	<path fill="#FF7D00" d="M362.974,91.899c-2.273,0.262-4.354,0.192-6.181,1.385c-2.509,1.641-4.818,3.231-7.646,4.239
		c-4.483,1.601-11.271,3.354-13.196,8.272c2.482,0.056,4.663,1.963,6.021,3.894c3.928-5.309,9.362-9.666,14.596-13.223
		C358.702,94.943,360.836,93.42,362.974,91.899z"/>
	<path fill="#FF7D00" d="M330.016,85.538l-0.036,0.062l-1.011,1.587l-0.021,0.035c-0.832,1.798-1.226,4.064-1.594,6.089
		c-0.673,3.679-1.714,10.572,0.649,13.936l0.242,0.136l0.129,0.038c3.268-3.07,7.726-4.433,11.483-6.667
		c4.606-2.737,9.276-4.956,14.254-6.933c-0.338,0.047-0.673,0.043-1.015,0.096c4.03-2.074,6.51-2.936,10.887-3.605
		c0.259-0.017,0.514-0.033,0.772-0.048c-2.754-3.653-7.334-6.086-11.971-5.842c-6.273,0.33-12.749-0.24-19.025-0.453
		C332.08,83.913,330.894,84.536,330.016,85.538z M337.877,86.945c-1.398,1.601-6.264,7.844-7.755,4.184
		c-0.232-0.573,0.129-2.736,0.771-3.125c0.404-0.244,1.263-0.178,1.638,0.048c1.116,0.666,1.597,0.149,2.89-0.384
		C336.236,87.412,337.058,87.144,337.877,86.945z"/>
	<path fill="#BD0000" d="M343.994,116.614c0,1.536,0.189,3.441,0.361,5.082c0.066,0.61,0.729,3.741,0.219,3.934
		c-0.652,0.245-1.896-0.54-2.264-1.178c-0.762-1.317-0.262-5.074-0.51-6.689c-0.315-2.044-0.849-4.03-2.211-5.644
		c-1.299-1.535-2.83-2.408-4.649-3.198c-2.104-0.913-2.221-0.603-4.371,0.862c-1.856,1.263-3.447,2.823-4.809,4.582l-0.021,0.086
		l-0.192,0.386l-0.191,0.385l-0.339,0.288l-0.136,0.066c-2.989,4.368-4.726,9.75-5.584,14.953l-0.252,1.905l-0.066,0.358
		c-0.039,0.345-0.083,0.689-0.119,1.027c-0.739,7.409-1.948,21.91,6.157,25.976c5.16,2.588,11.417-0.872,13.645-5.627
		c3.363-7.19,5.972-14.446,7.403-22.502c3.752-0.176,1.548,6.643,1.495,8.991c3.679-1.558,7.228-5.074,7.658-8.75
		c0.64-5.48-0.176-15.235-4.914-19.041C347.256,110.627,343.994,112.785,343.994,116.614z"/>
	<path fill="#D6965A" d="M153.686,181.528l-1.011-0.48l-0.241-0.336l-0.337-0.817l-0.433-0.723h-0.097l-0.24,0.385v0.53l0.096,0.576
		l0.385,0.721l-0.144,0.482v0.48l0.096,0.527l-0.675-1.73l-0.771-1.634l-1.011-0.53l-0.192-0.481l-0.674-2.116l-0.868-1.97
		l-0.241-0.096l-0.144,0.046l-0.096,0.05l0.048,0.192l0.674,2.403l0.626,2.502l-0.145,0.192l-0.048,0.239v0.482l0.337,2.837
		l-0.385-1.828l-0.53-1.73l-0.674-1.731l-0.771-1.684l-1.012-0.673l-0.192-0.528l-0.337-1.107l-0.481-0.913h-0.097l-0.289,0.528
		v0.673l0.145,0.673l0.385,0.818l-0.096,0.481l0.048,0.48l0.915,4.568l-0.289-0.48l-0.097-0.145l-0.048-0.096l-0.096-0.192
		l-1.156-1.057l-0.193-0.482l-0.963-2.645l-0.915-2.452l-0.241-0.096h-0.144l-0.097,0.048l0.048,0.192l0.097,1.491l0.24,1.538
		l0.337,1.443l0.434,1.49l-0.193,0.482l0.048,0.432l0.337,1.634l-2.312-4.905l-2.457-4.759l-0.819-0.338h-0.433l-0.241,0.194
		l-0.096,0.096v0.192l0.145,0.529l2.023,5.866l2.071,6.012l-0.723-1.011l-0.818-0.817l-0.482-0.433l-0.434-0.338l-1.012-0.623
		l-0.385-0.53l-2.36-3.029l-0.24-0.096H133.6l-0.048,0.048l0.096,0.144l0.53,1.107l0.675,1.153l0.674,1.107l0.818,1.105
		l-0.048,1.009l0.144,1.54l-1.204-1.105l-1.253-0.915l-0.337-0.336L131,180.952l-2.457-2.453l-0.337-0.048l-0.144,0.048v0.145
		l0.24,0.288l0.626,0.771l0.578,0.913l0.385,0.913l0.337,1.011l1.204,1.201l1.205,1.347v0.529v0.48l0.674,1.059l0.916,1.345
		l0.048,1.25l0.048,1.395l-0.578-0.384l-0.53-0.288l-1.108-0.435l-0.481-0.527l-0.82-0.818l-0.915-0.723l-0.337-0.046l-0.096,0.046
		v0.146l0.192,0.288l0.626,0.673l0.674,0.769l-0.048,0.242l0.048,0.431l-1.156-0.961l-1.204-0.817l-1.301-0.771l-1.3-0.673
		l-1.012,0.242l-0.482,0.192l-0.289,0.336l-0.145,0.385l0.048,0.528l0.097,0.24l0.192,0.192l3.179,3.511l3.179,3.606v0.096
		l-0.529,0.096l-0.337,0.192l-1.107-1.105l-1.157-0.962l-1.3-0.961l-1.349-0.818v0.096l-0.53,0.098l-0.481,0.144l-0.53,0.192
		l-0.433-0.096h-0.385l-0.674,0.096l0.674,0.48l0.481,0.53v0.48v0.527l0.723,1.107l0.819,1.107l-0.337-0.192h-0.193h-0.096h-0.048
		v0.047l-0.289,0.096l-0.578,0.192l-1.156,0.53l0.337,1.009l0.145,1.009l0.048,0.096l0.096,0.146l0.192,0.288l1.638,1.684
		l1.782,1.682l-1.878-0.145l-0.433,0.096l-0.482,0.096l-0.529,0.096l-0.579,0.144l-0.626,0.096l-0.481,0.24l-0.289,0.146
		l-0.145,0.288l-0.241,1.009l-0.048,0.192l0.048,0.288l0.048,0.24l0.193,0.289l0.915,0.434l0.963,0.384l0.963,0.335l1.06,0.29
		l-0.193,0.048h-0.096h-0.048v0.048l-0.481,0.192l-0.289,0.336l-0.193,0.336l-0.048,0.482l0.048,0.48l0.096,0.433l-0.24,0.769
		l-0.097,0.867l-0.048,0.865l0.048,1.009l0.434,0.433l0.337,0.242l0.433,0.336l0.529,0.673l-0.433,1.058l-0.241,1.155l-0.336,2.308
		l-0.049,2.354l0.337,2.453l1.542,0.866l0.337-0.288l0.24-0.192l0.145-0.29l0.144-0.192l0.579-3.077l0.722-2.98l0.723-2.981
		l0.586-1.953c-0.693-2.847,1.746-6.092,4.327-7.808c1.71-1.139,2.891-4.642,4.228-6.31c1.739-2.167,3.536-4.076,5.61-5.926
		c2.123-1.892,4.535-3.45,7.068-4.739c1.163-0.59,2.423-1.167,3.658-1.587c0.472-0.163,0.787-0.31,1.011-0.467l0.051-0.444
		l0.049-1.155l-0.115-0.996c-0.019-0.076-0.038-0.141-0.056-0.222c-0.119-0.54-0.261-1.072-0.414-1.601l-0.283-0.789
		L153.686,181.528z"/>
	<path fill="#294542" d="M129.65,224.805c0.981-0.591,0.706-0.064,1.59,0.289c0.378,0.15,0.133,0.896,0.675,1.123
		c0.883,0.369,1.771,0.734,2.696,0.992c1.726,0.48,3.56,0.699,5.346,0.721c4.577,0.057,1.99,1.954-0.433,4.185
		c6.246-1.263,0.763,7.508,0.302,9.432c-1.413,5.909-0.574,11.119,1.167,16.846c2.461,8.098,5.111,17.687,11.706,23.417
		c3.007,2.615,5.936,4.385,9.994,3.702c3.693-0.62,3.674,0.944,2.48,4.231c-0.839,2.316-2.249,4.484,0.447,5.558
		c1.91,0.763,3.819,1.462,5.84,1.85c4.482,0.868,8.865,0.742,13.351-0.047c7.843-1.382,15.722-5.007,22.582-8.971
		c13.571-7.838,27.913-16.994,39.419-27.933l0.365-0.773l-0.239-0.289l-0.192-0.144l-0.722-0.529l-0.723-0.432l-0.868,0.191
		l-0.192,0.049l-0.146,0.096l-0.722,0.577l-0.673,0.624l-1.349,1.155l-1.445,1.057l-1.396,1.06l-1.541,0.961l-0.771,0.433
		l-0.723,0.48l-1.543,0.818l-1.541,0.769l-1.637,0.673l-1.638,0.627l-0.868,0.24l-0.818,0.288l-1.686,0.48l-1.783,0.385
		l-1.733,0.384l-1.83,0.289l-0.915,0.096l-0.867,0.145l-0.146,0.481l-0.048,0.529l0.048,0.48l0.146,0.576l1.012,0.675l1.204,0.48
		l-3.42,1.297l-1.976,0.577l-1.927,0.53l-1.878,0.335l-1.831,0.288l-1.829,0.096l-1.782,0.05l-1.783-0.146l-1.733-0.192
		l-1.733-0.385l-1.688-0.48l-1.685-0.626l-1.639-0.671l-1.638-0.865l-1.589-0.915l-1.589-1.104l-1.541-1.155l3.034-0.145
		l3.082-0.048l0.866-0.048h0.916l1.83-0.097l0.867-0.096l0.193-0.048h0.24h0.482l1.781-0.192l1.687-0.288l1.733-0.337l0.386-0.144
		l0.433-0.097l0.868-0.192l0.385-0.144l0.435-0.097l0.866-0.191l1.541-0.579l1.589-0.576l1.543-0.673l0.771-0.385l0.385-0.191
		l0.193-0.097l0.24-0.048l1.445-0.818l1.493-0.865l1.444-0.961l1.445-0.963l5.779-2.212l5.878-2.356l0.384-0.24l0.435-0.192
		l0.818-0.385l0.723-0.48l0.771-0.433l0.675-0.528l0.674-0.482l1.205-1.057l0.482-0.625l0.528-0.578l0.916-1.249l0.771-1.348
		l0.288-0.721l0.339-0.673l-0.242-0.288l-0.192-0.145l-0.723-0.528l-0.723-0.435l-1.589,0.435l-1.543,0.576l-3.178,1.298
		l-2.506,0.866l-1.251,0.385l-1.204,0.385l-1.301,0.288l-1.253,0.24l-2.504,0.385l-2.602,0.096h-2.602l-1.349-0.096l-0.675-0.097
		l-0.192-0.048h-0.144h-0.29l-2.6-0.385l-0.723-0.144l-0.627,0.048l-0.578,0.096l-0.482,0.24l-0.528,0.24l-0.386,0.433l-0.386,0.435
		l-0.289,0.625v0.48l0.097,0.528l0.096,0.528l2.506,1.491l1.156,0.817l1.107,0.914l-1.107,0.385l-1.061,0.337l-2.071,0.576
		l-2.022,0.385l-1.928,0.192h-1.011l-0.963-0.049l-1.879-0.191l-1.831-0.385l-1.781-0.577l-0.096-0.191l-1.592-1.396l-0.818-0.673
		l-0.818-0.577l-1.831-1.106l-1.878-0.913l0.049-0.48l0.096-0.433l0.192-1.347l0.386-1.202l0.482-1.202l0.673-1.105l0.53-0.673
		l0.482-0.675l0.336-0.288l0.387-0.24l0.674-0.528l0.627-0.673l0.578-0.723l1.589-0.576l1.541-0.577l1.493-0.673l1.445-0.674
		l1.348-0.817l0.291-0.24l0.336-0.192l0.674-0.384l1.205-0.867l1.155-0.913l1.061-1.057l1.011-1.06l0.916-1.153l0.867-1.154
		l0.771-1.25l0.336-0.673l0.386-0.626l0.627-1.346l0.288-0.721l0.338-0.675l-0.192-0.24l-0.193-0.096l-0.771-0.336l-0.675-0.145
		l-0.723,0.24l-0.674,0.433l-0.192,0.144l-0.145,0.192l-0.29,0.387l-0.626,0.769l-0.674,0.721l-0.673,0.769l-0.772,0.627
		l-0.771,0.673l-0.867,0.624l-0.434,0.289l-0.385,0.336l-1.061,0.53l-0.963,0.48l-0.529,0.192l-0.48,0.24l-0.965,0.433l-2.023,0.576
		l-2.023,0.482l-2.119,0.192h-1.059h-1.013l-1.106-0.096l-1.061-0.146l-2.12-0.384l-1.395-0.337l-1.303-0.192l-1.251-0.144
		l-1.157,0.048l-1.205,0.048l-1.059,0.192l-1.059,0.24l-0.964,0.433l-0.192,1.011v1.009l0.385,0.625l0.482,0.626l0.53,0.529
		l0.625,0.48l0.58,0.384l0.673,0.385l0.723,0.29l0.772,0.24l0.336,0.336l0.482,0.48l0.096,0.097l0.048,0.048l0.096,0.097l0.29,0.288
		l-3.228,1.779l-3.036,1.876l-1.349,0.433l-1.349,0.384l-2.696,0.673l-2.698,0.385l-2.698,0.288h-2.697l-1.349-0.048l-1.349-0.096
		l-1.349-0.192l-1.349-0.24l-2.697-0.577l-1.06-0.336l-0.963-0.337l-0.964-0.433l-0.867-0.386l-0.867-0.528l-0.771-0.48
		l-0.771-0.577l-0.674-0.528l-0.675-0.675l-0.578-0.624l-0.578-0.721l-0.482-0.721l-0.481-0.819l-0.385-0.816l-0.626-1.731
		l0.434-1.01l0.578-0.866l0.626-0.769l0.722-0.625l0.723-0.528l0.915-0.433l0.916-0.338l1.06-0.192l0.145-0.192l0.193-0.145
		l0.337-0.288l0.241-0.385l0.096-0.191l0.048-0.097l0.096-0.048l0.145-0.673l0.145-0.578l-0.048-0.673l-0.048-0.192v-0.145v-0.288
		l1.012-0.528l1.107-0.338l1.493-0.577l0.337-0.192l0.385-0.144l0.771-0.288l0.626-0.385l0.674-0.336l0.29-0.241l0.337-0.191
		l0.674-0.387l0.53-0.48l0.578-0.433l0.481-0.528l0.53-0.48l0.433-0.578l0.481-0.528l0.386-0.625l0.433-0.577l-0.193-0.48
		l-0.289-0.53l-0.289-0.384l-0.385-0.337l-0.337-0.24l-0.435-0.24l-0.433-0.096l-0.529-0.097l-0.53,0.048l-1.156,0.241l-0.626,0.24
		l-0.578,0.384l-1.831,0.818l-0.481,0.145l-0.434,0.192l-0.867,0.385l-1.831,0.528l-1.83,0.385l-1.927,0.191h-0.963h-0.481h-0.241
		l-0.192,0.049l-1.927-0.097l-0.963-0.144l-0.916-0.097l-1.445-0.24l-1.397-0.145l-1.397-0.096l-1.3,0.048l-1.349,0.048
		l-1.252,0.192l-2.457,0.625l-5.443-1.971l-0.481,0.24l-0.529,0.433l-0.434,0.337l-0.24,0.528v0.528l0.144,0.48v0.53l0.481,0.625
		l0.536,0.535C129.347,225.085,129.486,224.904,129.65,224.805z"/>
	<path fill="#333159" d="M161.152,292.025l-0.145,0.865v0.332c0.09-0.401,0.151-0.819,0.175-1.26L161.152,292.025z"/>
	<path fill="#FF7D00" d="M206.518,353.979c-0.736,0.306-4.428,1.313-4.342,1.952c0.191,1.429,0.659,2.804-0.033,4.136
		c-2.691,3.49-4.873-4.606-4.77-5.915c0.027-0.318,0.869-0.05,0.869-1.011c0-0.782,0-1.564,0-2.35c0-1.276,0.157-2.545,0.27-3.818
		c0.246-2.78,0.827-5.415,1.512-8.112c-1.371,0.341-3.816-0.627-4.865-0.239c-2.137,0.793-3.311,6.91-3.686,8.862
		c-1.099,5.72-1.735,12.388-0.215,18.114c0.275,1.038,0.94,3.006,1.493,3.94c1.197,2.025,2.098,1.422,4.779,1.462
		c4.959,0.076,9.886,0.222,14.834,0.576c4.875,0.349,9.763,0.746,14.602,1.436c2.449,0.348,5.127,0.4,7.234,1.843
		c0.566,0.388,1.488,1.584,2.111,1.425c1.342-0.345,2.147-0.418,3.5-0.295c1.673,0.149,5.76,0.59,7.175-0.484
		c1.166-0.881,0.885-2.27,1.156-3.459c0.49-2.111,0.424-4.411-1.687-6.251c-5.929-5.163-18.47-1.216-25.482-1.342
		c-2.27-0.043-4.523-0.119-6.787-0.295c-3.225-0.245-0.297-1.704,1.084-2.081c4.451-1.224,9.101-1.88,13.712-2.012
		c4.243-0.119,9.046-0.475,13.188,0.593c2.356,0.606,3.953,1.933,6.237,2.035c1.991,0.089,3.94-2.247,4.6-3.774
		c3.553-8.199-9.452-7.5-14.615-7.188c-4.809,0.288-9.125,2.236-13.73,3.486c-2.286,0.619-10.623,3.347-12.354,1.634
		c5.465-4.497,14.306-5.66,21.001-7.357c-2.26-5.534-12.692-0.968-16.845,0.464C213.075,351.122,209.824,352.606,206.518,353.979z"
		/>
	<path fill="#FF7D00" d="M190.823,335.016l-0.867,0.192l-0.722,0.431l-0.482-0.48l-0.528-0.385l-0.676-0.384l-0.723-0.338v0.096
		l-1.011,0.146h-0.192l-0.146,0.097l-1.155,1.057l-1.157,1.011l-1.205,0.962l-1.253,0.914l-1.347,0.815l-1.349,0.723l-1.445,0.673
		l-1.445,0.626l-0.916-0.626l-0.867-0.385l-0.819-0.192h-0.771l-0.771,0.192l-0.722,0.435l-0.462,0.395
		c-0.411,3.891-0.944,7.499-0.308,11.46c0.44,2.75,1.153,5.587,2.253,8.229l0.49,1.024l-0.043,0.01
		c0.464,0.99,0.988,1.948,1.581,2.854c0.331,0.503,1.962,3.34,0.404,3.34c-1.322,0-3.483,0.713-4.252-0.434
		c0.2-0.093,0.59-0.305,0.769-0.431c-0.616-1.098-1.11-2.201-1.572-3.371c-0.23-0.583-1.001-0.195-1.51-0.477
		c-1.184-0.653-1.953-0.984-3.179-0.601c-1.265,0.395-2.131,1.001-2.524,1.79c-0.058,0.112-0.09,0.237-0.125,0.359v0.085
		l-0.045,0.046c-0.186,0.829,0.08,1.819,0.959,2.982c1.085,1.438,4.524,2.86,6.166,3.536c1.824,0.753,2.466,2.151,2.724,3.782
		l0.118,0.089v0.892c0.127,1.594,0.055,3.324,0.426,4.855c0.968,4.007,2.29,7.86,4.487,11.37c2.333,3.729,5.216,6.492,8.212,9.793
		c0.853,0.941,1.866,2.178,2.989,3.507l0.936,0.742l1.975,1.396l-0.048,0.48l0.096,0.48l0.109,0.331
		c2.33,2.419,4.947,4.606,7.668,5.448l0.748,0.04l0.867-0.05l0.964-0.097l0.962-0.146l1.061-0.192l0.434-0.191l0.481-0.143
		l0.192-0.146l0.242-0.096l0.432-0.192l0.339-0.288l0.048-0.097l0.096-0.046l0.072-0.036c0.795-1.307,0.493-3.083,0.338-5.203
		c-0.282-3.799-4.902-6.708-7.887-8.995c-3.689-2.826-7.687-5.094-11.163-8.222c-1.034-0.928-7.187-6.863-2.217-6.731
		c1.597,0.044,5.063,3.878,6.406,4.902c2.129,1.627,4.262,3.247,6.394,4.871c3.33,2.535,9.277,3.921,13.245,5.22
		c4.456,1.462,9.041,2.989,13.745,3.258c4.055,0.229,6.464,0.643,7.873-3.298c3.225-9.034-13.012-12.526-19.05-13.458
		c-5.343-0.825-10.708-1.518-16.06-2.273c-0.885-0.126-5.459-0.395-5.954-1.001c-0.793-0.971-0.202-2.366,0.986-2.549
		c3.884-0.596,9.17,1.041,13.271,1.641c5.115,0.749,10.475,1.084,15.397,2.731c0.923,0.308,9.427,3.559,12.613,2.426l0.168-0.213
		l0.24-0.191l0.578-1.058l0.193-0.45c-0.79-10.075-12.83-8.1-20.14-8.355c-5.063-0.179-10.104-0.421-15.156-0.828
		c-5.326-0.431-9.73,0.291-10.174-6.088c-0.202,0.093-0.395,0.023-0.603,0.143c-2.84,1.62-2.665-9.492-2.721-11.443
		c-0.129-4.339,0.206-8.889,1.461-13.067c1.027-3.421,2.661-6.648,4.64-9.7l-0.177-0.023L190.823,335.016z"/>
	<path fill="#FF7D00" d="M249.298,365.26c0.226,0.285,0.395,0.58,0.584,0.868l-0.199-0.868l-0.033-0.1l0,0
		C249.53,365.19,249.414,365.236,249.298,365.26z"/>
	<path fill="#FF7D00" d="M224.737,344.026c0.259-0.06,0.513-0.115,0.766-0.175l-0.24,0.01l-1.106,0.146l-1.061,0.288l-1.205,0.335
		l-0.82,0.378C222.289,344.673,223.498,344.315,224.737,344.026z"/>
	<path d="M365.575,84.542c-1.398-1.307-3.118-2.207-4.918-2.895c-1.077-0.413-2.188-0.748-3.271-1.049
		c-6.463-1.793-13.509-2.095-20.087-0.817c0-0.001,0.002-0.001,0.004-0.001c4.103-2.649,7.482-8.664,7.698-14.195
		c0.073-1.844-0.209-3.635-0.928-5.229c-0.501-1.107-1.647-2.955-2.777-3.559c-1.667-0.894-4.083-0.029-6.068-0.048
		c-0.348-0.003-0.702-0.051-1.054-0.069c-1.475-0.075-2.96-0.246-4.378-0.621c-0.888-0.234-1.425-0.379-1.789-0.554
		c-0.706-0.341-0.72-0.807-1.064-2.315c-0.397-1.743-0.818-3.335-1.491-5.001c-0.666-1.641-0.975-3.724-1.932-5.133
		c-0.779-1.149-1.25-3.774-2.188-4.581c-3.878-3.331-9.664-7.774-14.734-3.744c-0.04,0.033-0.083,0.055-0.126,0.09
		c-0.925-1.574-1.896-3.28-3.003-4.885c-1.912-2.768-4.229-5.232-7.45-6.175c-5.468-1.602-10.164,0.41-10.452,6.54
		c-5.015-4.778-10.387-9.221-16.299-12.854c-5.832-3.583-12.659,0.127-15.298,6.267c-3.977-4.912-7.135-19.654-16.112-12.67
		c-0.689,0.537-2.728,3.784-2.841,4.543c-0.238,1.594-2.16,3.889-2.674,5.722c-0.212,0.754-0.401,1.529-0.577,2.311
		c-0.146,0.654-0.278,1.315-0.397,1.983c-0.514,2.924-0.724,5.941-0.423,8.809c0.446,4.249,2.563,8.257,3.951,12.238
		c1.458,4.184,3.295,8.558,5.894,12.17c5.829,8.103,13.621,12.713,23.6,13.526c0.971,0.079,1.948,0.089,2.923,0.125
		c-3.612,3.033-6.761,7.011-9.343,10.94c-0.331,0.504-0.643,1.027-0.94,1.564c-2.095,3.768-3.543,8.249-6.062,11.483
		c-2.485,3.191-3.437,6.595-5.436,10.01c-1.696,2.896-3.297,5.848-4.881,8.807c-0.834,1.561-1.667,3.122-2.501,4.681
		c-4.386,8.214-7.914,16.91-12.889,24.786c-0.664,1.052-1.39,2.201-2.146,3.374c-2.32,3.594-5.058,7.493-8.13,10.441
		c-1.03,0.989-2.089,1.897-3.192,2.611c-1.878,1.216-3.783,2.396-5.712,3.543c-13.505,8.031-28.158,14.462-42.552,20.585
		c-0.909,0.386-4.65,2.176-5.003,1.016c-0.624-2.045-0.819-4.269-1.249-6.367c-0.914-4.464-2.842-9.034-5.954-12.434
		c-1.212-1.324-3.025-3.788-4.768-4.401c-0.539-0.188-0.981,0.64-1.602,0.507c-0.088-0.02-0.18-0.058-0.277-0.123
		c-0.723-0.48-1.416-1.004-2.148-1.472c-2.866-1.826-6.299-4.469-6.362-0.199c-0.004,0.285,0.007,0.6,0.034,0.948c0,0,0,0,0,0.001
		c-1.872-1.374-5.418-2.184-7.129-0.384c-9.4-17.331-18.75-34.498-32.682-48.675c-6.684-6.8-14.139-12.941-22.518-17.538
		c-4.01-2.2-8.391-4.086-12.764-5.433c-3.779-1.165-9.7-3.397-13.68-2.837c-1.11,0.157-2.562,1.044-3.516,1.585c0,0,0,0,0,0
		c0.176,0.226,0.353,0.449,0.529,0.673l0.001,0.002c-8.875,3.672-13.304,15.167-17.296,23.135
		c-4.611,9.205-7.751,18.991-10.803,28.794c-5.658,18.174-8.813,37.475-10.002,56.453c-0.214,3.405-0.354,6.832-0.39,10.262
		c-0.059,5.713,0.175,11.439,0.851,17.095c0.101,0.842-0.082,2.749,0.707,3.172c0.735,0.393,0.945,0.539,0.974,0.768
		c0.028,0.227-0.125,0.536-0.119,1.256c0.02,2.026-1.439,4.164-1.822,6.124c-0.125,0.642-0.192,1.2-0.208,1.709
		c-0.052,1.529,0.344,2.629,0.971,4.285c0.759,2.005,0.792,3.772,1.3,5.913c2.219,9.369,6.855,18.762,10.951,27.428
		c0.456,0.964,0.933,1.924,1.432,2.877c3.49,6.678,8.006,13.051,13.202,18.419c1.574,1.624,2.64,3.759,4.375,1.382
		c0.969-1.327,1.196-4.336,1.549-6.728c0.118-0.795,0.249-1.524,0.427-2.098c0.115-0.371,0.239-0.739,0.368-1.104
		c1.298-3.648,3.217-7.047,3.274-10.568c0.006-0.352-0.006-0.706-0.041-1.061c-0.136-1.419-0.61-2.865-1.58-4.359h0.001
		c2.302,0.276,2.648-4.596,2.669-8.39c0.007-1.379-0.028-2.615-0.028-3.41c0-0.199,0.002-0.371,0.008-0.511
		c0.2-4.954,0.271-9.899,0.313-14.858v-0.002c0.084-10.211-0.925-20.411-0.982-30.627c0-0.001,0-0.001,0-0.001
		c-0.053-9.472,0.48-18.617,2.9-27.746c2.453-9.253,3.275-18.628,7.282-27.456c1.137-2.504,2.481-6.219,4.552-7.549
		c1.999-1.284,2.146-0.874,3.371-3.317c0.338-0.674,1.5-3.422,2.119-3.558c0.928-0.208,3.284,2.444,3.963,2.994
		c2.392,1.937,4.648,4.161,6.73,6.428l0.001,0.001c-8.033,3.229-14.437,13.536-17.109,21.419c-3.255,9.604-5.937,19.391-7.05,29.505
		c-0.813,7.386-1.234,14.984-1.215,22.62c0.031,12.727,1.285,25.559,3.987,37.676c0.885,3.969,1.844,10.655,4.203,15.737
		c1.545,3.33,3.684,5.977,6.815,6.697c1.289,0.297,1.687-0.424,1.664-1.508c-0.02-0.904-0.333-2.062-0.667-3.092
		c-0.333-1.03-0.688-1.938-0.793-2.343c-1.221-4.687-1.864-9.476-1.827-14.32c0,0,0,0,0-0.002c0.14-18.364,2.771-38.373,13.1-54.014
		l0,0c-2.803,10.512-4.392,21.637-4.477,32.737c-0.065,8.633,0.778,17.249,2.667,25.548c0.577,2.532,1.306,5.004,2.13,7.438
		c2.108,6.222,4.905,12.171,7.863,18.076c1.874,3.745,3.627,9.339,7.422,11.6c1.366,0.815,4.632,1.862,5.372,0.096
		c0.286-0.683,0.412-1.302,0.437-1.927c0.025-0.626-0.052-1.258-0.172-1.967c-1.413-8.352-3.622-16.063-3.892-24.637
		c-0.031-0.994-0.043-1.987-0.037-2.979c0.004-0.711,0.028-1.422,0.05-2.131c0.19-6.249,1.024-12.497,2.097-18.627
		c3.816,5.874,8.259,15.883,16.859,13.945c1.208-0.273-0.142-0.89,1.59-0.769c1.09,0.076,4.544,1.821,5.298,2.692
		c0.665,0.77,0.799,1.726,0.808,2.744c0.005,0.511-0.021,1.036-0.029,1.562c-0.007,0.526,0.005,1.05,0.088,1.561
		c0.362,2.23,1.347,4.381,2.226,6.456c0.428,1.007,0.882,1.998,1.364,2.973c7.218,14.615,20.329,25.519,34.896,32.404
		c0,0-0.001,0-0.002,0c-3.616,1.393-6.946,4.567-8.042,8.318c-0.303,1.038-0.454,1.694-0.389,2.135
		c0.107,0.734,0.81,0.875,2.399,1.206c1.87,0.388,3.742,0.753,5.553,1.372c0,0,0,0-0.001,0c-0.467,1.241-1.025,4.283-1.008,6.963
		c0.013,2.085,0.374,3.95,1.395,4.577c1.982,1.216,5.165-1.843,6.984-2.887c0.057,5.938,0.054,11.9,1.685,17.647l0,0
		c-4.218-1.873-8.998-0.444-9.248,4.666l0,0c-0.148,3.049,1.169,5.955,3.926,7.43c1.917,1.024,5.63,2.019,5.382,4.656l0,0
		c-0.048,0.511-0.06,1.026-0.046,1.545c0.084,3.11,1.124,6.333,1.12,9.276c0,0.49-0.03,0.974-0.098,1.448
		c-0.025,0.169-0.025,0.344-0.008,0.526c0.282,2.726,5.144,6.711,6.913,8.912c3.13,3.884,6.227,7.685,10.002,10.973
		c3.729,3.247,7.746,5.941,12.121,8.231c3.213,1.681,6.219,0.497,9.05-1.282c3.625-2.283,3.675-5.945,2.362-9.415
		c-1.018-2.699-2.859-5.281-4.48-7.005c0-0.001,0-0.001,0-0.001c4.285,1.743,8.727,3.28,12.618,5.239
		c3.141,1.581,7.717,1.697,11.103,1.107c3.101-0.537,5.96-2.327,7.13-5.336c1.147-2.953,0.468-5.724-0.911-8.325
		c-0.461-0.866-0.997-1.715-1.57-2.545l0,0c3.591,0.063,5.059-3.327,5.178-6.606c0.055-1.49-0.171-2.958-0.602-4.068l0,0
		c3.841,0.186,8.113,1.441,11.125-1.85c1.913-2.094,2.827-4.51,2.646-6.942c-0.109-1.46-0.613-2.927-1.531-4.332
		c-0.189-0.288-0.358-0.583-0.584-0.868c0.116-0.023,0.232-0.069,0.352-0.1c2.244-0.53,4.461-1.693,6.005-3.41
		c1.024-1.137,1.442-2.362,1.402-3.761c-0.023-0.842-0.212-1.747-0.533-2.731c-2.479-7.625-9.316-6.647-16.134-6.966
		c-1.501-0.069-3.173,0.295-4-0.295c-1.315-0.938-1.717-2.87-3.42-3.798c-2.499-1.355-4.861-0.944-7.467-0.348
		c-0.253,0.06-0.507,0.115-0.766,0.175c-1.239,0.289-2.448,0.646-3.667,0.981c-6.671,1.839-13.065,4.358-19.217,7.605
		c-0.061-1.358-0.046-3.049,0.076-4.913c0.533-8.081,3.066-19.436,9.991-21.148c9.377-2.32,18.689-5.008,27.688-8.521
		c16.838-6.575,35.074-9.299,51.604-16.759c1.102-0.497,2.195-1.018,3.282-1.558c1.926-0.962,3.814-1.952,5.662-2.973
		c12.943-7.155,23.973-15.941,32.605-28.326c1.956-2.8,3.543-6.29,4.898-9.422c0.895-2.071,1.693-4.164,2.482-6.276
		c0.573-1.543,1.591-0.438,2.985-1.274c2.635-1.582,3.205-9.108,3.852-12.116c0.901-4.2,1.756-8.461,2.171-12.744
		c0.438-4.575,0.603-9.036,0.593-13.498c-0.01-4.461-0.199-8.922-0.464-13.499c-0.298-5.173-0.53-10.333-0.623-15.516l0,0
		c-0.043-2.355,0.133-4.88,0.149-7.387c0.013-2.505-0.13-4.993-0.813-7.271c-0.557-1.857-1.339-2.912-1.395-4.872
		c-0.08-2.751-0.143-5.508-0.292-8.255c-0.133-2.439-0.335-4.875-0.507-7.311c-0.057-0.792-0.1-1.339-0.093-1.727
		c0.026-1.168,0.514-0.919,2.525-1.637c4.497-1.607,8.931-5.581,10.356-10.221c0.486-1.585,0.752-3.394,0.812-5.317
		c0.249-8.332-3.396-18.815-9.77-22.739l0,0c1.018-1.518,2.989-2.335,4.421-3.465c1.829-1.447,2.989-3.27,4.587-4.901
		c1.683-1.724,4.338-3.14,6.509-4.208c1.342-0.663,3.071-1.061,3.701-2.525c0.438-1.014-0.285-1.838,0.915-2.115
		C367.859,89.215,367.213,86.073,365.575,84.542z M352.786,84.421c4.637-0.244,9.217,2.189,11.971,5.842
		c-0.259,0.015-0.514,0.032-0.772,0.048c-4.377,0.669-6.856,1.531-10.887,3.605c0.342-0.053,0.677-0.049,1.015-0.096
		c-4.978,1.977-9.647,4.196-14.254,6.933c-3.758,2.234-8.216,3.596-11.483,6.667c-0.06,0.055-0.122,0.098-0.179,0.154
		c-0.076-0.096-0.123-0.226-0.192-0.328c-2.363-3.364-1.322-10.257-0.649-13.936c0.368-2.025,0.762-4.292,1.594-6.089
		c0.295-0.631,0.646-1.201,1.067-1.684c0.878-1.002,2.064-1.625,3.745-1.569C340.037,84.181,346.513,84.751,352.786,84.421z
		 M266.879,69.154c-1.901-0.066-3.791-0.487-5.64-1.151c-1.164-0.418-2.311-0.938-3.431-1.542
		c-5.65-3.044-10.638-8.175-13.862-12.846c-2.565-3.717-5.629-6.569-7.316-10.907c-1.715-4.41-2.071-9.027-1.685-13.705
		c0.271-3.279-0.133-8.36,2.071-11.059c1.42-1.739,4.259-3.065,5.995-4.665c2.409-2.216,5.349,8.382,5.71,9.232
		c1.292,3.07,4.772,7.881,7.993,9.088c1.011,0.378,2.125,0.315,3.082-0.192c-0.662-1.637-2.89-3.013-3.37-4.423
		c-0.557-1.642,0.915-4.124,2.095-5.122c2.542-2.147,3.608-3.504,6.532-3.011c0.126,0.021,0.241,0.032,0.378,0.061
		c0.427,0.091,0.885,0.211,1.398,0.378c4.082,1.329,8.076,3.563,11.065,6.682c1.438,1.502,2.783,3.181,3.838,4.979
		c1.501,2.554,2.236,3.037,5.242,3.436c1.25,0.166,3.065,0.015,3.218-1.681c0.1-1.14-1.302-1.391-1.302-2.91
		c0-5.279,5.418-4.053,8.285-2.188c3.805,2.473,6.939,6.279,8.766,10.435c0.696,1.58,0.68,4.67,3.082,4.039
		c2.353-0.617,0.222-2.676,0.918-4.375c1.243-3.045,5.097-0.721,6.549,0.577c2.16,1.929,2.531,3.617,4.072,6.035
		c1.35,2.123,2.28,8.31,2.118,10.877c-0.169,2.726-0.494,3.47,2.24,4.685c2.399,1.064,3.583-0.198,6.095-0.198
		c3.45,0,8.483,0.377,10.064,3.991c1.448,3.309-0.335,7.162-2.144,9.88c-3.367,5.063-8.656,6.201-14.4,5.627
		c-2.117-0.21-5.475-3.14-6.985-4.544c-2.012-1.871-2.552-4.422-4.189-6.347c-1.187-1.395-4.537-2.963-6.645-3.71
		c-2.585-0.914-5.607-1.309-8.338-1.002c-4.981,0.558-10.396,3.242-15.122,4.928C278.051,70.361,272.208,70.802,266.879,69.154z
		 M58.458,263.369c-3.693-18.837-4.8-38.351-2.411-57.436c1.156-9.236,3.243-18.34,6.23-27.152
		c1.944-5.733,9.479-21.18,17.182-17.81c3.353,1.468,3.853,3.904,5.154,7.094c-6.379,0.021-6.536,7.833-5.829,12.454
		c-4.541-1.867-7.054-0.416-9.134,3.896c-1.96,4.063-3.211,8.451-4.395,12.802c-1.236,4.55-2.438,9.087-3.427,13.696
		c-0.246,1.145-2.106,5.659,0.242,4.781c1.595-0.597,1.978-3.437,2.377-4.822c2.667-9.258,4.7-19.134,9.208-27.732
		c0.514-0.98,3.988,0.342,5.165,0.468c0.813,0.087,1.686,5.591,1.993,6.615c1.086,3.614,2.547,7.138,5.003,10.062
		c-3.249-1.587-7.619,2.692-9.729,4.615C63.481,221.453,59.984,243.187,58.458,263.369z M87.841,293.278
		c-7.549-14.134-11.349-30.131-11.015-46.161c0.168-8.087,0.931-15.795,2.368-23.756c0.676-3.741,1.567-7.658,2.731-11.281
		c0.674-2.101,1.081-4.278,2.438-6.028c1.055-1.359,2.205-2.438,2.998-3.992c2.37,2.593,5.141,4.431,8.14,6.202
		c-3.559,0.6-7.013,7.633-8.22,10.608c-0.523,1.289-2.874,5.591-1.365,6.343c1.522,0.76,2.941-3.425,3.66-4.593
		c-3.708,12.414-3.676,24.932-3.893,37.757c-0.116,6.824,0.12,13.402,2.641,19.848c2.229,5.707,1.063,13.107,1.975,19.281
		C89.479,296.099,88.66,294.688,87.841,293.278z M233.308,349.488c-6.695,1.697-15.536,2.86-21.001,7.357
		c1.731,1.713,10.068-1.015,12.354-1.634c4.605-1.25,8.922-3.198,13.73-3.486c5.163-0.312,18.168-1.011,14.615,7.188
		c-0.659,1.527-2.608,3.863-4.6,3.774c-2.284-0.103-3.881-1.429-6.237-2.035c-4.143-1.067-8.945-0.712-13.188-0.593
		c-4.611,0.132-9.261,0.788-13.712,2.012c-1.381,0.377-4.309,1.836-1.084,2.081c2.264,0.176,4.518,0.252,6.787,0.295
		c7.013,0.126,19.554-3.821,25.482,1.342c2.11,1.84,2.177,4.14,1.687,6.251c-0.271,1.189,0.01,2.578-1.156,3.459
		c-1.415,1.074-5.502,0.634-7.175,0.484c-1.353-0.123-2.158-0.05-3.5,0.295c-0.623,0.159-1.545-1.037-2.111-1.425
		c-2.107-1.442-4.785-1.495-7.234-1.843c-4.839-0.689-9.727-1.087-14.602-1.436c-4.948-0.354-9.875-0.5-14.834-0.576
		c-2.682-0.04-3.582,0.563-4.779-1.462c-0.553-0.935-1.218-2.902-1.493-3.94c-1.52-5.727-0.883-12.395,0.215-18.114
		c0.375-1.952,1.549-8.069,3.686-8.862c1.049-0.388,3.494,0.58,4.865,0.239c-0.685,2.697-1.266,5.332-1.512,8.112
		c-0.112,1.273-0.27,2.542-0.27,3.818c0,0.785,0,1.567,0,2.35c0,0.961-0.842,0.692-0.869,1.011c-0.104,1.309,2.078,9.405,4.77,5.915
		c0.692-1.332,0.225-2.707,0.033-4.136c-0.086-0.64,3.605-1.646,4.342-1.952c3.307-1.372,6.558-2.856,9.945-4.026
		C220.615,348.521,231.048,343.954,233.308,349.488z M326.228,269.771c-2.336,3.427-4.352,6.913-7.569,9.607
		c-3.265,2.738-7.148,4.972-10.79,7.195c-15.64,9.541-33.618,15.576-51.11,20.77c-9.256,2.747-18.519,5.246-27.967,7.251
		c-4.839,1.027-9.719,1.843-14.605,2.604c-2.067,0.321-4.987,0.156-6.889,0.984c-2.158,0.941-4.436,4.043-6.063,5.631
		c-3.42,3.337-6.685,7.068-9.319,11.129c-1.979,3.052-3.612,6.279-4.64,9.7c-1.256,4.179-1.591,8.729-1.461,13.067
		c0.057,1.951-0.119,13.063,2.721,11.443c0.208-0.119,0.401-0.05,0.603-0.143c0.444,6.379,4.848,5.657,10.174,6.088
		c5.053,0.407,10.094,0.649,15.156,0.828c7.31,0.256,19.35-1.72,20.14,8.355c0.005,0.06,0.021,0.105,0.023,0.162
		c0.062,0.931-0.416,1.468-1.203,1.75c-3.187,1.133-11.69-2.118-12.613-2.426c-4.923-1.647-10.282-1.982-15.397-2.731
		c-4.101-0.6-9.387-2.236-13.271-1.641c-1.188,0.183-1.78,1.578-0.986,2.549c0.495,0.606,5.069,0.875,5.954,1.001
		c5.352,0.756,10.717,1.448,16.06,2.273c6.038,0.932,22.274,4.424,19.05,13.458c-1.409,3.94-3.818,3.526-7.873,3.298
		c-4.704-0.269-9.289-1.796-13.745-3.258c-3.968-1.299-9.915-2.685-13.245-5.22c-2.132-1.624-4.265-3.244-6.394-4.871
		c-1.342-1.024-4.809-4.858-6.406-4.902c-4.97-0.132,1.183,5.804,2.217,6.731c3.477,3.128,7.474,5.396,11.163,8.222
		c2.984,2.287,7.604,5.196,7.887,8.995c0.155,2.12,0.457,3.896-0.338,5.203c-0.475,0.781-1.343,1.395-2.865,1.815
		c-1.367,0.378-2.73,0.278-4.072-0.136c-2.721-0.842-5.338-3.029-7.668-5.448c-1.094-1.137-2.123-2.313-3.069-3.43
		c-1.124-1.329-2.136-2.565-2.989-3.507c-2.996-3.301-5.879-6.064-8.212-9.793c-2.197-3.51-3.52-7.363-4.487-11.37
		c-0.371-1.531-0.298-3.262-0.426-4.855c-0.026-0.335-0.068-0.659-0.118-0.98c-0.258-1.631-0.9-3.029-2.724-3.782
		c-1.642-0.676-5.081-2.098-6.166-3.536c-0.88-1.163-1.145-2.153-0.959-2.982c0.01-0.046,0.033-0.086,0.045-0.131
		c0.034-0.122,0.067-0.247,0.125-0.359c0.394-0.789,1.26-1.396,2.524-1.79c1.226-0.384,1.995-0.053,3.179,0.601
		c0.509,0.281,1.279-0.106,1.51,0.477c0.462,1.17,0.956,2.273,1.572,3.371c-0.179,0.126-0.568,0.338-0.769,0.431
		c0.769,1.146,2.93,0.434,4.252,0.434c1.558,0-0.073-2.837-0.404-3.34c-0.593-0.905-1.117-1.863-1.581-2.854
		c-0.159-0.342-0.301-0.689-0.447-1.034c-1.1-2.642-1.813-5.479-2.253-8.229c-0.636-3.961-0.103-7.569,0.308-11.46
		c0.017-0.163,0.036-0.325,0.053-0.491c0.466-4.583-6.748-1.275-8.068,0.239c-0.477-1.995-0.157-4.232,0.361-6.178
		c0.364-1.372,1.352-1.836,1.854-2.96c1.717-3.837-6.971-2.843-9.441-2.645c2.081-1.965,4.226-3.887,6.64-5.441
		c2.217-1.429,3.537-3.791,6.029-5.184c-9.038-1.789-17.897-8.533-24.638-14.499c-6.371-5.634-12.989-12.868-16.16-20.865
		c-0.709-1.793-1.463-3.384-1.108-5.339c0.266-1.468,0.892-2.764,0.722-4.303c-0.371-3.379-2.866-3.843-5.467-5.219
		c-2.547-1.345-6.316-7.66-9.272-5.793c-2.107,1.333-0.943,5.422-3.852,2.768c-4.091-3.733-7.704-8.312-8.22-13.966
		c-0.253-2.767-0.125-5.498,0.434-8.222c0.144-0.706,1.187-3.692,0.729-3.895c-1.019-0.447-2.049-0.888-3.181-0.514
		c-4.021,1.339-4.492,10.482-5.153,13.827c-1.332,6.737-2.127,13.531-2.48,20.388c-1.295-6.917-1.334-14.411-1.638-21.447
		c-0.282-6.523,0.318-13.274,1.853-19.619c0.853-3.529,1.937-6.932,3.288-10.302c0.847-2.114,0.522-3.632,2.567-5.061
		c1.132-0.792,1.841-0.456,3.251-0.456c1.409,0,0.782,1.308,2.046,2.115c-0.158-0.863-0.561-1.702-0.625-2.547
		c-0.047-0.613,0.752-0.811,0.481-1.445c-0.378-0.885-0.93-1.75-0.963-2.741c-0.06-1.727,1.146-2.545,0.241-4.23
		c-0.602-1.122-1.822-1.546-2.89-2.02c-8.36-3.711-12.407-12.882-15.101-21.157c-0.938-2.882-1.417-12.743,3.347-12.285
		c2.395,0.229,4.68,0.807,7.017,1.358c1.405,0.332,4.717,2.141,4.063-0.229c-0.309-1.12-3.027-2.497-4.046-3.029
		c-0.905-0.474-1.886-0.858-2.866-1.13c-2.02-0.565-1.75-0.591-2.336-2.622c-1.158-4.017-2.049-7.251-2.345-11.508
		c-0.181-2.61-0.054-5.172,0.13-7.773c1.815,0.395,3.23,1.927,4.753,2.913c1.823,1.177,3.675,1.659,5.412,3.016
		c1.33,1.041,1.178-0.736,1.299-1.216c0.385-1.528-0.074-2.176-0.723-3.8c-1.545-3.866-2.5-7.765-2.854-11.912
		c-0.36-4.209-3.917-2.517-3.89,1.189c-6.151-6.933-10.897-13.988-19.699-17.952c-3.31-1.491-10.163-4.772-13.874-3.685
		c-3.337,0.978-6.704,7.468-8.461,10.442c-9.875,16.714-15.547,36.1-19.379,55c-1.014,4.999-1.994,10.008-2.882,15.032
		c-0.365,2.062,1.482,0.123,1.821-0.656c1.048-2.406,1.68-4.886,2.237-7.443c2.126-9.766,3.867-19.477,7.204-28.948
		c3.362-9.541,6.81-19.112,11.753-27.969c1.155-2.07,2.465-4.042,3.739-6.04c0.969-1.521,3.065-5.352,4.738-6.101
		c3.537-1.581,10.544,1.796,13.367,3.725c4.5,3.079,8.243,7.443,12.115,11.234c1.659,1.625,3.285,3.288,4.885,4.971
		c2.363,2.482,2.622,3.761,3.784,6.852c-1.93-1.454-6.569-4.165-8.43-1.636c-1.672,2.273-1.024,8.939-0.722,11.83
		c-4.951-5.339-9.719-10.63-15.414-15.195c-0.468,0.735-0.788,2.119-1.637,2.331c-0.863,0.216-1.796,0.568-2.433,1.203
		c-0.696,0.694-1.248,1.335-1.71,2.21c-0.832,1.578-1.208,1.253-2.553,2.287c-3.776,2.903-4.886,7.96-6.351,12.295
		c-3.106,9.187-6.328,18.562-7.618,28.191c-2.713,20.248-1.275,40.331-0.976,60.652c0.099,6.694-0.166,13.355-0.566,20.033
		c-1.529-2.369-5.507-1.401-3.491,0.435c0.946,0.861,1.035,1.729,1.276,2.933c0.356,1.776,1.116,2.996,1.59,4.567
		c0.893,2.963-0.944,5.216-2.265,7.98c-1.549,3.247-2.468,6.399-2.986,9.955c-12.917-13.641-18.631-31.87-24.594-49.217
		c-1.415-4.116-2.768-7.858-0.886-12.09c1.06-2.387,4.635-7.003,2.889-9.233c-0.906-1.156-2.442-0.832-3.323-1.587
		c-0.8-0.687-0.526-0.684-0.675-2.261c-0.134-1.429-0.092-2.892-0.138-4.325c-0.144-4.53,0.02-9.204,0.289-13.723
		c1.209-20.284,3.895-40.372,9.698-59.907c2.88-9.695,6.621-19.142,10.817-28.337c3.476-7.617,6.726-15.625,14.039-20.361
		c0.297-0.194,0.593-0.386,0.891-0.579c-0.188,0.395-0.235,0.858-0.433,1.251c6.811-5.501,19.229,2.024,25.645,5.226
		c7.979,3.98,15.77,9.453,22.026,15.823c14.059,14.315,24.479,31.305,33.287,49.232c1.327,2.703,0.012,1.478,0.012,3.697
		c0,1.621,1.341,2.512,2.409,3.727c-3.674,1.286-7.391,4.466-9.851,7.573c-0.786,0.993-3.889,5.268-3.01,6.661
		c0.643,1.018,2.814,0.166,2.987,0.552c1.123,2.517-4.641,8.25-5.878,11.178c-0.334,0.789-1.593,3.087-1.106,3.8
		c0.647,0.946,2.782,0.6,3.564,0.242c-3.16,4.779-3.853,12.186-2.793,17.694c0.324,1.687,1.34,7.201,2.986,8.126
		c1.78,0.997,2.372-0.834,1.823-2.128c-2.08-4.908-2.713-10.807-1.513-16.014c0.606-2.631,1.436-5.299,2.327-7.846
		c0.282-0.807,1.594-2.945,0.783-3.632c-0.98-0.83-3.045,0.33-3.95,0.865c1.774-3.541,3.477-6.789,6.399-9.528
		c1.643-1.54-1.135-5.412-2.545-6.003c2.254-2.459,4.674-6.535,7.417-8.245c1.767-1.102,3.443-0.839,4.865-2.791
		c0.745-1.021-2.01-2.244-1.83-3.052c0.295-1.321,2.366,0.278,3.323,0.096c2.755-0.523,2.073-3.522,0.818-5.531
		c3.135-0.139,3.784,4.116,5.998,4.93c3.46,1.271,0.276-5.816,0.023-6.468c2.996,1.856,4.957,3.692,6.768,6.612
		c0.952,1.534,0.944,3.228,3.106,3.102c0.665-0.04,1.16-1.114,1.252-1.54c1.204,4.139,3.328,8.04,4.522,12.184
		c0.153,0.529,0.295,1.061,0.414,1.601c0.018,0.082,0.037,0.146,0.056,0.222c0.351,1.472,0.742,2.088,0.015,2.595
		c-0.224,0.157-0.539,0.305-1.011,0.467c-1.234,0.421-2.495,0.997-3.658,1.587c-2.534,1.289-4.945,2.847-7.068,4.739
		c-2.074,1.85-3.872,3.758-5.61,5.926c-1.337,1.668-2.518,5.171-4.228,6.31c-2.581,1.716-5.02,4.961-4.327,7.808
		c0.229,0.942,0.8,1.841,1.822,2.626c4.651-6.316,9.096-13.486,14.925-18.766c2.163-1.959,7.719-7.278,10.796-6.768
		c3.865,0.643,8.28-2.459,11.772-3.81c8.36-3.231,16.69-6.81,24.739-10.759c7.246-3.556,15.363-6.917,21.627-12.07
		c-1.284,3.079-2.209,6.151-2.6,9.471c-0.226,1.904-1.213,8.547,0.288,10.052c2.545,2.552,8.729-1.962,10.549-3.415
		c0.233,5.791,2.231,11.896,4.678,17.105c0.897,1.912,2.526,3.755,4.595,4.388c1.145,0.352,2.307,0.341,3.489,0.265
		c0.358-0.023,1.726-3.652,2.411-4.351c6.047,9.578,12.28,18.661,20.337,26.698c3.738,3.728,8.444,6.624,13.476,8.21
		c2.571,0.811,5.203,1.231,7.884,1.453c3.347,0.278,1.591-1.033,3.532-2.942c4.127,4.802,11.026,8.126,17.436,7.213
		c5.488-0.782,7.997-5.029,9.73-9.857c2.456,4.333,4.285,8.982,6.147,13.588c1.037,2.562,1.763,5.277,2.552,7.922
		c0.739,2.48,0.878,6.192,2.091,8.446c0.551,1.021,2.175,2.617,3.467,2.548c2.038-0.109,2.708-3.57,3.251-5.434
		c1.322-4.512,2.287-8.856,2.963-13.511c2.138,1.542,4.149,2.273,6.744,2.548c-0.136,0.421-0.199,0.979-0.434,1.348
		C335.275,255.19,330.997,262.77,326.228,269.771z M346.162,194.751c0.852,11.115,1.382,22.489-0.239,33.563
		c-0.487,3.322-0.858,10.458-3.323,13.031c-2.546,2.656-5.787-0.459-7.947-2.066c0,0.24,0,0.48,0,0.721
		c-1.074-0.85-3.964-3.91-5.396-3.413c-1.515,0.524-0.938,2.442-1.22,3.574c-1.177,4.688-2.035,9.482-3.02,14.22
		c-0.049,0.239-0.096,0.481-0.146,0.718c-0.036-0.27-0.1-0.543-0.152-0.816c-0.726-3.745-2.866-7.79-4.298-11.229
		c-1.962-4.704-3.951-9.389-6.025-14.045c-0.739-1.665-1.386-4.686-3.251-5.261c-2.84-0.877-3.016,2.122-3.612,3.941
		c-1.048,3.195-3.437,8.401-7.06,8.898c-3.085,0.425-6.436,0.007-8.99-1.851c-0.375-0.273-0.732-0.575-1.071-0.913
		c-0.55-0.547-1.03-1.205-1.494-1.896c-1.379-2.045-2.611-4.39-4.987-5.104c-1.286-0.387-2.741-0.497-3.162,0.914
		c-0.338,1.137-0.699,2.247-1.094,3.364c-0.48,1.368-1.646,0.815-2.946,0.507c-4.497-1.07-9.362-4.369-13.004-7.129
		c-8.176-6.187-13.75-14.563-19.842-22.671c-1.438-1.916-5.413-10.128-7.396-6.41c-0.396,0.743-2.047,3.623-3.082,4.303
		c-0.206,0.134-0.388,0.191-0.53,0.121c-0.13-0.066-0.247-0.157-0.365-0.25c-1.104-0.874-1.729-2.89-2.284-4.055
		c-2.109-4.423-3.253-9.081-4.269-13.853c-0.297-1.392,0.021-4.269-1.175-4.948c-1.716-0.971-4.137,1.902-5.202,2.79
		c-1.313,1.094-3.925,4.527-4.721,1.346c-0.533-2.138-0.248-4.417,0.507-6.469c1.737-4.723,3.255-9.382,4.793-14.16
		c1.226-3.81,4.75-7.021,7.102-10.338c2.243-3.163,4.228-6.73,5.869-10.23c1.931-4.116,3.8-8.55,5.828-12.878
		c0.215-0.46,0.438-0.913,0.657-1.369c0.076-0.159,0.154-0.316,0.23-0.474c1.367-2.82,2.809-5.574,4.409-8.123
		c0.613-0.979,1.246-1.93,1.909-2.845c5.78-7.993,9.127-17.072,14.221-25.427c2.24-3.672,4.806-7.021,7.636-10.247
		c0.702-0.802,1.468-1.527,2.233-2.273c0.395-0.384,1.16-0.076,1.538-0.424c0.54-0.494,0.749-1.773,1.444-2.114
		c0.634-0.312,2.257,0.089,3,0.01c6.933-0.741,12.928-4.438,19.688-5.757c3.708-0.724,7.712-0.264,11.152,1.37
		c3.273,1.557,4.814,3.539,6.909,6.011c2.442,2.883,4.646,4.785,8.249,6.146c1.902,0.719,3.201,0.824,4.709,2.246
		c1.037,0.974-0.729,4.862-1.173,6.239c-1.922,5.987-5.465,14.802,0.5,19.606c-10.114,8.436-12.209,24.731-11.669,36.977
		c0.295,6.708,2.383,11.41,6.996,16.206c4.163,4.328,9.164,6.529,15.269,4.855c-0.014,0.666,0.388,1.358,0.338,2.021
		c3.549-3.099,6.552,4.868,6.92,7.162C345.088,182.546,345.433,188.736,346.162,194.751z M350.305,112.864
		c4.738,3.806,5.554,13.561,4.914,19.041c-0.431,3.677-3.979,7.193-7.658,8.75c0.053-2.348,2.257-9.167-1.495-8.991
		c-1.432,8.056-4.04,15.313-7.403,22.502c-2.228,4.755-8.484,8.215-13.645,5.627c-8.105-4.066-6.896-18.567-6.157-25.976
		c0.036-0.338,0.08-0.683,0.119-1.027c0.09-0.749,0.192-1.501,0.318-2.263c0.858-5.203,2.595-10.585,5.584-14.953
		c0.282-0.411,0.573-0.819,0.879-1.211c1.361-1.758,2.952-3.319,4.809-4.582c2.15-1.465,2.267-1.775,4.371-0.862
		c1.819,0.791,3.351,1.664,4.649,3.198c1.362,1.614,1.896,3.599,2.211,5.644c0.248,1.616-0.252,5.372,0.51,6.689
		c0.368,0.638,1.611,1.423,2.264,1.178c0.511-0.192-0.152-3.324-0.219-3.934c-0.172-1.641-0.361-3.546-0.361-5.082
		C343.994,112.785,347.256,110.627,350.305,112.864z M341.973,109.689c-1.358-1.931-3.539-3.838-6.021-3.894
		c1.926-4.918,8.713-6.671,13.196-8.272c2.827-1.008,5.137-2.598,7.646-4.239c1.826-1.193,3.907-1.124,6.181-1.385
		c-2.138,1.521-4.271,3.044-6.405,4.567C351.335,100.024,345.9,104.38,341.973,109.689z"/>
	<path d="M268.324,247.165c-0.663-2.038-1.789-2.792-2.495-4.479c-0.633-1.521-1.465-5.667-3.622-4.657
		c-0.886,0.416-1.23,2.159-1.541,2.933c-0.815,2.023-1.366,4.199-2.161,6.249c-1.448,3.734-6.098,7.443-8.896,10.3
		c-0.901,0.916-1.858,1.796-2.797,2.689c-11.506,10.938-25.848,20.095-39.419,27.933c-6.86,3.964-14.739,7.589-22.582,8.971
		c-4.485,0.789-8.868,0.915-13.351,0.047c-2.021-0.388-3.931-1.087-5.84-1.85c-2.695-1.073-1.286-3.241-0.447-5.558
		c1.193-3.287,1.212-4.852-2.48-4.231c-4.059,0.683-6.987-1.087-9.994-3.702c-6.594-5.73-9.245-15.319-11.706-23.417
		c-1.741-5.727-2.58-10.937-1.167-16.846c0.461-1.924,5.944-10.694-0.302-9.432c2.423-2.23,5.01-4.128,0.433-4.185
		c-1.786-0.021-3.621-0.24-5.346-0.721c-0.925-0.258-1.813-0.623-2.696-0.992c-0.542-0.227-0.297-0.973-0.675-1.123
		c-0.884-0.354-0.609-0.88-1.59-0.289c-0.165,0.1-0.303,0.28-0.427,0.487c-0.553,0.927-0.661,2.677,0.114,3.119
		c1.956,1.114,4.047,2.003,6.094,2.933c-2.988,2.079-0.518,4.942,2.457,4.664c-3.593,8.372-1.834,18.77,0.808,27.15
		c2.543,8.068,6.037,16.953,12.707,22.475c1.635,1.355,3.586,2.502,5.608,3.172c0.882,0.295,2.241,0.364,3.035,0.818
		c1.435,0.822,1.073,0.04,1.156,1.826c0.008,0.179-0.009,0.345-0.019,0.514c-0.024,0.44-0.085,0.858-0.175,1.26
		c-0.332,1.484-0.853,2.757,0.385,4.284c1.274,1.574,3.574,2.068,5.418,2.513c8.047,1.936,18.284,0.242,26.131-1.84
		c3.431-0.908,6.154-1.968,9.634-1.968c3.023,0,5.996-1.886,8.67-3.033c8.038-3.439,14.87-8.235,22.302-12.692
		c7.942-4.763,16.092-11.112,22.76-17.531c2.525-2.433,4.404-4.547,7.47-6.262c4.421-2.475,5.501,5.601,9.458,4.992
		c1.992-0.305,0.62-2.555,0.05-3.653C271.473,254.514,269.563,250.984,268.324,247.165z"/>
	<path d="M249.779,390.6c0.003,0.001,0.006,0.003,0.01,0.007c0.396,0.255,0.636,0.596,1.189,0.662
		c0.003,0.002,0.003,0.004,0.007,0.004C250.598,391.017,250.193,390.812,249.779,390.6z"/>
	<path d="M302.645,87.715c4.285,6.093,11.284,1.688,9.607-5.049C310.025,75.144,297.594,80.536,302.645,87.715z M303.752,82.163
		c0.659-1.985,3.056-0.553,3.059,0.888C306.095,85.165,302.996,84.435,303.752,82.163z"/>
	<path d="M332.531,88.052c-0.375-0.226-1.233-0.292-1.638-0.048c-0.643,0.389-1.004,2.552-0.771,3.125
		c1.491,3.66,6.356-2.583,7.755-4.184c-0.819,0.199-1.641,0.467-2.456,0.723C334.128,88.201,333.647,88.718,332.531,88.052z"/>
</g>
</svg>
