<?xml version="1.0" encoding="utf-8"?>
<!-- Generator: Adobe Illustrator 12.0.0, SVG Export Plug-In . SVG Version: 6.00 Build 51448)  -->
<!DOCTYPE svg PUBLIC "-//W3C//DTD SVG 1.1//EN" "http://www.w3.org/Graphics/SVG/1.1/DTD/svg11.dtd" >
<svg  version="1.1" id="Layer_1" xmlns="http://www.w3.org/2000/svg" xmlns:xlink="http://www.w3.org/1999/xlink" width="251.987" height="338.983"
	 viewBox="0 0 251.987 338.983" overflow="visible" enable-background="new 0 0 251.987 338.983" xml:space="preserve">
<g>
	<path fill-rule="evenodd" clip-rule="evenodd" fill="#FF7F00" d="M12.727,73.92c-0.903-1.738,2.021-4.996,3.153-6.132
		c1.321-1.327,2.331-2.221,3.916-3.3c1.427-0.973,3.613-1.941,4.665-3.322c0.732,0.527,1.026-0.901,2.091,0.054
		c1.242,1.109,2.492,2.075,3.849,3.045c-0.517,0.2-2.556,1.084-1.003,1.728c-2.293,0.257-3.747,0.889-5.826,1.411
		c-0.63,0.161-1.592,0.668-2.489,0.866c-0.232,0.05-0.463,0.302-0.52,0.532c-0.085,0.339-1.038,0.431-1.253,0.649
		c1.487,0.352,3.586-0.968,4.678-1.392c2.583-1,5.194-1.518,8.035-1.901c0.402-0.054,0.727-0.27,0.918-0.527
		c0.184-0.248,1.406,0.406,1.752,0.505c1.306,0.376,2.795,0.616,4.149,0.668c1.41,0.049,2.914-0.206,4.125,0.336
		c1.052,0.471,1.326,1.458,2.171,2.095c-1.197,0.148-2.164,0.186-2.797,1.371c-0.453,0.847-0.359,1.669-0.709,2.521
		c-1.261-0.495-2.368-0.715-3.722-0.787c-1.005-0.055-1.887-0.367-2.868-0.367c-0.956,0-1.784,0.535-2.711,0.505
		c-0.863-0.03-1.648-0.461-2.646-0.505c-2.636-0.126-5.357,0.49-7.96,0.817C18.726,73.167,15.727,73.544,12.727,73.92"/>
	<path fill-rule="evenodd" clip-rule="evenodd" fill="#FF7F00" d="M32.188,77.161c-0.027,0.31-0.196,0.639-0.287,0.938
		c-0.293-0.352-2.3-3.191-2.003-1.372c-1.629-0.976-3.852-1.008-5.659-1.228c-2.33-0.287-4.589-0.691-6.861-0.861
		c2.12-0.465,4.435-0.527,6.598-0.708c2.111-0.178,4.655-1.072,6.782-0.802c0.127,0.015,0.305,0.431,0.731,0.431
		c0.618,0,1.233,0,1.851,0.025c0.78,0.035,1.223,0.04,1.925-0.312c0.559-0.282,0.405,0.391,0.883,0.232
		c0.97-0.327,5.63-0.064,4.483,1.639C37.869,73.536,33.753,74.287,32.188,77.161"/>
	<path fill-rule="evenodd" clip-rule="evenodd" fill="#FCD977" d="M236.673,172.253c-0.404,2.357-0.768,4.145-2.718,5.55
		c-1.919,1.382-4.261,1.956-6.511,2.521c1.107,1.005,4.068,0.104,5.508,0.144c-2.629,5.561-5.486,11.108-4.434,17.438
		c-3.414,0.426-2.404,2.5-1.718,5.189c-1.099-0.312-1.686-0.849-2.218,0.213c-0.307,0.614-0.215,1.993-0.428,2.882
		c-0.584,2.438-2.354,4.127-2.718,6.674c-0.307,2.166-2.684,4.882-4.013,6.556c-1.735,2.188-3.869,4.055-5.687,6.184
		c-1.599,1.876-2.909,4.649-4.724,6.236c-1.287,1.126-1.785,0.884-3.297,1.389c-1.099,0.367-1.527,1.901-1.527,2.912
		c0,0.656-0.681-0.008-0.894-0.191c-0.478-0.413-1.183,0.522-1.619,0.869c-1.153,0.911-2.356,1.753-3.545,2.619
		c-1.06,0.772-2.112,1.56-3.169,2.339c-1.265,0.938-1.594,0.126-3.015,0.245c-0.993,0.084-1.986,0.258-2.783,0.916
		c-0.597,0.495-0.953,1.968-1.431,2.233c-0.728,0.406-2.456-0.198-3.357-0.106c-1.08,0.111-2.448-0.077-3.119,0.864
		c-1.134,1.597-3.639,0.976-5.62,1.198c-1.186,0.134-2.602,0.535-3.788,0.426c-1.094-0.104-2.243-0.574-3.362-0.723
		c4.333-4.36,8.818-8.492,13.378-12.611c-3.592,2.129-6.944,4.592-10.017,7.422c-1.619,1.495-3.114,3.05-4.594,4.681
		c-0.531,0.584-2.499,0.097-1.989,1.805c-1.255-0.267-1.781,0.564-2.269,1.542c-0.286,0.574-0.24,0.827-0.593,1.198
		c-0.156,0.164-0.21,0.428-0.285,0.648c-1.527-1.421-2.503,0.322-3.792,1.292c-1.041,0.787-2.214,1.198-3.327,1.946
		c-1.063,0.718-2.625,0.679-3.721,1.191c-1.46,0.683-2.643,1.688-4.256,2.052c0.3-1.535-0.907-1.649-1.866-0.805
		c-0.915,0.805-1.443,2.146-2.133,3.162c-1.28,1.889-2.97,2.226-4.73,0.817c-1.796-1.441-3.389-3.679-4.937-5.407
		c-1.614-1.802-3.487-3.609-5.55-4.897c-4.341-2.711-8.851-4.32-13.413-6.679c-2.417-1.25-4.784-2.334-6.868-4.065
		c-1.468-1.221-2.714-4.704-4.607-3.37c-0.164,0.04-0.226,0.134-0.186,0.277c-0.448-1.104-1.489-0.114-1.645,0.505
		c-1.415-2.117-2.75-4.194-3.644-6.595c-0.235-0.629-0.432-1.235-0.604-1.884c-0.224-0.847-1.43-0.3-1.833-0.671
		c-0.52-0.485-1.121-2.708-0.859-3.317c-1.379-0.648-1.712-5.897-1.997-7.377c-0.458-2.374,0.324-4.659-0.111-6.996
		c-0.432-2.317-0.724,0.49-0.879,1.372c-0.214,1.22-0.63,2.27-0.492,3.513c0.311,2.76,0.664,5.424,1.332,8.123
		c-0.637-0.468-1.731-1.723-2.575-1.297c-1.529,0.768-1.76-0.302-2.434-1.406c-0.303-0.495-0.69-0.924-1.001-1.406
		c-0.026-0.04-0.615-1.038-0.573-1.01c-0.81-0.562-1.429,0.052-2.433-0.626c-4.634-3.126-9.124-6.429-13.712-9.613
		c-4.223-2.931-8.17-6.345-11.841-9.927c-2.025-1.976-4.05-3.946-6.104-5.892c-0.478-0.451-1.63-0.938-1.792-1.996
		c-0.125-0.812-0.958-3.129-2.109-2.134c-0.296-0.775-1.198-5.006-2.433-3.818c-0.015-1.302-0.074-2.612-0.256-3.899
		c-0.215-1.518-0.231-2.265-1.748-1.434c0.286-2.718-0.593-5.595-1.043-8.254c-0.38-2.245-0.762-4.5-1.218-6.731
		c-1.181-5.781-2.401-11.549-3.566-17.33c-1.05-5.206-1.248-10.776-0.823-16.057c0.147-1.834,3.319-15.384,2.93-15.579
		c-1.281-0.646,1.397-4.815,1.86-6.016c-1.014-0.168-1.356-0.128-1.064-1.109c0.261-0.876,0.54-1.753,0.761-2.642
		c0.418-1.676,1.027-3.33,1.177-5.068c0.151-1.763,0.231-3.431-0.019-5.189c-0.234-1.639,0.338-3.154,0.265-4.78
		c-0.037-0.8-0.119-1.575-0.119-2.372c0-0.522-0.654-1.33-0.787-1.934c-0.373-1.703-1.864-1.988-1.727-4.048
		c0.057-0.859-1.891-0.148-2.422-0.817c-0.467-0.587,0.123-1.545-0.5-2.018c-0.681-0.518-1.302,0.379-2.004-0.218
		c0.23-0.322,0.378-1.213,0.613-1.369c0.857-0.577,2.151-1.691,3.18-1.872c2.076-0.366,4.417,1.993,5.975,1.369
		c0.599-0.24,4.415,3.485,5.115,3.936c1.108,0.713,4.532,3.545,5.652,3.125c-3.163-2.488-6.775-4.382-9.084-7.809
		c-0.8-1.188-2.264-4.271-0.467-5.305c0.913-0.525,2.898-0.091,2.898-1.547c0-1.428-2.415-2.738-3.576-3.354
		c-2.014-1.067-3.792-0.552-5.976-0.681c-4.325-0.257-7.047-3.835-10.911-5.298c0.18-0.726,0.784-1.045,1.001-1.656
		c0.194-0.545-0.037-1.352,0.036-1.946c0.067-0.552,0.22-1.089,0.299-1.644c0.048-0.334,0.534-0.483,0.594-0.735
		c0.125-0.52-0.107-1.156-0.053-1.698c0.053-0.53,0.365-0.832,0.447-1.327c0.164-0.985,0.531-1.884,0.623-2.901
		c0.124-1.366,0.38-2.612,0.811-3.917c0.208-0.624,0.513-1.173,0.818-1.757c0.213-0.409,0.86-0.164,1.218-0.505
		c0.832-0.792,1.177-2.48,2.076-3.384c0.452-0.453,0.96-0.557,1.431-0.794c0.252-0.126,0.286,0.262,0.606,0.002
		c0.261-0.21,0.448-0.513,0.681-0.721c1.818-1.634,4.493-2.369,6.721-3.436c2.117-1.015,4.28-1.743,6.505-2.52
		c4.863-1.698,10.098-4.199,15.244-4.882c3.617-0.478,7.432-1.228,11.1-0.951c1.651,0.124,3.583,0.159,4.732,1.478
		c0.921,1.057,2.347,1.547,3.617,2.028c7.774,2.961,15.527,5.966,23.271,9.001c-2.379,1.332,2.292,3.337,3.435,3.82
		c-0.835,1.542,0.548,2.008,1.67,2.993c1.423,1.252,2.695,2.733,3.988,4.117c2.473,2.646,4.712,5.528,6.934,8.382
		c-0.634,0.052-1.927-1.502-2.396-0.396c-0.346,0.812,0.74,2.854,1.108,3.711c-2.504,0.44,0.414,9.234,1.109,10.7
		c1.752,3.689,4.098,6.536,7.262,9.116c-0.912-0.015-2.313,1.055-1.373,2.002c0.767,0.775,1.712,1.339,2.467,2.149
		c0.895,0.963,1.602,1.929,2.207,3.092c0.311,0.599-0.076,1.381,0.848,1.401c0.045-0.711,0.6-1.387,0.359-2.015
		c1.041,0.72,2.055,1.482,3.077,2.233c-1.506,0.589-1.096,1.168-0.215,1.946c0.884,0.777,1.685,1.525,2.479,2.414
		c0.255,0.285-1.846,1.451-0.369,2.394c1.062,0.678,2.124,1.357,3.188,2.035c4.64,2.948,9.284,6.011,14.199,8.486
		c4.779,2.406,9.854,3.125,14.887,4.731c5.048,1.612,9.856,4.142,13.983,7.464c0.334,0.27,2.384,1.792,2.215,2.052
		c-0.54,0.834,0.144,1.02,0.941,1.384c2.094,0.958,4.479,1.334,6.655,2.084c2.069,0.713,3.971,1.716,5.912,2.718
		c0.471,0.243,2.634-0.282,2.879,0.337c0.102,0.252-1.619,0.852-1.79,1.656c3.785,0.938,6.84,3.092,9.071,6.271
		c0.976,1.389,3.713,2.438,5.179,3.357c1.352,0.847,2.436,1.911,3.436,3.139c2.894,3.55,5.833,7.065,8.675,10.655
		c0.911,1.148,1.817,2.297,2.729,3.448c0.213,0.27,0.631,1.246,0.782,1.339c1.025,0.614,1.406,2.268,1.468,3.421
		c-0.304-0.602-0.597-1.498-1.218-1.728c-0.047,0.929,0.725,1.612,0.537,2.565c-0.193,0.96,0.72,1.914,1.084,2.813
		C236.366,166.951,236.797,169.401,236.673,172.253"/>
	<path fill-rule="evenodd" clip-rule="evenodd" d="M239.179,168.867c-0.268-2.06-1.617-3.771-2.075-5.689
		c-0.047-0.198-0.19-1.763-0.144-1.946c0.164-0.659-0.879-2.498-1.218-3.171c-2.151-4.258-5.756-7.969-8.843-11.712
		c-3.137-3.803-6.519-6.947-10.712-9.551c-2.069-1.287-3.456-3.084-5.342-4.604c-1.834-1.476-3.929-2.57-6.152-3.315
		c0.512-0.131,1.196-0.131,1.121-0.661c-0.079-0.564,0.087-1.904-0.718-1.842c-1.654,0.128-2.963-0.406-4.412-1.134
		c-3.08-1.552-6.281-2.748-9.586-3.713c0.624-0.575,0.547-0.862-0.089-1.367c-1.248-0.995-2.493-1.991-3.738-2.986
		c-2.08-1.661-4.64-2.777-7.09-3.748c-4.919-1.951-10.042-3.545-15.021-5.348c-2.252-0.817-4.651-1.349-6.766-2.5
		c-2.651-1.446-5.299-2.882-7.9-4.417c-2.185-1.287-4.407-2.614-6.332-4.278c-0.702-0.604-2.191-1.713-2.075-2.451
		c0.126-0.792,1.107-0.168,0.468-1.126c-0.388-0.582-1.216-0.889-1.758-1.322c-0.369-0.294-1.497-1.017-1.216-1.441
		c0.126-0.19,0.577-0.582,0.572-0.792c-0.015-0.636-2.088-1.887-2.718-2.305c-1.259-0.839-2.556-1.253-3.565-2.387
		c-0.989-1.109-1.963-2.062-3.161-2.946c0.717,0,2.905,0.401,3.436-0.075c0.802-0.713-0.73-1.228-1.324-1.619
		c-1.941-1.283-3.706-2.773-5.079-4.665c-3.024-4.169-4.063-8.437-4.688-13.458c2.776,1.106,0.729-2.317,0.215-3.674
		c0.728-0.007,1.495,0.223,1.931-0.327c0.499-0.629-0.524-2.55-0.894-3.169c-1.174-1.971-2.944-3.634-4.455-5.34
		c-1.739-1.963-3.927-3.897-5.383-6.083c-0.202-0.302-0.109-0.634-0.383-0.99c-0.382-0.505-0.77-0.998-1.111-1.53
		c-0.721-1.124-1.917-1.005-2.799-2.018c0.459-0.086,2.108-0.285,1.714-1.176c-0.623-1.411-2.522-2.184-3.904-2.659
		c-3.762-1.29-7.506-2.602-11.237-3.981c-3.025-1.114-6.022-2.31-9.02-3.498c-1.67-0.661-4.153-1.146-5.6-2.161
		c-0.414-0.29-0.848-1.53-1.502-1.513c-1.057,0.027-0.948,1.121-0.501,1.73c-0.974-0.812-1.414-1.357-2.671-1.431
		c-1.006-0.059-1.963-0.285-2.909-0.624c-1.872-0.674-3.997,0.183-5.878,0.564c-4.71,0.96-9.299,2.302-13.884,3.733
		c-2.212,0.693-4.366,1.555-6.536,2.367c-1.863,0.698-3.446,1.894-5.292,2.59c-0.989,0.374-1.918,0.839-2.939,1.094
		c-1.117,0.282-2.654,0.322-3.678,0.782c-1.946,0.876-3.525,3.604-4.794,5.189c-0.837-1.117-0.935,0.292-1.144,0.648
		c-0.657,1.119-1.186,2.119-1.665,3.328c-0.793,1.998-0.751,4.134-1.34,6.184c-0.694,2.414-1.322,4.726-1.413,7.259
		c-0.02,0.564-0.301,1.215-0.649,1.718c-0.421,0.609-1.056,0.386-1.515,0.966c-0.719-0.181-4.236,3.126-5.345,3.862
		c-1.926,1.272-4.17,3.184-5.423,5.145c-0.523,0.822-0.776,1.664-1.333,2.478c-0.735,1.077-0.277,3.181-0.277,4.454
		c0,1.208,1.169-0.013,1.502-0.263c0.634-0.48,0.405-0.832,1.288-0.832c0.81,0,1.441,0.277,2.209,0.545
		c2.522,0.872,5.153,1.084,7.8,1.221c0.995,0.052,1.845,0.502,2.941,0.651c0.615,0.082,1.252,0.126,1.86,0.252
		c-0.043-0.01,0.124,0.342,0.215,0.359c0.342,0.067,0.997-0.176,1.288,0c0.673,0.404,1.141,2.057,1.789,2.667
		c0.239,0.225,0.483,0.445,0.725,0.668c0.233,0.215,0.355-0.124,0.492-0.02c0.275,0.208,0.644-0.121,0.644,0.465
		c0,1.179,0.879,1.144,1.503,1.48c0.698,0.372,0.644-0.178,0.932,0.545c0.311,0.777,0.21,1.354,0.885,1.899
		c1.935,1.56,1.758,4.463,1.832,6.778c-1.269-0.27-0.636,2.973-0.61,3.676c0.06,1.634,0.051,3.354-0.188,4.976
		c-0.286,1.936-0.577,3.845-0.99,5.758c-0.152,0.703-0.236,1.46-0.472,2.139c-0.318,0.921-0.953,1.951,0.543,1.752
		c-0.673,1.015-1.261,1.976-1.559,3.174c-0.162,0.654-0.26,1.241-0.324,1.914c-0.028,0.304,0.435,0.943,0.432,0.948
		c-0.923,2.877-1.759,5.662-2.409,8.605c-0.997,4.516-1.68,10.458-0.552,15c1.374,5.538,1.976,11.277,3.247,16.867
		c1.176,5.177,2.143,10.354,2.767,15.626c0.351,2.966,0.624,5.937,0.901,8.913c2.213,0.035,0.4-1.684,1.86-2.161
		c0.042,2.196,0.353,4.431,0.501,6.627c0.812,0.064,1.302-0.287,1.287-1.007c0.422,1.067,0.638,2.265,0.929,3.384
		c0.19,0.738,2.144-0.094,1.986,1.485c-0.133,1.339,1.644,3.716,2.727,4.412c4.353,2.792,7.765,7.387,11.53,10.893
		c3.986,3.711,8.347,7.085,12.756,10.274c2.111,1.525,4.327,2.901,6.528,4.293c0.535,0.336,3.182,1.535,3.182,2.193
		c0,1.347,0.29,2.634,1.789,2.624c1.38-0.01,1.101-0.282,2.29,0.72c0.708,0.597,1.558,1.226,2.423,1.565
		c1.383,0.542,1.332,0.953,1.842,2.374c0.374,1.042,0.692,1.538,1.715,1.538c1.498,0,2.195,3.765,2.899,5.003
		c0.792,1.399,1.829,3.461,3.712,3.355c-0.209,0.933,0.47,0.324,1.001,0.505c1.047,0.359,2.075,1.104,2.894,1.988
		c1.716,1.844,3.951,2.6,6.1,3.951c4.316,2.718,9.636,3.988,13.687,7.031c2.014,1.515,4.214,3.313,5.866,5.194
		c1.74,1.98,3.856,3.193,5.941,4.805c1.333,1.03,2.083,1.186,2.044,2.864c-0.04,1.644-0.585,2.491-1.075,4.085
		c-0.75,2.441-1.652,4.852-2.652,7.202c-1.084,2.547-2.266,4.909-3.829,7.194c-1.238,1.81-1.972,3.686-3.222,5.498
		c-2.595,3.758-4.694,7.799-7.398,11.428c-0.58,0.777-1.216,1.466-1.789,2.233c-0.709,0.956-1.024,1.347-2.042,1.664
		c-2.164,0.668-4.936,0.728-7.312,0.99c-5.516,0.609-11.038,0.914-16.586,0.956c-4.137,0.03-8.276-0.233-12.402-0.493
		c-1.923-0.122-3.748-0.666-5.554,0.285c-1.699,0.894-3.243,1.911-3.938,3.81c-0.202,0.552-0.487,1.243-0.036,1.696
		c0.699,0.698,1.401-0.233,2.076-0.361c0.879-0.164,1.703-0.268,2.588-0.079c0.948,0.198,1.404,0.894,2.383,1.015
		c0.727,0.092,1.358,0.302,2.29,0.324c1.057,0.025,2.092,0.213,3.128,0.404c1.811,0.332,3.452,0.817,5.315,0.965
		c-1.493,1.496-2.679,3.798-2.875,5.853c-0.076,0.78-0.393,2.228,0.871,2.29c0.935,0.047,1.235-1.656,1.933-2.233
		c2.223-1.844,4.333-0.542,6.848,0.035c2.549,0.586,5.214,0.507,7.803,0.29c0.808-0.069,0.264-0.678,0.803-0.901
		c0.361-0.148,1.105-0.024,1.508,0.015c0.952,0.094,1.588,0.579,2.484,0.639c2.872,0.181,5.735,0.505,8.601,0.21
		c1.744-0.181,3.765-0.617,5.537-1.429c2.538-1.168,5.054-1.671,7.699-2.505c2.429-0.762,4.776-1.604,7.036-2.684
		c1.079-0.515,2.172-0.614,3.339-0.661c1.461-0.06,1.834-0.557,3.183-1.117c0.741-0.307,1.937-0.562,2.613-0.611
		c0.197-0.015,0.723,0.057,1.072,0c-0.114,0.017,0.86-0.24,0.715-0.29c0.899,0.312,0.599,1.154,1.503,1.01
		c0.792-0.126,1.026-1.198,1.144-1.874c1.581,1.634,4.177,2.404,6.405,1.983c1.906-0.356,3.263-2.476,5.258-2.991
		c0.12,2.743,2.062,2.798,4.222,2.521c2.316-0.292,4.386-1.08,6.51-2.015c0.54,1.317,5.585-0.05,6.679-0.438
		c0.934-0.329,1.832-0.738,2.693-1.22c1.129-0.634,1.51-1.453,2.29-2.233c0.295-0.297,0.002-1.082,0.493-1.082
		c0.98,0,0.27,0.225,0.723,0.864c0.507,0.716,0.785,1.446,1.29,0.434c1.018-2.033-0.012-4.607-1.646-6.053
		c-0.862-0.765-1.929-1.411-3.035-1.743c-0.391-0.119-0.352-0.525-0.698-0.723c-0.914-0.525-1.124-0.431-2.171-0.223
		c-1.136,0.228-2.084,0.983-2.973,1.688c-0.414,0.329-0.842,0.683-1.124,1.134c-0.544,0.856-1.206,0.639-2.208,0.703
		c-1.961,0.126-5.209-0.421-6.437-2.204c-0.608-0.886-1.369-1.55-2.255-2.144c-0.474-0.322-0.915-2.218-0.993-2.758
		c-1.546-10.621,3.273-21.526,6.457-31.53c0.792-2.486,1.602-4.966,2.401-7.447c0.436-1.347,0.869-2.688,1.302-4.033
		c0.106-0.332,1.941-1.522,2.332-1.592c2.567-0.463,4.887-1.097,7.289-2.134c0.993-0.431,2.451,0.086,3.545-0.027
		c1.708-0.176,1.411-1.045,2.434-2.164c0.775-0.849,1.77-1.139,2.889-1.027c1.097,0.111,1.921,1.322,2.723,0.116
		c0.622-0.938,1.758-0.874,2.449-1.607c0.943-1,1.948-1.805,3.099-2.56c0.557-0.366,1.087-0.648,1.691-0.936
		c0.857-0.411,0.654,0.307,1.458,0.322c1.25,0.025,1.431-1.361,1.431-2.451c0-0.629,2.139-0.96,2.563-1.446
		c0.703-0.807,1.458-1.569,2.159-2.372c3.35-3.837,6.422-7.16,9.517-11.205c2.916-3.817,4.609-8.306,6.159-12.789
		c0.473-1.367,0.772-4.387,2.139-4.899c1.013-0.381,0.933,0.336,1.733-0.698c0.51-0.666-0.079-1.963-0.265-2.651
		c-0.557-2.084-0.149-0.797,1.002-1.946c0.569-0.574,1.184-1.03,1.008-1.916c-0.384-1.929-0.186-3.518,0.329-5.397
		c1.233-4.521,2.872-8.727,4.993-12.906c0.201-0.398,0.503-0.379,0.884-0.592c0.594-0.334,0.342-0.431,0.619-0.988
		c0.421-0.839,0.77-1.084,1.025-2.035C238.3,173.387,239.275,170.872,239.179,168.867 M12.729,74.116
		c-0.904-1.735,2.021-4.994,3.153-6.132c1.321-1.327,2.331-2.218,3.915-3.297c1.427-0.976,3.613-1.943,4.666-3.323
		c0.731,0.525,1.026-0.901,2.091,0.052c1.241,1.112,2.492,2.077,3.848,3.045c-0.516,0.201-2.556,1.087-1.002,1.73
		c-2.294,0.255-3.747,0.886-5.827,1.411c-0.63,0.159-1.592,0.668-2.489,0.867c-0.231,0.049-0.463,0.302-0.52,0.53
		c-0.085,0.341-1.037,0.431-1.252,0.648c1.486,0.352,3.586-0.965,4.678-1.391c2.582-1,5.194-1.515,8.035-1.901
		c0.402-0.055,0.727-0.268,0.918-0.525c0.185-0.25,1.406,0.404,1.753,0.505C36,66.711,37.489,66.949,38.843,67
		c1.41,0.052,2.914-0.206,4.126,0.339c1.052,0.47,1.326,1.456,2.171,2.092c-1.197,0.151-2.164,0.186-2.797,1.372
		c-0.453,0.849-0.359,1.671-0.709,2.52c-1.261-0.495-2.368-0.715-3.722-0.785c-1.005-0.054-1.886-0.369-2.868-0.369
		c-0.956,0-1.784,0.537-2.711,0.505c-0.863-0.03-1.649-0.458-2.646-0.505c-2.637-0.126-5.357,0.493-7.96,0.819
		C18.727,73.366,15.728,73.739,12.729,74.116 M32.189,77.356c-0.027,0.312-0.195,0.639-0.287,0.938
		c-0.293-0.349-2.3-3.191-2.003-1.369c-1.629-0.976-3.852-1.01-5.659-1.23c-2.33-0.285-4.589-0.691-6.861-0.859
		c2.121-0.465,4.435-0.53,6.598-0.708c2.112-0.178,4.655-1.074,6.782-0.805c0.127,0.018,0.304,0.434,0.731,0.434
		c0.618,0,1.233-0.002,1.851,0.024c0.78,0.035,1.223,0.04,1.925-0.314c0.558-0.279,0.405,0.394,0.883,0.233
		c0.97-0.327,5.629-0.064,4.483,1.642C37.87,73.732,33.754,74.484,32.189,77.356 M147.168,309.593
		c-0.407,0.159-0.331-0.017-0.823-0.183c-0.459-0.153-0.692,0.569-1.11,0.614c-1.202,0.133-1.524-0.599-2.791,0.361
		c-0.08-0.535-0.53-0.881-1.072-1.01C142.388,308.955,147.189,308.821,147.168,309.593 M148.527,307.935
		c-1.067-0.386-2.134-0.77-3.2-1.153c-0.705-0.258-1.07-0.8-1.596-1.08c-0.776-0.414-1.042-0.332-2.144-0.164
		c-1.129,0.168-0.798-0.04-1.433-0.918c-1.488-2.057-1.677,0.235-2.359,1.297c-0.827,1.285-2.368,1.429-3.293,2.595
		c-0.741,0.936-0.959,1.631-2.123,2.654c-0.3,0.265-0.83,0.369-1.096,0.77c-0.225,0.336,0.15,0.963-0.19,1.198
		c-0.381,0.262-0.755,0.549-1.154,0.787c-1.447,0.856-3.223,1.862-4.773,2.05c-0.88,0.104-1.66,0.361-2.398,0.899
		c-0.52,0.378,0.027,0.582-0.797,0.809c-0.372,0.099-0.198,0.332-0.062,0.56c-6.395,1.211-12.72,0.401-19.183,0.48
		c-2.675,0.035-4.976,1.302-8.113,0.713c-0.793-0.151-1.5-0.361-2.268-0.619c-0.522-0.178-0.994-0.755-1.454-0.812
		c-1.603-0.203-2.886,0.242-4.185,1.176c0.269-1.334,1.65-2.642,2.504-3.604c0.467-0.525,0.474-0.834,1.39-1.027
		c1.302-0.282,2.588-0.535,3.905-0.738c1.205-0.183,2.397-0.396,3.596-0.622c0.733-0.139,1.893-0.71,2.593-0.71
		c0.452,0,0.814-0.52,1.251-0.577c0.504-0.067,1.211,0.274,1.717,0.359c1.128,0.188,2.292,0.292,3.434,0.361
		c2.265,0.141,4.458-0.069,6.691-0.431c1.02-0.164,2.279-0.148,2.969-1.01c0.295-0.369,0.776-1.356-0.144-1.73
		c-0.443-0.181-2.427,0.676-2.913,0.765c-1.192,0.218-2.477,0.178-3.685,0.257c-2.488,0.159-4.95,0.48-7.426,0.78
		c0.355-0.421,0.475-0.884,0-1.153c-0.478-0.27-1.04,0.421-1.436,0.671c-1.16,0.73-2.775,0.931-4.102,1.262
		c-2.553,0.644-5.727,1.29-8.332,1.07c-3.523-0.295-7.028-0.646-10.542-1.035c-1.193-0.133-1.535-1.168-2.49-1.535
		c-1.101-0.421-2.651,0.24-3.865-0.144c0.764-1.04,0.971-1.758,2.353-2.104c0.591-0.148,1.197-0.213,1.789-0.361
		c0.748-0.188,1.026,0.148,1.511,0.158c1.104,0.025,1.802-0.648,2.957-0.648c1.341,0,2.597,0.409,3.912,0.648
		c1.233,0.226,2.469,0.362,3.72,0.434c0.6,0.035,1.356-0.092,1.932,0.072c0.633,0.178,1.068,0.785,1.816,0.901
		c2.509,0.396,5.128-0.475,7.644-0.698c2.954-0.262,5.91-0.361,8.871-0.495c2.126-0.091,4.56,0.173,6.582-0.557
		c1.051-0.379,1.863-0.921,2.706-1.602c0.355-0.287,0.688-0.48,1.001-0.827c0.415-0.46-0.03-0.688,0.394-0.973
		c1.943-1.302,3.032-4.263,4.103-6.266c1.409-2.634,3.393-5.115,4.993-7.652c1.754-2.78,3.247-5.674,4.879-8.524
		c1.667-2.906,2.883-5.986,4.249-9.036c0.606-1.352,0.99-2.564,1.312-3.996c0.24-1.064,0.129-4.481,1.035-4.877
		c1.005,1.361,1.497-1.926,1.79-2.308c1.119,0.867,3.965-0.866,5.08-1.441c2.229-1.146,4.654-2.134,7.072-2.792
		c1.895-0.52-0.173,2.862-0.418,3.622c-0.756,2.337-2.118,4.446-3.249,6.623c-1.153,2.216-2.262,4.896-3.835,6.815
		c-0.934,1.136-1.326,1.201-1.609,2.738c-0.192,1.037-0.683,2.337-1.25,3.208c-2.8,4.305-4.7,9.167-5.762,14.193
		c-0.202,0.956-0.354,1.896-0.495,2.862c-0.21,1.451,0.761,1.049,1.984,1.015c2.25-0.06,3.661,0.334,5.541,1.51
		c0.909,0.567,1.247,0.971,1.592,1.783c0.308,0.728,0.277,1.476,0.787,2.089c0.418,0.502,1.198,0.993,1.692,1.49
		c0.496,0.5,0.269,2.013,0.311,2.688C148.717,308.029,148.623,307.984,148.527,307.935 M153.607,267.15
		c-0.28,6.185-0.963,12.072-2.362,18.087c-0.529,2.273-0.932,6.253-2.447,7.992c-1.508,1.733-3.148,3.268-4.564,5.05
		c-1.254-1.476-4.31-1.243-6.083-1.513c0.821-2.746,1.285-5.427,2.646-7.999c1.452-2.743,2.999-5.766,3.958-8.714
		c0.518-1.594,0.733-3.426,2.008-4.55c1.293-1.139,2.107-2.634,2.998-4.087c1.442-2.349,2.593-4.909,3.701-7.434
		C153.513,265.037,153.562,266.096,153.607,267.15 M170.419,252.524c-2.733,10.571-6.117,20.996-8.914,31.525
		c-0.297,1.119-0.467,2.208-0.636,3.357c-0.131,0.891-0.262,1.782-0.394,2.671c-0.072,0.488-0.542,0.518-0.573,0.852
		c-0.065,0.716,0.464,1.392,0.356,2.308c-0.114,0.963-0.413,1.978-0.478,3.077c-0.047,0.795-0.129,2.174-0.379,2.901
		c-0.104,0.302-1.779,3.243-1.897,3.243c-1.825,0-3.174-1.104-3.47-3.097c-0.198-1.329-0.137-2.78-0.183-4.142
		c-0.027-0.817-1.032-1.961-1.032-0.701c0,2.364-0.642,5.855,1.144,7.652c0.567,0.569,2.167,2.055,3.005,2.089
		c1.143,0.05,1.784-1.587,2.29-2.451c1.367-2.332,1.519-4.536,1.859-7.204c0.507,4.926,6.607,8.962,11.081,7.838
		c2.555-0.644,4.255-2.797,6.944-3.342c0.186-0.037,2.597,1.664,2.651,1.807c0.453,1.149,0.732,2.253,0.787,3.496
		c1.817-0.475,0.909-2.139,1.002-3.458c1.186,1.389,2.295,2.907,1.646,4.828c-1.545-2.802-4.139,1.765-5.939,2.738
		c-1.535,0.832-2.354,1.062-4.14,0.898c-1.438-0.134-2.948-0.178-4.377-0.178c-0.596,0-1.109,0.916-1.644,1.154
		c-0.71,0.317-1.815,0.322-2.595,0.426c-1.286,0.178-3.399,0.876-3.958-0.535c-0.423-1.064-0.681-1.164,0.074-2.003
		c0.499-0.552,0.894-1.146,1.363-1.708c0.521-0.626,1.045-1.047,0.538-1.693c-0.31-0.394-0.722-0.527-1.001-0.325
		c-0.724-0.802-1.143,0.379-1.489,0.926c-0.672,1.06-1.874,2.159-2.947,2.822c-2.229,1.376-4.608,1.292-6.991,0.418
		c-0.904-0.329-1.795-0.824-2.417-1.572c-0.334-0.401-0.393-1.069-0.464-1.584c-0.146-1.045-0.012-0.894-0.467-1.802
		c-0.218-0.436-0.574-0.83-0.918-1.176c-0.581-0.584-0.328-0.75-0.512-1.491c-0.239-0.953-0.925-1.431-1.823-1.874
		c1.189-1.126,2.36-2.406,3.218-3.746c0.472-0.735,0.754-0.983,1.29-1.659c0.82-1.037,1.054-2.434,1.431-3.746
		c1.448-5.031,2.942-10.289,3.377-15.522c0.243-2.921,0.2-5.659-0.186-8.566c-0.138-1.044-0.716-2.337-0.688-3.364
		c0.036-1.265,0.844-2.83,1.187-4.085c0.442-1.617-0.094-1.884,1.143-2.869c0.52-0.416,0.978-0.698,1.569-1.01
		c1.098-0.574,0.732-0.146,1.681,0.037c0.937,0.181,1.464,0.399,2.218-0.359c0.724-0.733,0.278-1.753,1.11-2.089
		c2.453-1,5.391-1.411,8.263-1.226C170.897,251.514,170.66,252.02,170.419,252.524 M164.839,249.066
		C164.742,249.046,165.07,249.113,164.839,249.066 M236.673,172.253c-0.404,2.357-0.768,4.145-2.718,5.55
		c-1.919,1.382-4.261,1.956-6.511,2.521c1.107,1.007,4.068,0.104,5.508,0.146c-2.629,5.561-5.486,11.108-4.434,17.436
		c-3.414,0.428-2.404,2.5-1.718,5.189c-1.099-0.312-1.686-0.847-2.218,0.215c-0.307,0.612-0.215,1.993-0.428,2.882
		c-0.584,2.438-2.354,4.127-2.718,6.674c-0.307,2.167-2.684,4.879-4.013,6.553c-1.735,2.188-3.869,4.055-5.687,6.187
		c-1.599,1.876-2.909,4.647-4.724,6.236c-1.287,1.126-1.785,0.881-3.297,1.386c-1.099,0.367-1.527,1.901-1.527,2.912
		c0,0.658-0.681-0.005-0.894-0.188c-0.478-0.416-1.183,0.522-1.619,0.867c-1.153,0.911-2.356,1.755-3.545,2.619
		c-1.06,0.772-2.112,1.56-3.169,2.342c-1.265,0.936-1.594,0.124-3.015,0.242c-0.993,0.084-1.986,0.258-2.783,0.918
		c-0.597,0.493-0.953,1.968-1.431,2.233c-0.728,0.403-2.456-0.201-3.357-0.106c-1.08,0.109-2.448-0.08-3.119,0.864
		c-1.134,1.597-3.639,0.976-5.62,1.196c-1.186,0.134-2.602,0.537-3.788,0.426c-1.094-0.104-2.243-0.574-3.362-0.72
		c4.333-4.36,8.818-8.494,13.378-12.611c-3.592,2.127-6.944,4.593-10.017,7.422c-1.619,1.493-3.114,3.05-4.594,4.681
		c-0.531,0.584-2.499,0.097-1.989,1.805c-1.255-0.27-1.781,0.562-2.269,1.542c-0.286,0.575-0.24,0.827-0.593,1.196
		c-0.156,0.164-0.21,0.428-0.285,0.648c-1.527-1.418-2.503,0.322-3.792,1.295c-1.041,0.787-2.214,1.196-3.327,1.946
		c-1.063,0.716-2.625,0.678-3.721,1.188c-1.46,0.683-2.643,1.688-4.256,2.055c0.3-1.537-0.907-1.649-1.866-0.807
		c-0.915,0.807-1.443,2.149-2.133,3.164c-1.28,1.887-2.97,2.223-4.73,0.814c-1.796-1.438-3.389-3.676-4.937-5.404
		c-1.614-1.802-3.487-3.609-5.55-4.897c-4.341-2.711-8.851-4.322-13.413-6.679c-2.417-1.253-4.784-2.337-6.868-4.065
		c-1.468-1.221-2.714-4.704-4.607-3.37c-0.164,0.04-0.226,0.131-0.186,0.275c-0.448-1.104-1.489-0.111-1.645,0.505
		c-1.415-2.114-2.75-4.191-3.644-6.593c-0.235-0.628-0.432-1.235-0.604-1.884c-0.224-0.847-1.43-0.299-1.833-0.673
		c-0.52-0.483-1.121-2.708-0.859-3.315c-1.379-0.648-1.712-5.899-1.997-7.38c-0.458-2.372,0.324-4.659-0.111-6.996
		c-0.432-2.315-0.724,0.49-0.879,1.372c-0.214,1.223-0.63,2.272-0.492,3.515c0.311,2.76,0.664,5.422,1.332,8.12
		c-0.637-0.465-1.731-1.72-2.575-1.297c-1.529,0.768-1.76-0.299-2.434-1.406c-0.303-0.495-0.69-0.921-1.001-1.404
		c-0.026-0.042-0.615-1.038-0.573-1.01c-0.81-0.562-1.429,0.052-2.433-0.626c-4.634-3.129-9.124-6.429-13.712-9.615
		c-4.223-2.929-8.17-6.343-11.841-9.925c-2.025-1.976-4.05-3.949-6.104-5.892c-0.478-0.453-1.63-0.938-1.792-1.998
		c-0.125-0.812-0.958-3.129-2.109-2.134c-0.296-0.772-1.198-5.006-2.433-3.818c-0.015-1.3-0.074-2.609-0.256-3.896
		c-0.215-1.518-0.231-2.268-1.748-1.436c0.286-2.718-0.593-5.595-1.043-8.254c-0.38-2.243-0.762-4.5-1.218-6.729
		c-1.181-5.781-2.401-11.552-3.566-17.33c-1.05-5.207-1.248-10.779-0.823-16.058c0.147-1.837,3.319-15.384,2.93-15.582
		c-1.281-0.644,1.397-4.813,1.86-6.016c-1.014-0.168-1.356-0.126-1.064-1.106c0.261-0.879,0.54-1.753,0.761-2.642
		c0.418-1.678,1.027-3.332,1.177-5.07c0.151-1.76,0.231-3.431-0.019-5.189c-0.234-1.639,0.338-3.151,0.265-4.778
		c-0.037-0.8-0.119-1.575-0.119-2.372c0-0.525-0.654-1.332-0.787-1.936c-0.373-1.701-1.864-1.985-1.727-4.045
		c0.057-0.859-1.891-0.148-2.422-0.817c-0.467-0.587,0.123-1.545-0.5-2.02c-0.681-0.515-1.302,0.381-2.004-0.215
		c0.23-0.324,0.378-1.213,0.613-1.369c0.857-0.577,2.151-1.691,3.18-1.872c2.076-0.367,4.417,1.993,5.975,1.367
		c0.599-0.238,4.415,3.485,5.115,3.936c1.108,0.713,4.532,3.548,5.652,3.127c-3.163-2.488-6.775-4.382-9.084-7.811
		c-0.8-1.188-2.264-4.268-0.467-5.303c0.913-0.525,2.898-0.091,2.898-1.55c0-1.426-2.415-2.738-3.576-3.352
		c-2.014-1.069-3.792-0.554-5.976-0.683c-4.325-0.255-7.047-3.833-10.911-5.298c0.18-0.723,0.784-1.045,1.001-1.654
		c0.194-0.544-0.037-1.352,0.036-1.946c0.067-0.552,0.22-1.089,0.299-1.644c0.048-0.336,0.534-0.485,0.594-0.735
		c0.125-0.52-0.107-1.156-0.053-1.701c0.053-0.53,0.365-0.832,0.447-1.327c0.164-0.982,0.531-1.881,0.623-2.901
		c0.124-1.366,0.38-2.609,0.811-3.914c0.208-0.626,0.513-1.176,0.818-1.76c0.213-0.406,0.86-0.164,1.218-0.503
		c0.832-0.794,1.177-2.48,2.076-3.384c0.452-0.456,0.96-0.559,1.431-0.794c0.252-0.126,0.286,0.26,0.606,0.002
		c0.261-0.213,0.448-0.515,0.681-0.723c1.818-1.634,4.493-2.367,6.721-3.436c2.117-1.015,4.28-1.743,6.505-2.52
		c4.863-1.696,10.098-4.199,15.244-4.88c3.617-0.478,7.432-1.23,11.1-0.953c1.651,0.124,3.583,0.159,4.732,1.48
		c0.921,1.055,2.347,1.545,3.617,2.028c7.774,2.958,15.527,5.964,23.271,9.001c-2.379,1.332,2.292,3.334,3.435,3.82
		c-0.835,1.54,0.548,2.005,1.67,2.991c1.423,1.252,2.695,2.733,3.988,4.119c2.473,2.645,4.712,5.526,6.934,8.383
		c-0.634,0.05-1.927-1.505-2.396-0.396c-0.346,0.812,0.74,2.852,1.108,3.708c-2.504,0.44,0.414,9.234,1.109,10.7
		c1.752,3.691,4.098,6.536,7.262,9.116c-0.912-0.013-2.313,1.057-1.373,2.005c0.767,0.772,1.712,1.337,2.467,2.149
		c0.895,0.96,1.602,1.926,2.207,3.092c0.311,0.597-0.076,1.379,0.848,1.401c0.045-0.711,0.6-1.389,0.359-2.018
		c1.041,0.723,2.055,1.485,3.077,2.233c-1.506,0.589-1.096,1.168-0.215,1.946c0.884,0.78,1.685,1.525,2.479,2.416
		c0.255,0.282-1.846,1.451-0.369,2.392c1.062,0.681,2.124,1.359,3.188,2.035c4.64,2.951,9.284,6.011,14.199,8.486
		c4.779,2.406,9.854,3.125,14.887,4.733c5.048,1.612,9.856,4.14,13.983,7.462c0.334,0.272,2.384,1.795,2.215,2.055
		c-0.54,0.832,0.144,1.02,0.941,1.381c2.094,0.96,4.479,1.337,6.655,2.087c2.069,0.713,3.971,1.715,5.912,2.715
		c0.471,0.245,2.634-0.28,2.879,0.337c0.102,0.255-1.619,0.852-1.79,1.659c3.785,0.936,6.84,3.09,9.071,6.269
		c0.976,1.391,3.713,2.441,5.179,3.357c1.352,0.847,2.436,1.914,3.436,3.139c2.894,3.55,5.833,7.065,8.675,10.655
		c0.911,1.151,1.817,2.3,2.729,3.451c0.213,0.27,0.631,1.245,0.782,1.336c1.025,0.614,1.406,2.271,1.468,3.421
		c-0.304-0.599-0.597-1.495-1.218-1.728c-0.047,0.931,0.725,1.614,0.537,2.565c-0.193,0.96,0.72,1.916,1.084,2.813
		C236.366,166.951,236.797,169.401,236.673,172.253 M54.155,60.354c1.103-0.302,2.651,2.644,3.911,3.095
		c2.093,0.743,3.858,0.45,5.816-0.535c3.086-1.555,3.221-5.045,1.721-7.892c-0.952-1.807-2.467-2.629-4.367-3.134
		c-1.858-0.49-3.544,0.619-4.863,1.909c-0.551,0.537-1.289,1.498-1.58,2.211c-0.583,1.423-1.096,0.97-2.284,1.681
		C50.315,59.002,52.501,60.245,54.155,60.354 M66.604,67.127c1.717,0.664,4.886-2.347,5.581-3.748
		c0.672-1.354,2.641-5.095,1.144-6.412c0.583,4.421-3.439,7.907-6.939,9.873C66.461,66.934,66.532,67.03,66.604,67.127
		 M87.71,61.794c0.53-0.941-0.131-1.441-0.894-1.441C86.149,60.354,85.858,62.572,87.71,61.794 M88.855,61.217
		c0.509,0.025,0.857-0.245,1.217-0.433c-0.355-1.287-1.474-0.268-1.718,0.505C88.514,61.319,88.814,61.228,88.855,61.217
		 M89.499,62.515c-1.019,1.295,1.889,1.522,2.648,1.151C91.182,62.844,90.79,62.29,89.499,62.515 M92.075,66.045
		c-0.534-0.314-1.531-1.374-2.075-1.441c-0.634-0.077-1.032,0.208-0.676,0.746c0.543,0.819,1.192,1.44,1.993,2.005
		C92.132,67.929,92.304,66.533,92.075,66.045 M87.424,68.855c-0.364,0.802,0.253,1.98-0.393,2.629
		c-0.369,0.372-0.415,1.55-0.456,2.055c0.755-0.146,0.776-1.5,1.277-2.018c0.222-0.23,0.732-0.364,1.001-0.54
		c0.657-0.426,0.33-1.022,0.715-1.334c0.237-0.188,1.934,0.342,1.789-0.792c-0.009-0.069-2.32-1.832-2.504-1.872
		C88.327,67.53,87.995,68.261,87.424,68.855 M86.566,73.611C86.574,73.509,86.573,73.519,86.566,73.611 M78.481,113.746
		c0.984,0.077,1.999-0.713,2.504-1.513C80.298,112.263,77.02,112.229,78.481,113.746 M70.109,115.043
		c1.774-0.181,2.05-1.013,0.157-1.33C68.151,113.357,68.165,114.516,70.109,115.043 M67.605,115.187
		c-1.831,0.614,0.395,3.097,1.037,2.666C69.684,117.155,68.724,115.382,67.605,115.187 M65.888,120.448
		c-0.889-1.634-2.326-0.109-1.108,1.114C65.721,122.513,66.674,121.398,65.888,120.448 M61.452,122.537
		c-1.124,0.337-1.185,1.953-1.629,2.85c-0.406,0.819-1.1,1.384-0.327,1.993c0.265,0.206,1.168-0.193,1.455-0.411
		C61.623,126.458,62.688,122.706,61.452,122.537 M123.199,104.307c1.455,0.049,2.91,0.096,4.365,0.144
		c-2.587-1.728-5.857-1.597-8.893-1.535c-1.126,0.025-2.481,0.005-3.558,0.275c-1.359,0.341-3.808-0.072-4.793,0.686
		C114.614,104.054,118.901,104.234,123.199,104.307 M129.065,157.627c-9.618,0.832-17.444,7.758-22.036,15.854
		c1.927-0.96,3.076-3,4.624-4.461c2.008-1.901,4.048-3.598,6.334-5.155c1.952-1.327,3.981-2.431,6.161-3.339
		c1.25-0.522,2.463-1.047,3.762-1.429C128.822,158.835,131.224,158.365,129.065,157.627 M91.503,176.794
		c-0.766-0.743-2.211-0.668-3.211-0.842c-1.358-0.238-2.669-0.569-4.006-0.916c-2.517-0.644-5.037-1.5-7.415-2.555
		c-5.294-2.347-9.838-5.605-14.145-9.44c-0.452-0.403-0.194-0.794-0.527-1.131c-0.481-0.485-0.864-0.965-1.269-1.52
		c-0.73-1.005-1.308-2.114-1.768-3.268c-0.452-1.131-0.781-2.277-1.073-3.456c-0.188-0.762-0.035-0.931-0.573-1.443
		c-0.312-0.299-1.45-0.443-1.546-0.681c-2.094-5.125-2.918-10.19-1.959-15.676c0.242-1.379,1.813-4.055,0.214-4.971
		c-0.187,0.837,0.089,1.258-0.242,2.084c-0.51,1.285-0.885,2.505-1.228,3.845c-0.552,2.151-0.534,4.429-0.534,6.632
		c0,4.372,1.781,9.081,4.293,12.586c0.448-0.319,0.669-0.617,0.787-1.082c0.088,4.798,3.758,7.776,7.031,10.692
		c3.481,3.095,7.456,5.62,11.657,7.61c4.531,2.149,9.2,3.48,14.099,4.486c0.02,0.005,0.919,1.745,0.948,1.891
		c0.083,0.416,1.171,1.815,1.467,1.981c1.469,0.824,1.113-0.547,0.5-1.392C92.04,178.903,91.503,178.403,91.503,176.794
		 M102.95,175.93c-0.381,0.691-3.451,6.568-2.79,6.773c1.338,0.414,2.889-5.909,3.076-6.917
		C103.015,175.719,103.083,175.863,102.95,175.93 M99.945,184.793c-0.046,0.507-0.014,1.027,0.144,1.512
		c1.247-0.951,1.934-2.604,2.146-4.179C101.335,182.314,100.516,184.033,99.945,184.793 M99.517,188.539
		c-0.752,1.678-0.519,2.396-0.215,4.035c0.564-0.336,0.252-1.213,0.286-1.8c0.059-0.998,0.368-2.05,0.573-3.028
		C99.94,187.999,99.696,188.256,99.517,188.539 M217.571,184.649c-0.676,0.32-4.204,0.092-3.508,0.973
		c1.272,1.602,3.253-0.208,4.652-0.542C218.391,184.854,217.979,184.704,217.571,184.649 M207.339,185.298
		c-0.842,0.518-0.57,1.891-0.144,2.666c-1.48-0.099-1.482-1.164-2.074-2.089c-0.396-0.619-1.594-1.673-1.322-0.218
		c0.51,2.736-0.23,5.674-0.465,8.432c1.164-1.364,1.292-3.912,1.716-5.622c1.032,0.567,1.918,0.7,3.077,0.792
		c0.015-0.854-0.124-1.721-0.431-2.52c1.307,1.146,2.864,0.096,4.295,0.072C210.446,186.275,208.904,185.775,207.339,185.298
		 M48.859,73.177c-1.335,0.188-0.256,1.104,0.501,1.441C49.449,74.079,49.208,73.628,48.859,73.177"/>
	<path fill-rule="evenodd" clip-rule="evenodd" fill="#FF7F00" d="M148.525,307.737c-1.067-0.384-2.134-0.768-3.2-1.154
		c-0.705-0.255-1.07-0.797-1.596-1.079c-0.776-0.411-1.042-0.33-2.144-0.164c-1.129,0.168-0.798-0.04-1.433-0.916
		c-1.488-2.06-1.678,0.235-2.359,1.297c-0.827,1.282-2.368,1.426-3.293,2.594c-0.741,0.936-0.959,1.629-2.123,2.654
		c-0.3,0.263-0.83,0.367-1.096,0.768c-0.225,0.337,0.15,0.966-0.19,1.201c-0.381,0.263-0.755,0.547-1.154,0.785
		c-1.447,0.857-3.223,1.862-4.773,2.05c-0.88,0.106-1.66,0.362-2.398,0.901c-0.52,0.376,0.027,0.582-0.797,0.807
		c-0.372,0.102-0.198,0.332-0.062,0.56c-6.395,1.213-12.72,0.403-19.183,0.482c-2.675,0.032-4.976,1.3-8.113,0.711
		c-0.793-0.149-1.5-0.362-2.268-0.619c-0.522-0.176-0.994-0.752-1.454-0.812c-1.603-0.201-2.886,0.243-4.185,1.178
		c0.269-1.334,1.65-2.644,2.504-3.604c0.467-0.525,0.474-0.834,1.39-1.03c1.302-0.28,2.588-0.535,3.905-0.738
		c1.204-0.183,2.397-0.394,3.596-0.619c0.733-0.139,1.893-0.713,2.593-0.713c0.452,0,0.814-0.517,1.251-0.574
		c0.504-0.069,1.211,0.272,1.717,0.356c1.128,0.191,2.292,0.292,3.434,0.362c2.265,0.144,4.458-0.067,6.691-0.429
		c1.02-0.166,2.279-0.148,2.968-1.012c0.296-0.367,0.776-1.357-0.144-1.728c-0.443-0.184-2.427,0.673-2.913,0.762
		c-1.192,0.221-2.477,0.178-3.685,0.258c-2.488,0.158-4.95,0.48-7.426,0.782c0.355-0.421,0.476-0.886,0-1.154
		c-0.478-0.272-1.04,0.421-1.436,0.668c-1.16,0.733-2.775,0.931-4.102,1.265c-2.553,0.641-5.727,1.29-8.332,1.069
		c-3.523-0.294-7.028-0.646-10.542-1.037c-1.193-0.131-1.535-1.168-2.49-1.535c-1.101-0.421-2.652,0.243-3.865-0.144
		c0.764-1.04,0.971-1.758,2.353-2.104c0.59-0.149,1.197-0.213,1.789-0.362c0.748-0.188,1.026,0.149,1.512,0.159
		c1.104,0.025,1.802-0.649,2.957-0.649c1.341,0,2.597,0.411,3.912,0.649c1.233,0.228,2.469,0.361,3.72,0.436
		c0.6,0.035,1.356-0.091,1.932,0.069c0.633,0.178,1.068,0.787,1.816,0.904c2.509,0.394,5.128-0.478,7.644-0.701
		c2.954-0.263,5.91-0.361,8.871-0.493c2.126-0.092,4.56,0.171,6.582-0.557c1.051-0.381,1.863-0.921,2.706-1.604
		c0.355-0.287,0.688-0.48,1.001-0.827c0.415-0.458-0.03-0.688,0.394-0.97c1.943-1.302,3.032-4.263,4.103-6.269
		c1.408-2.631,3.393-5.112,4.993-7.65c1.754-2.783,3.247-5.674,4.879-8.526c1.667-2.907,2.883-5.986,4.249-9.036
		c0.606-1.352,0.99-2.563,1.312-3.994c0.24-1.067,0.129-4.483,1.035-4.879c1.005,1.364,1.497-1.926,1.79-2.307
		c1.119,0.869,3.965-0.867,5.08-1.441c2.229-1.144,4.654-2.131,7.072-2.792c1.895-0.52-0.173,2.864-0.418,3.624
		c-0.756,2.337-2.118,4.446-3.25,6.62c-1.152,2.218-2.261,4.897-3.834,6.818c-0.934,1.136-1.326,1.198-1.609,2.738
		c-0.192,1.037-0.683,2.337-1.25,3.208c-2.8,4.305-4.7,9.167-5.762,14.19c-0.202,0.956-0.354,1.899-0.495,2.864
		c-0.21,1.451,0.761,1.047,1.984,1.013c2.25-0.06,3.661,0.336,5.541,1.51c0.908,0.569,1.246,0.97,1.592,1.782
		c0.308,0.728,0.277,1.478,0.787,2.089c0.418,0.505,1.198,0.996,1.692,1.491c0.496,0.5,0.269,2.015,0.311,2.688
		C148.714,307.833,148.62,307.786,148.525,307.737"/>
	<path fill-rule="evenodd" clip-rule="evenodd" fill="#FF7F00" d="M170.417,252.326c-2.733,10.571-6.117,20.999-8.914,31.528
		c-0.297,1.119-0.467,2.206-0.636,3.354c-0.131,0.891-0.262,1.783-0.394,2.674c-0.072,0.485-0.542,0.515-0.573,0.852
		c-0.065,0.715,0.464,1.391,0.356,2.307c-0.114,0.961-0.413,1.976-0.478,3.075c-0.047,0.797-0.129,2.174-0.379,2.902
		c-0.104,0.302-1.779,3.243-1.897,3.243c-1.825,0-3.174-1.104-3.47-3.095c-0.198-1.332-0.138-2.78-0.183-4.145
		c-0.027-0.814-1.033-1.958-1.033-0.698c0,2.362-0.641,5.852,1.144,7.649c0.567,0.572,2.167,2.055,3.005,2.09
		c1.143,0.049,1.784-1.584,2.29-2.451c1.367-2.332,1.519-4.535,1.859-7.204c0.507,4.927,6.607,8.962,11.083,7.838
		c2.552-0.644,4.253-2.797,6.941-3.342c0.186-0.035,2.595,1.664,2.654,1.81c0.45,1.148,0.732,2.253,0.785,3.493
		c1.819-0.476,0.909-2.139,1.002-3.456c1.184,1.386,2.297,2.906,1.646,4.828c-1.547-2.803-4.142,1.763-5.939,2.738
		c-1.535,0.832-2.357,1.06-4.14,0.896c-1.438-0.134-2.948-0.178-4.377-0.178c-0.599,0-1.109,0.916-1.644,1.153
		c-0.713,0.319-1.817,0.322-2.595,0.428c-1.286,0.176-3.399,0.874-3.958-0.535c-0.423-1.064-0.681-1.166,0.074-2.003
		c0.499-0.554,0.894-1.148,1.363-1.708c0.521-0.626,1.045-1.05,0.537-1.693c-0.309-0.396-0.721-0.53-1.001-0.327
		c-0.724-0.802-1.143,0.381-1.489,0.926c-0.672,1.06-1.874,2.161-2.947,2.822c-2.229,1.376-4.608,1.292-6.991,0.421
		c-0.904-0.332-1.795-0.827-2.417-1.575c-0.334-0.401-0.393-1.069-0.464-1.584c-0.146-1.042-0.012-0.891-0.467-1.802
		c-0.218-0.436-0.574-0.827-0.918-1.173c-0.581-0.584-0.328-0.752-0.512-1.49c-0.239-0.956-0.925-1.431-1.823-1.876
		c1.189-1.124,2.36-2.404,3.218-3.743c0.472-0.738,0.754-0.983,1.29-1.659c0.82-1.038,1.054-2.434,1.431-3.749
		c1.448-5.03,2.942-10.289,3.377-15.522c0.243-2.921,0.2-5.659-0.186-8.565c-0.139-1.042-0.716-2.337-0.688-3.362
		c0.036-1.268,0.844-2.83,1.187-4.084c0.442-1.619-0.094-1.887,1.143-2.872c0.52-0.416,0.978-0.698,1.569-1.007
		c1.098-0.577,0.732-0.146,1.681,0.037c0.937,0.178,1.464,0.398,2.218-0.361c0.724-0.73,0.278-1.753,1.11-2.09
		c2.453-0.998,5.388-1.411,8.263-1.223C170.893,251.319,170.655,251.824,170.417,252.326"/>
</g>
</svg>
