<?xml version="1.0" encoding="utf-8"?>
<!-- Generator: Adobe Illustrator 12.0.0, SVG Export Plug-In . SVG Version: 6.00 Build 51448)  -->
<!DOCTYPE svg PUBLIC "-//W3C//DTD SVG 1.1//EN" "http://www.w3.org/Graphics/SVG/1.1/DTD/svg11.dtd" >
<svg  version="1.1" id="Layer_1" xmlns="http://www.w3.org/2000/svg" xmlns:xlink="http://www.w3.org/1999/xlink" width="425.197" height="326.983"
	 viewBox="0 0 425.197 326.983" overflow="visible" enable-background="new 0 0 425.197 326.983" xml:space="preserve">
<g>
	<path fill-rule="evenodd" clip-rule="evenodd" fill="#D38230" d="M252.261,90.165c1.103-0.907,1.837-2.633,2.415-3.912
		c0.609-1.339,0.896-3.06,0.896-4.529c0-3.178-0.524-6.08-1.656-9.076c-2.325-6.159-5.822-11.992-10.061-17.018
		c-2.096-2.485-4.408-4.755-6.982-6.743c-0.607-0.468-1.235-0.91-1.857-1.359c-0.624-0.451-1.704-0.644-1.421-1.461
		c0.529-1.517,1.1-3.016,1.455-4.585c0.313-1.381,0.665-2.838,0.278-4.263c-0.427-1.569-1.353-3.014-2.235-4.365
		c-1.719-2.625-3.765-5.034-6.272-6.938c-5.01-3.804-11.528-5.375-17.753-4.644c-3.342,0.393-6.429,1.525-9.417,3.07
		c-2.896,1.496-4.907,4.154-6.813,6.679c-1.895,2.509-3.232,5.794-2.688,8.973c0.234,1.374,1.024,2.904,1.997,3.907
		c0.916,0.942,0.474,0.918-0.438,1.817c-0.593,0.586-1.065,1.225-1.495,1.94c-1.684,2.81-2.723,5.809-3.243,9.038
		c-0.506,3.139-0.88,6.766,0.206,9.831c1.103,3.112,2.887,5.712,4.988,8.249c2.188,2.639,4.419,5.232,6.955,7.551
		c4.819,4.401,10.58,8.521,16.791,10.704c6.642,2.335,13.275,3.618,20.334,3.618c2.901,0,5.935,0.043,8.658-1.009
		c2.531-0.979,5.329-2.997,7.059-5.081C252.063,90.432,252.163,90.298,252.261,90.165 M153.458,55.343
		c2.574-1.547,4.996-3.479,7.309-5.394c1.139-0.943,2.733-1.835,3.264-3.303c0.477-1.319,0.567-2.702,0.489-4.116
		c-0.167-3.059-0.605-6.621-2.84-8.95c-2.291-2.387-5.218-3.342-8.488-3.445c-6.776-0.214-13.541,2.277-19.862,4.444
		c-6.298,2.158-12.321,5.548-17.937,9.07c-1.379,0.864-2.682,1.776-4,2.729c-1.248,0.901-2.909,1.819-3.814,3.094
		c-1.879,2.649-2.063,6.177-1.496,9.312c1.247,6.884,7.713,9.365,14.067,9.365c5.895,0,11.755-1.727,17.148-4.107
		c2.933-1.295,5.805-2.685,8.683-4.095C148.605,58.662,150.896,56.718,153.458,55.343 M171.884,69.729
		c-1.311-3.217-3.726-5.048-7.064-5.94c-1.681-0.449-3.135-0.698-4.809-0.115c-1.652,0.576-2.865,1.328-4.186,2.473
		c-2.432,2.108-2.765,5.499-3.174,8.434c-0.398,2.838,0.093,7.115,2.697,8.834c3.916,2.587,9.407,1.758,13.106-0.693
		c1.814-1.202,2.872-3.873,3.291-5.907C172.241,74.392,172.41,72.162,171.884,69.729 M252.904,33.274
		c1.235,1.274,3.021,1.586,4.446,0.545c1.267-0.927,2.009-2.835,1.508-4.278c-0.721-2.075-2.699-3.354-4.769-2.48
		C251.815,28.022,251.799,31.498,252.904,33.274 M291.438,58.885c1.525-2.725,1.185-6.565,0.952-9.556
		c-0.232-2.992-1.542-6.363-3.795-8.399c-4.118-3.724-12.999-5.43-17.616-1.617c-2.525,2.086-4.507,4.612-4.885,7.965
		c-0.321,2.837,0.725,6.513,2.026,9.021c1.619,3.121,3.657,5.302,6.889,6.756c2.966,1.336,6.523,0.964,9.636,0.462
		C287.412,63.071,290.261,61.56,291.438,58.885 M309.073,55.343c2.848,1.816,5.789,2.059,9.091,1.689
		c1.508-0.169,3.029-0.41,4.001-1.689c1.021-1.34,1.124-3.174,1.375-4.782c0.481-3.089-0.192-6.418-2.213-8.842
		c-2.046-2.452-5.063-3.715-8.11-4.408c-3.877-0.881-8.916,2.866-8.682,7.007C304.777,48.604,305.871,52.367,309.073,55.343
		 M327.947,110.382c1.687-0.465,3.103-1.166,4.622-2.03c1.188-0.676,2.887-1.82,3.751-2.876c2.104-2.572,2.131-5.152,2.005-8.375
		c-0.266-6.78-2.755-12.741-7.672-17.415c-2.279-2.167-5.531-3.441-8.457-4.419c-1.301-0.434-3.015-0.36-4.427-0.197
		c-1.503,0.172-3.161,0.894-4.25,1.961c-4.734,4.65-6.62,11.327-4.7,17.683c1.318,4.365,3.888,8.325,6.997,11.627
		C319.106,109.831,323.25,111.381,327.947,110.382 M361.194,191.902c-1.073-2.188-4.909-5.506-7.448-3.865
		c-2.374,1.533-4.879,4.779-4.189,7.783c0.563,2.449,3.684,5.002,6.176,5.277c2.589,0.287,4.819-3.832,5.48-5.883
		C361.592,194.039,361.614,193.063,361.194,191.902 M379.619,161.277c-0.49-1.537-1.338-2.684-2.591-3.705
		c-1.076-0.875-2.82-2.129-4.226-2.344c-3.063-0.467-5.714,3.668-6.741,5.936c-2.234,4.939,5.482,13.162,9.749,8.236
		C377.896,166.992,379.81,164.617,379.619,161.277 M287.288,103.787c-0.851-1.146-1.853-1.936-3.115-2.597
		c-1.362-0.713-2.419-0.446-3.632,0.534c-2.209,1.789-3.889,4.11-2.026,6.852c1.355,1.996,3.828,4.547,6.154,2.513
		C286.687,109.325,288.59,106.431,287.288,103.787 M298.947,137.084c-1.122-2.303-3.164-3.842-5.663-2.464
		c-2.479,1.366-2.604,3.295-1.204,5.567c0.855,1.392,2.305,3.272,4.08,2.684c1.024-0.34,1.857-1.459,2.293-2.413
		c0.254-0.554,0.567-1.08,0.853-1.617C299.527,138.424,299.086,137.487,298.947,137.084 M343.31,211.684
		c-1.136-3.396-3.875-5.178-7.088-6.4c-2.924-1.111-6.307,0.021-8.178,2.531c-3.497,4.697-4.474,13.328,1.482,16.457
		c3.181,1.67,8.492,2.436,10.968-0.818C342.886,220.313,344.152,215.586,343.31,211.684 M347.757,193.102
		c-0.837-1.053-1.773-1.795-2.948-2.443c-1.109-0.611-2.347-0.654-3.573-0.063c-2.462,1.189-3.143,4.586-2.125,6.867
		c1.126,2.516,3.324,4.277,5.879,2.287C346.902,198.258,349.044,195.572,347.757,193.102 M356.402,212.338
		c-0.935-1.75-1.982-2.529-3.934-1.928c-1.309,0.404-2.461,3.229-1.699,4.488c1.02,1.686,2.541,1.961,4.316,1.348
		C355.996,215.934,356.822,213.15,356.402,212.338 M264.86,122.861c-0.648-1.538-1.458-2.506-2.802-3.495
		c-0.954-0.701-2.95-1.803-4.166-1.493c-3.084,0.785-4.981,3.996-5.729,6.896c-0.913,3.536,1.929,5.7,4.668,7.139
		c3.199,1.679,5.294-0.688,6.814-3.272C264.71,126.826,265.128,124.932,264.86,122.861 M151.136,160.896
		c-1.383-2.537-4.732-5.113-7.719-4.773c-2.997,0.344-5.256,3.99-6.088,6.57c-1.806,5.584,6.744,13.279,11.038,7.543
		C150.395,167.529,152.427,164.357,151.136,160.896 M127.818,156.375c0.493,1,1.263,1.498,2.277,1.873
		c0.83,0.303,2.53,0.576,3.17-0.055c1.443-1.428,2.773-3.289,1.811-5.256c-1.096-2.238-2.767-3.484-5.25-2.57
		C127.473,151.234,126.864,154.199,127.818,156.375 M127.324,177.135c1.894,1.352,3.347-0.385,4.394-1.887
		c0.559-0.801,1.115-1.84,0.812-2.785c-0.41-1.281-0.959-2.289-2-3.152c-2.214-1.834-4.682,0.023-5.874,1.994
		C123.532,173.164,125.819,176.098,127.324,177.135 M212.296,229.994c0.906,0.541,1.625,0.783,2.567,0.379
		c0.8-0.342,1.219-0.695,1.779-1.359c1.209-1.436,1.323-2.926,0.272-4.58c-1.171-1.838-3.622-1.902-5.149-0.557
		C210.134,225.316,210.571,228.852,212.296,229.994 M226.423,230.373c0.399-0.797,0.515-1.422,0.211-2.289
		c-0.331-0.943-0.781-2.07-1.77-2.506c-1.773-0.781-4.7-0.26-4.838,2.197c-0.068,1.197-0.277,2.441,0.377,3.49
		c0.544,0.877,1.532,1.355,2.52,1.535C224.121,233.021,226.064,231.518,226.423,230.373 M222.126,238.93
		c-0.465-1.258-1.758-2.34-2.937-2.924c-0.49-0.242-1.402-0.873-1.952-0.891c-0.646-0.02-1.451,0.697-1.981,1.004
		c-2.214,1.283-4.451,4.129-2.998,6.738c1.328,2.383,3.949,5.154,6.755,3.484C221.287,244.988,223.012,241.473,222.126,238.93
		 M226.374,293.152c0,1.166,0.171,2.23,1.484,2.559c1.442,0.361,2.054-0.732,2.206-1.996c0.106-0.887-0.466-2.234-1.663-2.252
		C227.51,291.449,226.671,292.279,226.374,293.152 M232.649,309.5c-0.552-2.416-2.354-3.273-4.477-2.807
		c-0.841,0.186-1.972,1.059-2.049,1.994c-0.079,0.908-0.467,2.568,0.061,3.408c0.578,0.93,1.229,1.564,2.295,1.914
		c1.032,0.344,1.521-0.109,2.438-0.49C232.219,312.98,233.157,310.711,232.649,309.5 M119.518,197.57
		c-0.822-1.039-1.785-1.855-2.947-2.498c-0.433-0.236-1.013-0.508-1.351-0.5c-0.508,0.014-1.353,0.307-1.942,0.396
		c-1.081,0.162-2.199,1.766-2.604,2.711c-0.578,1.352-0.365,2.672,0.095,4.008c0.39,1.125,1.161,2.393,2.177,3.049
		c1.28,0.826,2.511,0.197,3.672-0.523C118.687,202.932,120.773,199.975,119.518,197.57 M149.703,188.414
		c-1.15-3.174-3.408-5.129-6.471-6.457c-1.378-0.598-3.237,0.008-4.635,0.457c-1.549,0.496-3.117,1.096-4.479,1.998
		c-2.713,1.789-4.636,4.311-5.927,7.264c-1.078,2.473-2.28,6.535-1.311,9.164c0.921,2.496,4.365,4.781,6.812,5.533
		c3.071,0.941,5.864,0.193,8.371-1.711C146.779,201.08,150.563,194.422,149.703,188.414"/>
	<path fill-rule="evenodd" clip-rule="evenodd" fill="#FFB0B0" d="M109.193,123.406c2.91,2.202,6.014,2.048,9.384,1.117
		c3.164-0.874,6.205-2.115,9.021-3.81c1.354-0.814,2.629-1.688,3.875-2.647c0.622-0.479,3.262-2.896,3.787-2.535
		c2.89,1.996,5.159,0.186,6.785-2.326c1.622-2.505,3.344-6.057,1.832-9.018c-0.77-1.51-1.771-2.578-3.118-3.595
		c-0.788-0.593-1.078-0.884-2.023-0.593c-0.879,0.273-1.554,0.607-2.289,1.165c-5.352,4.055-10.616,8.238-16.005,12.244
		c-2.212,1.644-4.506,3.138-6.819,4.636c-1.277,0.828-2.603,1.589-3.902,2.383c-0.61,0.371-0.773,0.324-0.773,1.038
		C108.947,122.139,109.044,122.749,109.193,123.406 M349.584,125.368c-0.482-1.065-0.722-1.409-0.495-2.507
		c0.184-0.89,0.189-1.69-0.245-2.508c-1.345,0.628-1.705,2.186-1.499,3.55c0.065,0.429-1.412,1.547-1.712,1.853
		c-0.538,0.546-1.021,1.099-1.513,1.687c-2.126,2.554-4.174,5.123-6.082,7.843c-1.924,2.743-3.895,5.564-5.462,8.53
		c-1.62,3.062-3.212,6.056-5.768,8.451c-2.235,2.096-5.268,3.021-7.525,5.096c-2.369,2.178-4.501,4.668-5.415,7.842
		c-0.224,0.781-0.507,1.564-0.646,2.365c-0.05,0.279-0.098,2.115-0.161,2.166c-1.523,1.248-3.049,2.494-4.575,3.738
		c-2.387,1.951-4.648,4.045-7.071,5.951c-5.115,4.031-10.478,7.412-16.23,10.42c-5.946,3.109-12.445,4.605-18.676,6.967
		c-1.41,0.531-2.859,1.076-4.2,1.756c-1.309,0.666-3.507,1.309-4.316,2.654c-0.758,1.258-0.354,3.652-0.392,5.055
		c-0.044,1.596-0.137,3.205-0.315,4.791c-0.746,6.6-2.007,13.072-4.172,19.367c-0.468,1.359-1.983,2.49-2.977,3.635
		c-1.063,1.221-1.586,2.732-1.795,4.305c-0.211,1.563,0.207,3.277,0.858,4.699c0.382,0.834,1.195,1.297,0.443,1.99
		c-0.675,0.619-1.056,1.359-1.381,2.209c-0.561,1.471-0.265,3.488-0.277,5.014c-0.011,1.486-0.021,2.969-0.011,4.453
		c0.01,1.17,0.019,2.34,0.027,3.506c0.007,0.881-0.257,1.396,0.557,1.766c0.81,0.367,0.246,4.182,0.235,5.031
		c-0.062,5.115-0.196,10.229,0.142,15.336c0.072,1.094,0.428,2.49,0.104,3.557c-0.398,1.322-0.597,2.287-0.647,3.658
		c-0.051,1.35-0.002,2.738-0.229,4.07c-0.081,0.477-0.66,0.818-1.139,0.906c-0.674,0.123-0.908-0.18-1.532-0.602
		c-1.646,2.947-1.808,6.361-0.781,9.529c0.441,1.367,1.111,3.205,2.337,4.068c1.396,0.982,2.952,0.324,4.2-0.592
		c2.611-1.916,5.067-3.898,7.459-6.086c0.615-0.559,1.209-1.137,1.802-1.719c0.513-0.506,1.063-1.332,1.68-1.658
		c0.412-0.215,1.493-0.436,1.928-0.436c0.612,0,1.073-0.285,1.631-0.492c1.329-0.488,2.314-1.494,3.015-2.668
		c0.446-0.748,0.754-1.334,0.482-2.17c-0.24-0.742-0.326-1.584-0.433-2.354c-0.227-1.641-0.032-3.264,0.128-4.902
		c0.171-1.762-0.142-3.588-0.27-5.35c-0.454-6.248,0.243-13.008,1.871-19.049c0.932-3.459,1.954-6.852,3.191-10.217
		c0.533-1.453,1.129-2.793,2.165-3.938c0.646-0.711,1.288-1.422,1.932-2.131c0.511-0.563,1.224-0.4,1.949-0.461
		c3.114-0.262,6.515-1.104,9.213-2.723c1.244-0.748,2.441-1.412,3.625-2.27c1.321-0.953,2.419-2.072,3.658-3.096
		c2.543-2.104,4.617-5.012,6.696-7.563c2.075-2.547,4.046-5.121,5.954-7.781c3.675-5.121,7.615-10.236,10.453-15.902
		c2.952-5.896,5.682-11.74,7.926-17.938c1.042-2.883,1.498-6.67,3.556-8.938c2.347-2.586,4.021-5.594,5.802-8.582
		c3.262-5.484,6.768-10.967,8.928-17.006c2.246-6.288,3.59-12.581,3.944-19.259c0.035-0.648-0.002-1.343,0.126-1.98
		c0.119-0.589,0.716-1.049,0.716-1.698c0-0.331,0.196-0.98,0.196-1.451C350.572,126.625,349.854,125.83,349.584,125.368
		 M203.798,245.361c-0.288-0.529-1.021-1.336-0.829-1.904c0.173-0.512,0.207-1.156-0.014-1.645c-0.883-1.965-1.767-3.93-2.65-5.895
		c-1.249-2.777-3.087-5.66-3.647-8.646c-0.623-3.338-1.5-6.365-2.828-9.488c-1.216-2.859-3.029-5.416-4.203-8.293
		c-1.284-3.15-2.253-6.361-3.912-9.348c-0.791-1.422-1.692-2.754-2.815-3.936c-0.601-0.631-3.371-2.422-3.237-3.088
		c0.288-1.43,0.891-2.758,1.113-4.213c0.208-1.361,0.288-2.695,0.37-4.061c0.212-3.51,0.47-6.971,0.47-10.492
		c0-13.432-4.078-26.281-11.034-37.692c-0.351-0.574-0.702-1.146-1.076-1.707c-0.351-0.525-1.005-2.069-1.592-2.313
		c-1.095-0.453-3.238-1.52-4.182-0.218c-0.591,0.818-0.527,0.819-0.021,1.75c0.395,0.727,0.795,1.452,1.182,2.186
		c0.879,1.669,1.737,3.343,2.572,5.034c2.958,6,5.279,12.332,7.042,18.781c0.292,1.066,0.668,1.293-0.34,1.795
		c-0.776,0.385-1.144,1.039-1.597,1.748c-0.705,1.104-0.734,3.109-0.957,4.336c-0.375,2.072-0.751,4.145-1.125,6.217
		c-0.231,1.273-1.241,2.564-1.761,3.779c-0.69,1.617-1.333,3.244-1.967,4.885c-0.574,1.484-0.742,2.82-1.748,4.061
		c-1.044,1.289-2.106,2.561-3.107,3.883c-0.676,0.893-1.351,1.785-2.027,2.678c-0.669,0.883-0.563,0.803-1.628,0.91
		c-1.447,0.145-3.066,0.764-4.049,1.85c-0.265,0.293-0.634,0.592-0.842,0.93c-0.135,0.219,0.014,0.605-0.269,0.689
		c-1.042,0.307-2.084,0.613-3.127,0.922c-1.317,0.389-3.206,0.723-4.113,1.766c-1.012,1.164-1.821,2.477-3.046,3.453
		c-2.417,1.926-5.135,3.318-8.316,2.543c-0.472-0.115-1.505-0.719-1.936-0.531c-0.767,0.334-1.56,0.633-2.291,1.037
		c-1.451,0.799-2.921,1.52-4.42,2.223c-11.872,5.572-27.037,4.834-36.834-4.52c-0.27-0.258-0.539-0.514-0.808-0.771
		c1.13-0.803,2.572-1.252,3.754-2.016c1.243-0.805,2.457-1.611,3.486-2.695c0.554-0.582,1.003-1.178,1.51-1.787
		c0.311-0.373,1.387-1.5,1.426-1.947c0.037-0.434-0.912-1.535-1.18-1.885c-0.462-0.602-1.013-1.223-1.63-1.672
		c-2.799-2.049-5.808-1.697-9.001-1.064c-3.292,0.652-6.428,1.066-9.787,0.738c-3.093-0.301-6.239-1.393-8.831-3.127
		c-2.389-1.596-5.787-3.986-6.78-6.795c-1.082-3.063-2.671-5.566-5.474-7.285c-1.368-0.84-2.907-1.156-4.461-1.455
		c-0.752-0.145-1.555-0.141-2.319-0.178c-0.966-0.043-1.25,0.313-2.064,0.434c-3.322,0.488-4.453,4.445-2.909,7.135
		c1.703,2.969,4.213,5.428,6.521,7.932c2.3,2.494,4.671,4.916,7.05,7.334c2.249,2.283,4.182,4.455,6.889,6.25
		c1.359,0.9,2.829,1.537,4.326,2.17c0.664,0.279,1.34,0.484,2.02,0.721c1.056,0.373,0.892,0.625,1.275,1.658
		c1.133,3.053,2.407,6.152,4.313,8.818c3.826,5.348,8.639,9.438,14.631,12.203c6.063,2.801,12.873,3.814,19.493,3.814
		c6.021,0,12.557-0.965,18.36-2.885c1.597-0.529,3.344-0.982,4.855-1.729c0.748-0.369,3.811-2.164,4.25-1.68
		c2.133,2.352,6.258,3.365,9.106,4.504c1.328,0.529,2.653,1.025,4.002,1.502c1.077,0.381,2.156,0.764,3.234,1.146
		c1.023,0.361,1.074,0.121,0.875,1.104c-0.675,3.314,1.962,5.918,4.495,7.549c5.521,3.549,8.334,9.996,10.233,16.07
		c2.059,6.588,3.727,13.203,5.176,19.953c0.088,0.408-0.692,1.533-0.885,1.93c-0.349,0.717-0.668,1.504-1.159,2.135
		c-0.993,1.273-1.721,2.748-2.744,4.021c-1.731,2.156-3.885,4.576-6.258,6.045c-2.758,1.713-4.421,4.57-5.775,7.412
		c-1.298,2.721-1.999,6.498,0.473,8.775c3.873,3.568,8.959,1.988,13.191,0.271c2.175-0.881,4.317-1.971,6.221-3.352
		c2.093-1.518,3.914-3.156,5.833-4.875c0.923,1.121,2.236,2.027,3.765,1.547c1.615-0.51,2.642-1.652,3.808-2.822
		c2.168-2.182,1.321-6.109-0.267-8.342c-0.269-0.375-0.609-0.551-0.278-0.912c0.255-0.281,0.512-0.566,0.769-0.848
		c0.333-0.369,0.617-0.773,0.942-1.168c0.75-0.904,1.213-2.053,1.727-3.109c1.377-2.848,1.312-6.352,0.522-9.34
		c-0.68-2.574,0.565-5.449,0.823-8.09c0.269-2.746,0.582-5.439,0.539-8.207c-0.093-5.684-0.131-12.107-3.949-16.689
		c1.011-0.238,1.877-0.73,2.766-1.254c0.732,1.402,1.751,2.846,2.026,4.361c0.294,1.627,1.189,2.557,2.413,3.586
		c1.092,0.92,2.734,1.848,3.911,0.719c0.269-0.258,0.602-0.797,0.741-1.145C204.51,246.756,204.132,246.15,203.798,245.361
		 M173.169,187.816c-0.064,0.469-0.453,1.156-0.717,1.551c-0.246,0.371-0.476,0.732-0.692,1.119c-0.34,0.615-0.449,0.373-1.062,0.6
		c0.575-1.637,1.617-3.057,2.471-4.523C173.21,186.977,173.232,187.4,173.169,187.816 M180.381,239.039
		c-0.139-0.195-0.233-0.441-0.344-0.654c0.808,0.074,1.624,0.117,2.42,0.273C181.764,238.785,181.073,238.912,180.381,239.039
		 M44.031,112.506c3.129-0.894,4.651-3.833,6.053-6.483c0.604-1.145,0.714-3.011,1.736-3.831c0.925-0.744,2.672-1.84,2.842-3.156
		c0.439-3.399,0.459-6.372-0.981-9.543c-1.294-2.851-4.483-4.803-7.309-5.841c-1.233-0.453-3.185-0.178-4.188,0.805
		c-1.128,1.106-1.511,2.136-1.9,3.647c-0.83,3.227-1.528,6.512-1.821,9.84c-0.028,0.329,0.01,2.324-0.28,2.439
		c-0.833,0.33-1.531,0.636-2.22,1.228c-1.253,1.076-2.117,2.371-2.469,4.001c-0.313,1.452-0.506,3.219,0.237,4.58
		c0.784,1.437,2.1,1.834,3.571,2.296C39.246,113.1,42.155,113.538,44.031,112.506"/>
	<path fill-rule="evenodd" clip-rule="evenodd" fill="#FFCCCC" d="M416.969,127.655c-0.729-2.209-3.827-2.279-5.729-2.343
		c-2.233-0.072-4.669,0.248-6.62,1.417c-4.12,2.469-5.45,7.309-6.028,11.771c-0.781-0.853-1.735-1.658-1.877-2.834
		c-0.148-1.234,0-2.384,0.706-3.418c0.567-0.829,2.176-2.393,2.215-3.39c0.056-1.44,0.103-2.876,0.127-4.315
		c0.046-2.589,0.076-5.163-0.068-7.749c-0.141-2.565-2.592-4.58-4.658-5.869c-0.172,0.233-0.924,0.388-1.236,0.601
		c-0.709,0.481-1.224,1.219-1.779,1.858c-0.675,0.776-1.023,1.034-1.11,2.042c-0.063,0.72-0.149,1.432-0.295,2.14
		c-0.688,3.311-1.102,6.708-1.165,10.094c-0.031,1.699-0.091,3.409,0.005,5.107c0.05,0.855,0.066,1.719,0.148,2.572
		c0.063,0.671,0.568,1.997,0.343,2.615c-0.226,0.619-1.473,1.392-1.96,1.853c-0.646,0.612-1.216,1.323-1.814,1.984
		c-0.447,0.493-1.292,0.086-1.93,0.086c-0.701,0-1.58,0.16-2.199,0.482c-0.182,0.094-0.364,0.188-0.544,0.282
		c-0.58-1.466-0.431-3.48-0.59-5.045c-0.165-1.59-0.583-3.169-0.693-4.766c-0.219-3.161,0.303-6.413,0.225-9.59
		c-0.165-6.737-0.658-13.372-1.746-20.029c-0.163-0.988-0.325-1.977-0.487-2.965c-0.086-0.52-1.069-1.371-1.406-1.818
		c-0.943-1.25-1.659-2.655-2.418-4.02c-1.707-3.076-3.488-6.102-5.299-9.117c-3.432-5.715-7.238-11.226-11.106-16.653
		c-3.93-5.514-7.943-10.969-12.011-16.384c-0.948-1.263-1.758-2.591-3.03-3.527c-1.333-0.98-2.65-1.985-4-2.941
		c-2.775-1.968-5.564-3.909-8.421-5.757c-11.292-7.304-23.414-13.465-36.065-18.041c-0.599-0.216-1.185-0.157-1.811-0.048
		c-0.713,0.125-1.63,0.735-2.288,0.76c-0.65,0.024-1.807-0.771-2.402-1.024c-0.744-0.318-1.49-0.633-2.241-0.938
		c-2.943-1.196-5.985-2.256-9.021-3.191c-6.434-1.979-12.971-3.618-19.62-4.683c-7.017-1.122-13.943-1.78-21.05-1.907
		c-6.721-0.119-13.597,1.639-20.143,2.993c-3.118,0.646-5.958,1.683-9.147,1.859c-3.263,0.18-6.519,0.426-9.769,0.785
		c-7.008,0.774-13.971,1.788-20.879,3.209c-13.479,2.773-26.596,6.934-39.452,11.805c-12.43,4.71-24.833,10.389-36.243,17.239
		c-11.69,7.02-23.113,14.478-34.46,22.041c-3.02,2.012-5.976,4.102-8.939,6.194c-2.396,1.689-5.441,2.692-8.342,1.718
		c-3.05-1.025-6.522-1.273-9.302,0.614c-0.635,0.432-1.154,1.284-1.636,1.866c-0.359,0.435-0.571,1.645-1.089,1.733
		c-1.663,0.282-3.167,0.853-4.67,1.612c-1.433,0.725-2.196,2.55-3.028,3.852c-0.755,1.178-1.511,2.354-2.266,3.531
		c-1.826,2.843-3.651,5.681-5.415,8.563c-1.15,1.883-2.302,3.765-3.454,5.647c-0.394,0.643-0.554,0.389-1.331,0.202
		c-0.66-0.157-1.681-0.039-2.306,0.205c-2.855,1.108-4.792,4.527-4.792,7.571c0,1.514,0.314,3.022,1.176,4.289
		c0.512,0.75,1.018,1.399,1.628,2.071c0.49,0.54,0.304,1.315,0.557,2.007c0.804,2.205,3.655,4.731,6.075,4.98
		c3.213,0.33,4.271-3.567,5.066-5.982c0.308-0.934,1.45-2.003,1.949-2.791c0.83-1.311,1.592-2.661,2.399-3.996
		c1.177-1.947,2.341-3.355,3.925-4.994c0.374,0.369,1.4,0.613,1.926,0.87c-1.871-2.126-0.645-6.85,1.317-8.535
		c0.574-0.492,1.185-1.091,1.892-1.372c1.218-0.482,1.014-0.669,1.126-1.981c0.134-1.572,0.317-3.146,0.614-4.695
		c0.329-1.71,0.683-3.408,1.09-5.102c0.365-1.521,0.56-3.011,1.717-4.144c0.778-0.762,2.689-1.819,3.828-1.447
		c1.6,0.521,3.072,1.228,4.462,2.178c2.797,1.907,4.199,4.621,4.838,7.865c0.287,1.46,0.034,3.143-0.148,4.601
		c-0.214,1.719-1.001,2.56-2.311,3.642c-0.709,0.586-1.089,0.818-1.382,1.688c-0.235,0.698-0.476,1.406-0.747,2.105
		c-0.533,1.371-1.262,2.735-2.168,3.89c-2.042,2.602-4.806,3.938-8.129,3.656c-1.412-0.121-2.729-0.508-4.072-0.933
		c0.209,0.248,1.313,1.345,1.222,1.682c-0.222,0.829-0.504,1.663-0.658,2.507c-0.292,1.606-0.609,3.22-0.766,4.846
		c-0.316,3.268-0.589,6.492-0.589,9.777c0,1.072,0,2.147,0,3.22c0,0.718-0.482,0.849-1.054,1.292
		c-1.409,1.095-2.817,2.185-4.232,3.269c-2.605,1.995-5.21,3.923-6.064,7.293c-0.866,3.419-0.693,8.433,1.587,11.339
		c2.671,3.402,6.743,3.855,10.8,3.711c-0.272,3.01-0.516,6.35,0.968,9.119c0.73,1.363,1.621,2.402,2.886,3.305
		c0.609,0.434,1.274,0.77,1.976,1.035c0.983,0.373,1.51,0.154,1.581,1.254c1.104-1.627,1.957-2.213,3.888-2.498
		c0.092-0.016,0.308-0.25,0.681-0.283c0.418-0.035,0.793-0.045,1.212-0.025c0.87,0.039,1.713,0.133,2.569,0.297
		c3.229,0.621,5.731,2.307,7.551,5.039c0.853,1.283,1.349,2.77,1.857,4.209c0.426,1.201,2.12,2.568,3.053,3.406
		c2.365,2.127,5.074,4.023,8.139,5.006c3.155,1.006,6.477,1.15,9.752,0.859c3.188-0.285,6.226-1.648,9.464-1.227
		c1.448,0.189,3.004,0.826,4.08,1.83c0.548,0.514,1.069,1.023,1.504,1.641c0.544,0.775,1.177,1.387,0.569,2.188
		c-0.883,1.164-1.625,2.463-2.761,3.428c-1.197,1.018-2.411,1.861-3.691,2.77c-1.011,0.717-2.308,0.988-3.306,1.697
		c4.759,4.543,10.451,7.576,17.046,8.486c6.419,0.887,13.334,0.213,19.259-2.568c2.752-1.291,5.422-2.742,8.205-3.957
		c-2.445-1.35-5.796-3.299-6.076-6.377c-0.276-3.043,0.807-6.67,2.174-9.371c1.321-2.607,3.7-5.213,6.365-6.473
		c1.487-0.703,2.984-1.32,4.59-1.695c0.851-0.199,1.678-0.311,2.546-0.414c0.641-0.076,1.456,0.484,2.021,0.797
		c3.288,1.813,5.408,4.215,5.567,8.078c0.149,3.629-2.121,6.5-3.604,9.57c1.525-0.535,3.04-1.088,4.588-1.547
		c0.364-0.105,2.268-0.418,2.353-0.787c0.17-0.75,0.744-1.414,1.362-1.885c1.29-0.98,2.885-1.447,4.495-1.447
		c0.371,0,1.069-1.285,1.281-1.563c0.653-0.865,1.31-1.73,1.964-2.596c1.028-1.355,2.14-2.652,3.212-3.975
		c0.841-1.037,0.974-2.783,1.461-4.047c0.654-1.693,1.342-3.359,2.055-5.027c0.644-1.506,1.36-2.635,1.633-4.252
		c0.308-1.816,0.65-3.619,1.011-5.426c0.31-1.549,0.392-3.129,1.257-4.482c0.443-0.691,0.955-1.006,1.678-1.365
		c0.546-0.271-0.225-1.883-0.368-2.406c-0.415-1.514-0.851-3.029-1.364-4.51c-2.268-6.528-5.002-12.739-8.224-18.848
		c-0.7-1.33-2.274-2.805-0.559-3.846c0.916-0.555,3.334-0.216,3.951,0.692c1.808,2.658,3.667,5.371,5.109,8.252
		c3.046,6.083,5.593,12.273,6.996,18.957c1.379,6.568,1.704,13.205,1.334,19.891c-0.166,3-0.291,6.041-0.741,8.992
		c-0.222,1.455-0.825,2.783-1.113,4.213c-0.134,0.666,2.637,2.457,3.237,3.088c2.243,2.361,3.801,5.412,4.917,8.447
		c1.165,3.172,2.361,6.195,3.989,9.166c1.552,2.832,2.908,5.721,3.87,8.811c0.469,1.502,0.694,3.096,0.982,4.641
		c0.318,1.693,1.212,3.236,1.918,4.805c1.459,3.244,2.919,6.49,4.378,9.736c0.234,0.52,0.046,0.979,0.052,1.531
		c0.004,0.535-0.199,0.365,0.163,0.887c0.283,0.408,0.507,0.758,0.701,1.211c0.323,0.752,0.626,1.355,0.322,2.1
		c-0.094,0.229-0.844,0.984-0.697,1.213c0.25,0.391,0.785,1.77,1.128,1.967c0.72,0.414,1.866,0.801,2.434,1.396
		c0.514,0.541,0.262,1.135,0.149,1.838c-0.178,1.131,0.142,1.404,0.766,2.395c0.36,0.572,0.717,1.146,1.108,1.693
		c0.598,0.836,0.585,1.387,0.767,2.381c0.269,1.461,1.007,2.939,1.5,4.33c2.387,6.709,4.685,13.447,6.938,20.199
		c1.104,3.311,2.174,6.631,3.248,9.949c0.132,0.408,0.513,1.084,0.491,1.518c-0.024,0.523-0.542,1.473-0.762,1.959
		c-0.605,1.338-1.291,2.604-2.106,3.832c-1.823,2.748-3.728,5.199-4.275,8.563c-0.534,3.295-0.378,7,1.112,10.059
		c1.532,3.143,5.794,1.854,8.455,1.51c2.759-0.357,5.914-1.414,8.316-2.834c2.829-1.676,5.319-3.525,7.673-5.818
		c0.496-0.484,0.969-1.01,1.412-1.539c0.649-0.781,0.918-1.307,1.962-1.234c1.635,0.111,3.236,0.121,4.866-0.059
		c2.966-0.328,6.289-1.863,8.447-3.918c2.277-2.17,3.851-4.586,5.535-7.191c0.542-0.836,1.835-0.695,2.789-0.857
		c1.117-0.189,2.215-0.773,3.184-1.309c0.948-0.525,1.578-1.576,2.348-2.316c0.039-0.037-1.378-2.49-1.53-2.879
		c-0.597,1.43-1.205,2.371-2.316,3.443c-0.917,0.887-2.297,0.959-3.363,1.354c-0.672,0.246-1.341,0.09-1.88,0.621
		c-0.659,0.65-1.319,1.303-1.98,1.951c-1.071,1.055-2.178,2.186-3.346,3.129c-1.29,1.043-2.562,2.107-3.915,3.07
		c-1.207,0.861-2.55,2.18-4.144,2.127c-2.793-0.094-4.445-5.107-4.445-7.408c0-1.58,0.074-2.949,0.517-4.473
		c0.221-0.752,0.469-1.438,0.854-2.121c0.128-0.232-0.648-0.543-0.854-0.666c-0.195-0.119-0.072-0.801-0.072-1.027
		c-0.321,0.605-0.716,1.205-0.938,1.854c-0.012-1.777,0.499-3.662,0.757-5.418c0.195-1.314,0.519-3.033,0.032-4.283
		c-0.164-0.426-0.789-0.799-0.789-1.25c0-0.408,0-0.814,0-1.221c0-1.748,0-3.498,0-5.246c0-4.939,0-9.875,0-14.809
		c0-1.834,0-3.664,0-5.494c0-1.188-0.101-1.496,0.641-2.432c0.368-0.465,1.514-0.512,2.029-0.293
		c0.951,0.404,1.045,1.643,1.237,2.598c0.201,0.992,0.192,2.01,0.192,3.018c0,0.756-0.472,1.922,0.348,2.354
		c-0.027-3.465-0.049-6.924-0.021-10.387c0.013-1.602-0.118-3.139,0.484-4.637c0.285-0.707,0.786-1.221,1.306-1.754
		c0.598-0.617-0.357-1.281-0.605-1.979c-1.159-3.244-1.244-6.408,1.138-9.146c0.988-1.135,2.407-2.154,2.837-3.543
		c0.508-1.641,1.026-3.273,1.495-4.93c1.769-6.236,2.778-12.773,2.957-19.256c0.033-1.256-0.407-3.945,0.466-5.006
		c1.021-1.242,2.841-1.91,4.27-2.574c3.118-1.457,6.35-2.592,9.643-3.576c6.026-1.803,12.066-4.158,17.474-7.379
		c5.663-3.373,10.863-7.164,15.874-11.453c1.106-0.945,2.207-1.895,3.334-2.816c0.889-0.727,1.778-1.453,2.667-2.182
		c0.435-0.352,1.491-0.912,1.745-1.424c0.207-0.418,0.028-1.449,0.185-2.018c0.24-0.869,0.464-1.742,0.691-2.613
		c0.369-1.422,1.135-2.928,2.013-4.098c2.06-2.75,4.464-4.451,7.338-6.256c2.794-1.754,4.885-3.688,6.771-6.42
		c1.648-2.386,2.873-5.124,4.374-7.611c1.444-2.39,3.04-4.671,4.668-6.937c1.816-2.527,3.813-4.896,5.802-7.287
		c0.466-0.559,1.037-1.056,1.549-1.573c0.711-0.721,0.756-0.669,0.795-1.56c0.056-1.225,0.391-2.441,1.582-2.998
		c0.386,0.728,0.406,1.361,0.296,2.153c-0.056,0.392-0.163,0.756-0.271,1.137c-0.091,0.328,0.388,1.003,0.523,1.301
		c0.324,0.72,0.753,1.385,1.153,2.066c0.265,0.454-0.169,1.259-0.169,1.6c0,0.667-0.599,1.203-0.741,1.826
		c-0.178,0.783-0.094,1.713-0.134,2.523c-0.088,1.665-0.187,3.343-0.412,4.996c-0.861,6.319-2.752,12.563-5.516,18.305
		c-2.854,5.93-6.135,12.072-10.004,17.414c-0.996,1.371-1.968,2.721-3.168,3.922c-1.102,1.102-1.339,3.145-1.781,4.613
		c-0.952,3.145-2.124,6.211-3.306,9.273c-2.227,5.781-5.133,11.564-8.429,16.805c-3.368,5.359-6.854,10.76-10.859,15.664
		c-2.371,2.904-4.709,5.838-7.199,8.643c-1.122,1.262-2.274,2.445-3.51,3.58c-1.316,1.209-3.068,2.068-4.274,3.355
		c0.468,0.279,0.687,1.014,0.939,1.479c0.577,1.064,1.152,2.127,1.728,3.189c0.719,1.322,1.462,2.645,2.125,3.998
		c1.421,2.902,2.46,6.008,2.904,9.215c0.408,2.939,1.107,5.707,1.039,8.67c-0.096,4.111-0.189,8.225-0.283,12.338
		c-0.158,6.787-0.267,13.578-0.203,20.367c0.044,4.963,0.364,15.129,7.881,13.547c6.032-1.27,10.539-6.047,12.645-11.734
		c1.079-2.91,0.768-5.729,0.768-8.736c0-0.703-0.212-1.438-0.325-2.135c-0.179-1.109,0.031-1.262,0.558-2.184
		c0.404-0.713,0.734-1.539,1.004-2.348c0.543-1.652,0.763-3.527,1.155-5.225c0.137-0.598,0.365-1.16,0.499-1.752
		c0.143-0.625,0.064-1.506,0.271-2.07c0.427-1.176,2.037-2.262,2.764-3.305c0.87-1.248,1.694-2.459,2.473-3.752
		c1.642-2.723,2.689-5.799,3.097-8.953c0.177-1.381,0.347-2.777,0.303-4.189c-0.025-0.867-0.107-1.713-0.164-2.578
		c-0.048-0.74,0.813-1.371,1.271-1.916c4.333-5.131,8.388-10.396,12.121-15.967c1.823-2.723,3.493-5.553,5.457-8.18
		c1.883-2.521,3.873-4.988,5.668-7.572c7.526-10.832,14.377-22.383,19.031-34.77c1.171-3.117,2.307-6.24,3.355-9.402
		c0.932-2.807,2.26-5.904,2.492-8.869c0.512-6.508,0.44-13.012,0.229-19.532c2.927,0.179,5.586,0.073,8.349-0.98
		c1.431-0.546,2.713-1.167,3.984-2.045c0.348-0.241,0.698-0.475,1.057-0.706c0.532-0.345,0.261,0.045,0.543,0.354
		c0.186,0.204,0.364,0.763,0.657,0.763c0.313,0,0.607,0.035,0.906,0.137c1.75,0.605,1.725,1.512,2.096,3.153
		c0.348,1.529,0.789,2.916,1.507,4.314c0.72,1.406,1.521,2.744,2.615,3.895c0.303,0.318,0.384,0.656,0.744,0.352
		c0.312-0.264,0.558-0.42,0.928-0.6c0.649-0.313,1.302-0.449,2.007-0.57c-0.648-1.289-1.153-2.541-1.07-4.012
		c0.042-0.719,0.199-1.441,0.528-2.092c0.495-0.979,0.285-1.045-0.213-2.118c-0.262-0.563-0.546-1.129-0.752-1.715
		c-0.399-1.13-0.166-0.976,0.915-1.452c1.251-0.553,2.564-1.164,3.653-2.003c2.244-1.735,3.954-3.828,5.13-6.424
		c0.543-1.197,0.804-2.428,1.178-3.664C416.887,130.812,417.571,128.465,416.969,127.655 M98.966,153.703
		c-0.314,0.156-0.148-0.352-0.148-0.654c0.121,0.236,0.269,0.457,0.446,0.654C99.165,153.703,99.065,153.703,98.966,153.703
		 M119.963,199.314c-0.212,2.188-2.657,5.174-4.851,5.691c-2.962,0.701-4.389-2.814-4.818-5.176
		c-0.201-1.107,0.45-2.484,1.116-3.318c1.086-1.357,2.014-1.555,3.656-1.855c0.41-0.076,0.599-0.049,1.191,0.244
		c0.611,0.303,1.169,0.67,1.703,1.092C118.956,196.775,120.13,197.914,119.963,199.314 M132.215,174.248
		c-0.956,1.498-2.022,3.984-4.219,3.256c-1.795-0.592-3.405-3.252-3.671-5.006c-0.155-1.018,0.976-2.311,1.689-2.91
		c0.951-0.805,2.208-1.301,3.434-0.816c1.096,0.432,1.895,1.119,2.47,2.152C132.593,172.135,132.859,173.039,132.215,174.248
		 M135.475,153.814c0.047,1.473-1.276,4.686-3.004,4.686c-2.364,0-4.563-0.686-4.964-3.318c-0.358-2.346,0.653-4.787,3.249-5.146
		C132.937,149.734,135.144,151.752,135.475,153.814 M136.167,116.05c-0.997-0.321-0.905-0.936-1.845-0.181
		c-0.635,0.509-1.243,1.049-1.894,1.538c-1.267,0.953-2.519,1.883-3.87,2.729c-2.848,1.784-5.856,3.102-9.05,4.128
		c-3.217,1.035-6.377,1.478-9.433-0.209c-0.956-0.527-1.853-2.715-0.711-3.411c1.499-0.915,3.021-1.798,4.494-2.752
		c5.786-3.748,11.162-7.968,16.564-12.244c1.217-0.963,2.463-1.876,3.715-2.793c1.134-0.829,2.505-2.204,3.875-2.629
		c1.208-0.374,1.385-0.554,2.427,0.137c0.637,0.421,1.262,0.927,1.803,1.464c1.171,1.163,1.813,2.557,2.153,4.154
		c0.539,2.531-1.178,5.45-2.499,7.453C140.708,115.237,138.539,117.496,136.167,116.05 M151.481,164.273
		c-0.434,2.555-2.413,6.32-4.875,7.508c-3.03,1.463-6.256-0.754-8.168-3.146c-2.048-2.563-1.566-5.75-0.005-8.4
		c0.798-1.355,1.92-2.545,3.221-3.406c1.539-1.018,2.983-0.902,4.566-0.156C149.309,158.131,152.163,160.514,151.481,164.273
		 M150.346,57.359c-2.917,1.609-5.699,3.369-8.742,4.753c-3.053,1.39-6.117,2.71-9.309,3.758c-6.182,2.029-13.026,3.553-19.349,1.08
		c-2.843-1.112-5.16-2.978-6.247-5.904c-1.01-2.719-1.384-6.57-0.374-9.355c1.183-3.259,4.641-5.005,7.296-6.926
		c2.795-2.022,5.938-3.648,8.947-5.325c5.791-3.226,12.191-5.548,18.548-7.353c5.651-1.602,13.373-3.696,18.712-0.123
		c2.497,1.669,3.647,4.23,4.327,7.053c0.544,2.257,0.977,6.073-0.396,8.091c-1.583,2.327-4.492,4.074-6.734,5.763
		C154.885,54.487,152.617,55.929,150.346,57.359 M172.23,73.436c-0.189,2.817-0.751,6.061-2.721,8.232
		c-2.152,2.374-4.813,3.009-7.912,3.244c-2.965,0.225-6.557-0.612-7.952-3.519c-1.359-2.839-1.268-6.262-0.717-9.291
		c0.861-4.746,5.081-9.62,10.359-8.693c2.584,0.453,4.966,1.496,6.858,3.322C171.935,68.456,172.319,71.081,172.23,73.436
		 M252.261,29.841c0.274-2.266,2.504-3.694,4.546-2.779c1.733,0.777,2.81,3.119,1.929,4.806c-0.376,0.718-0.806,1.205-1.31,1.853
		c-0.274,0.356-1.212,0.563-1.652,0.805c-0.748,0.412-2.269-0.684-2.78-1.166C252.059,32.478,252.261,31.015,252.261,29.841
		 M210.961,228.467c-0.104-1.764-0.38-5.273,2.259-5.398c1.111-0.053,1.917-0.262,2.928,0.523c0.834,0.645,1.26,1.654,1.503,2.658
		c0.263,1.082-0.824,3.287-1.901,3.732c-0.915,0.379-1.408,0.83-2.438,0.488C212.198,230.102,211.565,229.438,210.961,228.467
		 M222.373,241.164c-0.36,2.275-2.683,6.033-5.329,5.791c-2.074-0.191-5.52-3.547-5.231-5.766c0.212-1.639,0.671-2.744,1.916-3.893
		c0.762-0.703,2.41-2.195,3.509-2.182c1.22,0.018,2.913,1.498,3.767,2.268C222.096,238.367,222.537,239.729,222.373,241.164
		 M225.83,231.191c-0.189,0.5-0.75,0.799-1.184,1.037c-1.052,0.58-1.729,0.771-2.866,0.217c-2.101-1.027-2.377-3.955-1.326-5.848
		c1.069-1.934,3.946-1.775,5.287-0.301C226.81,227.475,227.426,230.15,225.83,231.191 M227.067,291.951
		c0.948-0.418,1.546-0.605,2.47,0.162c0.891,0.742,0.614,2.025,0.15,3.051c-0.521,1.146-2.374,0.592-2.941-0.158
		C225.963,293.965,226.465,292.895,227.067,291.951 M232.797,310.807c-0.576,1.535-1.314,2.301-2.718,3.08
		c-1.934,1.074-4.1-1.236-4.1-3.135c0-1.033-0.035-2.225,0.644-3.053c0.797-0.969,1.661-0.971,2.815-1.088
		c0.765-0.078,1.866,0.219,2.475,1.172C232.328,308.439,233.237,310.057,232.797,310.807 M245.987,200.295
		c-0.048,0.527-0.098,1.053-0.147,1.58c-0.165-0.646-0.332-1.293-0.497-1.939c-0.212-0.828,0.226-0.727,0.992-1.057
		C246.218,199.35,246.103,199.822,245.987,200.295 M250.977,91.581c-2.021,1.88-4.64,3.714-7.31,4.414
		c-2.974,0.78-6.213,0.729-9.291,0.653c-6.45-0.16-13.197-1.268-19.14-3.889c-6.333-2.793-11.678-6.501-16.784-11.152
		c-2.473-2.251-4.625-4.831-6.726-7.419c-1.938-2.387-3.874-4.967-4.646-7.999c-1.61-6.332,0.084-13.637,3.483-19.095
		c0.421-0.674,0.989-1.223,1.551-1.778c0.94-0.929,0.501-0.789-0.217-1.721c-1.001-1.303-1.591-2.675-1.867-4.292
		c-0.523-3.061,1.393-6.203,3.027-8.582c3.824-5.56,9.704-8.768,16.374-9.492c6.167-0.669,12.88,0.996,17.72,4.957
		c2.563,2.101,4.558,4.556,6.368,7.323c1.85,2.825,2.289,5.306,1.402,8.537c-0.2,0.732-0.402,1.478-0.693,2.177
		c-0.162,0.386-0.903,1.956-0.789,2.291c0.142,0.411,1.45,0.921,1.873,1.228c0.742,0.538,1.475,1.08,2.201,1.639
		c2.592,2,4.815,4.436,6.917,6.93c2.014,2.386,3.83,5.038,5.353,7.762c1.599,2.856,3.311,5.9,4.338,9.019
		c1.752,5.321,2.672,11.943-1.271,16.573C252.264,90.354,251.641,90.971,250.977,91.581 M264.86,125.421
		c-0.477,2.36-2.203,6.271-4.793,6.975c-2.729,0.742-6.344-1.854-7.554-4.147c-1.617-3.065,0.703-6.351,2.475-8.712
		c2.067-2.756,5.854-1.47,7.963,0.499C264.563,121.54,265.211,123.23,264.86,125.421 M287.782,105.75
		c-0.007,2.082-2.44,5.671-4.546,6.158c-2.397,0.554-5.119-3.352-5.558-5.293c-0.563-2.488,2.465-5.087,4.521-5.824
		c1.21-0.434,2.778,0.771,3.701,1.499C286.954,103.121,287.89,104.338,287.782,105.75 M290.4,60.576
		c-1.042,0.894-2.069,1.923-3.427,2.322c-1.699,0.5-3.338,0.783-5.106,0.994c-2.918,0.349-6.638-0.125-9.059-1.94
		c-2.559-1.92-4.55-4.507-5.487-7.612c-0.862-2.86-2.006-6.386-0.748-9.317c1.345-3.137,3.514-5.386,6.555-6.913
		c2.6-1.305,6.426-0.947,9.153-0.28c3.19,0.779,6.164,2.229,7.971,5.09c1.696,2.686,2.273,5.885,2.273,9.013
		c0,1.633-0.061,3.214-0.373,4.817C291.864,58.228,291.166,59.318,290.4,60.576 M298.849,139.699
		c-0.831,1.357-1.952,3.882-3.933,3.228c-1.701-0.563-3.637-3.212-3.837-4.975c-0.242-2.147,2.63-4.421,4.706-3.866
		c1.238,0.333,2.109,1.163,2.771,2.215C299.293,137.471,299.488,138.501,298.849,139.699 M307.296,53.544
		c-1.77-2.604-2.558-5.628-2.735-8.752c-0.189-3.365,2.2-6.111,5.297-7.206c3.068-1.085,6.504,0.414,9.144,2.057
		c2.85,1.771,4.172,4.685,4.636,7.887c0.295,2.022-0.277,4.258-0.67,6.229c-0.453,2.273-2.602,2.998-4.584,3.247
		C313.991,57.556,310.341,56.901,307.296,53.544 M338.369,100.845c-0.33,3.303-2.489,5.099-5.057,6.989
		c-2.479,1.825-5.771,3.18-8.899,2.949c-6.459-0.478-11.571-6.758-14.079-12.283c-2.732-6.021-3.277-12.815,0.767-18.451
		c1.93-2.688,4.089-5.038,7.655-5.035c1.511,0.002,2.729-0.084,4.178,0.468c1.656,0.63,3.225,1.325,4.776,2.182
		C336.232,82.364,338.369,91.854,338.369,100.845 M343.557,215.387c-0.487,2.691-1.235,6.307-3.268,8.266
		c-2.477,2.389-5.316,2.227-8.464,1.455c-2.896-0.709-5.549-2.678-6.265-5.682c-0.68-2.854-0.189-6.404,1.061-9.061
		c0.968-2.059,2.084-3.494,4-4.725c1.885-1.211,4.139-0.914,6.095-0.168c2.052,0.781,3.975,1.893,5.31,3.678
		C343.45,211.057,343.641,213.078,343.557,215.387 M348.201,194.846c-0.209,2.215-2.57,5.107-4.742,5.721
		c-2.641,0.746-4.517-2.541-4.817-4.74c-0.166-1.219,0.135-2.578,0.92-3.557c0.471-0.588,0.898-1.031,1.479-1.512
		c0.458-0.381,1.29-0.383,1.875-0.518C344.824,189.803,348.467,192.617,348.201,194.846 M356.353,213.918
		c-0.244,0.67-0.524,1.33-0.889,1.934c-0.338,0.563-1.232,0.736-1.928,0.736c-1.801,0-3.268-1.502-2.915-3.322
		c0.321-1.662,1.513-3.541,3.459-3.162C355.746,210.43,356.893,212.426,356.353,213.918 M361.49,194.301
		c-0.692,2.297-2.347,6.07-4.94,6.703c-2.355,0.572-5.686-2.219-6.717-4.205c-1.498-2.896,0.99-6.18,2.955-8.078
		c1.21-1.17,2.625-1.381,4.089-0.646c1.46,0.73,2.773,1.561,3.779,2.871C361.434,191.959,361.564,193.07,361.49,194.301
		 M379.619,162.531c-0.162,2.861-2.29,5.729-4.542,7.355c-2.538,1.832-4.979,0.576-7.116-1.418c-2.512-2.342-2.839-5.4-1.367-8.377
		c0.656-1.324,1.691-2.625,2.852-3.555c0.634-0.512,1.346-0.813,2.091-1.111c0.934-0.375,1.552-0.066,2.386,0.318
		C376.777,157.059,379.619,159.109,379.619,162.531 M396.466,126.675c-0.125,1.48-0.302,3.004-1.877,3.486
		c-0.209-2.317-0.525-4.415-0.171-6.756c0.084-0.568,0.168-1.13,0.295-1.689c0.123-0.544,0.501-1.107,0.568-1.635
		c0.141-1.086-0.243-2.38-0.246-3.488C396.337,119.896,396.799,123.138,396.466,126.675 M410.35,131.362
		c-0.176,0.571-0.616,1.128-0.704,1.707c-0.18,1.188-0.356,1.277-1.123,2.161c-0.527,0.607-0.94,1.313-1.348,2.001
		c-0.253,0.429-1.418,0.774-1.767,0.288c-0.203-0.287,0.145-1.616,0.299-1.89c0.486-0.859,1.092-1.544,1.734-2.298
		C407.783,132.931,410.148,130.538,410.35,131.362 M279.333,243.344c-0.984,0.16-1.154,0.076-1.834,0.824
		c-0.608,0.672-1.197,1.375-1.845,2.01c-1.168,1.143-1.676,3.027-2.229,4.529c-1.174,3.197-2.091,6.439-2.977,9.723
		c-1.642,6.092-2.2,12.896-1.742,19.184c0.1,1.389,0.201,2.777,0.302,4.166c0.532-6.799,1.206-13.41,2.908-20.025
		c0.835-3.244,2.276-6.375,3.82-9.332c1.55-2.967,4.022-5.584,4.963-8.773c0.239-0.816,0.442-1.643,0.659-2.469
		C280.689,243.25,280.011,243.365,279.333,243.344 M172.725,187.326c-0.816,0.85-1.631,2.633-2.026,3.76
		c0.755-0.281,0.76-0.053,1.193-0.836c0.248-0.447,0.594-0.84,0.833-1.289c0.375-0.707,0.526-1.545,0.444-2.398
		C173.021,186.816,172.873,187.072,172.725,187.326 M181.814,238.549c-0.594-0.055-1.186-0.109-1.777-0.164
		c0.426,1.072,1.452,0.451,2.42,0.273C182.245,238.619,182.029,238.568,181.814,238.549 M139.329,226.18
		c-0.434-0.258-0.79-0.566-1.187-0.873c-0.64-0.494-0.406-0.51-1.226-0.102c-1.071,0.537-2.172,1.004-3.246,1.537
		c-2.065,1.021-4.46,1.621-6.669,2.256c-4.298,1.232-8.68,1.758-13.115,2.248c4.424,0.297,9.031,0.455,13.406-0.449
		c4.537-0.939,8.763-2.342,13.073-4.02C140.033,226.559,139.679,226.373,139.329,226.18 M155.138,233.318
		c0.135-0.391,0.419-0.646-0.001-0.797c-0.623-0.219-1.245-0.439-1.868-0.66c-1.405-0.498-2.809-0.994-4.213-1.49
		c-2.167-0.766-4.283-1.703-6.418-2.557c3.824,3.465,7.755,5.881,12.549,7.791C155.034,234.816,155.086,234.117,155.138,233.318
		 M201.478,249.066c-1.505-0.623-3.492-1.889-4.034-3.527c-0.309-0.934-0.306-1.742-0.785-2.607
		c-0.534-0.963-1.046-1.936-1.556-2.912c-0.888,0.523-1.755,1.016-2.766,1.254c4.254,5.105,4.016,12.703,3.917,18.998
		c-0.047,3.102-0.628,6.156-1.017,9.186c-0.102,0.773-0.272,1.525-0.427,2.291c-0.208,1.033-0.185,1.432,0.096,2.441
		c0.4,1.441,0.63,2.963,0.569,4.465c-0.063,1.506-0.414,2.895-0.798,4.344c-0.261,0.988-1,1.854-1.402,2.74
		c-0.41,0.91-1.199,1.76-1.864,2.492c-0.687,0.762-0.649,0.643-0.112,1.486c0.345,0.539,0.64,1.135,0.876,1.727
		c1.144,2.879,0.523,5.18-1.507,7.418c-1.978,2.182-4.718,2.834-6.73,0.393c-1.026,0.92-1.997,1.9-3.014,2.834
		c3.195-0.705,5.727,1.873,8.943,0.383c2.656-1.232,4.892-4.373,4.892-7.293c0-1.291-0.076-2.631-0.519-3.896
		c-0.248-0.699-0.854-1.584-0.497-2.24c0.258-0.475,0.571-1.016,0.889-1.539c0.819-1.348,1.133-3.121,1.534-4.623
		c0.448-1.682,0.89-3.365,1.324-5.049c0.688-2.652,0.178-5.131,0.133-7.859c-0.048-2.799-0.104-5.59-0.056-8.389
		c0.051-2.934,0.194-5.852,0.347-8.781c0.069-1.32,0.404-2.25,1.415-3.129c1.147-0.996,2.474-0.324,3.628,0.156
		c0.033-0.254,0.065-0.506,0.099-0.762C202.413,249.266,202.101,249.414,201.478,249.066 M172.773,266.832
		c-0.917-3.328-1.886-6.623-2.915-9.918c0.736,4.703,1.419,9.391,1.907,14.125c0.464,4.518,0.608,8.631-0.721,13.01
		c0.734-1.174,1.63-2.307,2.256-3.539c0.474-0.932,1.897-2.895,1.678-3.922C174.276,273.326,173.542,270.078,172.773,266.832
		 M248.508,283.289c-0.017,1.523-0.035,3.051-0.05,4.574c0.427-1.412,0.689-2.316,0.593-3.76c-0.116-1.742-0.231-3.486-0.346-5.229
		C248.638,280.348,248.572,281.818,248.508,283.289 M159.139,295.438c-1.159,1.58-1.922,3.141-2.309,5.061
		c-0.306,1.527-0.592,3.785,0.629,4.969c-1.334-4.125,1.07-9.029,3.902-11.988C160.537,294.098,159.85,294.693,159.139,295.438
		 M73.375,209.996c-0.47-1.176-0.976-2.344-1.381-3.543c-0.18-0.527-0.159-1.207-0.728-1.408c-0.611-0.213-1.225-0.414-1.842-0.609
		c1.4,3.709,3.572,6.885,6.225,9.811C74.835,212.846,74.089,211.453,73.375,209.996"/>
	<path fill-rule="evenodd" clip-rule="evenodd" d="M415.635,129.889c-0.273-1.352-1.377-4.647-3.062-4.413
		c-0.436,0.061-0.896,0.366-1.124,0.719c-0.041,0.064-1.062,0.037-1.299,0.098c-1.069,0.271-2.048,0.877-2.949,1.484
		c-3.653,2.452-5.956,6.335-6.882,10.559c-0.748-0.953-1.05-2.42-0.597-3.421c0.646-1.427,1.116-3.001,1.831-4.381
		c0.652-1.262,0.898-2.953,1.204-4.337c0.327-1.487,0.885-3.283,0.873-4.808c-0.027-3.104-0.952-6.585-3.508-8.556
		c-2.671-2.057-6.146-1.898-7.76,1.271c-0.166,0.326-0.25,0.704-0.367,1.05c-0.105,0.318-0.551,0.514-0.717,0.84
		c0.322-0.012,0.541-0.118,0.812-0.296c0.33-0.219,0.729,0.202,1.114,0.024c-1.795,2.671-3.171,5.532-3.657,8.75
		c-0.256,1.669-0.458,3.326-0.354,5.021c0.091,1.507-0.091,3.818,0.993,4.929c0.242,0.249,0.941,1.277,1.341,1.082
		c0.504-0.248-0.166-0.648-0.248-0.927c-0.207-0.69,0.091-1.563-0.074-2.288c-0.188-0.826-0.123-1.822-0.191-2.668
		c-0.233-2.902,0.342-6.675,1.578-9.323c0.578-1.236,1.144-2.506,1.899-3.649c0.378-0.571,0.84-1.104,1.255-1.649
		c0.4-0.529-0.751-0.971-1.157-0.803c0.626-1.121,3.28-0.289,4.126,0.217c1.259,0.752,2.133,2.02,2.495,3.434
		c0.782,3.043,0.089,6.396-0.549,9.398c-1.288,6.067-4.425,11.501-9.05,15.572c-1.146,1.007-2.489,1.67-3.735,2.532
		c-0.197,0.135-1.746,1.019-1.932,0.943c-0.513-0.212-0.322-1.56-0.345-1.946c-0.023-0.388-0.407-2.292-0.15-2.577
		c0.193-0.217,2.009-0.17,2.364-0.229c1.262-0.215,2.556-1.031,3.466-1.896c0.93-0.885,1.542-1.922,2.188-2.99
		c0.384-0.637,1.059-0.819,1.427-1.405c0.424-0.681,0.707-1.382,1.063-2.101c0.776-1.573,1.502-3.159,2.065-4.82
		c0.461-1.354,1.458-2.893,1.458-4.324c0-1.627-0.003-3.234-0.222-4.85c-0.099-0.713-0.736-1.082-1.409-1.362
		c-0.922-0.383-1.057-0.104-1.603,0.573c-2.114,2.624-3.09,5.722-3.185,9.063c-0.035,1.339,0.128,3.124,0.762,4.285
		c0.29,0.532-0.159,1.545-0.256,2.118c-0.05,0.287-1.315,1.239-1.568,1.609c-0.479,0.704-0.59,1.27-1.264,1.807
		c-0.614,0.488-0.702,1.177-1.34,1.528c-1.372,0.755-2.547,0.986-4.046,1.25c-0.406-6.583-0.669-13.239-2.004-19.72
		c-1.384-6.715-3.386-13.223-5.979-19.568c-5.095-12.466-12.299-23.754-20.381-34.479c-8.103-10.749-17.354-20.968-28.574-28.541
		c-11.248-7.592-23.351-13.939-35.938-19.003c-12.58-5.062-25.842-7.147-39.289-8.221c-13.738-1.098-27.3-0.227-40.994,1.016
		c-13.095,1.187-26.284,3.58-39.077,6.574c-6.733,1.576-13.366,3.309-19.955,5.417c-6.765,2.164-13.359,4.797-19.975,7.374
		c-5.812,2.261-11.707,4.894-17.289,7.671c-6.125,3.049-12.423,5.902-18.257,9.499c-5.813,3.584-11.479,7.324-16.98,11.372
		c-1.427,1.049-2.698,2.244-3.98,3.463c-0.44,0.418-0.863,1.408-1.416,1.636c-0.785,0.325-1.579,0.639-2.36,0.977
		c-3.306,1.427-6.379,3.075-9.471,4.917c-1.946,1.16-3.907,2.581-5.715,3.952c-1.026,0.779-1.981,1.633-2.955,2.478
		c-0.316,0.275-0.634,0.675-1.043,0.793c-0.541,0.157-1.661,0.212-1.881,0.814c-1.277-0.857-2.622-1.758-4-2.476
		c-1.492-0.775-2.874-1.785-4.584-1.313c-1.502,0.414-3.388,0.613-4.077,2.131c-0.312,0.689-1.029,0.957-1.554,1.487
		c-0.638,0.646-1.238,1.331-1.855,1.994c-4.58,4.934-7.762,11.012-11.918,16.293c-2.043,2.594-4.402,4.96-6.75,7.276
		c-0.946,0.934-1.994,1.828-3.202,2.428c-1.476,0.732-3.023,1.103-4.567,1.669c-0.659,0.244-1.315,0.515-1.953,0.81
		c-0.408,0.188-0.807,0.397-1.208,0.598c-0.397,0.195-0.096,0.646-0.002,1.036c0.374,1.556,0.837,3.064,1.466,4.537
		c1.325,3.105,3.083,5.842,5.07,8.558c1.335,1.828,3.374,3.534,5.739,3.418c2.57-0.126,4.386-2.21,5.929-4.032
		c3.35-3.959,6.111-8.193,8.843-12.589c0.959,0.625,2.848,1.21,2.517,2.609c-0.415,1.756-0.835,3.495-1.338,5.228
		c-0.985,3.397-1.714,6.821-2.369,10.296c-0.12,0.636-0.177,1.284-0.258,1.926c-0.059,0.465-0.003,2.354-0.377,2.648
		c-1.34,1.056-2.458,2.224-3.583,3.505c-2.084,2.371-4.092,5.228-5.361,8.132c-2.027,4.642-3.093,10.623-0.141,15.066
		c1.313,1.977,3.345,3.682,5.625,4.416c2.522,0.814,4.938,0.547,7.51,0.176c-0.401,0.535-0.835,1.004-1.038,1.637
		c-0.084,0.266-0.044,0.629-0.148,0.871c-0.122,0.283-0.438,0.441-0.543,0.764c-0.157,0.48-0.077,1.482,0.015,1.986
		c0.058,0.318,0.066,0.711,0.183,1.01c0.125,0.322,0.493,0.424,0.493,0.836c0,1.16-0.032,1.213,0.916,1.891
		c0.466,0.334,0.813,0.684,1.377,0.873c1.469,0.492,2.935,0.941,4.426,1.359c-0.916,0.4,1.007,3.211,1.332,3.896
		c0.401,0.842,0.61,1.613,1.383,2.139c0.788,0.535,1.318,1.084,1.964,1.797c1.017,1.123,2.197,2.207,3.466,3.041
		c0.505,0.33,1.581,0.75,1.847,1.297c0.452,0.928,0.903,1.855,1.355,2.783c2.847,5.848,8.08,10.693,13.601,13.955
		c0.694,0.41,1.406,0.777,2.124,1.145c0.343,0.18,0.056,1.539,0.334,1.912c1.102,1.484,2.226,2.936,3.38,4.377
		c1.982,2.473,4.154,4.822,6.507,6.947c5.098,4.598,10.813,8.068,17.182,10.607c12.121,4.838,25.879,5.311,38.307,1.434
		c0.858-0.266,4.835-2.205,5.282-1.654c-0.471,0.027-0.899,0.244-1.335,0.438c5.498,4.082,11.248,7.262,17.795,9.328
		c1.508,0.475,3.039,0.885,4.578,1.25c0.958,0.225,3.701,0.555,4.058,1.193c0.273,0.49-0.116,1.373,0.098,1.953
		c0.357,0.971,0.716,1.943,1.077,2.916c0.541,1.469,0.929,3.025,1.34,4.537c1.823,6.715,2.813,13.398,3.207,20.342
		c0.187,3.32,0.058,6.68-0.06,9.998c-0.04,1.059-0.356,0.662-1.127,1.27c-0.417,0.33-0.621,1.377-0.831,1.867
		c-0.626,1.471-1.656,2.498-2.844,3.543c-1.964,1.727-3.789,3.539-5.649,5.373c-1.631,1.607-3.474,3.594-4.481,5.637
		c-1.233,2.508-1.772,4.705-1.575,7.512c0.061,0.893,1.594,1.338,2.349,1.533c1.25,0.318,1.996-0.043,3.162-0.385
		c-0.421,1.504,7.177,2.695,8.32,2.805c2.804,0.264,5.541,0.34,7.982-1.004c0.683-0.375,1.927-1.727,1.927-2.588
		c0-1.615,2.787-0.836,3.753-1.227c0.637-0.258,1.098-0.975,1.717-1.295c0.47-0.246,0.939-0.49,1.408-0.734
		c0.355-0.186,0.749,0.271,1.058,0.473c0.785,0.51,3.133,2.002,4.082,1.596c1.245-0.529,3.662-1.113,4.432-2.221
		c0.224-0.322,0.269-0.791,0.445-1.143c0.158-0.318,0.583-0.68,0.692-0.98c0.23-0.639-0.093-1.893-0.15-2.525
		c-0.146-1.604-0.305-3.205-0.569-4.793c-0.123-0.738-0.244-1.475-0.382-2.211c-0.105-0.557-0.209-1.113-0.314-1.672
		c-0.111-0.588,0.337-0.428,0.476-0.898c0.341-1.152-1.015-0.885,0.309-1.74c0.635-0.412,1.179-0.904,1.662-1.484
		c0.78-0.939,1.271-2.156,1.511-3.348c0.089-0.443,0.657-1.08,0.615-1.471c-0.104-1.023-0.208-2.045-0.313-3.066
		c-0.136-1.33-0.199-2.678-0.238-4.014c-0.13-4.4-0.359-8.678,0.26-13.049c0.281-1.979,0.578-4.07,1.197-5.977
		c0.32-0.984,0.571-2.031,0.984-2.984c0.39-0.891,1.309-2.172,1.128-3.191c1.382,1.053,2.688,2.125,3.987,3.279
		c0.342,0.305,0.387,1.189,0.677,1.623c0.195,0.283-0.003,0.666,0.078,0.982c0.08,0.316,0.382,0.547,0.494,0.873
		c0.245,0.711,0.235,1.652,0.426,2.4c0.228,0.9,0.535,1.783,0.809,2.672c0.335,1.086,0.807,2.139,1.255,3.188
		c2.746,6.439,5.565,12.857,8.211,19.342c0.778,1.904,1.558,3.813,2.337,5.721c0.234,0.576,0.055,1.467,0.055,2.074
		c0,0.434,0,0.863,0,1.295c0,0.229-0.391,0.637-0.446,0.908c-0.063,0.311,0.112,0.697-0.063,0.973
		c-0.168,0.256-0.458,0.521-0.505,0.818c-0.129,0.779-0.308,1.494-0.537,2.248c-0.523,1.738-0.596,2.889,0.045,4.613
		c0.05,0.139-1.231,1.404-1.424,1.654c-0.493,0.639-0.957,1.295-1.326,2.014c-0.712,1.389-1.475,2.813-2.011,4.279
		c-1.217,3.332-2.084,6.582-2.718,10.07c-0.054,0.295,1.954,1.277,2.202,1.414c0.744,0.41,1.609,0.637,2.416,0.887
		c1.653,0.51,3.536,0.223,5.208,0.02c0,1.158,0.5,0.893,1.597,1.055c0.697,0.105,1.405,0.193,2.107,0.254
		c1.46,0.129,2.951,0.186,4.416,0.145c1.53-0.045,3.044-0.139,4.565-0.316c0.777-0.09,1.552-0.205,2.326-0.313
		c0.434-0.059,1.229-1.559,1.509-1.93c0.334-0.439,0.348-1.189,0.591-1.703c0.358-0.758,0.705-1.557,1.168-2.258
		c0.708-1.078,1.37-2.207,1.901-3.379c0.077-0.172-0.011-0.539,0.073-0.654c0.161-0.215,0.71-0.279,0.938-0.381
		c0.511-0.227,0.874-0.51,1.337-0.766c1.311-0.723,1.875-2.004,2.319-3.377c1.602,0.607,3.204,1.148,4.892,1.473
		c0.996,0.191,1.541,0.412,2.348-0.184c0.781-0.574,1.581-1.129,2.345-1.725c2.905-2.27,5.344-4.969,7.756-7.738
		c0.787,1.408,1.754,2.463,3.354,2.9c0.828,0.227,0.945,0.02,1.09-0.723c0.165-0.83,0.455-1.58,0.79-2.355
		c0.632-1.469,1.631-2.928,2.703-4.111c0.254-0.279,1.498-1.193,1.498-1.447c0-0.354,0.095-0.846,0-1.184
		c-0.095-0.334-0.542-0.543-0.542-0.941c0-0.895-0.144-1.074-0.444-1.783c-0.306-0.719-0.146-1.744-0.173-2.506
		c-0.06-1.783-0.046-3.539-0.007-5.322c0.075-3.357,0.374-6.68,0.719-10.02c0.677-6.549,2.477-13.031,5.233-19.012
		c0.774-1.68,1.619-3.281,2.507-4.902c0.255-0.463,1.81-4.127,2.235-4.182c3.41-0.434,6.76-0.969,10.116-1.723
		c0.104-0.023,0.209-0.047,0.315-0.07c0,1.061,0.063,1.283,0.539,2.156c0.42,0.771,0.676,1.518,0.878,2.371
		c0.366,1.529,0.784,3.041,1.11,4.58c0.686,3.236,1.086,6.479,1.299,9.777c0.217,3.35,0.879,6.643,0.963,9.998
		c0.08,3.145-0.167,6.236-0.713,9.33c-0.102,0.568-0.279,0.367-0.667,0.723c-0.444,0.408-0.485,0.773-0.546,1.336
		c-0.148,1.41,0.277,1.801,1.263,2.744c0.498,0.477,1.752,1.424,1.752,2.076c0,0.988,0.281,1.977,0.296,2.971
		c0.024,1.678-0.217,3.797-1.021,5.297c-0.259,0.48-1.453,2.008-1.311,2.529c0.152,0.563,1.284,1.387,1.691,0.619
		c-0.916,3.365-1.428,6.6-1.254,10.096c0.06,1.197-0.063,1.275,0.984,1.854c0.688,0.379,1.441,0.686,2.194,0.912
		c1.428,0.428,3.105,0.574,4.584,0.371c1.685-0.234,3.392,0.01,5.093,0.01c1.51,0,3.19-0.352,4.62-0.809
		c1.707-0.547,3.255-1.238,4.823-2.105c0.61-0.338,1.201-0.725,1.808-1.076c0.267-0.156,0.366-1.27,0.377-1.611
		c0.054-1.695,0.071-3.395,0.199-5.086c0.084-1.102,0.168-2.203,0.253-3.303c0.054-0.711,0.976-0.758,1.532-1.127
		c1.135-0.752,1.66-1.576,1.66-2.945c0-1.361-1.376-2.383-0.79-3.68c0.564-1.248,0.188-3.27,0.31-4.605
		c0.17-1.887,0.358-3.762,0.587-5.643c0.177-1.467,0.234-3.275,1.084-4.496c0.979-1.408,2.091-2.656,3.268-3.906
		c0.929-0.986,1.998-1.912,2.949-2.828c1.112-1.076,1.467-2.869,1.764-4.316c0.29-1.416-0.075-2.893,0.128-4.309
		c0.219-1.533,0.709-2.773,1.47-4.115c3.459-6.105,6.913-12.197,10.177-18.41c1.411-2.686,3.611-4.389,5.528-6.701
		c0.915-1.102,1.965-2.131,2.907-3.217c1.073-1.236,2.024-2.551,3.039-3.834c1.869-2.357,3.342-5.207,4.763-7.852
		c0.695-1.295,1.225-2.68,1.944-3.965c0.89-1.588,1.946-3.104,2.913-4.646c7.027-11.205,13.646-22.598,16.798-35.566
		c1.928-7.936,2.661-15.832,2.867-23.979c1.146,0.311,2.433-0.986,3.31-1.552c1.175-0.762,2.266-1.745,3.297-2.681
		c2.299-2.082,4.25-4.487,5.988-7.047c-0.188,0.834-0.253,1.3,0.347,1.961c0.264,0.291,0.516,0.536,0.815,0.789
		c0.512,0.434,0.327,0.486,0.271,1.119c0.968-0.514,1.357,0.045,2.396,0.117c1.157,0.079,2.04-0.08,3.144-0.417
		c1.771-0.542,2.405-2.052,3.495-3.364c1.19-1.433,1.833-3.476,0.741-5.195c-1.378-2.18-4.022,0.525-5.182,1.556
		c0.948-1.342,1.997-2.41,3.278-3.431c0.504-0.404,3.58-2.629,4.083-2.071c0.406,0.447,0.788,1.164,1.392,1.104
		c0.772-0.077,0.153,1.345,0.067,1.722c-0.159,0.698-0.117,1.447-0.323,2.078c-0.201,0.614-0.336,1.218-0.467,1.798
		c-0.617,2.704-3.648,4.725-5.761,6.174c-1.009,0.691-2.657,0.928-3.849,1.126c-1.223,0.202-3.394,0.234-4.547-0.271
		c-0.534-0.233-0.999-1.535-1.729-1.525c-0.204,0.002-0.992,0.696-1.037,0.871c-0.074,0.29,0.284,0.904,0.396,1.145
		c0.195,0.432,0.919,2.18,1.403,2.245c1.032,0.139,2.062,0.229,3.092,0.37c-0.935,0.513,0.017,3.284,0.247,4.087
		c0.438,1.535,1.133,3.021,2.112,4.279c0.95,1.223,2.087,2.123,3.437,2.869c0.579,0.32,3.745,2.016,3.887,0.371
		c0.039-0.463-0.891-1.152-1.191-1.512c-0.477-0.576-0.863-1.217-1.237-1.861c-0.781-1.344-1.262-2.814-1.539-4.34
		c-0.13-0.713-0.642-4.458,0.087-4.798c1.415-0.66,2.531-1.461,3.758-2.365C413.353,139.393,416.132,134.117,415.635,129.889
		 M395.035,125.804c0.326-1.584,0.677-2.997,1.373-4.461c0.122-0.259,0.938-1.493,0.951-1.136c0.029,0.756-0.003,1.493-0.003,2.244
		c0,2.785-0.96,5.25-2.075,7.711C394.821,128.87,394.98,127.161,395.035,125.804 M33.806,161.223c-3.439,0-6.296-0.598-9.213-2.484
		c-0.876-0.566-0.715-3.553-0.843-4.635c-0.164-1.377-0.008-3.172,0.392-4.494c0.951-3.145,2.035-6.125,3.966-8.81
		c2.096-2.917,4.601-4.905,7.586-6.854c0.515-0.335,1.067-0.685,1.632-0.921c0.437-0.184,0.873-0.367,1.31-0.548
		c0.359-0.15,0.342-0.639,0.802-0.758c0.309-0.08,1.187-0.172,1.187-0.604c0-0.399,1.676-0.058,1.973-0.031
		c3.244,0.282,6.359,1.294,9.386,2.436c0.74,0.279,1.447,0.706,2.155,1.055c0.631,0.312,1.635,0.614,2.146,1.145
		c0.409,0.428,0.481,1.365,1,1.671c0.81,0.479,1.58,0.964,2.349,1.509c2.57,1.822,4.919,4.064,6.838,6.567
		c1.785,2.328,2.93,6.184,2.763,9.127c-0.096,1.697-0.405,2.986-1.622,4.207c-1.001,1.006-2.169,2.08-3.471,2.695
		c-1.429,0.674-3.131,0.523-4.645,0.428c-1.614-0.105-3.237-0.221-4.841-0.428c-3.228-0.42-6.348-1.449-9.563-1.83
		C41.21,159.207,37.585,160.645,33.806,161.223 M197.276,249.557c-0.31,0.832-0.501,1.637-0.694,2.506
		c-0.141,0.641-0.752,0.943-0.813,1.582c-0.171,1.836-0.329,3.648-0.401,5.49c-0.136,3.512-0.392,7.02-0.607,10.527
		c-0.186,3.021,0.919,5.896,0.579,8.92c-0.3,2.664-1.538,5.039-3.641,6.695c-0.479,0.377-1.289,0.736-1.289,1.426
		c0,0.803-0.212,1.359-0.033,2.17c0.399,1.793,0.76,3.582,1.092,5.389c0.286,1.539,0.378,3.141,0.536,4.703
		c0.112,1.109,0.151,1.238-0.518,2.084c-0.261,0.33-0.84,0.781-1.297,0.982c-0.459,0.205-1.215,0.453-1.708,0.383
		c-0.507-0.068-2.166-0.701-2.348-1.17c-0.299-0.773-0.663-0.994-1.161-1.555c-0.609-0.686-1.017-1.73-1.483-2.521
		c-0.333-0.566-0.639-1.145-0.946-1.73c-0.123-0.236-1.042-2.432-1.398-1.904c-1.05,1.549-0.531,2.688,0.087,4.303
		c0.382,0.994,1.028,1.881,1.667,2.725c-0.356,0.207-0.967,0.52-1.186,0.764c-0.466,0.52-1.683,0.24-2.273,0.273
		c-1.404,0.078-2.958,0.701-3.903,1.742c-0.47,0.518-0.988,1.137-0.988,1.854c0,1.16,0.002,1.244-1.129,1.357
		c-1.75,0.176-3.486,0.316-5.243,0.377c-1.501,0.053-2.981-0.168-4.472-0.27c-0.555-0.039-2.039,0.078-2.346-0.348
		c-0.515-0.707-0.24-0.951,0.139-1.723c0.703-1.42,1.459-2.807,2.389-4.096c0.337-0.465,3.118-3.578,3.005-3.855
		c-0.548-1.334-4.5,1.693-5.015,2.283c-1.655,1.891-2.4,3.836-2.841,6.273c-0.571-0.447-1.166-0.748-1.828-1.037
		c-0.617-0.264-0.479,0.088-0.691-0.488c-0.133-0.363-0.045-0.891,0.048-1.254c0.299-1.152,1.299-2.887,2.125-3.758
		c2.186-2.309,4.764-4.271,6.791-6.744c2.074-2.529,4.118-5.078,6.182-7.613c0.856-1.051,1.139-3.176,1.477-4.475
		c0.355-1.371,0.422-3,0.422-4.412c0-5.592-0.745-11.596-2.087-17.02c-0.731-2.961-1.524-5.883-2.5-8.771
		c-0.427-1.266-0.896-2.516-1.381-3.76c-0.427-1.1-1.671-2.949-1.493-4.1c5.04,0.744,10.012,1.945,15.002,2.963
		c3.054,0.623,6.116,1.209,9.157,1.895c2.572,0.58,4.931,1.672,7.557,2.066C197.639,248.975,197.458,249.266,197.276,249.557
		 M275.332,248.467c-3.111,5.723-5.146,12.18-6.042,18.639c-0.917,6.627-1.619,13.258-1.45,19.961
		c0.057,2.268,0.177,4.504,0.349,6.768c0.044,0.568-1.028,1.42-1.445,1.932c-0.597,0.732-1.162,1.486-1.735,2.236
		c-0.878-0.818-2.011-1.738-3.315-1.498c-0.509,0.092-1.327,0.311-1.675,0.734c-0.367,0.447-0.435,1.129-0.844,1.605
		c-1.855,2.156-3.604,4.305-5.683,6.258c-0.361,0.34-0.948,1.219-1.378,1.348c-0.476,0.143-1.516-0.467-2.028-0.555
		c-1.353-0.236-2.723-0.512-4.102-0.469c-0.989,0.031-1.157,0.244-1.502-0.639c-0.271-0.701-0.586-1.055-0.715-1.818
		c-0.249-1.457-0.398-2.836-0.398-4.313c1.488,0.518,2.201-1.707,2.866-2.727c0.83-1.271,1.422-2.693,2.018-4.086
		c1.212-2.844,1.841-6.297,1.947-9.381c0.229-6.627,0.142-13.223-0.604-19.82c-0.287-2.529-0.702-5.035-1.131-7.547
		c-0.35-2.037-0.386-5.266-2.033-6.629c2.203-0.805,4.666-2.205,7.02-2.328c3.042-0.162,6.083-0.34,9.123-0.529
		c5.053-0.313,10.026-0.926,15.081-0.793C276.881,246.033,276.106,247.25,275.332,248.467 M244.653,255.115
		c-0.041-0.932-0.813-5.92,0.297-5.939c-0.143,1.24,0.348,2.771,0.531,4.004c0.335,2.252,0.671,4.506,1.006,6.76
		c0.424,2.844,0.661,5.711,0.948,8.563c0.669,6.625,0.163,13.605-1.48,20.055c-0.557,2.186-0.985,5.203-2.587,6.826
		C243.579,281.934,245.001,268.586,244.653,255.115 M381.993,152.287c-0.639,12.553-2.902,25.424-9.029,36.529
		c-3.25,5.891-6.272,11.967-9.919,17.623c-0.953,1.482-1.935,2.889-2.611,4.518c-0.284,0.682-0.331,1.479-0.355,2.207
		c-0.031,0.805-0.514,1.342-0.935,2.029c-1.797,2.941-3.628,5.738-6.045,8.215c-2.413,2.471-4.851,4.654-6.922,7.455
		c-1.953,2.645-3.612,5.57-4.964,8.553c-1.257,2.775-3.312,4.943-4.903,7.498c-1.829,2.93-3.299,5.893-4.637,9.074
		c-1.19,2.834-1.837,6.188-2.106,9.236c-0.049,0.537,0.105,1.908-0.381,2.221c-0.836,0.537-1.572,1.059-2.326,1.703
		c-1.275,1.092-2.241,2.416-3.278,3.723c-0.841,1.057-1.125,2.289-1.374,3.578c-0.409,2.1-0.817,4.201-1.225,6.303
		c-0.6,3.088-1.34,6.01-0.794,9.176c0.144,0.834,0.39,1.654,0.593,2.479c-0.857,0.082-1.92,0.754-2.44,1.424
		c-0.667,0.861-0.574,1.375-0.634,2.41c-0.143,2.475-0.272,4.947-0.386,7.424c-0.055,1.229-0.294,1.271-1.488,1.789
		c-0.975,0.424-1.943,0.838-2.963,1.143c-2.063,0.611-4.087,0.611-6.217,0.521c0.203-2.578,0.305-5.107,0.139-7.689
		c-0.081-1.223-0.382-2.352-0.163-3.559c0.128-0.711,0.139-2.736-0.913-1.721c-0.497,0.477-0.394,0.836-0.438,1.516
		c-0.055,0.848-0.156,0.813-0.65,1.373c-0.737,0.838-0.833,2.332-0.914,3.428c-0.193,2.691-0.116,5.121,0.222,7.797
		c-0.812-0.191-5.483-1.113-5.483-1.879c0-1.969,0.614-4.094,1.073-6.004c0.433-1.805,0.882-3.66,1.557-5.387
		c0.427-1.092,0.854-2.186,1.28-3.277c0.268-0.686-0.309-1.494-0.155-2.252c-0.496-0.029-0.983,0.059-1.284,0.488
		c0.137-1.418,0.54-3.223-0.065-4.559c-0.309-0.68-0.633-1.357-1.069-1.967c-0.399-0.559-1.404-1.385-1.236-2.029
		c0.713-2.74,0.903-5.17,0.78-7.99c-0.31-7.127-0.123-14.529-1.399-21.574c-0.581-3.221-1.654-6.266-2.493-9.396
		c-0.146-0.547-0.493-1.031-0.493-1.555c0-0.615,0.019-1.439-0.059-2.143c-0.164-1.5,1.262-2.338,2.118-3.494
		c3.839-5.182,7.67-10.607,10.825-16.24c6.411-11.449,12.74-22.865,17.54-35.107c1.154-2.941,2.279-5.889,3.409-8.838
		c0.161-0.42,0.323-0.842,0.484-1.264c0.151-0.391-0.046-0.336-0.083-0.73c-0.037-0.414-0.135-0.381-0.05-0.816
		c0.062-0.32,0.25-0.656,0.365-0.961c0.551-1.449,1.062-2.91,1.563-4.381c-1.007,0.604-1.829,2.947-2.167,4.063
		c-0.453,1.49-1.707,2.547-2.471,3.93c-1.804,3.26-3.197,6.83-4.779,10.205c-2.677,5.713-5.435,11.375-8.249,17.02
		c-0.837,1.684-1.669,3.369-2.533,5.039c-0.689,1.332-2.199,2.348-3.15,3.518c-2.126,2.617-4.16,5.303-5.984,8.141
		c-0.473,0.736-0.917,1.453-1.322,2.227c-0.125,0.238-0.3,0.855-0.585,0.926c-0.398,0.098-0.62,0.293-0.894,0.596
		c-0.283,0.314-0.229,0.547-0.62,0.793c-0.352,0.223-0.659,0.459-0.987,0.711c-0.629,0.479-1.255,0.957-1.904,1.408
		c-2.721,1.891-5.649,3.754-8.731,5.014c-5.471,2.236-11.342,3.033-17.168,3.883c-2.629,0.385-5.396,0.557-8.054,0.602
		c-2.998,0.045-6.313-0.453-9.199,0.371c2.283-6.166,4.023-12.379,4.649-18.947c0.626-6.563,0.255-13.029-0.83-19.527
		c-0.12-0.713-0.464-1.283-1.199-1.158c-0.565,0.096-0.557,1.205-0.509,1.67c0.156,1.566,0.267,3.148,0.358,4.723
		c0.19,3.189-0.098,6.33-0.098,9.502c0,3.416-0.699,6.838-1.275,10.193c-0.523,3.063-1.305,6.281-2.381,9.186
		c-1.089,2.941-2.418,5.631-3.813,8.422c-0.608,1.219-1.625,2.395-2.412,3.514c-0.988,1.402-2.266,2.65-3.436,3.902
		c-0.561,0.6,0.031,3.576,0.085,4.389c0.107,1.701,0.224,3.396,0.309,5.098c0.166,3.297,0.157,6.596,0.101,9.896
		c-0.121,6.938-1.089,13.789-1.407,20.707c-0.304,6.576,0.17,13.275,1.583,19.709c-1.7,0.346-3.162,0.973-4.743,1.678
		c-0.396,0.178-0.147,1.813-0.147,2.234c0,0.787-0.633,1.59-0.979,2.277c-0.763,1.506-1.533,3.004-2.249,4.533
		c-0.324,0.691-4.07,0.727-4.857,0.805c-1.463,0.143-2.958,0.201-4.43,0.174c-0.213-0.006-2.299-0.072-1.91-0.285
		c0.413-0.225,0.632-2.189,0.757-2.664c0.406-1.51,0.744-3.025,0.952-4.572c0.206-1.535,0.157-3.361,0.662-4.779
		c0.212-0.59,0.556-1.145,0.766-1.744c0.355-1.01-0.619-1.174-1.259-0.434c-0.469,0.539-0.332,1.529-1.087,1.877
		c-0.712,0.33-1.006,0.818-1.237,1.551c-0.52,1.65-1.041,3.295-1.339,5.008c-0.146,0.834-0.326,1.674-0.438,2.516
		c-0.064,0.48,0.085,2.324-0.246,2.615c-0.294,0.258-1.952-0.01-2.422-0.027c-0.812-0.029-1.618-0.105-2.419-0.244
		c-0.693-0.121-1.455-0.133-1.936-0.666c-0.466-0.512,0.136-1.34,0.305-1.896c0.959-3.154,1.802-6.047,3.504-8.91
		c0.828-1.395,1.875-2.863,3.113-3.936c0.722-0.627,1.289-0.9,1.41-1.838c0.136-1.055-0.356-1.105-0.941-1.748
		c-1.036-1.139,0.437-3.758,0.811-5.008c0.41-1.367,0.601-2.863,0.601-4.289c0-1.67-0.189-3.258-0.741-4.842
		c-0.497-1.426-1.441-2.605-1.973-3.994c-1.198-3.137-2.367-6.293-3.639-9.404c-1.304-3.184-2.796-6.322-4-9.543
		c-1.109-2.969-1.313-6.256-2.585-9.156c-1.329-3.027-3.202-5.895-5.938-7.836c-0.401-0.285-0.577-1.496-0.763-1.994
		c-0.243-0.662-0.473-1.344-0.787-1.973c-0.793-1.578-1.586-3.105-2.549-4.59c-1.548-2.383-3.425-4.486-5.641-6.268
		c-1.269-1.02-2.572-1.855-3.975-2.68c-0.917-0.537-1.732-2.117-2.733-2.285c0.427,0.707,0.848,1.387,1.384,2.016
		c-1.21-0.734-0.788,1.51-0.465,1.949c0.732,0.992,1.462,1.984,2.185,2.984c1.299,1.789,2.185,3.785,3.072,5.801
		c-3.172,1.096-6.929,0.84-10.268,0.99c-3.362,0.152-6.732,0.018-10.092-0.1c-1.281-0.045-2.562-0.471-3.807-0.748
		c-2.271-0.51-4.544-1.016-6.816-1.523c-2.867-0.643-5.646-1.533-8.349-2.68c-0.929-0.395-1.844-0.82-2.761-1.242
		c-0.312-0.145-1.171-0.355-1.381-0.637c-0.122-0.166-0.115-0.689-0.221-0.928c-0.389-0.857-1.503-1.678-2.156-2.371
		c-0.717-0.764-0.821-1.426-1.109-2.449c-0.12-0.42-0.17-0.857-0.239-1.289c-0.102-0.625,0.052-0.568,0.587-0.92
		c0.916-0.604,1.831-1.205,2.748-1.805c0.911-0.594,1.81-1.047,2.732-1.555c1.155-0.639,0.877-1.443,0.622-2.525
		c-1.422,0.537-2.86,1.045-4.268,1.621c-0.978,0.402-1.958,0.805-2.936,1.205c-0.572,0.234-0.791-0.016-1.273,0.34
		c-1.306,0.957-2.865,1.389-4.332,2.064c-1.493,0.689-2.985,1.404-4.525,1.982c-6.215,2.336-12.392,3.678-19.035,3.844
		c-12.988,0.326-26.244-5.549-35.897-13.959c-2.455-2.139-4.772-4.439-6.821-6.971c-0.942-1.166-2.624-2.607-2.624-4.127
		c0-1.346-1.951-2.674-2.952-3.408c-1.201-0.885-2.741-1.094-3.966-1.938c-1.397-0.963-2.575-2.293-3.773-3.48
		c-1.149-1.137-2.198-2.359-3.232-3.6c-0.487-0.584-0.949-1.182-1.413-1.787c-0.6-0.781-0.719-1.303-1.067-2.193
		c-0.499-1.285-1.863-2.338-2.803-3.314c-0.988-1.025-1.977-2.039-2.994-3.035c-0.687-0.674-1.374-1.348-2.061-2.02
		c-0.415-0.406-1.135-0.574-1.479-1.004c-0.39-0.484-0.57-1.379-0.914-1.947c-0.375-0.619-0.853-1.137-1.359-1.648
		c4.564,0.602,8.948,0.75,13.537,0.326c-1.663-0.467-3.309-0.879-4.998-1.244c-1.7-0.367-3.192-0.35-4.925-0.291
		c-3.056,0.102-6.337-0.557-8.802-2.482c-0.807-0.629-1.106-0.863-1.407-1.813c-0.207-0.654-0.5-1.338-0.371-1.854
		c0.164-0.648,0.446-1.156,0.507-1.832c0.067-0.746,0.687-1.463,1.019-2.145c0.258-0.527,0.262-1.393,0.87-1.563
		c0.591-0.162,0.629-0.211,1.116,0.137c0.393,0.277,0.812,0.084,1.281,0.014c1.494-0.23,3.03-0.34,4.542-0.207
		c3.422,0.299,6.514,1.076,9.791,2.08c1.579,0.484,3.246,0.561,4.881,0.469c0.68-0.035,1.508-0.043,2.154-0.248
		c1.14-0.357,1.52-0.074,2.646,0.385c1.526,0.623,3.07,1.188,4.631,1.715c0.691,0.234,1.388,0.455,2.084,0.678
		c1.039,0.33,1.204,0.518,1.955,1.219c2.256,2.104,6.284,2.822,9.285,2.934c3.116,0.115,5.992-0.205,8.867-1.4
		c1.51-0.629,2.88-1.264,4.323-2.057c1.218-0.672,2.185-1.842,3.433-2.412c0.358,0.967,1.721,2.793,2.519,1.418
		c0.682-1.176-0.245-2.453-1.013-3.297c-0.461-0.51-1.121-0.848-1.795-0.982c-1.04-0.209-1.283,0.377-2.011,1.021
		c-1.222,1.082-2.355,2.166-3.749,3.045c-2.415,1.523-5.296,2.391-8.157,2.391c-3.217,0-5.758-0.684-8.618-2.123
		c-3.454-1.74-7.139-2.926-10.918-3.707c2.374-1.309,4.501-3.025,5.583-5.557c0.609-1.434,1.019-2.877,1.089-4.441
		c0.036-0.785,0.089-1.592-0.028-2.371c-0.051-0.34,0.094-0.807-0.098-1.092c-0.154-0.223-0.371-0.508-0.371-0.779
		c0-1.703-1.533-2.775-1.533-4.378c0-0.952-1.854-2.421-2.487-3.157c-2.259-2.625-4.682-4.845-7.508-6.848
		c-1.713-1.215-3.319-2.615-5.17-3.636c2.869,0.408,5.693,0.933,8.528,1.539c1.278,0.272,2.575,0.576,3.822,0.967
		c1.156,0.362,2.353,1.127,3.558,1.254c-0.728-1.053-2.869-1.705-4.04-2.243c-1.525-0.7-3.103-1.262-4.685-1.819
		c-3.037-1.07-6.296-1.497-9.487-1.757c-0.627-0.051-1.564,0.105-2.136-0.08c-0.843-0.273-1.689-0.603-2.547-0.821
		c-1.526-0.388-3.034-0.688-4.622-0.521c-1.602,0.167-3.192,0.337-4.726,0.859c-1.472,0.504-2.648,1.276-4.102,1.891
		c-0.104,0.044-0.209,0.089-0.313,0.133c0.387-2.375,0.457-4.771,0.907-7.14c0.477-2.504,0.994-5.037,1.836-7.45
		c0.332-0.95,0.688-2.828,1.357-3.558c0.571-0.622,1.285-0.54,1.112-1.689c-0.169-1.128-1.881-0.757-2.482-1.503
		c-0.825-1.023-1.664-1.341-2.927-1.168c1.277-2.957,2.829-5.894,3.724-9.002c0.898-3.117,2.108-6.322,2.524-9.552
		c0.058-0.444,1.23-0.449,1.483-1.007c0.205-0.454,0.929-0.984,1.419-1.068c0.698-0.118,1.134-0.253,1.668-0.566
		c0.496-0.292,0.34-0.437,1.013-0.529c0.339-0.047,0.745-0.011,1.079,0.064c1.502,0.33,2.915,1.257,4.028,2.299
		c0.432,0.405,1.43,1.125,1.557,1.688c0.06,0.26,0.634,1.889,0.504,2.061c-1.629,2.165-3.469,4.226-5.031,6.435
		c-0.475,0.672-0.95,1.346-1.425,2.019c-0.263,0.371-1.131,1.21-1.131,1.682c0,0.217,0.879,0.875,1.086,0.899
		c0.714,0.085,1.003-0.838,1.483-1.253c1.811-1.567,3.71-3.273,5.306-5.135c0.884-1.029,1.734-2.078,2.619-3.105
		c0.797-0.928,1.272-2.046,2.005-3.039c-0.404-0.133-0.613-0.767-0.79-1.144c-0.184,0.29-0.364,0.582-0.545,0.872
		c-0.374-1.59-0.74-2.889-1.926-4.082c-1.152-1.162-2.29-2.285-3.654-3.199c-1.351-0.904-2.777-1.726-4.301-2.312
		c-1.838-0.707-3.013-0.134-4.715,0.673c-1.352,0.638-2.399,2.213-3.2,3.41c-0.887,1.326-0.888,3.087-1.176,4.611
		c-0.593,3.145-1.416,6.221-2.54,9.222c-2.239,5.984-5.184,11.906-8.56,17.323c-1.542,2.474-3.931,4.497-6.371,6.009
		c-0.671,0.416-1.368,0.774-2.06,1.157c-0.578,0.32-1.068-1.031-1.45-1.468c-1.074-1.229-2.291-2.405-3.264-3.716
		c-1.759-2.37-3.216-4.787-4.557-7.414c2.87-0.827,5.29-1.77,7.658-3.597c2.51-1.938,4.652-4.417,6.745-6.787
		c2.273-2.575,4.378-5.249,6.331-8.077c1.914-2.771,3.614-5.63,5.709-8.272c1.771-2.233,3.66-4.389,5.839-6.23
		c0.603-0.511,0.958-0.456,1.745-0.564c0.666-0.092,1.411-0.41,2.037-0.477c0.786-0.083,1.195,0.382,1.794,0.853
		c0.686,0.54,1.213,0.542,2.09,0.663c2.641,0.365,4.972,2.317,6.788,4.152c0.511,0.517,0.99,1.045,1.447,1.609
		c0.34,0.419,0.739,1.364,1.17,1.606c0.783,0.442,1.393-0.24,1.949-0.666c0.645-0.492,1.016-0.654,1.807-0.862
		c-0.635-0.235,0.018-0.944,0.148-1.47c-0.633,0.094-1.286,0.255-1.927,0.218c-0.742-0.042-1.26-0.425-1.979-0.844
		c-1.156-0.675-2.873-1.34-3.652-2.425c1.187-0.983,2.093-2.234,3.271-3.188c1.246-1.011,2.532-1.94,3.887-2.8
		c2.855-1.812,5.626-3.631,8.686-5.141c6.107-3.014,12.458-5.251,19.157-6.527c0.878-0.167,1.746-0.354,2.633-0.45
		c0.988-0.106,2.509,0.03,3.418-0.368c0.831-0.363,0.424-0.964,0.075-1.607c-0.441-0.81-1.256-0.784-2.054-0.728
		c-4.149,0.285-7.962,1.402-11.903,2.663c11.157-8.06,22.792-15.063,35.158-21.112c12.174-5.955,25.218-10.432,38.129-14.49
		c13.114-4.123,26.591-7.107,40.123-9.469c13.547-2.365,27.278-3.241,41.003-3.621c6.448-0.179,12.955-0.038,19.383,0.469
		c6.87,0.541,13.656,1.868,20.354,3.453c6.512,1.54,12.885,3.763,19.129,6.15c6.005,2.295,12.124,4.854,17.738,8.003
		c11.626,6.518,22.536,14.342,31.528,24.266c8.889,9.809,16.944,20.573,23.226,32.254c3.25,6.042,6.444,12.115,8.536,18.672
		c1.995,6.252,3.423,12.756,4.322,19.257C381.559,134.716,382.452,143.523,381.993,152.287 M404.669,136.428
		c0.837-1.017,1.883-1.958,3.309-1.688c-0.843,1.048-1.361,2.503-2.42,3.323c-1.343,1.042-2.353,1.248-4.002,1.036
		c0.325-0.899,0.667-1.673,1.138-2.507c-0.233,0.834-0.309,1.646-0.349,2.507c0.285-0.292,0.628-0.493,0.891-0.709
		C403.886,137.855,404.183,137.124,404.669,136.428 M406.248,154.193c-1.532-0.422-2.288-2.781-2.896-4.199
		c-0.688-1.596-1.19-3.168-1.648-4.847c0.819-0.05,1.655-0.302,2.471-0.271C403.174,148.338,403.977,151.432,406.248,154.193
		 M150.246,103.243c-0.125-1.721-0.285-3.416-0.502-5.128c-0.182-1.432-0.008-3.327-1.325-4.19
		c-1.331-0.873-2.971-1.402-4.389-2.148c-1.661-0.873-3.275-1.792-4.896-2.741c-2.84-1.665-5.514-3.636-8.068-5.71
		c-2.552-2.075-5.208-4.286-7.319-6.816c-1.334-1.599-2.292-3.537-3.98-4.818c-1.276-0.968-3.468-2.056-5.039-1.689
		c-1.634,0.382-3.683,1.702-5.118,2.645c-0.89,0.585-1.817,1.126-2.634,1.809c-0.553,0.46-1.105,0.923-1.66,1.383
		c-0.333,0.278-0.218,0.738-0.321,1.138c-0.885-1.212-3.098,2.032-3.411,2.683c-0.754,1.573-1.558,3.081-2.254,4.685
		c-1.344,3.109-2.144,6.435-2.77,9.753c-1.127,5.98-1.411,12.709-0.003,18.67c0.664,2.81,1.188,6.696,3.082,8.988
		c2.159,2.614,5.9,1.914,8.86,1.229c1.723-0.397,3.416-0.799,5.077-1.408c1.489-0.547,2.84-1.436,4.313-1.986
		c0.154-0.058,0.388,0.107,0.543,0.055c0.172-0.059,0.273-0.317,0.445-0.381c0.364-0.137,0.712-0.28,1.087-0.383
		c0.779-0.213,1.063-0.359,1.773-0.877c1.446-1.051,2.899-2.094,4.331-3.17c0.443-0.332,3.766-2.981,3.919-2.829
		c1.146,1.145,2.325,2.115,3.787,2.833c1.486,0.729,2.993,1.164,4.644,1.284c0.356,0.026,2.048,0.173,2.048,0.008
		c0-0.355,1.038-1.173,1.368-1.334c1.031-0.503,1.892-2.362,2.338-3.379c0.63-1.441,0.826-3.02,0.98-4.57
		c0.071-0.708,0.125-1.229,0.354-1.861c0.214-0.595,0.636-1.568,0.247-2.208c-0.654-1.07-0.503-2.271-1.347-3.319
		c-0.816-1.012-2.185-2.116-3.427-1.244c-1.521,1.069-3.031,2.157-4.563,3.207c-2.713,1.857-4.737,4.293-7.045,6.6
		c-2.249,2.246-4.693,4.219-7.307,6.031c-2.357,1.634-5.218,3.19-7.985,4.029c-3.119,0.945-6.12,1.646-9.33,2.107
		c-0.739,0.106-1.442,0.218-2.191,0.278c-0.893,0.069-1.111-0.59-1.473-1.388c-0.673-1.483-1.106-3.011-1.48-4.595
		c-1.539-6.529-1.998-13.289-1.167-19.957c0.421-3.384,1.063-6.486,2.34-9.658c0.563-1.396,1.271-2.708,2.098-3.962
		c0.428-0.651,0.821-1.342,1.334-1.931c0.848-0.968,0.932-1.292,2.202-1.292c0.663,0,1.386-0.698,1.929-1.037
		c0.734-0.457,1.457-0.95,2.211-1.375c1.365-0.772,3.043-2.268,4.641-2.182c0.383,0.021,1.852-0.121,2.131,0.272
		c0.509,0.724,0.994,1.472,1.548,2.164c1.1,1.374,2.308,2.596,3.547,3.847c4.625,4.668,9.988,8.658,15.716,11.862
		c1.546,0.864,3.126,1.626,4.723,2.397c0.548,0.265,1.114,0.486,1.679,0.718c0.542,0.223,2.139,0.557,2.45,1.07
		c0.424,0.699,0.446,1.016,0.446,1.865c0,0.523,0.405,1.359,0.486,1.924c0.25,1.747,0.454,3.495,0.646,5.25
		c0.346,3.16,0.251,6.451,0.251,9.626c2.002,0.001,1.59-3.467,1.629-4.738C150.502,107.314,150.355,105.273,150.246,103.243
		 M133.104,109.347c1.601-1.413,3.019-2.256,5.104-2.818c0.705-0.189,0.777-0.332,1.291,0.179c0.316,0.313,0.484,0.87,0.679,1.275
		c0.469,0.978,1.125,2.133,0.561,3.127c-0.43,0.756-0.893,1.47-1.408,2.169c-0.429,0.582-0.425,0.834-1.139,0.727
		c-0.53-0.08-1.057-0.176-1.58-0.3c-2.032-0.481-3.828-1.414-5.485-2.67C131.787,110.472,132.446,109.908,133.104,109.347
		 M174.404,156.701c-0.78-4.795-1.966-9.425-4.15-13.787c-1.093-2.182-2.375-4.223-3.813-6.192c-0.666-0.909-1.36-1.805-2.117-2.639
		c-0.617-0.681-1.81-2.455-2.665-2.669c1.505,2.784,3.021,5.562,4.502,8.356c1.652,3.116,3.467,6.192,4.628,9.538
		c2.171,6.262,2.431,13.014,1.387,19.543c-0.318,1.982-0.731,3.934-1.183,5.887c-0.446,1.936-1.892,3.322-2.221,5.395
		c1.176-1.652,1.819-3.893,3.685-4.869c0.435-0.227,0.847-2.533,1.015-3.07c0.298-0.955,0.486-1.945,0.681-2.924
		C174.981,165.092,174.881,160.914,174.404,156.701 M181.418,162.477c-1.644-13.064-8.102-25.33-16.796-35.093
		c-1.203-1.353-2.478-2.624-3.751-3.908c-0.463-0.466-0.936-0.654-1.636-0.417c-0.439,0.148-1.796,0.768-1.431,1.382
		c0.234,0.396,1.679,0.373,2.065,0.408c0.737,0.068,1.403,1.32,1.859,1.858c0.986,1.16,1.965,2.342,2.875,3.562
		c4.005,5.367,8.119,11.041,10.887,17.168c2.637,5.832,4.16,12.15,4.335,18.55c0.041,1.455,0.03,2.92-0.046,4.373
		c-0.035,0.65-0.382,1.709,0.31,2.092c0.951,0.525,1.182,0.166,1.246-0.732C181.557,168.609,181.642,165.59,181.418,162.477
		 M59.791,88.421c0.35-0.579-0.214-1.082-0.543-1.525C59.425,87.405,59.606,87.912,59.791,88.421 M82.122,122.315
		c-0.922-3.041-2.596-5.386-5.781-6.321c-0.181,0.301-0.697,0.171-0.915,0.408c-0.204,0.223-0.438,0.392-0.617,0.627
		c-0.663,0.877-0.504,2.082-0.475,3.125c0.064,2.234,0.255,4.907,1.364,6.903c0.507,0.912,1.321,1.957,2.338,2.331
		c0.771,0.284,2.953,0.857,3.401-0.023C82.617,127.05,82.415,124.828,82.122,122.315 M76.687,149.072
		c-0.629-1.879-1.256-3.759-1.885-5.64c-0.224-0.676-0.486-0.875-1.043-1.321c-0.813-0.653-1.352-0.35-2.309-0.123
		c0.546,0.413,1.097,0.813,1.661,1.205c0.368,0.256,0.559,1.31,0.711,1.737c0.444,1.245,0.784,2.508,1.083,3.796
		c0.301,1.289,0.546,2.576,0.729,3.885c0.164,1.158,0.111,2.48,0.362,3.6C76.226,153.9,77.241,151.354,76.687,149.072
		 M60.631,117.575c-0.444-0.903-1.105-2.255-2.223-1.854c-1.104,0.396-2.144,1.324-2.837,2.242
		c-1.372,1.814-1.352,4.512-1.055,6.687c0.128,0.938,1.536,1.541,2.359,1.681c0.911,0.155,2.275-1.183,2.694-1.876
		C60.958,122.16,61.618,120.164,60.631,117.575 M81.281,201.385c-3.384,0.723-6.72,1.01-10.176,0.871
		c0.875,1.033,1.424,1.709,2.815,1.744c1.138,0.029,2.28-0.051,3.42-0.156c1.152-0.105,2.345-0.48,3.447-0.822
		c1.227-0.383,1.589-0.83,2.175-2.018C82.396,201.078,81.835,201.25,81.281,201.385 M36.721,141.661
		c-1.199-0.268-3.241,1.575-4.035,2.385c-1.132,1.151-1.971,2.309-2.701,3.768c-0.689,1.376-1.093,3.039-1.131,4.583
		c-0.022,0.904-0.262,1.566,0.541,2.131c0.623,0.436,1.248,0.717,2.014,0.783c2.847,0.244,5.707-2.357,5.04-5.305
		c-0.174-0.771-0.615-1.396-1.507-1.205c-0.647,0.135-1.082,0.924-1.754,0.924c-0.619,0-0.535-0.572-0.296-0.967
		c0.212-0.35,0.517-0.722,0.667-1.102c0.146-0.372,0.031-0.907,0.248-1.254C34.375,145.486,38.685,142.912,36.721,141.661
		 M47.638,152.939c1.044,0.865,2.187,1.467,3.507,1.779c1.403,0.332,2.293,0.424,2.914-1.016c0.36-0.832-0.204-2.318-0.559-3.254
		c-0.479-1.266-0.92-2.539-1.569-3.731c-0.429-0.786-1.323-3.269-2.367-3.206c-1.532,0.093-0.361,2.588-0.231,3.362
		c0.045,0.268,0.377,1.607,0.124,1.686c-0.664,0.209-0.979,0.494-1.47,0.959C46.728,150.711,46.941,151.498,47.638,152.939"/>
</g>
</svg>
