<?xml version="1.0" encoding="utf-8"?>
<!-- Generator: Adobe Illustrator 12.0.0, SVG Export Plug-In . SVG Version: 6.00 Build 51448)  -->
<!DOCTYPE svg PUBLIC "-//W3C//DTD SVG 1.1//EN" "http://www.w3.org/Graphics/SVG/1.1/DTD/svg11.dtd" >
<svg  version="1.1" id="Layer_1" xmlns="http://www.w3.org/2000/svg" xmlns:xlink="http://www.w3.org/1999/xlink" width="489.093" height="428"
	 viewBox="0 0 489.093 428" overflow="visible" enable-background="new 0 0 489.093 428" xml:space="preserve">
<g>
	<path fill-rule="evenodd" clip-rule="evenodd" fill="#FAF9DB" d="M450.936,241.435c6.312-14.3,11.896-27.154,11.127-43.321
		c-0.433-14.494-3.743-27.831-9.188-41.226c3.62,0.446,8.513-3.851,8.513-7.52c0-7.925-5.764-17.737-9.631-24.352
		c-9.478-16.211-24.909-28.767-41.785-36.779c-37.763-17.92-79.142-26.289-120.809-27.761c-19.459-0.688-44.618-3.274-62.574,5.203
		c-0.392-4.164-3.078-9.828-6.724-12.12c-2.026-1.271-4.445-1.702-6.796-1.72c-1.425-0.013-2.875,0.206-4.259,0.521
		c-5.06,1.16-3.702,2.753-7.018-0.448c-3.663-3.532-5.774-9.498-9.409-13.391c-3.965-4.248-8.528-7.994-13.594-10.848
		c-7.149-4.032-12.27-9.565-20.984-11.749c-10.025-2.511-15.918-0.214-25.17,2.844c-9.516,3.145-21.102-1.07-31.648,1.207
		c-7.498,1.619-14.696,8.868-22.198,6.05c-6.032-2.266-11.219-5.4-16.805-8.453c-2.959-1.619-7.5-3.011-10.753-1.722
		c-4.05,1.604-8.65,10.029-5.077,13.617c5.912,5.938,7.019,9.626,8.736,17.582c1.639,7.596,3.907,13.321,9.936,18.408
		C57.899,69.2,53.244,77.331,47.048,82.255c-5.604,4.45-13.375,7.597-18.445,11.931c-2.766,2.361-1.992,2.217-3.437,5.836
		c-1.419,3.558-3.497,6.734-3.916,10.606c-0.789,7.272,0.776,13.138,5.337,18.799c1.868,2.315,4.661,3.996,6.497,6.208
		c1.52,1.833,2.663,0.417,2.315,3.031c-0.307,2.3-0.754,4.857-0.075,7.146c2.163,7.28,12.357,9.882,18.741,11.153
		c4.67,0.928,4.927,2.887,8.744,4.633c2.047,0.936,6.339-0.492,7.017,0c0.997,0.725,2.433,7.835,3.623,9.642
		c2.376,3.617,5.264,7.198,8.33,10.26c2.265,2.264,7.925,4.612,9.41,7.108c1.782,2.991,1.236,9.985,2.363,13.627
		c2.836,9.173,6.167,16.677,12.539,23.827c14.277,16.024,30.532,29.371,49.102,40.134c-2.418,2.774-1.638,8.085-2.764,11.597
		c-1.317,4.115-3.677,8.069-5.004,12.05c-3.355,10.064-8.337,19.454-11.091,29.666c-2.247,8.335-2.423,18.786-6.012,26.524
		c-1.455,3.135-16.87,15.756-6.497,17.806c-3.856,7.559-0.245,19.974,1.354,27.832c1.21,5.949-1.455,11.872,5.703,13.994
		c10.534,3.118,34.528-12.102,38.949-21.398c2.166-4.555-0.987-4.917,3.207-6.811c1.967-0.887,4.929-0.482,7.095-1.346
		c7.265-2.904,5.59-10.473,11.429-13.918c8.368-4.934,16.053-12.28,21.437-20.35c3.594-5.395,6.353-18.46,11.199-21.626
		c3.836-2.506,11.9,1.017,13.37,5.802c2.4,7.821,1.922,18.845,1.119,26.373c-0.356,3.331-0.263,7.572-1.567,10.699
		c-1.067,2.557-6.6,6.699-3.883,9.876c4.53,5.298-5.586,14.801-8.069,19.194c-4.646,8.205-4.223,13.963,4.334,18.554
		c8.149,4.37,18.874,5.589,27.93,4.075c5.793-0.964,12.63-3.454,16.544-7.929c2.454-2.806,2.949-5.42,2.949-9.173
		c0-4.48,3.15-4.079,6.574-5.192c9.188-2.994,12.262-3.594,14.741-13.515c0.897-3.596,1.377-7.274,1.295-10.982
		c-0.171-7.43,3.929-8.873,7.114-14.932c9.885-18.797,12.123-44.379,4.332-63.9c8.203,1.099,7.316,5.584,11.725,11.745
		c4.579,6.405,10.854,11.468,18.001,14.743c7.425,3.396,13.662,2.845,13.662,12.116c0,5.563-2.077,10.436-1.488,15.865
		c-5.828-0.805-4.971,1.949-6.275,5.687c-1.393,3.981-2.465,6.214-6.199,9.503c-4.222,3.718-18.705,12.772-15.983,20.351
		c2.573,7.152,15.046,1.648,10.643,9.877c-5.059,9.46,8.91,11.656,15.54,12.862c16.649,3.031,31.85-0.882,46.111-8.936
		c6.93-3.913,11.798-12.264,16.634-18.443c5.306-6.775,10.085-14.13,14.433-21.548c7.037-12.003,12.767-24.515,17.917-37.426
		c2.274-5.699,2.011-12.858,1.052-19.1c-0.897-5.838-6.904-15.658-4.703-20.427C447.172,264.937,446.358,251.809,450.936,241.435z"
		/>
	<path fill-rule="evenodd" clip-rule="evenodd" fill="#F9DCE2" d="M137.729,142.149c2.019-6.25-0.273-18.428-1.446-21.29
		c-3.473-8.472-9.254-16.845-11.253-25.706c-1.091-4.829-2.279-10.143-2.606-15.213c-0.317-4.913,1.61-11.385-0.481-15.36
		c-2.052-3.898-6.691-5.13-9.238-5.579c-3.414-0.598-10.265-1.299-13.215-0.675c-6.902,1.464-25.909,12.645-31.201,1.827
		c-4.217-8.618,3.776-16.046,8.266-22.287c7.229-10.055-0.274-8.804-8.249-13.367c-5.272-3.019-9.542-11.656-17.085-8.644
		c-4.048,1.614-8.638,10.026-5.067,13.612c5.912,5.938,7.019,9.626,8.736,17.582c1.639,7.596,3.907,13.321,9.936,18.408
		C57.899,69.2,53.244,77.331,47.048,82.255c-5.604,4.45-13.375,7.597-18.445,11.931c-2.766,2.361-1.992,2.217-3.437,5.836
		c-1.419,3.558-3.497,6.734-3.916,10.606c-0.789,7.272,0.776,13.138,5.337,18.799c1.868,2.315,4.661,3.996,6.497,6.208
		c1.52,1.833,2.663,0.417,2.315,3.031c-0.307,2.3-0.754,4.857-0.073,7.149c4.853,16.309,32.078,10.119,43.537,10.684
		c7.497,0.368,12.194,5.063,19.175,7.221c15.106,4.667,26.58-5.609,33.759-18.162C135.004,146.604,136.813,144.99,137.729,142.149z"
		/>
	<path fill-rule="evenodd" clip-rule="evenodd" fill="#E4E2AB" d="M429.876,224.956c-2.138-5.45-1.179-12.857,0.642-18.232
		c-3.712,4.413-15.005,13.873-20.918,9.286c-0.088-0.098,1.186,0.696,1.137,0.684c-4.756,14.224-19.987,27.641-33.724,32.695
		c-12.347,4.542-31.174,13.212-43.275,3.826c-4.6,9.921-16.835,14.365-27.178,14.821c-6.884,0.305-9.3-1.186-9.734,5.265
		c-0.204,2.976,4.715,15.329-0.691,13.942c-0.794,7.527,1.825,15.004,1.877,22.485c0.062,8.624-2.099,17.459-3.847,25.824
		c-2.101,10.037-7.77,22.221-18.542,19.523c2.689,9.611-2.423,27.045-15.824,25.255c4.607,13.081-10.152,22.219-15.854,31.582
		c5.305,4.109,18.825,0.047,23.708-3.796c6.077-4.785,8.384-13.163,7.987-20.526c10.771-3.023,18.072-2.56,20.872-15.938
		c1.054-5.027,0.227-9.817,2.294-14.534c1.993-4.551,5.197-8.374,7.255-13.038c3.795-8.59,5.614-18.035,5.119-27.865
		c-0.428-8.475,0.74-22.027-2.392-29.747c1.193,0.052,9.972,1.083,10.064,0.661c-2.431,11.152,13.437,24.677,21.853,28.529
		c7.425,3.396,13.662,2.845,13.662,12.116c0,5.563-2.077,10.436-1.488,15.865c-5.828-0.805-4.971,1.949-6.275,5.687
		c-1.393,3.981-2.465,6.214-6.199,9.503c-4.957,4.362-15.467,9.693-16.189,17.099c-1.031,10.536,12.974,8.095,18.147,3
		c3.921-3.859,6.855-10.729,12.805-11.861c-1.479-0.756-2.196-2.138-3.612-2.785c0.915-7.479,10.311-16.347,14.255-23.021
		c3.269-5.535,7.659-21.449,13.1-23.695c-4.282-4.467-6.044-12.145-3.151-17.686c-3.256-3.165-6.63-6.205-9.72-9.374
		c0.993-7.277,8.38-13.235,13.646-17.847c5.785-5.063,10.703-10.911,16.634-15.698c6.182-4.994,12.504-8.734,17.805-14.667
		C419.144,236.673,424.055,229.736,429.876,224.956z"/>
	<path fill-rule="evenodd" clip-rule="evenodd" fill="#E4E2AB" d="M212.997,341.846c6.543-9.821,6.919-22.541,13.421-32.214
		c-6.146-6.086-15.007-14.604-18.376-23.083c-2.929-7.356,3.537-27.186-0.485-31.115c-1.33,1.119-3.289,1.26-4.498,1.959
		c0.1-2.928,1.68-5.826,3.39-8.415c-9.642,7.636-32.78-4.439-39.986-12.475c-3.991-4.448-14.92-29.161-3.351-30.458
		c-5.962-7.556-11.734-13.589-7.708-23.829c2.536-6.445,8.337-13.182,13.751-17.304c6.683-5.084,15.066-6.051,22.584-9.9
		c2.743-1.402,7.855-2.882,9.719-5.279c2.851-3.668,0.964-6.25-4.223-3.746c18.753-9.052,27.452-23.47,20.244-43.628
		c-2.15-6.009-12.179-13.416-8.036-19.611c-2.932-1.786-6.175-2.862-8.645-5.35c-9.879,4.533-19.985,9.114-31.27,5.796
		c4.571,7.915,24.113,19.243,32.11,11.529c5.607,2.493,7.616,12.411,7.904,18.217c1.031,20.794-18.052,36.433-36.954,23.223
		c-3.32-2.32-12.631-20.929-2.877-21.274c-11.877,0.422-23.824-7.018-31.304-15.799c-3.311-3.888-6.101-8.945-8.11-13.643
		c-0.739-1.722-4.317-17.613,0.616-17.273c-7.945-0.546-9.441-15.231-5.952-20.511c-8.346,1.794-9.629,11.137-19.713,7.876
		c-7.723-2.498-9.413-12.811-2.051-17.08c-3.183,0.861-6.857,2.341-9.666,4.522c-2.611,2.026-4.605,6.61-7.405,7.27
		c-10.015,2.37-9.098-11.828-10.546-16.443c-3.296,1.965-5.145,5.597-6.78,9.01c-4.848,10.127-0.419,19.503,11.387,20.619
		c4.042,0.385,10.859-0.618,14.553-1.94c6.19-2.218,5.62-3.14,11.972-1.485c3.782,0.985,10.599,1.227,13.729,4.091
		c3.92,3.586,2.089,7.876,2.129,13.05c0.102,13.306,9.549,32.95,21.009,40.256c4.152,2.648,10.267,3.021,13.242,6.765
		c-4.001,6.156-11.801,5.53-17.107,2.032c1.067,15.334-7.505,28.343-21.397,34.237c-8.469,3.593-29.47,7.798-34.962-3.038
		c-3.477,2.574-8.179,1.625-12.311,1.831c-0.216,6.144,3.706,13.427,7.251,18.279c3.352,4.589,10.147,6.483,12.893,11.096
		c1.782,2.993,1.236,9.985,2.363,13.627c2.836,9.173,6.167,16.677,12.539,23.827c8.843,9.925,19.072,21.212,30.986,27.445
		c9.771,5.115,20.31,9.034,29.484,15.332c-1.302,1.757-1.4,3.755-1.794,5.708c6.675-5.04,5.984,0.363,4.519,5.331
		c-1.593,5.396-2.505,10.965-4.439,16.387c-1.938,5.422-6.129,11.614-6.801,17.307c-0.764,6.477,3.003,5.485,8.548,7.389
		c-10.479,4.491-0.83,8.786-0.098,16.518c0.866,9.149-6.685,17.023-15.641,17.162c13.458,3.088-1.668,22.367-7.026,8.477
		c3.196,5.455,8.228,8.45,13.567,11.235c0.165,0.087,2.484-1.063,3.06-1.066c1.589,9.311,19.75,3.162,24.004-1.382
		c4.692-5.02,6.873-9.111,12.684-13.428C203.303,353.9,208.738,348.233,212.997,341.846z"/>
	<path fill-rule="evenodd" clip-rule="evenodd" fill="#E4E2AB" d="M453.589,152.391c-10.743,7.17-18.348-18.469-23.93-23.795
		c3.669,1.356,20.039,10.191,17.361-0.796C450.637,132.306,461.146,147.346,453.589,152.391z"/>
	<path fill-rule="evenodd" clip-rule="evenodd" fill="#F9DCE2" d="M167.963,47.601c-12.965,2.356-14.575,23.115-5.098,29.516
		c11.992,8.103,28.692,2.911,41.299-0.889c1.284,12.341,15.254-3.725,16.577-8.188c2.516-8.472-0.395-17.727-10.555-15.835
		c-3.181,0.594-8.275,4.345-11.353,3.826c-3.166-0.531-4.857-4.705-7.936-6.945c-9.018-6.554-16.01-1.511-24.254-1.485"/>
	<path fill-rule="evenodd" clip-rule="evenodd" fill="#010101" d="M462.063,198.113c-0.433-14.494-3.743-27.831-9.188-41.226
		c3.62,0.446,8.513-3.851,8.513-7.52c0-7.925-5.764-17.737-9.631-24.352c-9.478-16.211-24.909-28.767-41.785-36.779
		c-37.763-17.92-79.142-26.289-120.809-27.761c-19.459-0.688-44.62-3.274-62.574,5.203c-0.392-4.164-3.078-9.828-6.724-12.12
		c-2.026-1.271-4.445-1.702-6.796-1.72c-1.428-0.013-2.877,0.206-4.259,0.521c-5.063,1.16-3.702,2.753-7.018-0.448
		c-3.666-3.532-5.774-9.498-9.409-13.391c-3.965-4.248-8.528-7.994-13.597-10.848c-7.146-4.032-12.267-9.565-20.981-11.749
		c-10.026-2.511-15.919-0.214-25.17,2.844c-9.516,3.145-21.104-1.07-31.648,1.207c-7.5,1.619-14.697,8.868-22.2,6.05
		c-6.033-2.266-11.22-5.4-16.805-8.453c-2.96-1.619-7.501-3.011-10.753-1.722c-4.05,1.604-8.65,10.029-5.077,13.617
		c5.911,5.938,7.019,9.626,8.735,17.582c1.64,7.596,3.907,13.321,9.936,18.408c-6.926,3.744-11.58,11.875-17.775,16.799
		c-5.605,4.45-13.375,7.597-18.446,11.931c-2.765,2.361-1.991,2.217-3.437,5.836c-1.419,3.558-3.497,6.734-3.916,10.606
		c-0.789,7.272,0.776,13.138,5.337,18.799c1.867,2.315,4.661,3.996,6.496,6.208c1.52,1.833,2.664,0.417,2.315,3.031
		c-0.306,2.3-0.754,4.857-0.075,7.146c2.163,7.28,12.357,9.882,18.742,11.153c4.67,0.928,4.927,2.887,8.743,4.633
		c2.047,0.936,6.34-0.492,7.018,0c0.997,0.725,2.433,7.835,3.624,9.642c2.376,3.617,5.264,7.198,8.33,10.26
		c2.263,2.264,7.925,4.612,9.41,7.108c1.782,2.991,1.235,9.985,2.362,13.627c2.836,9.173,6.167,16.677,12.54,23.827
		c14.277,16.024,30.532,29.371,49.102,40.134c-2.418,2.774-1.64,8.085-2.764,11.597c-1.317,4.115-3.679,8.069-5.004,12.05
		c-3.356,10.064-8.337,19.454-11.091,29.666c-2.248,8.335-2.423,18.786-6.012,26.524c-1.455,3.135-16.872,15.756-6.497,17.806
		c-3.857,7.559-0.245,19.974,1.353,27.832c1.211,5.949-1.454,11.872,5.703,13.994c10.534,3.118,34.526-12.102,38.95-21.398
		c2.166-4.555-0.99-4.917,3.207-6.811c1.964-0.887,4.929-0.482,7.095-1.346c7.265-2.904,5.59-10.473,11.426-13.918
		c8.368-4.934,16.056-12.28,21.439-20.35c3.594-5.395,6.353-18.46,11.199-21.626c3.836-2.506,11.9,1.017,13.37,5.802
		c2.397,7.821,1.922,18.845,1.119,26.373c-0.356,3.331-0.263,7.572-1.567,10.699c-1.067,2.557-6.6,6.699-3.883,9.876
		c4.527,5.298-5.589,14.801-8.069,19.194c-4.646,8.205-4.223,13.963,4.331,18.554c8.152,4.37,18.876,5.589,27.931,4.075
		c5.796-0.964,12.632-3.454,16.546-7.929c2.454-2.806,2.949-5.42,2.949-9.173c0-4.48,3.15-4.079,6.574-5.192
		c9.188-2.994,12.262-3.594,14.741-13.515c0.897-3.596,1.377-7.274,1.295-10.982c-0.171-7.43,3.929-8.873,7.114-14.932
		c9.885-18.797,12.123-44.379,4.332-63.9c8.203,1.099,7.316,5.584,11.725,11.745c4.579,6.405,10.854,11.468,18.001,14.743
		c7.425,3.396,13.662,2.845,13.662,12.116c0,5.563-2.077,10.436-1.488,15.865c-5.828-0.805-4.971,1.949-6.275,5.687
		c-1.393,3.981-2.465,6.214-6.199,9.503c-4.222,3.718-18.705,12.772-15.983,20.351c2.573,7.152,15.046,1.648,10.643,9.877
		c-5.059,9.46,8.91,11.656,15.54,12.862c16.649,3.031,31.85-0.882,46.111-8.936c6.93-3.913,11.798-12.264,16.634-18.443
		c5.306-6.775,10.085-14.13,14.433-21.548c7.037-12.003,12.767-24.515,17.917-37.426c2.274-5.699,2.011-12.858,1.052-19.1
		c-0.897-5.838-6.904-15.658-4.703-20.427c5.126-11.104,4.312-24.231,8.89-34.605C457.248,227.134,462.832,214.28,462.063,198.113
		 M198.508,55.954C199.684,56.281,198.374,55.917,198.508,55.954 M193.878,55.355c0.722,0.547,1.444,1.096,2.166,1.646
		c-8.843,2.784-17.706,5.388-26.662,7.78c10.813,0.336,24.115-0.995,33.752-6.357c6.321-3.517,17.51-7.719,18.897,3.367
		c0.675,5.388-3.285,12.171-8.405,14.963c-1.882,1.026-7.858,5.666-7.353,0.598c0.191-1.917,6.285-6.138,7.095-8.904
		c-9.302,6.837-17.587,10.188-29.276,11.787c-10.849,1.479-29.504-1.47-26.514-17.322c0.83-4.406,4.38-7.062,7.024-10.101
		c3.563-4.107,2.058-2.181,7.466-3.517c4.218-1.042,5.723-3.524,10.678-2.281C188.516,48.457,189.635,52.956,193.878,55.355
		 M64.524,60.442c-5.255-3.586-8.043-13.62-6.796-19.679c0.357,0.191,1.572,0.413,2.315,1.047
		c-0.861-7.265-17.391-13.22-9.56-21.771c6.09-6.649,14.766,3.473,20.566,5.716c2.279,0.882,9.771,1.748,7.291,5.471
		c-2.931,4.395-7.371,7.118-9.401,12.336c-1.48,3.802-3.748,7.471-3.11,11.717C66.222,57.893,68.071,60.625,64.524,60.442
		 M219.942,314.76c-3.444,0.717-2.655,5.112-3.362,8.157c-1.48,6.326-4.476,12.487-8.291,17.732
		c-4.765,6.534-11.065,12.287-18,16.309c-3.042,1.769-4.852,2.393-6.198,4.939c-1.397,2.629-0.175,5.347-2.614,7.857
		c-3.646,3.744-11.726,3.894-12.623-2.47c-2.078,2.214-4.527,2.192-7.393,1.83c-0.802-0.101-6.541-2.414-6.051-2.655
		c-5.177,2.527,8.344,6.668,10.309,6.662c-0.737,3.808,0.515,6.435-2.242,9.5c-2.114,2.354-4.561,4.42-7.02,6.36
		c-4.932,3.888-10.274,6.538-16.131,8.677c-1.163-2.241-7.208-16.599-9.933-15.189c0.794-0.409,3.976,15.923,4.109,16.613
		c-0.771,0.295-2.611,0.489-3.438,0.371c-0.792-9.608-6.118-16.809-4.554-27.755c0.248-1.735,4.087-9.686,3.809-10.478
		c-1.049-2.979-3.687,0.605-6.646-0.67c12.797-8.786,12.209-22.167,15.832-36.14c2.635-10.172,6.167-18.263,9.859-27.61
		c3.274-8.289,4.702-21.081,10.008-28.205c14.856,7.395,29.742,12.378,46.154,14.886c-2.552,10.547,10.534,23.616,17.252,30.231
		C221.866,314.049,220.891,314.611,219.942,314.76 M333.31,379.402c-5.945-3.306,5.352-11.779,8.188-15.159
		c1.753-2.093,8.538-8.204,8.538-11.049c0-6.737,1.619-2.115,5.079-5.439c2.769-2.659,2.935-8.485,3.284-12.644
		c0.407-4.827-0.706-9.467-0.593-14.216c0.103-4.604,1.769-4.612-3.026-6.182c-9.173-2.998-27.027-7.828-30.323-18.81
		c-2.243-7.484,7.115-4.414,11.463-4.004c6.32,0.594,11.843-0.534,17.927-2.055c-0.67,8.126,10.932,20.147,16.319,25.548
		c5.357,5.374-3.032,19.3-6.012,23.832c-3.774,5.733-6.049,11.07-10.756,15.489c-2.242,2.104-8.023,8.304-0.748,8.904
		c-3.563,2.651-6.733,6.038-9.409,9.575C339.389,378.293,340.126,380.227,333.31,379.402 M358.849,288.871
		C358.93,289.191,359.307,290.624,358.849,288.871 M455.638,200.807c-0.598,8.959-1.645,17.472-4.408,26.036
		c-2.825,8.768-10.162,17.165-12.173,25.739c4.723-0.361,7.213-4.721,6.352,3.666c-0.97,9.405-9.92,17.767-10.457,26.188
		c8.396-2.147,8.803,19.377,8.369,23.951c-0.789,8.275-8.26,18.784-11.58,26.631c-8.503,20.104-20.238,39.07-34.428,55.666
		c-1.465-2.65-17.593-17.159-17.402-11.896c0.047,1.397,8.033,6.425,9.333,8.379c1.16,1.74,1.407,3.957,2.764,5.76
		c-10.097,3.767-20.872,6.084-31.515,6.847c-9.596,0.686-5.702-11.235-1.418-15.453c-5.806,2.197-6.007,13.699-12.399,14.443
		c-6.904,0.804-8.843-5.632-7.395-10.85c2.067-7.444,6.981-13.359,13.369-15.639c1.604-0.569,10.653-4.187,4.408-6.92
		c-8.394-3.67,3.058-10.197,6.348-14.927c5.172-7.444,8.105-16.107,12.133-24.166c0.969-1.928,1.959-4.133,2.506-6.214
		c1.135-4.314,2.176-2.582-2.465-6.583c-6.542-5.631-10.802-11.792-13.818-19.676c-3.108-8.135-1.407-9.188,6.347-12.453
		c10.221-4.305,20.042-9.291,29.128-15.679c8.61-6.056,36.577-27.199,33.087-39.285c-16.629,15.912-29.489,33.18-50.489,43.771
		c-5.232,2.643-11.009,4.155-16.206,6.734c-4.486,2.229-7.09,4.758-12.214,6.146c-12.793,3.468-25.25,4.226-38.419,3.506
		c2.449-8.868,0.459-12.895-3.434-20.351c-3.125,3.3,7.043,18.212-3.439,20.577c8.074,19.929,7.703,44.978-3.583,63.673
		c-2.031,3.371-4.491,6.131-6.796,9.314c-2.253,3.113-0.284,9.276-0.599,13.208c-0.624,7.857-2.006,15.819-11.127,16.686
		c1.47-2.604,1.815-5.774,0.222-8.384c-2.49,3.955-2.093,9.079-9.11,8.121c-4.589-0.627-14.164-10.344-17.846-3.853
		c9.539,2.146,17.99,4.661,14.711,16.387c-2.305,8.242-10.297,11.044-18.299,11.447c-2.98,0.149-20.181-0.542-19.955-4.244
		c0.263-4.377,2.063-7.146,3.3-10.874c0.376-1.13,2.196-7.675-0.577-4.146c-3.377,4.295-6.353,9.214-6.219,14.772
		c-6.156-3.097-3.914-9.023-1.531-14.03c1.64-3.439,4.873-7.312,7.657-9.91c0.86-0.81,8.76-5.636,4.929-6.063
		c-4.497-0.5-9.225-4.677-4.63-8.528c2.227-1.872,3.444,0.412,5.228-2.094c1.037-1.465,0.913-5.026,1.119-6.811
		c1.264-10.864,2.47-24.45-2.238-34.456c-4.027-8.546-13.365-13.465-19.417-20.462c-2.48-2.867-15.087-19.686-10.756-20.501
		c-1.382-8.486-14.05-8.486-21.099-11.07c-10.235-3.751-20.475-7.933-29.956-13.359c-16.76-9.596-36.17-21.052-49.416-35.263
		c-6.399-6.863-13.243-16.004-14.654-25.528c-0.892-6.027,0.255-5.398,3.547-6.811c0.09-0.039,5.479,1.98,4.481-0.784
		c-0.851-2.364-6.492-3.671-8.663-4.827c-4.292-2.292-8.291-4.98-11.578-8.605c-2.233-2.462-12.267-14.097-10.379-17.583
		c0.83-1.537,6.871,1.181,9.784-0.036c3.48-1.457,8.482,3.459,12.697,5.424c8.992,4.189,24.471,0.041,32.038-6.435
		c-0.276,0.15-0.549,0.299-0.823,0.449c4.859-4.909,12.22-12.297,12.4-19.529c-4.203,2.988-6.53,9.469-11.055,13.094
		c-4.148,3.32-7.683,6.38-12.844,8.005c-10.57,3.326-24.033,2.14-30.473-8.083c-3.64,4.53-7.469,3.88-12.285,1.387
		c-2.69-1.392-4.83,0.573-7.544,1.609c-3.078,1.173-8.833-2.284-11.985-3.217c-5.322-1.578-16.49-2.073-14.975-10.663
		c1.081-6.138,11.95,1.485,10.045-3.553c-1.147-3.034-4.84-2.537-7.394-3.444c-3.544-1.258-5.839-2.702-8.552-5.424
		c-3.614-3.625-11.351-15.577-6.61-21.063c2.925-3.382,12.419-0.221,17.177-0.221c4.821,0,8.087-5.888,1.942-7.41
		c-3.931-0.975-12.751,8.43-16.58,2.395c-3.357-5.293,7.62-9.17,10.332-10.789c6.944-4.156,14.031-11.509,21.522-14.388
		c4.932-1.895,6.418-10.876,11.315-12.009c3.73-0.864,10.48,2.647,15.608,1.797c3.25-0.541,6.412-1.707,9.337-3.217
		c1.408-0.729,4.662-3.826,6.123-3.893c0.067,0,4.54,2.658,5.153,2.844c4.012,1.219,10.431-0.779,12.623,2.843
		c1.753,2.898,0.209,12.79,1.044,16.685c2.073,9.668,5.432,20.459,12.397,27.758c4.922,5.158,11.256,7.953,18.073,9.652
		c-18.34-7.083-35.327-37.694-25.84-56.339c-2.331,0.113-4.909-1.433-5.525-3.593c-1.304-4.563-1.717-2.269-5.53-1.496
		c-5.355,1.083-12.904,0.069-14.115-6.811c-1.889,1.397-2.163,3.699-0.371,5.537c-7.51,1.81-13.648,6.974-21.733,5.538
		c-7.741-1.377-10.095-6.144-8.292-13.618c3.891-16.133,23.629-29.111,39.656-29.106c4.468,0.005,15.577,5.527,18.356,4.3
		c9.291-4.099,17.827-8.136,28.173-5.346c7.735,2.085,10.638,7.135,16.454,11.013c7.193,4.801,13.406,10.57,18.949,17.195
		c-4.836-3.333-13.4-2.72-15.912-7.783c-1.294,7.354-7.343,7.719-13.216,4.19c4.105,7.744-4.295,10.307-6.724,16.236
		c-4.829,11.777,5.764,23.986,17.253,25.142c5.424,0.541,11.374-0.294,16.655-1.423c3.938-0.843,8.806-3.756,12.694-3.741
		c4.527,0.019,15.855,7.02,6.497,8.979c21.341,17.81,7.374,46.184-10.302,59.332c14.298-7.141,27.596-18.779,24.605-36.737
		c-0.443-2.661-1.011-5.296-1.902-7.855c-1.567-4.478-5.615-7.332-7.245-11.223c-1.856-4.424-0.366,0.665,1.64-2.47
		c0.562-0.876,2.351,0.542,2.093-1.907c-0.093-0.875-0.969-2.697-0.897-3.403c0.794-7.513,14.86-16.564,23.223-18.358
		c8.317-1.787,11.957-0.632,19.196,0.848c10.09,2.063,22.104-0.01,32.442,0.119c23.43,0.289,44.514,1.487,66.938,8.781
		c17.123,5.569,34.844,7.213,50.473,15.68c18.954,10.271,30.324,23.104,40.888,41.414c2.13,3.687,5.337,8.333,5.641,12.905
		c0.485,7.258-9.853,0.459-12.102-1.794c-10.997-11.034-17.061-25.401-29.384-35.577
		C433.049,136.08,456.355,166.197,455.638,200.807 M105.898,84.462c-0.913-4.759-10.338-15.767-7.394-7.672
		c1.465,4.03-2.145,7.755-5.079,3.406C92.404,88.932,107.417,97.285,105.898,84.462 M98.282,194.896
		C98.558,194.669,98.313,194.87,98.282,194.896"/>
</g>
</svg>
